<svg xmlns="http://www.w3.org/2000/svg" xmlns:xlink="http://www.w3.org/1999/xlink" viewBox="0 0 806.62 580.72"><defs><style>.cls-1{isolation:isolate;}.cls-2{fill:#88e0fc;}.cls-3{fill:#ffe4ab;}.cls-4,.cls-70{opacity:0.1;}.cls-4{fill:url(#linear-gradient);}.cls-5{opacity:0.24;fill:url(#linear-gradient-2);}.cls-21,.cls-35,.cls-47,.cls-6,.cls-9{opacity:0.2;}.cls-6{fill:url(#linear-gradient-3);}.cls-7,.cls-8{opacity:0.16;}.cls-7{fill:url(#linear-gradient-4);}.cls-8{fill:url(#linear-gradient-5);}.cls-9{fill:url(#linear-gradient-6);}.cls-10,.cls-20,.cls-37,.cls-57{opacity:0.4;}.cls-11,.cls-67,.cls-68{fill:none;}.cls-12,.cls-15,.cls-17,.cls-20,.cls-21,.cls-70{fill:#fff;}.cls-13{fill:#005380;}.cls-14{fill:#467791;}.cls-15,.cls-51{opacity:0.8;}.cls-16{fill:#6694ac;}.cls-17,.cls-19,.cls-28{opacity:0.6;}.cls-18{fill:#93c4de;}.cls-22{fill:#0071ad;}.cls-23{fill:#8f989e;}.cls-24{fill:#afbac2;}.cls-25{fill:#00b6e3;}.cls-26{fill:#66532d;}.cls-27{fill:#b0a489;}.cls-28{fill:#a68d5c;}.cls-29{fill:#8c7443;}.cls-30{fill:#d6b676;}.cls-31{fill:#755923;}.cls-32{fill:#9c8556;}.cls-33{fill:#c49c4a;}.cls-34{fill:#e0d3b7;}.cls-35{mix-blend-mode:multiply;}.cls-36{fill:#6effca;}.cls-37,.cls-38{fill:#00757d;}.cls-39{fill:#5cb2b8;}.cls-40{fill:#bafbff;}.cls-41{fill:#83d1d6;}.cls-42{fill:#1b798c;}.cls-43{fill:#82c5cf;}.cls-44{fill:#005a69;}.cls-45{fill:#24a5bf;}.cls-46{fill:#7cd7e6;}.cls-48{fill:#4c5663;}.cls-49{fill:#697689;}.cls-50{fill:#9aa8ba;}.cls-51,.cls-52{fill:#d3e6ff;}.cls-53{fill:#f0242b;}.cls-54{fill:#bcd4e8;}.cls-55{fill:#4d8ab8;}.cls-56{fill:#c8cfd6;}.cls-57{fill:#5084ab;}.cls-58{fill:#84aecf;}.cls-59{fill:#84cfc2;}.cls-60{fill:#5db5a9;}.cls-61{fill:#9ae8dc;}.cls-62{fill:#a6faed;}.cls-63{fill:#9efaee;}.cls-64{fill:#e8be87;}.cls-65{fill:#ab744a;}.cls-66{fill:#ad704e;}.cls-67{stroke:#b82900;stroke-width:2px;}.cls-67,.cls-68{stroke-miterlimit:10;}.cls-68{stroke:#871e00;stroke-width:3px;}.cls-69{fill:#bd2900;}.cls-71{fill:#871e00;}.cls-72{fill:#d92f00;}.cls-73{fill:#b06321;}.cls-74{fill:#76d900;}.cls-75{fill:#64b800;}</style><linearGradient id="linear-gradient" x1="307.09" y1="454.19" x2="307.09" y2="245.85" gradientUnits="userSpaceOnUse"><stop offset="0" stop-color="#fc0" stop-opacity="0"/><stop offset="0.29" stop-color="#d59d00" stop-opacity="0.24"/><stop offset="0.88" stop-color="#682200" stop-opacity="0.86"/><stop offset="1" stop-color="#4f0700"/></linearGradient><linearGradient id="linear-gradient-2" x1="385" y1="444.08" x2="385" y2="206.76" xlink:href="#linear-gradient"/><linearGradient id="linear-gradient-3" x1="452.78" y1="458.16" x2="452.78" y2="267.59" xlink:href="#linear-gradient"/><linearGradient id="linear-gradient-4" x1="561.83" y1="455.37" x2="561.83" y2="268.25" xlink:href="#linear-gradient"/><linearGradient id="linear-gradient-5" x1="507.92" y1="488.87" x2="507.92" y2="274.94" gradientUnits="userSpaceOnUse"><stop offset="0" stop-color="#fc0" stop-opacity="0"/><stop offset="0.2" stop-color="#ce9500" stop-opacity="0.28"/><stop offset="0.53" stop-color="#894800" stop-opacity="0.67"/><stop offset="0.81" stop-color="#5e1800" stop-opacity="0.91"/><stop offset="1" stop-color="#4f0700"/></linearGradient><linearGradient id="linear-gradient-6" x1="261.93" y1="465.63" x2="261.93" y2="275.26" xlink:href="#linear-gradient"/></defs><title>Asset 1</title><g class="cls-1"><g id="Layer_2" data-name="Layer 2"><g id="Background"><rect class="cls-2" width="806.62" height="580.72"/></g><g id="Objects"><path class="cls-3" d="M566.92,502.14a223.41,223.41,0,0,0,62.84-155.63c0-123.8-100.36-224.17-224.17-224.17S181.43,222.71,181.43,346.51a223.41,223.41,0,0,0,62.84,155.63Z"/><polygon class="cls-4" points="307.09 263.01 290.75 274.83 290.75 281.62 290.75 454.19 307.09 454.19 323.42 454.19 323.42 281.62 323.42 274.83 307.09 263.01"/><polygon class="cls-5" points="406.48 249.04 406.48 247.52 401.63 247.52 401.63 241.91 401.63 240.28 368.37 240.28 368.37 241.91 368.37 247.52 363.51 247.52 363.51 249.04 363.51 252.49 363.51 253.37 363.51 257.63 363.51 258.52 363.51 262.78 363.51 263.67 363.51 267.93 363.51 268.81 363.51 273.07 363.51 273.96 363.51 278.22 363.51 279.11 363.51 283.37 363.51 284.26 363.51 288.52 363.51 289.4 363.51 293.67 363.51 294.55 363.51 298.81 363.51 299.7 363.51 303.96 363.51 304.85 363.51 309.11 363.51 309.99 363.51 314.26 363.51 315.14 363.51 319.4 363.51 320.29 363.51 324.55 363.51 325.44 363.51 329.7 363.51 330.58 363.51 334.85 363.51 335.73 363.51 339.99 363.51 340.88 363.51 345.14 363.51 346.03 363.51 350.29 363.51 351.17 363.51 355.44 363.51 356.32 363.51 360.58 363.51 361.47 363.51 365.73 363.51 366.62 363.51 370.88 363.51 371.76 363.51 376.03 363.51 376.91 363.51 381.17 363.51 382.06 363.51 386.32 363.51 387.21 363.51 391.47 363.51 392.36 363.51 396.62 363.51 397.5 363.51 401.76 363.51 402.65 363.51 406.91 363.51 407.8 363.51 412.06 363.51 412.94 363.51 417.21 363.51 418.09 363.51 422.36 363.51 423.24 363.51 427.5 363.51 428.39 363.51 432.65 363.51 433.54 363.51 437.8 363.51 438.68 363.51 444.08 385 444.08 406.48 444.08 406.48 444.08 406.48 249.04 406.48 249.04"/><polygon class="cls-6" points="482.64 301.61 482.64 300.39 475.89 293.73 429.67 293.73 422.92 300.39 422.92 301.61 422.92 304.38 422.92 305.09 422.92 308.51 422.92 309.22 422.92 312.64 422.92 313.35 422.92 316.77 422.92 317.49 422.92 320.91 422.92 321.62 422.92 325.04 422.92 325.75 422.92 329.17 422.92 329.88 422.92 333.3 422.92 334.01 422.92 337.43 422.92 338.14 422.92 341.56 422.92 342.28 422.92 345.7 422.92 346.41 422.92 349.83 422.92 350.54 422.92 353.96 422.92 354.67 422.92 358.09 422.92 358.8 422.92 362.22 422.92 362.93 422.92 366.36 422.92 367.07 422.92 370.49 422.92 371.2 422.92 374.62 422.92 375.33 422.92 378.75 422.92 379.46 422.92 382.88 422.92 383.59 422.92 387.01 422.92 387.72 422.92 391.14 422.92 391.86 422.92 395.28 422.92 395.99 422.92 399.41 422.92 400.12 422.92 403.54 422.92 404.25 422.92 407.67 422.92 408.38 422.92 411.8 422.92 412.51 422.92 415.94 422.92 416.65 422.92 420.07 422.92 420.78 422.92 424.2 422.92 424.91 422.92 428.33 422.92 429.04 422.92 432.46 422.92 433.17 422.92 436.59 422.92 437.3 422.92 440.73 422.92 441.44 422.92 444.86 422.92 445.57 422.92 448.99 422.92 449.7 422.92 453.12 422.92 453.83 422.92 458.16 452.78 458.16 482.64 458.16 482.64 458.16 482.64 301.61 482.64 301.61"/><polygon class="cls-7" points="578.02 297.34 578.02 296.2 574.36 296.2 574.36 291.97 574.36 290.75 549.3 290.75 549.3 291.97 549.3 296.2 545.65 296.2 545.65 297.34 545.65 299.94 545.65 300.61 545.65 303.82 545.65 304.49 545.65 307.7 545.65 308.36 545.65 311.57 545.65 312.24 545.65 315.45 545.65 316.12 545.65 319.33 545.65 320 545.65 323.21 545.65 323.88 545.65 327.09 545.65 327.75 545.65 330.96 545.65 331.63 545.65 334.84 545.65 335.51 545.65 338.72 545.65 339.39 545.65 342.6 545.65 343.27 545.65 346.48 545.65 347.14 545.65 350.36 545.65 351.02 545.65 354.23 545.65 354.9 545.65 358.11 545.65 358.78 545.65 361.99 545.65 362.66 545.65 365.87 545.65 366.53 545.65 369.75 545.65 370.41 545.65 373.62 545.65 374.29 545.65 377.5 545.65 378.17 545.65 381.38 545.65 382.05 545.65 385.26 545.65 385.92 545.65 389.13 545.65 389.8 545.65 393.01 545.65 393.68 545.65 455.37 561.83 455.37 578.02 455.37 578.02 455.37 578.02 297.34 578.02 297.34"/><polygon class="cls-8" points="524.11 330.85 524.11 329.7 520.45 329.7 520.45 325.47 520.45 324.25 495.39 324.25 495.39 325.47 495.39 329.7 491.73 329.7 491.73 330.85 491.73 333.44 491.73 334.11 491.73 337.32 491.73 337.99 491.73 341.2 491.73 341.87 491.73 345.08 491.73 345.74 491.73 348.95 491.73 349.62 491.73 352.83 491.73 353.5 491.73 356.71 491.73 357.38 491.73 360.59 491.73 361.26 491.73 364.47 491.73 365.13 491.73 368.34 491.73 369.01 491.73 372.22 491.73 372.89 491.73 376.1 491.73 376.77 491.73 379.98 491.73 380.64 491.73 383.86 491.73 384.52 491.73 387.73 491.73 388.4 491.73 391.61 491.73 392.28 491.73 395.49 491.73 396.16 491.73 399.37 491.73 400.04 491.73 403.25 491.73 403.91 491.73 407.12 491.73 407.79 491.73 411 491.73 411.67 491.73 414.88 491.73 415.55 491.73 418.76 491.73 419.43 491.73 422.64 491.73 423.3 491.73 426.51 491.73 427.18 491.73 488.87 507.92 488.87 524.11 488.87 524.11 488.87 524.11 330.85 524.11 330.85"/><polygon class="cls-9" points="282.73 434.81 282.73 330.69 279.56 330.69 279.56 310.49 274.94 310.49 274.94 293.17 273.68 293.17 273.68 284.34 250.19 284.34 250.19 293.17 248.93 293.17 248.93 310.49 244.31 310.49 244.31 330.69 241.14 330.69 241.14 434.81 238.35 434.81 238.35 465.63 248.93 465.63 253.54 465.63 270.33 465.63 274.94 465.63 285.51 465.63 285.51 434.81 282.73 434.81"/><g class="cls-10"><path class="cls-11" d="M525.81,530.53"/></g><g class="cls-10"><path class="cls-11" d="M288.81,530.53"/></g><g class="cls-10"><path class="cls-12" d="M558.22,198.68a8.59,8.59,0,0,1-8.59,8.59H512.5a8.59,8.59,0,0,1-8.59-8.59h0a8.59,8.59,0,0,1,8.59-8.59h37.13a8.59,8.59,0,0,1,8.59,8.59Z"/><circle class="cls-12" cx="538.18" cy="185.36" r="14.24"/><circle class="cls-12" cx="518.53" cy="188.83" r="9.62"/></g><path class="cls-12" d="M462,210.14a10.23,10.23,0,0,1-10.23,10.23H407.54a10.23,10.23,0,0,1-10.23-10.23h0a10.23,10.23,0,0,1,10.23-10.23h44.19A10.23,10.23,0,0,1,462,210.14Z"/><circle class="cls-12" cx="438.11" cy="194.29" r="16.95"/><circle class="cls-12" cx="414.72" cy="198.41" r="11.45"/><g class="cls-10"><path class="cls-12" d="M419.33,220.51a6.74,6.74,0,0,1-6.74,6.74H383.48a6.74,6.74,0,0,1-6.74-6.74h0a6.74,6.74,0,0,1,6.74-6.74h29.11a6.74,6.74,0,0,1,6.74,6.74Z"/><circle class="cls-12" cx="403.62" cy="210.07" r="11.17"/><circle class="cls-12" cx="388.21" cy="212.79" r="7.54"/></g><g class="cls-10"><path class="cls-12" d="M318.51,169.94a9.7,9.7,0,0,0,9.7,9.7h41.91a9.7,9.7,0,0,0,9.7-9.7h0a9.7,9.7,0,0,0-9.7-9.7H328.21a9.7,9.7,0,0,0-9.7,9.7Z"/><circle class="cls-12" cx="341.13" cy="154.91" r="16.08"/><circle class="cls-12" cx="363.32" cy="158.82" r="10.86"/></g><path class="cls-13" d="M620.9,499.72a12.46,12.46,0,0,1-12.43,12.49H202.9a12.46,12.46,0,0,1-12.43-12.49v-5a12.46,12.46,0,0,1,12.43-12.49H608.46a12.46,12.46,0,0,1,12.43,12.49Z"/><rect class="cls-14" x="331.35" y="299.01" width="30.58" height="168.01"/><rect class="cls-15" x="351.47" y="305.18" width="1.63" height="159.44"/><rect class="cls-15" x="345.83" y="305.18" width="1.63" height="159.44"/><rect class="cls-15" x="340.19" y="305.18" width="1.63" height="159.44"/><rect class="cls-16" x="318.92" y="436.99" width="17.85" height="30.03"/><rect class="cls-17" x="321" y="439.39" width="1.2" height="25.24"/><rect class="cls-17" x="325.16" y="439.39" width="1.2" height="25.24"/><rect class="cls-17" x="329.33" y="439.39" width="1.2" height="25.24"/><rect class="cls-17" x="333.5" y="439.39" width="1.2" height="25.24"/><rect class="cls-18" x="322.2" y="335.57" width="14.58" height="101.43"/><rect class="cls-16" x="324.72" y="339.16" width="1.2" height="94.24"/><rect class="cls-16" x="328.89" y="339.16" width="1.2" height="94.24"/><rect class="cls-16" x="333.05" y="339.16" width="1.2" height="94.24"/><rect class="cls-14" x="325.92" y="315.88" width="10.86" height="19.68"/><g class="cls-19"><rect class="cls-12" x="328.66" y="319.48" width="1.2" height="12.49"/><rect class="cls-12" x="332.83" y="319.48" width="1.2" height="12.49"/></g><rect class="cls-16" x="356.5" y="436.99" width="17.85" height="30.03"/><rect class="cls-17" x="371.08" y="439.39" width="1.2" height="25.24"/><rect class="cls-17" x="366.91" y="439.39" width="1.2" height="25.24"/><rect class="cls-17" x="362.75" y="439.39" width="1.2" height="25.24"/><rect class="cls-17" x="358.58" y="439.39" width="1.2" height="25.24"/><rect class="cls-18" x="356.5" y="335.57" width="14.58" height="101.43"/><rect class="cls-16" x="367.36" y="339.16" width="1.2" height="94.24"/><rect class="cls-16" x="363.19" y="339.16" width="1.2" height="94.24"/><rect class="cls-16" x="359.02" y="339.16" width="1.2" height="94.24"/><rect class="cls-14" x="356.5" y="315.88" width="10.86" height="19.68"/><g class="cls-19"><rect class="cls-12" x="363.41" y="319.48" width="1.2" height="12.49"/><rect class="cls-12" x="359.25" y="319.48" width="1.2" height="12.49"/></g><rect class="cls-18" x="323.26" y="360.4" width="12.71" height="2.32"/><rect class="cls-18" x="357.3" y="360.4" width="12.71" height="2.32"/><rect class="cls-18" x="323.26" y="386.71" width="12.71" height="2.32"/><rect class="cls-18" x="357.3" y="386.71" width="12.71" height="2.32"/><rect class="cls-18" x="323.26" y="413.03" width="12.71" height="2.32"/><rect class="cls-18" x="357.3" y="413.03" width="12.71" height="2.32"/><polyline class="cls-14" points="338.51 435.53 338.51 438.06 354.77 438.06 354.77 435.53"/><rect class="cls-14" x="338.51" y="386.61" width="16.26" height="2.53"/><rect class="cls-14" x="338.51" y="333.04" width="16.26" height="2.53"/><rect class="cls-16" x="332.83" y="290.41" width="27.62" height="8.6"/><rect class="cls-14" x="339.85" y="281.58" width="13.58" height="2.64"/><polygon class="cls-16" points="346.99 240.66 346.64 240.66 346.29 240.66 344.49 281.58 346.64 281.58 348.79 281.58 346.99 240.66"/><rect class="cls-18" x="336.28" y="284.22" width="20.73" height="6.19"/><rect class="cls-20" x="335.14" y="293.9" width="2.4" height="5.1"/><rect class="cls-20" x="340.29" y="293.9" width="2.4" height="5.1"/><rect class="cls-20" x="345.44" y="293.9" width="2.4" height="5.1"/><rect class="cls-20" x="350.59" y="293.9" width="2.4" height="5.1"/><rect class="cls-20" x="355.73" y="293.9" width="2.4" height="5.1"/><path class="cls-14" d="M349.69,267.09a.9.9,0,0,1-.9.9h-4.3a.9.9,0,0,1-.9-.9h0a.9.9,0,0,1,.9-.9h4.3a.9.9,0,0,1,.9.9Z"/><path class="cls-21" d="M346.64,240.66h-.35l-1.12,25.54h-.68a.9.9,0,0,0,0,1.79h.6l-.6,13.6h-4.65v2.64h-3.57v6.19h-3.44V299h-1.48v16.88h-5.43v19.68H322.2V437h-3.28v30h27.72Z"/><path class="cls-22" d="M642.32,486.34a8,8,0,0,1-8,8H176.91a8,8,0,0,1-8-8h0a8,8,0,0,1,8-8H634.28a8,8,0,0,1,8,8Z"/><rect class="cls-23" x="190.3" y="470.03" width="430.59" height="8.27"/><rect class="cls-24" x="190.3" y="467.02" width="430.59" height="3.01"/><g class="cls-19"><path class="cls-25" d="M188.22,484.35a10,10,0,0,0-10,10h20.05A10,10,0,0,0,188.22,484.35Z"/><path class="cls-22" d="M188.22,487.8a6.58,6.58,0,0,0-6.58,6.58h13.15A6.58,6.58,0,0,0,188.22,487.8Z"/><path class="cls-25" d="M211.1,484.35a10,10,0,0,0-10,10h20.05A10,10,0,0,0,211.1,484.35Z"/><path class="cls-22" d="M211.1,487.8a6.58,6.58,0,0,0-6.58,6.58h13.15A6.58,6.58,0,0,0,211.1,487.8Z"/><path class="cls-25" d="M234,484.35a10,10,0,0,0-10,10H244A10,10,0,0,0,234,484.35Z"/><path class="cls-22" d="M234,487.8a6.58,6.58,0,0,0-6.58,6.58h13.15A6.58,6.58,0,0,0,234,487.8Z"/><path class="cls-25" d="M256.86,484.35a10,10,0,0,0-10,10h20.05A10,10,0,0,0,256.86,484.35Z"/><path class="cls-22" d="M256.86,487.8a6.58,6.58,0,0,0-6.58,6.58h13.15A6.58,6.58,0,0,0,256.86,487.8Z"/><path class="cls-25" d="M279.75,484.35a10,10,0,0,0-10,10h20.05A10,10,0,0,0,279.75,484.35Z"/><path class="cls-22" d="M279.75,487.8a6.58,6.58,0,0,0-6.58,6.58h13.15A6.58,6.58,0,0,0,279.75,487.8Z"/><path class="cls-25" d="M302.63,484.35a10,10,0,0,0-10,10h20.05A10,10,0,0,0,302.63,484.35Z"/><path class="cls-22" d="M302.63,487.8a6.58,6.58,0,0,0-6.58,6.58H309.2A6.58,6.58,0,0,0,302.63,487.8Z"/><path class="cls-25" d="M325.51,484.35a10,10,0,0,0-10,10h20.05A10,10,0,0,0,325.51,484.35Z"/><path class="cls-22" d="M325.51,487.8a6.58,6.58,0,0,0-6.58,6.58h13.15A6.58,6.58,0,0,0,325.51,487.8Z"/><path class="cls-25" d="M348.39,484.35a10,10,0,0,0-10,10h20.05A10,10,0,0,0,348.39,484.35Z"/><path class="cls-22" d="M348.39,487.8a6.58,6.58,0,0,0-6.58,6.58H355A6.58,6.58,0,0,0,348.39,487.8Z"/><path class="cls-25" d="M371.28,484.35a10,10,0,0,0-10,10H381.3A10,10,0,0,0,371.28,484.35Z"/><path class="cls-22" d="M371.28,487.8a6.58,6.58,0,0,0-6.58,6.58h13.15A6.58,6.58,0,0,0,371.28,487.8Z"/><path class="cls-25" d="M394.16,484.35a10,10,0,0,0-10,10h20.05A10,10,0,0,0,394.16,484.35Z"/><path class="cls-22" d="M394.16,487.8a6.58,6.58,0,0,0-6.58,6.58h13.15A6.58,6.58,0,0,0,394.16,487.8Z"/><path class="cls-25" d="M417,484.35a10,10,0,0,0-10,10h20.05A10,10,0,0,0,417,484.35Z"/><path class="cls-22" d="M417,487.8a6.58,6.58,0,0,0-6.58,6.58h13.15A6.58,6.58,0,0,0,417,487.8Z"/><path class="cls-25" d="M439.92,484.35a10,10,0,0,0-10,10h20.05A10,10,0,0,0,439.92,484.35Z"/><path class="cls-22" d="M439.92,487.8a6.58,6.58,0,0,0-6.58,6.58H446.5A6.58,6.58,0,0,0,439.92,487.8Z"/><path class="cls-25" d="M462.8,484.35a10,10,0,0,0-10,10h20.05A10,10,0,0,0,462.8,484.35Z"/><path class="cls-22" d="M462.8,487.8a6.58,6.58,0,0,0-6.58,6.58h13.15A6.58,6.58,0,0,0,462.8,487.8Z"/><path class="cls-25" d="M485.69,484.35a10,10,0,0,0-10,10h20.05A10,10,0,0,0,485.69,484.35Z"/><path class="cls-22" d="M485.69,487.8a6.58,6.58,0,0,0-6.58,6.58h13.15A6.58,6.58,0,0,0,485.69,487.8Z"/><path class="cls-25" d="M508.57,484.35a10,10,0,0,0-10,10h20.05A10,10,0,0,0,508.57,484.35Z"/><path class="cls-22" d="M508.57,487.8a6.58,6.58,0,0,0-6.58,6.58h13.15A6.58,6.58,0,0,0,508.57,487.8Z"/><path class="cls-25" d="M531.45,484.35a10,10,0,0,0-10,10h20.05A10,10,0,0,0,531.45,484.35Z"/><path class="cls-22" d="M531.45,487.8a6.58,6.58,0,0,0-6.58,6.58H538A6.58,6.58,0,0,0,531.45,487.8Z"/><path class="cls-25" d="M554.33,484.35a10,10,0,0,0-10,10h20.05A10,10,0,0,0,554.33,484.35Z"/><path class="cls-22" d="M554.33,487.8a6.58,6.58,0,0,0-6.58,6.58h13.15A6.58,6.58,0,0,0,554.33,487.8Z"/><path class="cls-25" d="M577.22,484.35a10,10,0,0,0-10,10h20.05A10,10,0,0,0,577.22,484.35Z"/><path class="cls-22" d="M577.22,487.8a6.58,6.58,0,0,0-6.58,6.58h13.15A6.58,6.58,0,0,0,577.22,487.8Z"/><path class="cls-25" d="M600.1,484.35a10,10,0,0,0-10,10h20.05A10,10,0,0,0,600.1,484.35Z"/><path class="cls-22" d="M600.1,487.8a6.58,6.58,0,0,0-6.58,6.58h13.15A6.58,6.58,0,0,0,600.1,487.8Z"/><path class="cls-25" d="M623,484.35a10,10,0,0,0-10,10H633A10,10,0,0,0,623,484.35Z"/><path class="cls-22" d="M623,487.8a6.58,6.58,0,0,0-6.58,6.58h13.15A6.58,6.58,0,0,0,623,487.8Z"/></g><rect class="cls-26" x="550.56" y="350.09" width="42.01" height="116.92"/><rect class="cls-27" x="553.04" y="354.3" width="10.96" height="3.12"/><rect class="cls-27" x="566.08" y="354.3" width="10.97" height="3.12"/><rect class="cls-27" x="579.12" y="354.3" width="10.97" height="3.12"/><rect class="cls-27" x="553.04" y="360.15" width="10.96" height="3.12"/><rect class="cls-28" x="566.08" y="360.15" width="10.97" height="3.12"/><rect class="cls-28" x="579.12" y="360.15" width="10.97" height="3.12"/><rect class="cls-27" x="553.04" y="366.01" width="10.96" height="3.12"/><rect class="cls-27" x="566.08" y="366.01" width="10.97" height="3.12"/><rect class="cls-27" x="579.12" y="366.01" width="10.97" height="3.12"/><rect class="cls-27" x="553.04" y="371.86" width="10.96" height="3.12"/><rect class="cls-27" x="566.08" y="371.86" width="10.97" height="3.12"/><rect class="cls-27" x="579.12" y="371.86" width="10.97" height="3.12"/><rect class="cls-27" x="553.04" y="377.72" width="10.96" height="3.12"/><rect class="cls-28" x="566.08" y="377.72" width="10.97" height="3.12"/><rect class="cls-27" x="579.12" y="377.72" width="10.97" height="3.12"/><rect class="cls-28" x="553.04" y="383.57" width="10.96" height="3.12"/><rect class="cls-27" x="566.08" y="383.57" width="10.97" height="3.12"/><rect class="cls-27" x="579.12" y="383.57" width="10.97" height="3.12"/><rect class="cls-27" x="553.04" y="389.43" width="10.96" height="3.12"/><rect class="cls-27" x="566.08" y="389.43" width="10.97" height="3.12"/><rect class="cls-28" x="579.12" y="389.43" width="10.97" height="3.12"/><rect class="cls-27" x="553.04" y="395.28" width="10.96" height="3.12"/><rect class="cls-27" x="566.08" y="395.28" width="10.97" height="3.12"/><rect class="cls-27" x="579.12" y="395.28" width="10.97" height="3.12"/><rect class="cls-27" x="553.04" y="401.14" width="10.96" height="3.12"/><rect class="cls-28" x="566.08" y="401.14" width="10.97" height="3.12"/><rect class="cls-27" x="579.12" y="401.14" width="10.97" height="3.12"/><rect class="cls-27" x="553.04" y="407" width="10.96" height="3.12"/><rect class="cls-27" x="566.08" y="407" width="10.97" height="3.12"/><rect class="cls-27" x="579.12" y="407" width="10.97" height="3.12"/><rect class="cls-27" x="553.04" y="412.85" width="10.96" height="3.12"/><rect class="cls-27" x="566.08" y="412.85" width="10.97" height="3.12"/><rect class="cls-27" x="579.12" y="412.85" width="10.97" height="3.12"/><rect class="cls-27" x="553.04" y="418.71" width="10.96" height="3.12"/><rect class="cls-28" x="566.08" y="418.71" width="10.97" height="3.12"/><rect class="cls-27" x="579.12" y="418.71" width="10.97" height="3.12"/><rect class="cls-27" x="553.04" y="424.56" width="10.96" height="3.12"/><rect class="cls-27" x="566.08" y="424.56" width="10.97" height="3.12"/><rect class="cls-27" x="579.12" y="424.56" width="10.97" height="3.12"/><rect class="cls-28" x="553.04" y="430.42" width="10.96" height="3.12"/><rect class="cls-27" x="566.08" y="430.42" width="10.97" height="3.12"/><rect class="cls-27" x="579.12" y="430.42" width="10.97" height="3.12"/><rect class="cls-27" x="553.04" y="436.27" width="10.96" height="3.12"/><rect class="cls-27" x="566.08" y="436.27" width="10.97" height="3.12"/><rect class="cls-27" x="579.12" y="436.27" width="10.97" height="3.12"/><rect class="cls-27" x="553.04" y="442.13" width="10.96" height="3.12"/><rect class="cls-27" x="566.08" y="442.13" width="10.97" height="3.12"/><rect class="cls-28" x="579.12" y="442.13" width="10.97" height="3.12"/><rect class="cls-27" x="553.04" y="447.98" width="10.96" height="3.12"/><rect class="cls-27" x="566.08" y="447.98" width="10.97" height="3.12"/><rect class="cls-27" x="579.12" y="447.98" width="10.97" height="3.12"/><rect class="cls-28" x="553.04" y="453.84" width="10.96" height="3.12"/><rect class="cls-27" x="566.08" y="453.84" width="10.97" height="3.12"/><rect class="cls-27" x="579.12" y="453.84" width="10.97" height="3.12"/><rect class="cls-27" x="553.04" y="459.7" width="10.96" height="3.12"/><rect class="cls-27" x="566.08" y="459.7" width="10.97" height="3.12"/><rect class="cls-27" x="579.12" y="459.7" width="10.97" height="3.12"/><rect class="cls-29" x="550.56" y="345.49" width="42.01" height="4.6"/><polygon class="cls-29" points="571.56 329 550.55 345.49 571.56 345.49 592.56 345.49 571.56 329"/><polygon class="cls-30" points="571.56 335.98 558.85 345.49 571.56 345.49 584.27 345.49 571.56 335.98"/><polygon class="cls-21" points="571.56 329 550.55 345.49 550.55 350.09 550.55 467.02 571.56 467.02 571.56 329"/><polygon class="cls-31" points="241.75 212.7 240.21 238.77 241.75 238.77 243.29 238.77 241.75 212.7"/><polygon class="cls-32" points="244.18 237.05 241.75 237.05 239.33 237.05 236.75 247.12 241.75 247.12 246.75 247.12 244.18 237.05"/><path class="cls-33" d="M248.21,252.88V249.5a6.46,6.46,0,0,0-12.92,0v3.38Z"/><path class="cls-31" d="M249.33,258.09v-4a7.58,7.58,0,1,0-15.16,0v4Z"/><path class="cls-33" d="M250.31,263.62v-4.47a8.56,8.56,0,1,0-17.12,0v4.47Z"/><rect class="cls-31" x="225.7" y="280.8" width="32.11" height="134.95"/><rect class="cls-33" x="225.7" y="284.51" width="32.11" height="2.96"/><rect class="cls-33" x="225.7" y="291.53" width="32.11" height="2.96"/><rect class="cls-33" x="225.7" y="298.56" width="32.11" height="2.96"/><rect class="cls-33" x="225.7" y="305.58" width="32.11" height="2.96"/><rect class="cls-33" x="225.7" y="312.6" width="32.11" height="2.96"/><rect class="cls-33" x="225.7" y="319.63" width="32.11" height="2.96"/><rect class="cls-33" x="225.7" y="326.65" width="32.11" height="2.96"/><rect class="cls-33" x="225.7" y="333.68" width="32.11" height="2.96"/><rect class="cls-33" x="225.7" y="340.7" width="32.11" height="2.96"/><rect class="cls-33" x="225.7" y="347.73" width="32.11" height="2.96"/><rect class="cls-33" x="225.7" y="354.75" width="32.11" height="2.96"/><rect class="cls-33" x="225.7" y="361.78" width="32.11" height="2.96"/><rect class="cls-33" x="225.7" y="368.8" width="32.11" height="2.96"/><rect class="cls-33" x="225.7" y="375.83" width="32.11" height="2.96"/><rect class="cls-33" x="225.7" y="382.85" width="32.11" height="2.96"/><rect class="cls-33" x="225.7" y="389.88" width="32.11" height="2.96"/><rect class="cls-33" x="225.7" y="396.9" width="32.11" height="2.96"/><rect class="cls-31" x="217.68" y="431.24" width="48.15" height="35.78"/><rect class="cls-33" x="221.05" y="415.75" width="41.4" height="15.49"/><rect class="cls-33" x="221.05" y="403.01" width="41.4" height="28.23"/><rect class="cls-33" x="228.83" y="260.91" width="25.84" height="19.89"/><rect class="cls-32" x="232.61" y="280.8" width="18.29" height="186.22"/><rect class="cls-34" x="240.98" y="280.8" width="1.55" height="186.22"/><rect class="cls-34" x="235.94" y="280.8" width="1.55" height="186.22"/><rect class="cls-34" x="246.01" y="280.8" width="1.55" height="186.22"/><path class="cls-31" d="M250.89,280.8v-17a9.14,9.14,0,0,0-18.29,0v17Z"/><path class="cls-33" d="M247.07,280.8V264.57a5.31,5.31,0,1,0-10.63,0V280.8Z"/><path class="cls-34" d="M243.77,280.8V266.44a2,2,0,1,0-4,0V280.8Z"/><rect class="cls-32" x="214.95" y="423.5" width="53.6" height="7.74"/><path class="cls-33" d="M245.71,237a1.1,1.1,0,0,1-1.1,1.1h-5.72a1.1,1.1,0,0,1-1.1-1.1h0a1.1,1.1,0,0,1,1.1-1.1h5.72a1.1,1.1,0,0,1,1.1,1.1Z"/><rect class="cls-32" x="232.61" y="399.96" width="18.29" height="3.06"/><rect class="cls-32" x="232.61" y="340.65" width="18.29" height="3.06"/><rect class="cls-32" x="232.61" y="298.51" width="18.29" height="3.06"/><g class="cls-35"><polygon class="cls-31" points="241.75 212.7 240.21 238.77 241.75 238.77 243.29 238.77 241.75 212.7"/><polygon class="cls-32" points="244.18 237.05 241.75 237.05 239.33 237.05 236.75 247.12 241.75 247.12 246.75 247.12 244.18 237.05"/><path class="cls-33" d="M248.21,252.88V249.5a6.46,6.46,0,0,0-12.92,0v3.38Z"/><path class="cls-31" d="M249.33,258.09v-4a7.58,7.58,0,1,0-15.16,0v4Z"/><path class="cls-33" d="M250.31,263.62v-4.47a8.56,8.56,0,1,0-17.12,0v4.47Z"/><rect class="cls-31" x="225.7" y="280.8" width="32.11" height="134.95"/><rect class="cls-33" x="225.7" y="284.51" width="32.11" height="2.96"/><rect class="cls-33" x="225.7" y="291.53" width="32.11" height="2.96"/><rect class="cls-33" x="225.7" y="298.56" width="32.11" height="2.96"/><rect class="cls-33" x="225.7" y="305.58" width="32.11" height="2.96"/><rect class="cls-33" x="225.7" y="312.6" width="32.11" height="2.96"/><rect class="cls-33" x="225.7" y="319.63" width="32.11" height="2.96"/><rect class="cls-33" x="225.7" y="326.65" width="32.11" height="2.96"/><rect class="cls-33" x="225.7" y="333.68" width="32.11" height="2.96"/><rect class="cls-33" x="225.7" y="340.7" width="32.11" height="2.96"/><rect class="cls-33" x="225.7" y="347.73" width="32.11" height="2.96"/><rect class="cls-33" x="225.7" y="354.75" width="32.11" height="2.96"/><rect class="cls-33" x="225.7" y="361.78" width="32.11" height="2.96"/><rect class="cls-33" x="225.7" y="368.8" width="32.11" height="2.96"/><rect class="cls-33" x="225.7" y="375.83" width="32.11" height="2.96"/><rect class="cls-33" x="225.7" y="382.85" width="32.11" height="2.96"/><rect class="cls-33" x="225.7" y="389.88" width="32.11" height="2.96"/><rect class="cls-33" x="225.7" y="396.9" width="32.11" height="2.96"/><rect class="cls-31" x="217.68" y="431.24" width="48.15" height="35.78"/><rect class="cls-33" x="221.05" y="415.75" width="41.4" height="15.49"/><rect class="cls-33" x="221.05" y="403.01" width="41.4" height="28.23"/><polygon class="cls-33" points="254.67 280.73 228.83 280.8 228.83 260.91 254.67 260.84 254.67 280.73"/><rect class="cls-32" x="232.61" y="280.8" width="18.29" height="186.22"/><rect class="cls-34" x="240.98" y="280.8" width="1.55" height="186.22"/><rect class="cls-34" x="235.94" y="280.8" width="1.55" height="186.22"/><rect class="cls-34" x="246.01" y="280.8" width="1.55" height="186.22"/><path class="cls-31" d="M250.89,280.8v-17a9.14,9.14,0,0,0-18.29,0v17Z"/><path class="cls-33" d="M247.07,280.8V264.57a5.31,5.31,0,1,0-10.63,0V280.8Z"/><path class="cls-34" d="M243.77,280.8V266.44a2,2,0,1,0-4,0V280.8Z"/><rect class="cls-32" x="214.95" y="423.5" width="53.6" height="7.74"/><path class="cls-33" d="M245.71,237a1.1,1.1,0,0,1-1.1,1.1h-5.72a1.1,1.1,0,0,1-1.1-1.1h0a1.1,1.1,0,0,1,1.1-1.1h5.72a1.1,1.1,0,0,1,1.1,1.1Z"/><rect class="cls-32" x="232.61" y="399.96" width="18.29" height="3.06"/><rect class="cls-32" x="232.61" y="340.65" width="18.29" height="3.06"/><rect class="cls-32" x="232.61" y="298.51" width="18.29" height="3.06"/></g><path class="cls-21" d="M241.75,280.8V212.7l-1.37,23.18h-1.49a1.1,1.1,0,0,0,0,2.19h.17l-1.72,6.7a6.44,6.44,0,0,0-2.06,4.72v.68a7.53,7.53,0,0,0-1.12,3.95v1.05a8.52,8.52,0,0,0-1,4v1.49l-.1.27h-4.26V280.8H225.7V403H221V423.5h-6.1v7.74h2.73V467h24.07Z"/><circle class="cls-36" cx="293.12" cy="347.02" r="21.38"/><circle class="cls-37" cx="293.12" cy="347.02" r="18.12"/><rect class="cls-36" x="268.07" y="349.04" width="50.11" height="88.36"/><rect class="cls-38" x="270.48" y="352.06" width="45.29" height="85.34"/><rect class="cls-38" x="265.55" y="380.85" width="55.14" height="86.17"/><rect class="cls-39" x="272.34" y="354.47" width="2.48" height="4.66"/><rect class="cls-39" x="276.69" y="354.47" width="2.48" height="4.66"/><rect class="cls-39" x="281.03" y="354.47" width="2.48" height="4.66"/><rect class="cls-39" x="285.37" y="354.47" width="2.48" height="4.66"/><rect class="cls-39" x="289.71" y="354.47" width="2.48" height="4.66"/><rect class="cls-39" x="294.06" y="354.47" width="2.48" height="4.66"/><rect class="cls-39" x="298.4" y="354.47" width="2.48" height="4.66"/><rect class="cls-40" x="302.74" y="354.47" width="2.48" height="4.66"/><rect class="cls-39" x="307.09" y="354.47" width="2.48" height="4.66"/><rect class="cls-39" x="311.43" y="354.47" width="2.48" height="4.66"/><rect class="cls-39" x="272.34" y="361.44" width="2.48" height="4.66"/><rect class="cls-39" x="276.69" y="361.44" width="2.48" height="4.66"/><rect class="cls-39" x="281.03" y="361.44" width="2.48" height="4.66"/><rect class="cls-39" x="285.37" y="361.44" width="2.48" height="4.66"/><rect class="cls-39" x="289.71" y="361.44" width="2.48" height="4.66"/><rect class="cls-41" x="294.06" y="361.44" width="2.48" height="4.66"/><rect class="cls-39" x="298.4" y="361.44" width="2.48" height="4.66"/><rect class="cls-39" x="302.74" y="361.44" width="2.48" height="4.66"/><rect class="cls-39" x="307.09" y="361.44" width="2.48" height="4.66"/><rect class="cls-39" x="311.43" y="361.44" width="2.48" height="4.66"/><rect class="cls-39" x="272.34" y="368.4" width="2.48" height="4.66"/><rect class="cls-39" x="276.69" y="368.4" width="2.48" height="4.66"/><rect class="cls-41" x="281.03" y="368.4" width="2.48" height="4.66"/><rect class="cls-39" x="285.37" y="368.4" width="2.48" height="4.66"/><rect class="cls-39" x="289.71" y="368.4" width="2.48" height="4.66"/><rect class="cls-39" x="294.06" y="368.4" width="2.48" height="4.66"/><rect class="cls-39" x="298.4" y="368.4" width="2.48" height="4.66"/><rect class="cls-39" x="302.74" y="368.4" width="2.48" height="4.66"/><rect class="cls-40" x="307.09" y="368.4" width="2.48" height="4.66"/><rect class="cls-39" x="311.43" y="368.4" width="2.48" height="4.66"/><rect class="cls-39" x="272.34" y="375.36" width="2.48" height="4.66"/><rect class="cls-40" x="276.69" y="375.36" width="2.48" height="4.66"/><rect class="cls-39" x="281.03" y="375.36" width="2.48" height="4.66"/><rect class="cls-39" x="285.37" y="375.36" width="2.48" height="4.66"/><rect class="cls-39" x="289.71" y="375.36" width="2.48" height="4.66"/><rect class="cls-41" x="294.06" y="375.36" width="2.48" height="4.66"/><rect class="cls-39" x="298.4" y="375.36" width="2.48" height="4.66"/><rect class="cls-39" x="302.74" y="375.36" width="2.48" height="4.66"/><rect class="cls-39" x="307.09" y="375.36" width="2.48" height="4.66"/><rect class="cls-39" x="311.43" y="375.36" width="2.48" height="4.66"/><rect class="cls-39" x="268" y="382.32" width="2.48" height="4.66"/><rect class="cls-39" x="272.34" y="382.32" width="2.48" height="4.66"/><rect class="cls-39" x="276.69" y="382.32" width="2.48" height="4.66"/><rect class="cls-39" x="281.03" y="382.32" width="2.48" height="4.66"/><rect class="cls-39" x="285.37" y="382.32" width="2.48" height="4.66"/><rect class="cls-39" x="289.71" y="382.32" width="2.48" height="4.66"/><rect class="cls-39" x="294.06" y="382.32" width="2.48" height="4.66"/><rect class="cls-39" x="298.4" y="382.32" width="2.48" height="4.66"/><rect class="cls-39" x="302.74" y="382.32" width="2.48" height="4.66"/><rect class="cls-39" x="307.09" y="382.32" width="2.48" height="4.66"/><rect class="cls-39" x="311.43" y="382.32" width="2.48" height="4.66"/><rect class="cls-39" x="315.77" y="382.32" width="2.48" height="4.66"/><rect class="cls-39" x="268" y="389.28" width="2.48" height="4.66"/><rect class="cls-39" x="272.34" y="389.28" width="2.48" height="4.66"/><rect class="cls-39" x="276.69" y="389.28" width="2.48" height="4.66"/><rect class="cls-39" x="281.03" y="389.28" width="2.48" height="4.66"/><rect class="cls-39" x="285.37" y="389.28" width="2.48" height="4.66"/><rect class="cls-39" x="289.71" y="389.28" width="2.48" height="4.66"/><rect class="cls-39" x="294.06" y="389.28" width="2.48" height="4.66"/><rect class="cls-39" x="298.4" y="389.28" width="2.48" height="4.66"/><rect class="cls-39" x="302.74" y="389.28" width="2.48" height="4.66"/><rect class="cls-39" x="307.09" y="389.28" width="2.48" height="4.66"/><rect class="cls-39" x="311.43" y="389.28" width="2.48" height="4.66"/><rect class="cls-39" x="315.77" y="389.28" width="2.48" height="4.66"/><rect class="cls-39" x="268" y="396.24" width="2.48" height="4.66"/><rect class="cls-39" x="272.34" y="396.24" width="2.48" height="4.66"/><rect class="cls-39" x="276.69" y="396.24" width="2.48" height="4.66"/><rect class="cls-39" x="281.03" y="396.24" width="2.48" height="4.66"/><rect class="cls-40" x="285.37" y="396.24" width="2.48" height="4.66"/><rect class="cls-39" x="289.71" y="396.24" width="2.48" height="4.66"/><rect class="cls-39" x="294.06" y="396.24" width="2.48" height="4.66"/><rect class="cls-39" x="298.4" y="396.24" width="2.48" height="4.66"/><rect class="cls-39" x="302.74" y="396.24" width="2.48" height="4.66"/><rect class="cls-39" x="307.09" y="396.24" width="2.48" height="4.66"/><rect class="cls-39" x="311.43" y="396.24" width="2.48" height="4.66"/><rect class="cls-39" x="315.77" y="396.24" width="2.48" height="4.66"/><rect class="cls-39" x="268" y="403.21" width="2.48" height="4.66"/><rect class="cls-39" x="272.34" y="403.21" width="2.48" height="4.66"/><rect class="cls-39" x="276.69" y="403.21" width="2.48" height="4.66"/><rect class="cls-39" x="281.03" y="403.21" width="2.48" height="4.66"/><rect class="cls-39" x="285.37" y="403.21" width="2.48" height="4.66"/><rect class="cls-39" x="289.71" y="403.21" width="2.48" height="4.66"/><rect class="cls-39" x="294.06" y="403.21" width="2.48" height="4.66"/><rect class="cls-39" x="298.4" y="403.21" width="2.48" height="4.66"/><rect class="cls-39" x="302.74" y="403.21" width="2.48" height="4.66"/><rect class="cls-41" x="307.09" y="403.21" width="2.48" height="4.66"/><rect class="cls-39" x="311.43" y="403.21" width="2.48" height="4.66"/><rect class="cls-39" x="315.77" y="403.21" width="2.48" height="4.66"/><rect class="cls-39" x="268" y="410.17" width="2.48" height="4.66"/><rect class="cls-39" x="272.34" y="410.17" width="2.48" height="4.66"/><rect class="cls-39" x="276.69" y="410.17" width="2.48" height="4.66"/><rect class="cls-39" x="281.03" y="410.17" width="2.48" height="4.66"/><rect class="cls-39" x="285.37" y="410.17" width="2.48" height="4.66"/><rect class="cls-39" x="289.71" y="410.17" width="2.48" height="4.66"/><rect class="cls-40" x="294.06" y="410.17" width="2.48" height="4.66"/><rect class="cls-39" x="298.4" y="410.17" width="2.48" height="4.66"/><rect class="cls-39" x="302.74" y="410.17" width="2.48" height="4.66"/><rect class="cls-39" x="307.09" y="410.17" width="2.48" height="4.66"/><rect class="cls-39" x="311.43" y="410.17" width="2.48" height="4.66"/><rect class="cls-39" x="315.77" y="410.17" width="2.48" height="4.66"/><rect class="cls-39" x="268" y="417.13" width="2.48" height="4.66"/><rect class="cls-39" x="272.34" y="417.13" width="2.48" height="4.66"/><rect class="cls-41" x="276.69" y="417.13" width="2.48" height="4.66"/><rect class="cls-39" x="281.03" y="417.13" width="2.48" height="4.66"/><rect class="cls-39" x="285.37" y="417.13" width="2.48" height="4.66"/><rect class="cls-39" x="289.71" y="417.13" width="2.48" height="4.66"/><rect class="cls-39" x="294.06" y="417.13" width="2.48" height="4.66"/><rect class="cls-39" x="298.4" y="417.13" width="2.48" height="4.66"/><rect class="cls-39" x="302.74" y="417.13" width="2.48" height="4.66"/><rect class="cls-39" x="307.09" y="417.13" width="2.48" height="4.66"/><rect class="cls-39" x="311.43" y="417.13" width="2.48" height="4.66"/><rect class="cls-39" x="315.77" y="417.13" width="2.48" height="4.66"/><rect class="cls-39" x="268" y="424.09" width="2.48" height="4.66"/><rect class="cls-39" x="272.34" y="424.09" width="2.48" height="4.66"/><rect class="cls-39" x="276.69" y="424.09" width="2.48" height="4.66"/><rect class="cls-39" x="281.03" y="424.09" width="2.48" height="4.66"/><rect class="cls-39" x="285.37" y="424.09" width="2.48" height="4.66"/><rect class="cls-39" x="289.71" y="424.09" width="2.48" height="4.66"/><rect class="cls-39" x="294.06" y="424.09" width="2.48" height="4.66"/><rect class="cls-39" x="298.4" y="424.09" width="2.48" height="4.66"/><rect class="cls-39" x="302.74" y="424.09" width="2.48" height="4.66"/><rect class="cls-40" x="307.09" y="424.09" width="2.48" height="4.66"/><rect class="cls-39" x="311.43" y="424.09" width="2.48" height="4.66"/><rect class="cls-39" x="315.77" y="424.09" width="2.48" height="4.66"/><rect class="cls-39" x="268" y="431.05" width="2.48" height="4.66"/><rect class="cls-39" x="272.34" y="431.05" width="2.48" height="4.66"/><rect class="cls-39" x="276.69" y="431.05" width="2.48" height="4.66"/><rect class="cls-40" x="281.03" y="431.05" width="2.48" height="4.66"/><rect class="cls-39" x="285.37" y="431.05" width="2.48" height="4.66"/><rect class="cls-39" x="289.71" y="431.05" width="2.48" height="4.66"/><rect class="cls-41" x="294.06" y="431.05" width="2.48" height="4.66"/><rect class="cls-39" x="298.4" y="431.05" width="2.48" height="4.66"/><rect class="cls-39" x="302.74" y="431.05" width="2.48" height="4.66"/><rect class="cls-39" x="307.09" y="431.05" width="2.48" height="4.66"/><rect class="cls-39" x="311.43" y="431.05" width="2.48" height="4.66"/><rect class="cls-39" x="315.77" y="431.05" width="2.48" height="4.66"/><rect class="cls-39" x="268" y="438.01" width="2.48" height="4.66"/><rect class="cls-39" x="272.34" y="438.01" width="2.48" height="4.66"/><rect class="cls-39" x="276.69" y="438.01" width="2.48" height="4.66"/><rect class="cls-39" x="281.03" y="438.01" width="2.48" height="4.66"/><rect class="cls-39" x="285.37" y="438.01" width="2.48" height="4.66"/><rect class="cls-39" x="289.71" y="438.01" width="2.48" height="4.66"/><rect class="cls-39" x="294.06" y="438.01" width="2.48" height="4.66"/><rect class="cls-39" x="298.4" y="438.01" width="2.48" height="4.66"/><rect class="cls-39" x="302.74" y="438.01" width="2.48" height="4.66"/><rect class="cls-39" x="307.09" y="438.01" width="2.48" height="4.66"/><rect class="cls-39" x="311.43" y="438.01" width="2.48" height="4.66"/><rect class="cls-39" x="315.77" y="438.01" width="2.48" height="4.66"/><rect class="cls-39" x="268" y="444.97" width="2.48" height="4.66"/><rect class="cls-40" x="272.34" y="444.97" width="2.48" height="4.66"/><rect class="cls-39" x="276.69" y="444.97" width="2.48" height="4.66"/><rect class="cls-41" x="281.03" y="444.97" width="2.48" height="4.66"/><rect class="cls-39" x="285.37" y="444.97" width="2.48" height="4.66"/><rect class="cls-39" x="289.71" y="444.97" width="2.48" height="4.66"/><rect class="cls-39" x="294.06" y="444.97" width="2.48" height="4.66"/><rect class="cls-39" x="298.4" y="444.97" width="2.48" height="4.66"/><rect class="cls-41" x="302.74" y="444.97" width="2.48" height="4.66"/><rect class="cls-39" x="307.09" y="444.97" width="2.48" height="4.66"/><rect class="cls-39" x="311.43" y="444.97" width="2.48" height="4.66"/><rect class="cls-39" x="315.77" y="444.97" width="2.48" height="4.66"/><rect class="cls-39" x="268" y="451.94" width="2.48" height="4.66"/><rect class="cls-39" x="272.34" y="451.94" width="2.48" height="4.66"/><rect class="cls-39" x="276.69" y="451.94" width="2.48" height="4.66"/><rect class="cls-39" x="281.03" y="451.94" width="2.48" height="4.66"/><rect class="cls-39" x="285.37" y="451.94" width="2.48" height="4.66"/><rect class="cls-40" x="289.71" y="451.94" width="2.48" height="4.66"/><rect class="cls-39" x="294.06" y="451.94" width="2.48" height="4.66"/><rect class="cls-39" x="298.4" y="451.94" width="2.48" height="4.66"/><rect class="cls-39" x="302.74" y="451.94" width="2.48" height="4.66"/><rect class="cls-39" x="307.09" y="451.94" width="2.48" height="4.66"/><rect class="cls-39" x="311.43" y="451.94" width="2.48" height="4.66"/><rect class="cls-39" x="315.77" y="451.94" width="2.48" height="4.66"/><rect class="cls-39" x="268" y="458.9" width="2.48" height="4.66"/><rect class="cls-39" x="272.34" y="458.9" width="2.48" height="4.66"/><rect class="cls-39" x="276.69" y="458.9" width="2.48" height="4.66"/><rect class="cls-39" x="281.03" y="458.9" width="2.48" height="4.66"/><rect class="cls-39" x="285.37" y="458.9" width="2.48" height="4.66"/><rect class="cls-39" x="289.71" y="458.9" width="2.48" height="4.66"/><rect class="cls-39" x="294.06" y="458.9" width="2.48" height="4.66"/><rect class="cls-39" x="298.4" y="458.9" width="2.48" height="4.66"/><rect class="cls-41" x="302.74" y="458.9" width="2.48" height="4.66"/><rect class="cls-39" x="307.09" y="458.9" width="2.48" height="4.66"/><rect class="cls-39" x="311.43" y="458.9" width="2.48" height="4.66"/><rect class="cls-39" x="315.77" y="458.9" width="2.48" height="4.66"/><rect class="cls-38" x="266.24" y="345" width="53.77" height="4.04"/><path class="cls-21" d="M293.12,325.64A21.38,21.38,0,0,0,271.84,345h-5.6v4h1.83v31.82h-2.52V467h27.57Z"/><path class="cls-12" d="M336.93,171a14.4,14.4,0,0,1-14.4,14.4H260.32a14.4,14.4,0,0,1-14.4-14.4h0a14.4,14.4,0,0,1,14.4-14.4h62.21a14.4,14.4,0,0,1,14.4,14.4Z"/><circle class="cls-12" cx="303.36" cy="148.73" r="23.86"/><circle class="cls-12" cx="270.43" cy="154.53" r="16.12"/><path class="cls-12" d="M537.45,202.29a13,13,0,0,0,13,13h56.24a13,13,0,0,0,13-13h0a13,13,0,0,0-13-13H550.47a13,13,0,0,0-13,13Z"/><circle class="cls-12" cx="567.81" cy="182.12" r="21.57"/><circle class="cls-12" cx="597.58" cy="187.37" r="14.57"/><path class="cls-12" d="M175.94,253.89a6.93,6.93,0,0,0,6.93,6.93h30a6.93,6.93,0,0,0,6.93-6.93h0a6.93,6.93,0,0,0-6.93-6.93h-30a6.93,6.93,0,0,0-6.93,6.93Z"/><circle class="cls-12" cx="192.1" cy="243.15" r="11.49"/><circle class="cls-12" cx="207.96" cy="245.94" r="7.76"/><rect class="cls-42" x="499.8" y="407.22" width="55.34" height="59.8"/><rect class="cls-43" x="504.92" y="411.31" width="3.16" height="51.91"/><rect class="cls-43" x="511.86" y="411.31" width="3.16" height="51.91"/><rect class="cls-43" x="522.42" y="411.31" width="3.16" height="51.91"/><rect class="cls-43" x="529.36" y="411.31" width="3.16" height="51.91"/><rect class="cls-43" x="539.93" y="411.31" width="3.16" height="51.91"/><rect class="cls-43" x="546.86" y="411.31" width="3.16" height="51.91"/><rect class="cls-42" x="503.82" y="424.25" width="50.93" height="4.79"/><rect class="cls-42" x="503.82" y="444.95" width="50.93" height="4.79"/><rect class="cls-44" x="510.48" y="330.64" width="33.97" height="65.13"/><polygon class="cls-45" points="548.76 395.04 527.53 395.04 527.41 395.04 506.18 395.04 499.81 407.22 527.41 407.22 527.53 407.22 555.13 407.22 548.76 395.04"/><rect class="cls-43" x="515.25" y="333.96" width="3.16" height="58.5"/><rect class="cls-43" x="522.19" y="333.96" width="3.16" height="58.5"/><rect class="cls-43" x="529.6" y="333.96" width="3.16" height="58.5"/><rect class="cls-43" x="536.53" y="333.96" width="3.16" height="58.5"/><rect class="cls-44" x="518.26" y="284.7" width="18.42" height="19.48"/><rect class="cls-43" x="522.19" y="287.9" width="3.31" height="12.1"/><rect class="cls-43" x="529.45" y="287.9" width="3.31" height="12.1"/><rect class="cls-44" x="513.33" y="360.81" width="28.28" height="4.79"/><rect class="cls-46" x="514.37" y="284.7" width="3.89" height="18.06"/><polygon class="cls-45" points="516.33 280.1 516.33 280.06 516.32 280.08 516.3 280.06 516.3 280.1 514.37 284.7 516.3 284.7 516.33 284.7 518.26 284.7 516.33 280.1"/><rect class="cls-46" x="536.68" y="284.7" width="3.89" height="18.06"/><polygon class="cls-45" points="538.64 280.1 538.64 280.06 538.62 280.08 538.61 280.06 538.61 280.1 536.68 284.7 538.61 284.7 538.64 284.7 540.57 284.7 538.64 280.1"/><polygon class="cls-45" points="527.44 272.75 518.26 284.7 527.38 284.7 527.51 284.7 536.63 284.7 527.44 272.75"/><rect class="cls-42" x="514.37" y="302.76" width="26.2" height="28.46"/><rect class="cls-43" x="518.72" y="305.81" width="3.16" height="22.38"/><rect class="cls-43" x="526.13" y="305.81" width="3.16" height="22.38"/><rect class="cls-43" x="533.06" y="305.81" width="3.16" height="22.38"/><rect class="cls-42" x="516.48" y="315.16" width="23.2" height="3.11"/><g class="cls-47"><polygon class="cls-12" points="516.33 280.1 516.33 280.06 516.32 280.08 516.3 280.06 516.3 280.1 514.37 284.7 518.26 284.7 516.33 280.1"/><rect class="cls-12" x="499.8" y="407.22" width="27.64" height="59.8"/><polygon class="cls-12" points="527.44 272.75 518.26 284.7 518.26 284.7 514.37 284.7 514.37 330.64 510.48 330.64 510.48 395.04 506.18 395.04 499.81 407.22 527.44 407.22 527.44 272.75"/></g><ellipse class="cls-48" cx="438.36" cy="367.09" rx="13.93" ry="11.83"/><rect class="cls-48" x="412.25" y="369.73" width="52.22" height="97.29"/><path class="cls-49" d="M434.16,467V372.25c0-2.82,1.88-5.1,4.2-5.1h0c2.32,0,4.2,2.28,4.2,5.1V467"/><rect class="cls-49" x="412.26" y="374.39" width="18.55" height="92.63"/><rect class="cls-50" x="413.93" y="376.37" width="3.1" height="3.76"/><rect class="cls-50" x="417.96" y="376.37" width="3.1" height="3.76"/><rect class="cls-50" x="422" y="376.37" width="3.1" height="3.76"/><rect class="cls-50" x="426.03" y="376.37" width="3.1" height="3.76"/><rect class="cls-50" x="413.93" y="382.03" width="3.1" height="3.76"/><rect class="cls-50" x="417.96" y="382.03" width="3.1" height="3.76"/><rect class="cls-50" x="422" y="382.03" width="3.1" height="3.76"/><rect class="cls-51" x="426.09" y="382.1" width="3.1" height="3.76"/><rect class="cls-50" x="413.93" y="387.69" width="3.1" height="3.76"/><rect class="cls-50" x="417.96" y="387.69" width="3.1" height="3.76"/><rect class="cls-50" x="422" y="387.69" width="3.1" height="3.76"/><rect class="cls-50" x="426.03" y="387.69" width="3.1" height="3.76"/><rect class="cls-50" x="413.93" y="393.35" width="3.1" height="3.76"/><rect class="cls-51" x="418.02" y="393.42" width="3.1" height="3.76"/><rect class="cls-50" x="422" y="393.35" width="3.1" height="3.76"/><rect class="cls-50" x="426.03" y="393.35" width="3.1" height="3.76"/><rect class="cls-50" x="413.93" y="399.01" width="3.1" height="3.76"/><rect class="cls-50" x="417.96" y="399.01" width="3.1" height="3.76"/><rect class="cls-51" x="422.06" y="399.08" width="3.1" height="3.76"/><rect class="cls-50" x="426.03" y="399.01" width="3.1" height="3.76"/><rect class="cls-50" x="413.93" y="404.67" width="3.1" height="3.76"/><rect class="cls-50" x="417.96" y="404.67" width="3.1" height="3.76"/><rect class="cls-50" x="422" y="404.67" width="3.1" height="3.76"/><rect class="cls-50" x="426.03" y="404.67" width="3.1" height="3.76"/><rect class="cls-50" x="413.93" y="410.33" width="3.1" height="3.76"/><rect class="cls-50" x="417.96" y="410.33" width="3.1" height="3.76"/><rect class="cls-50" x="422" y="410.33" width="3.1" height="3.76"/><rect class="cls-50" x="426.03" y="410.33" width="3.1" height="3.76"/><rect class="cls-50" x="413.93" y="415.99" width="3.1" height="3.76"/><rect class="cls-50" x="417.96" y="415.99" width="3.1" height="3.76"/><rect class="cls-50" x="422" y="415.99" width="3.1" height="3.76"/><rect class="cls-50" x="426.03" y="415.99" width="3.1" height="3.76"/><rect class="cls-50" x="413.93" y="421.65" width="3.1" height="3.76"/><rect class="cls-51" x="418.02" y="421.72" width="3.1" height="3.76"/><rect class="cls-50" x="422" y="421.65" width="3.1" height="3.76"/><rect class="cls-50" x="426.03" y="421.65" width="3.1" height="3.76"/><rect class="cls-50" x="413.93" y="427.31" width="3.1" height="3.76"/><rect class="cls-50" x="417.96" y="427.31" width="3.1" height="3.76"/><rect class="cls-50" x="422" y="427.31" width="3.1" height="3.76"/><rect class="cls-50" x="426.03" y="427.31" width="3.1" height="3.76"/><rect class="cls-50" x="413.93" y="432.97" width="3.1" height="3.76"/><rect class="cls-50" x="417.96" y="432.97" width="3.1" height="3.76"/><rect class="cls-50" x="422" y="432.97" width="3.1" height="3.76"/><rect class="cls-50" x="426.03" y="432.97" width="3.1" height="3.76"/><rect class="cls-50" x="413.93" y="438.63" width="3.1" height="3.76"/><rect class="cls-50" x="417.96" y="438.63" width="3.1" height="3.76"/><rect class="cls-50" x="422" y="438.63" width="3.1" height="3.76"/><rect class="cls-51" x="426.09" y="438.7" width="3.1" height="3.76"/><rect class="cls-50" x="413.93" y="444.29" width="3.1" height="3.76"/><rect class="cls-50" x="417.96" y="444.29" width="3.1" height="3.76"/><rect class="cls-50" x="422" y="444.29" width="3.1" height="3.76"/><rect class="cls-50" x="426.03" y="444.29" width="3.1" height="3.76"/><rect class="cls-51" x="413.99" y="450.02" width="3.1" height="3.76"/><rect class="cls-50" x="417.96" y="449.95" width="3.1" height="3.76"/><rect class="cls-50" x="422" y="449.95" width="3.1" height="3.76"/><rect class="cls-50" x="426.03" y="449.95" width="3.1" height="3.76"/><rect class="cls-50" x="413.93" y="455.61" width="3.1" height="3.76"/><rect class="cls-50" x="417.96" y="455.61" width="3.1" height="3.76"/><rect class="cls-50" x="422" y="455.61" width="3.1" height="3.76"/><rect class="cls-50" x="426.03" y="455.61" width="3.1" height="3.76"/><rect class="cls-50" x="413.93" y="461.27" width="3.1" height="3.76"/><rect class="cls-50" x="417.96" y="461.27" width="3.1" height="3.76"/><rect class="cls-50" x="422" y="461.27" width="3.1" height="3.76"/><rect class="cls-50" x="426.03" y="461.27" width="3.1" height="3.76"/><rect class="cls-49" x="445.92" y="374.39" width="18.55" height="92.63"/><rect class="cls-50" x="447.6" y="376.37" width="3.1" height="3.76"/><rect class="cls-50" x="451.63" y="376.37" width="3.1" height="3.76"/><rect class="cls-50" x="455.66" y="376.37" width="3.1" height="3.76"/><rect class="cls-50" x="459.7" y="376.37" width="3.1" height="3.76"/><rect class="cls-50" x="447.6" y="382.03" width="3.1" height="3.76"/><rect class="cls-51" x="451.63" y="382.03" width="3.1" height="3.76"/><rect class="cls-50" x="455.66" y="382.03" width="3.1" height="3.76"/><rect class="cls-50" x="459.7" y="382.03" width="3.1" height="3.76"/><rect class="cls-50" x="447.6" y="387.69" width="3.1" height="3.76"/><rect class="cls-50" x="451.63" y="387.69" width="3.1" height="3.76"/><rect class="cls-50" x="455.66" y="387.69" width="3.1" height="3.76"/><rect class="cls-50" x="459.7" y="387.69" width="3.1" height="3.76"/><rect class="cls-50" x="447.6" y="393.35" width="3.1" height="3.76"/><rect class="cls-50" x="451.63" y="393.35" width="3.1" height="3.76"/><rect class="cls-50" x="455.66" y="393.35" width="3.1" height="3.76"/><rect class="cls-50" x="459.7" y="393.35" width="3.1" height="3.76"/><rect class="cls-50" x="447.6" y="399.01" width="3.1" height="3.76"/><rect class="cls-50" x="451.63" y="399.01" width="3.1" height="3.76"/><rect class="cls-50" x="455.66" y="399.01" width="3.1" height="3.76"/><rect class="cls-50" x="459.7" y="399.01" width="3.1" height="3.76"/><rect class="cls-50" x="447.6" y="404.67" width="3.1" height="3.76"/><rect class="cls-50" x="451.63" y="404.67" width="3.1" height="3.76"/><rect class="cls-51" x="455.66" y="404.67" width="3.1" height="3.76"/><rect class="cls-50" x="459.7" y="404.67" width="3.1" height="3.76"/><rect class="cls-50" x="447.6" y="410.33" width="3.1" height="3.76"/><rect class="cls-50" x="451.63" y="410.33" width="3.1" height="3.76"/><rect class="cls-50" x="455.66" y="410.33" width="3.1" height="3.76"/><rect class="cls-50" x="459.7" y="410.33" width="3.1" height="3.76"/><rect class="cls-50" x="447.6" y="415.99" width="3.1" height="3.76"/><rect class="cls-51" x="451.63" y="415.99" width="3.1" height="3.76"/><rect class="cls-50" x="455.66" y="415.99" width="3.1" height="3.76"/><rect class="cls-50" x="459.7" y="415.99" width="3.1" height="3.76"/><rect class="cls-50" x="447.6" y="421.65" width="3.1" height="3.76"/><rect class="cls-50" x="451.63" y="421.65" width="3.1" height="3.76"/><rect class="cls-50" x="455.66" y="421.65" width="3.1" height="3.76"/><rect class="cls-50" x="459.7" y="421.65" width="3.1" height="3.76"/><rect class="cls-50" x="447.6" y="427.31" width="3.1" height="3.76"/><rect class="cls-50" x="451.63" y="427.31" width="3.1" height="3.76"/><rect class="cls-50" x="455.66" y="427.31" width="3.1" height="3.76"/><rect class="cls-50" x="459.7" y="427.31" width="3.1" height="3.76"/><rect class="cls-50" x="447.6" y="432.97" width="3.1" height="3.76"/><rect class="cls-50" x="451.63" y="432.97" width="3.1" height="3.76"/><rect class="cls-50" x="455.66" y="432.97" width="3.1" height="3.76"/><rect class="cls-51" x="459.7" y="432.97" width="3.1" height="3.76"/><rect class="cls-50" x="447.6" y="438.63" width="3.1" height="3.76"/><rect class="cls-51" x="451.63" y="438.63" width="3.1" height="3.76"/><rect class="cls-50" x="455.66" y="438.63" width="3.1" height="3.76"/><rect class="cls-50" x="459.7" y="438.63" width="3.1" height="3.76"/><rect class="cls-50" x="447.6" y="444.29" width="3.1" height="3.76"/><rect class="cls-50" x="451.63" y="444.29" width="3.1" height="3.76"/><rect class="cls-50" x="455.66" y="444.29" width="3.1" height="3.76"/><rect class="cls-50" x="459.7" y="444.29" width="3.1" height="3.76"/><rect class="cls-50" x="447.6" y="449.95" width="3.1" height="3.76"/><rect class="cls-51" x="451.69" y="450.02" width="3.1" height="3.76"/><rect class="cls-50" x="455.66" y="449.95" width="3.1" height="3.76"/><rect class="cls-51" x="459.7" y="449.95" width="3.1" height="3.76"/><rect class="cls-50" x="447.6" y="455.61" width="3.1" height="3.76"/><rect class="cls-50" x="451.63" y="455.61" width="3.1" height="3.76"/><rect class="cls-50" x="455.66" y="455.61" width="3.1" height="3.76"/><rect class="cls-50" x="459.7" y="455.61" width="3.1" height="3.76"/><rect class="cls-50" x="447.6" y="461.27" width="3.1" height="3.76"/><rect class="cls-50" x="451.63" y="461.27" width="3.1" height="3.76"/><rect class="cls-50" x="455.66" y="461.27" width="3.1" height="3.76"/><rect class="cls-50" x="459.7" y="461.27" width="3.1" height="3.76"/><path class="cls-52" d="M449,371.56c0-7.15-4.79-13-10.67-13s-10.67,5.81-10.67,13H412.25v2.83H430.8v-2.83h0c0-5.07,3.39-9.19,7.56-9.19s7.56,4.12,7.56,9.19h0v2.83h18.55v-2.83Z"/><path class="cls-52" d="M454,366.9c-1.2-8.52-7.74-15.06-15.61-15.06s-14.4,6.53-15.61,15.06H412.25v2.83h13.44c0-7.9,5.68-14.33,12.67-14.33S451,361.82,451,369.73h13.44V366.9Z"/><path class="cls-21" d="M438.36,351.84h0c-7.86,0-14.4,6.53-15.61,15.06H412.25V467h26.11Z"/><polygon class="cls-12" points="471.93 252.05 471.03 252.05 479.49 239.64 480.38 239.64 471.93 252.05"/><polygon class="cls-12" points="492.63 252.05 493.53 252.05 485.07 239.64 484.18 239.64 492.63 252.05"/><path class="cls-53" d="M482.95,266.23a.67.67,0,0,1-.67.67h0a.67.67,0,0,1-.67-.67V188.6a.67.67,0,0,1,.67-.67h0a.67.67,0,0,1,.67.67Z"/><rect class="cls-54" x="463.26" y="261.28" width="38.05" height="205.74"/><polygon class="cls-55" points="482.28 261.28 463.26 467.02 482.28 467.02 501.3 467.02 482.28 261.28"/><rect class="cls-55" x="463.26" y="259.68" width="38.05" height="1.6"/><rect class="cls-55" x="467.55" y="252.05" width="29.45" height="1.71"/><rect class="cls-56" x="467.55" y="253.76" width="29.45" height="5.92"/><rect class="cls-57" x="470.39" y="255.67" width="1.56" height="4.01"/><rect class="cls-57" x="474.83" y="255.67" width="1.56" height="4.01"/><rect class="cls-57" x="479.28" y="255.67" width="1.56" height="4.01"/><rect class="cls-57" x="483.72" y="255.67" width="1.56" height="4.01"/><rect class="cls-57" x="488.16" y="255.67" width="1.56" height="4.01"/><rect class="cls-57" x="492.61" y="255.67" width="1.56" height="4.01"/><rect class="cls-55" x="476.4" y="236.96" width="11.77" height="3.1"/><rect class="cls-55" x="480.06" y="227.07" width="4.44" height="1.29"/><rect class="cls-55" x="480.06" y="215.97" width="4.44" height="1.29"/><rect class="cls-55" x="480.06" y="204.88" width="4.44" height="1.29"/><rect class="cls-55" x="480.06" y="193.78" width="4.44" height="1.29"/><rect class="cls-58" x="463.26" y="264.92" width="38.05" height="0.93"/><rect class="cls-58" x="463.26" y="270.35" width="38.05" height="0.93"/><rect class="cls-58" x="463.26" y="275.78" width="38.05" height="0.93"/><rect class="cls-58" x="463.26" y="281.21" width="38.05" height="0.93"/><rect class="cls-58" x="463.26" y="286.64" width="38.05" height="0.93"/><rect class="cls-58" x="463.26" y="292.07" width="38.05" height="0.93"/><rect class="cls-58" x="463.26" y="297.5" width="38.05" height="0.93"/><rect class="cls-58" x="463.26" y="302.93" width="38.05" height="0.93"/><rect class="cls-58" x="463.26" y="308.36" width="38.05" height="0.93"/><rect class="cls-58" x="463.26" y="313.79" width="38.05" height="0.93"/><rect class="cls-58" x="463.26" y="319.22" width="38.05" height="0.93"/><rect class="cls-58" x="463.26" y="324.65" width="38.05" height="0.93"/><rect class="cls-58" x="463.26" y="330.08" width="38.05" height="0.93"/><rect class="cls-58" x="463.26" y="335.51" width="38.05" height="0.93"/><rect class="cls-58" x="463.26" y="340.94" width="38.05" height="0.93"/><rect class="cls-58" x="463.26" y="346.37" width="38.05" height="0.93"/><rect class="cls-58" x="463.26" y="351.8" width="38.05" height="0.93"/><rect class="cls-58" x="463.26" y="357.23" width="38.05" height="0.93"/><rect class="cls-58" x="463.26" y="362.66" width="38.05" height="0.93"/><rect class="cls-58" x="463.26" y="368.09" width="38.05" height="0.93"/><rect class="cls-58" x="463.26" y="373.52" width="38.05" height="0.93"/><rect class="cls-58" x="463.26" y="378.95" width="38.05" height="0.93"/><rect class="cls-58" x="463.26" y="384.37" width="38.05" height="0.93"/><rect class="cls-58" x="463.26" y="389.8" width="38.05" height="0.93"/><rect class="cls-58" x="463.26" y="395.23" width="38.05" height="0.93"/><rect class="cls-58" x="463.26" y="400.66" width="38.05" height="0.93"/><rect class="cls-58" x="463.26" y="406.09" width="38.05" height="0.93"/><rect class="cls-58" x="463.26" y="411.52" width="38.05" height="0.93"/><rect class="cls-58" x="463.26" y="416.95" width="38.05" height="0.93"/><rect class="cls-58" x="463.26" y="422.38" width="38.05" height="0.93"/><rect class="cls-58" x="463.26" y="427.81" width="38.05" height="0.93"/><rect class="cls-58" x="463.26" y="433.24" width="38.05" height="0.93"/><rect class="cls-58" x="463.26" y="438.67" width="38.05" height="0.93"/><rect class="cls-58" x="463.26" y="444.1" width="38.05" height="0.93"/><rect class="cls-58" x="463.26" y="449.53" width="38.05" height="0.93"/><rect class="cls-58" x="463.26" y="454.96" width="38.05" height="0.93"/><rect class="cls-58" x="463.26" y="460.39" width="38.05" height="0.93"/><path class="cls-21" d="M482.28,187.93h0a.67.67,0,0,0-.67.67v5.18h-1.55v1.29h1.55v9.8h-1.55v1.29h1.55V216h-1.55v1.29h1.55v9.8h-1.55v1.29h1.55V237H476.4v3.1h2.81l-8.17,12h-3.48v7.63h-4.3V467h19Zm-.67,64.12h-9.68l8.17-12h1.51Z"/><polygon class="cls-59" points="392.5 300.5 391.6 309.06 392.5 309.06 393.4 309.06 392.5 300.5"/><polygon class="cls-59" points="397.3 312.75 397.3 313.66 397.3 314.56 405.86 313.66 397.3 312.75"/><polygon class="cls-59" points="387.7 312.75 387.7 313.66 387.7 314.56 379.14 313.66 387.7 312.75"/><polygon class="cls-59" points="387.98 312.51 388.32 311.67 388.66 310.83 380.39 308.45 387.98 312.51"/><polygon class="cls-59" points="396.34 310.83 396.68 311.67 397.02 312.51 404.61 308.45 396.34 310.83"/><polygon class="cls-59" points="383.56 304.51 389.49 310.75 390.07 310.06 390.66 309.37 383.56 304.51"/><polygon class="cls-59" points="401.44 304.51 395.51 310.75 394.93 310.06 394.34 309.37 401.44 304.51"/><polygon class="cls-60" points="398.33 312.27 392.5 311.29 386.67 312.27 385 330.9 392.5 330.9 400 330.9 398.33 312.27"/><polygon class="cls-61" points="392.5 327.49 388.81 327.49 390.23 319.33 392.5 319.33 394.76 319.33 396.18 327.49 392.5 327.49"/><ellipse class="cls-61" cx="392.5" cy="313.09" rx="6.4" ry="4.64"/><path class="cls-59" d="M398.83,313.75c-.44-1.7-3.11-3.55-6.33-3.55s-5.9,1.86-6.33,3.55c.44,2.25,3.11,4,6.33,4S398.39,316,398.83,313.75Z"/><path class="cls-62" d="M392.5,312.13c-.53,0-4.54,1.55-4.54,3.31,0,2.5,2,7.48,4.54,7.48s4.54-5.72,4.54-7.48C397,313.51,393,312.13,392.5,312.13Z"/><path class="cls-59" d="M391.87,316.46a1.75,1.75,0,1,1-1.28-.55A2.09,2.09,0,0,1,391.87,316.46Z"/><path class="cls-59" d="M395.68,316.46a1.75,1.75,0,1,1-1.28-.55A2.09,2.09,0,0,1,395.68,316.46Z"/><path class="cls-59" d="M393.09,318.93a.72.72,0,0,1-1.19,0s.38.51.59.51S393.09,318.93,393.09,318.93Z"/><path class="cls-59" d="M394.49,320.18s-1.1.13-2,.13a17.35,17.35,0,0,1-1.94-.13,6.92,6.92,0,0,0,4,0Z"/><path class="cls-59" d="M393.53,320.76a9,9,0,0,1-1.05.08,7.63,7.63,0,0,1-1-.08,3.06,3.06,0,0,0,2.06,0Z"/><path class="cls-59" d="M390.62,315.94a1.71,1.71,0,0,1,1.53,1.44A1.34,1.34,0,0,0,390.62,315.94Z"/><path class="cls-59" d="M394.38,315.94a1.71,1.71,0,0,0-1.53,1.44A1.34,1.34,0,0,1,394.38,315.94Z"/><polygon class="cls-60" points="405.61 343.36 412.29 335.68 420.36 340.91 420.36 342.68 408.42 356.52 404.84 353.48 404.84 351.59 405.61 343.36"/><polygon class="cls-63" points="404.84 342.14 412.6 334.68 420.36 340.91 408.42 354.75 404.84 351.71 404.84 342.14"/><path class="cls-61" d="M416.57,348.16a1.7,1.7,0,0,1-2.39.17h0a1.7,1.7,0,0,1-.17-2.39l1.64-1.9a1.7,1.7,0,0,1,2.39-.17h0a1.7,1.7,0,0,1,.17,2.39Z"/><path class="cls-59" d="M404.84,342.14l3.76-3.61s-4.32-2.58-4.36-2.94c-.33-2.82.18-7.87-2.35-9-3.71-1.7-14.49,1.7-21.61-14.14,0,0-6.26,0-6.77,7.89,0,0,1.53,4,3.66,8.14s3,6.23,3,12.78v57.54l24.65-.08Z"/><path class="cls-61" d="M373.68,281.64a2.49,2.49,0,0,1,0-3.37c1.47-1.92,2.54-3.08,2.32-5.35,0,0,4.46,6.22.62,8.72"/><path class="cls-61" d="M377.16,291.68v3c0,.45-.82.85-.82,1.33,0,4,.83,9.63,3.94,17.6a9.92,9.92,0,0,1-4.67,5.51A102.81,102.81,0,0,1,374,294.22l1.17-2.54Z"/><rect class="cls-60" x="372.87" y="398.57" width="38.84" height="10.79"/><rect class="cls-59" x="371.45" y="402.27" width="41.68" height="3.38"/><rect class="cls-64" x="371.45" y="411.34" width="41.68" height="22.51"/><rect class="cls-64" x="362.82" y="446.2" width="58.93" height="20.82"/><rect class="cls-65" x="362.82" y="442.43" width="58.93" height="3.76"/><rect class="cls-65" x="367.71" y="433.49" width="49.17" height="3.89"/><path class="cls-65" d="M414.26,410.35a1,1,0,0,1-1,1h-42a1,1,0,0,1-1-1h0a1,1,0,0,1,1-1h42a1,1,0,0,1,1,1Z"/><polygon class="cls-60" points="375.15 281.64 373.68 281.64 374.25 298.15 375.15 298.15 376.05 298.15 376.62 281.64 375.15 281.64"/><path class="cls-61" d="M375.6,293.84a1.49,1.49,0,0,1-1.49,1.49h0a1.49,1.49,0,0,1-1.49-1.49v-2.2a1.49,1.49,0,0,1,1.49-1.49h0a1.49,1.49,0,0,1,1.49,1.49Z"/><path class="cls-61" d="M377.17,292a.6.6,0,0,1-.6.6h0a.6.6,0,0,1-.6-.6v-.51a.6.6,0,0,1,.6-.6h0a.6.6,0,0,1,.6.6Z"/><rect class="cls-59" x="370.79" y="283.36" width="8.72" height="3.56"/><g class="cls-10"><path class="cls-66" d="M377.92,433.49V420.27a1.5,1.5,0,0,0-3,0v13.21Z"/><path class="cls-66" d="M384.27,433.49V420.27a1.5,1.5,0,0,0-3,0v13.21Z"/><path class="cls-66" d="M390.62,433.49V420.27a1.5,1.5,0,0,0-3,0v13.21Z"/><path class="cls-66" d="M397,433.49V420.27a1.5,1.5,0,0,0-3,0v13.21Z"/><path class="cls-66" d="M403.31,433.49V420.27a1.5,1.5,0,0,0-3,0v13.21Z"/><path class="cls-66" d="M409.66,433.49V420.27a1.5,1.5,0,0,0-3,0v13.21Z"/></g><polygon class="cls-64" points="416.87 437.38 386.71 437.38 367.71 437.38 362.82 442.43 386.71 442.43 421.75 442.43 416.87 437.38"/><polygon class="cls-59" points="376.63 398.57 376.63 359.39 397.62 335.68 397.62 398.57 376.63 398.57"/><polygon class="cls-59" points="408.02 398.57 408.02 376.45 387.8 360.25 387.8 398.57 408.02 398.57"/><path class="cls-21" d="M392.5,300.5h0l-.84,8a8.29,8.29,0,0,0-1.76.36l-6.34-4.34,4.8,5a5.65,5.65,0,0,0-1.1.88l-6.87-2,6,3.22a3.51,3.51,0,0,0-.3,1.25l-5.32.56c-.17-.35-.34-.7-.51-1.07a4.29,4.29,0,0,0-.45,0c-2.73-7.33-3.46-12.57-3.48-16.4,0-.48.82-.88.82-1.33v-3.28a.6.6,0,0,0-.6-.6.59.59,0,0,0-.26.07l.14-4h3.07v-3.56h-2.95l.06-1.72c3.84-2.5-.62-8.72-.62-8.72.23,2.27-.85,3.43-2.32,5.35a2.49,2.49,0,0,0,0,3.37l.06,1.72h-2.95v3.56h3.07l.11,3.24a1.48,1.48,0,0,0-1.34,1.47v2.2a1.48,1.48,0,0,0,1.31,1.47,110,110,0,0,0,1,20.14,9.81,9.81,0,0,0-1.45,4.85s1.53,4,3.66,8.14,3,6.23,3,12.78v14.16l-3.56,4v39.17h-3.76v3.71h-1.42v3.38h1.42v3.71H371.3a1,1,0,0,0,0,2h.15v22.15h-3.74v3.89h0l-4.88,5.06h0V467H392.5Zm-6.6,20.33a25.33,25.33,0,0,1-4.94-7l5.41.57,0,.11,0,.09Z"/><line class="cls-67" x1="553.96" y1="444.64" x2="553.96" y2="428.33"/><line class="cls-67" x1="556.4" y1="444.64" x2="556.4" y2="431.95"/><line class="cls-67" x1="558.83" y1="444.64" x2="558.83" y2="434.05"/><line class="cls-67" x1="561.27" y1="444.64" x2="561.27" y2="435.86"/><line class="cls-67" x1="563.71" y1="444.64" x2="563.71" y2="437.06"/><line class="cls-67" x1="566.15" y1="444.64" x2="566.15" y2="438.26"/><line class="cls-67" x1="568.59" y1="444.64" x2="568.59" y2="439.16"/><line class="cls-67" x1="571.03" y1="444.64" x2="571.03" y2="439.46"/><line class="cls-67" x1="573.47" y1="444.64" x2="573.47" y2="439.92"/><line class="cls-67" x1="575.91" y1="444.64" x2="575.91" y2="440.1"/><line class="cls-67" x1="578.35" y1="444.64" x2="578.35" y2="440.48"/><line class="cls-67" x1="580.79" y1="444.64" x2="580.79" y2="440.48"/><line class="cls-67" x1="583.23" y1="444.64" x2="583.23" y2="440.1"/><line class="cls-67" x1="585.67" y1="444.64" x2="585.67" y2="439.92"/><line class="cls-67" x1="588.11" y1="444.64" x2="588.11" y2="439.46"/><line class="cls-67" x1="590.55" y1="444.64" x2="590.55" y2="439.16"/><line class="cls-67" x1="592.99" y1="444.64" x2="592.99" y2="438.26"/><line class="cls-67" x1="595.43" y1="444.64" x2="595.43" y2="437.06"/><line class="cls-67" x1="597.87" y1="444.64" x2="597.87" y2="435.86"/><line class="cls-67" x1="600.31" y1="444.64" x2="600.31" y2="434.05"/><line class="cls-67" x1="602.75" y1="444.64" x2="602.75" y2="431.95"/><line class="cls-67" x1="605.19" y1="444.64" x2="605.19" y2="428.33"/><line class="cls-67" x1="534.44" y1="444.64" x2="534.44" y2="442.89"/><line class="cls-67" x1="536.88" y1="444.64" x2="536.88" y2="441.91"/><line class="cls-67" x1="539.32" y1="444.64" x2="539.32" y2="440.78"/><line class="cls-67" x1="541.76" y1="444.64" x2="541.76" y2="438.98"/><line class="cls-67" x1="544.2" y1="444.64" x2="544.2" y2="436.72"/><line class="cls-67" x1="546.64" y1="444.64" x2="546.64" y2="433.1"/><line class="cls-67" x1="612.51" y1="444.64" x2="612.51" y2="433.12"/><line class="cls-67" x1="614.95" y1="444.64" x2="614.95" y2="436.29"/><line class="cls-67" x1="617.38" y1="444.64" x2="617.38" y2="438.53"/><line class="cls-67" x1="619.82" y1="444.64" x2="619.82" y2="440.48"/><line class="cls-67" x1="622.26" y1="444.64" x2="622.26" y2="441.65"/><line class="cls-67" x1="624.7" y1="444.64" x2="624.7" y2="442.68"/><path class="cls-68" d="M526.65,444.94s22.3-2.85,22.3-21"/><path class="cls-68" d="M632.5,444.94s-22.3-2.85-22.3-21"/><path class="cls-68" d="M608,423.14s-4.83,17.35-28.39,17.35-28.39-17.35-28.39-17.35"/><rect class="cls-69" x="525.76" y="444.33" width="107.62" height="5.5"/><rect class="cls-70" x="525.76" y="444.33" width="107.62" height="2.75"/><rect class="cls-71" x="536.55" y="445.28" width="3.6" height="3.6"/><rect class="cls-71" x="542.44" y="445.28" width="3.6" height="3.6"/><rect class="cls-71" x="530.66" y="445.28" width="3.6" height="3.6"/><rect class="cls-71" x="548.33" y="445.28" width="3.6" height="3.6"/><rect class="cls-71" x="554.22" y="445.28" width="3.6" height="3.6"/><rect class="cls-71" x="560.11" y="445.28" width="3.6" height="3.6"/><rect class="cls-71" x="565.99" y="445.28" width="3.6" height="3.6"/><rect class="cls-71" x="571.88" y="445.28" width="3.6" height="3.6"/><rect class="cls-71" x="577.77" y="445.28" width="3.6" height="3.6"/><rect class="cls-71" x="583.66" y="445.28" width="3.6" height="3.6"/><rect class="cls-71" x="589.55" y="445.28" width="3.6" height="3.6"/><rect class="cls-71" x="595.44" y="445.28" width="3.6" height="3.6"/><rect class="cls-71" x="601.33" y="445.28" width="3.6" height="3.6"/><rect class="cls-71" x="607.22" y="445.28" width="3.6" height="3.6"/><rect class="cls-71" x="613.11" y="445.28" width="3.6" height="3.6"/><rect class="cls-71" x="618.99" y="445.28" width="3.6" height="3.6"/><rect class="cls-71" x="624.88" y="445.28" width="3.6" height="3.6"/><rect class="cls-72" x="607.11" y="422.04" width="3.82" height="44.62"/><rect class="cls-70" x="607.11" y="422.04" width="1.91" height="44.62"/><rect class="cls-69" x="606.41" y="420.78" width="5.22" height="2.9"/><rect class="cls-70" x="606.41" y="420.78" width="5.22" height="1.45"/><rect class="cls-72" x="548.22" y="422.04" width="3.82" height="44.62"/><rect class="cls-70" x="548.22" y="422.04" width="1.91" height="44.62"/><rect class="cls-69" x="547.52" y="420.78" width="5.22" height="2.9"/><rect class="cls-70" x="547.52" y="420.78" width="5.22" height="1.45"/><rect class="cls-73" x="272.86" y="446.44" width="1.53" height="20.58"/><ellipse class="cls-74" cx="273.63" cy="445.39" rx="7" ry="5.86"/><path class="cls-21" d="M273.63,467V439.53c-3.87,0-7,2.62-7,5.86,0,3,2.73,5.5,6.24,5.82V467Z"/><rect class="cls-73" x="264.53" y="457.65" width="1.13" height="9.37"/><ellipse class="cls-74" cx="265.1" cy="456.87" rx="5.21" ry="4.36"/><path class="cls-21" d="M265.1,467V452.51c-2.88,0-5.21,2-5.21,4.36,0,2.25,2,4.09,4.64,4.33V467Z"/><rect class="cls-73" x="469.5" y="446.44" width="1.53" height="20.58"/><ellipse class="cls-74" cx="470.26" cy="445.39" rx="7" ry="5.86"/><path class="cls-21" d="M470.26,467V439.53c-3.87,0-7,2.62-7,5.86,0,3,2.73,5.5,6.24,5.82V467Z"/><rect class="cls-73" x="495.14" y="457.65" width="1.13" height="9.37"/><ellipse class="cls-74" cx="495.71" cy="456.87" rx="5.21" ry="4.36"/><path class="cls-21" d="M495.71,467V452.51c-2.88,0-5.21,2-5.21,4.36,0,2.25,2,4.09,4.64,4.33V467Z"/><rect class="cls-73" x="510.69" y="457.65" width="1.13" height="9.37"/><ellipse class="cls-74" cx="511.26" cy="456.87" rx="5.21" ry="4.36"/><path class="cls-21" d="M511.26,467V452.51c-2.88,0-5.21,2-5.21,4.36,0,2.25,2,4.09,4.64,4.33V467Z"/><rect class="cls-73" x="360.53" y="457.65" width="1.13" height="9.37"/><ellipse class="cls-74" cx="361.1" cy="456.87" rx="5.21" ry="4.36"/><path class="cls-21" d="M361.1,467V452.51c-2.88,0-5.21,2-5.21,4.36,0,2.25,2,4.09,4.64,4.33V467Z"/><rect class="cls-73" x="372.16" y="457.65" width="1.13" height="9.37"/><ellipse class="cls-74" cx="372.73" cy="456.87" rx="5.21" ry="4.36"/><path class="cls-21" d="M372.73,467V452.51c-2.88,0-5.21,2-5.21,4.36,0,2.25,2,4.09,4.64,4.33V467Z"/><path class="cls-75" d="M241.75,464.71a2.31,2.31,0,0,1-2.31,2.31H194.25a2.31,2.31,0,0,1-2.31-2.31h0a2.31,2.31,0,0,1,2.31-2.31h45.19a2.31,2.31,0,0,1,2.31,2.31Z"/><path class="cls-75" d="M457.14,464.71a2.31,2.31,0,0,1-2.31,2.31H409.64a2.31,2.31,0,0,1-2.31-2.31h0a2.31,2.31,0,0,1,2.31-2.31h45.19a2.31,2.31,0,0,1,2.31,2.31Z"/></g></g></g></svg>