<svg xmlns="http://www.w3.org/2000/svg" xmlns:xlink="http://www.w3.org/1999/xlink" viewBox="0 0 806 806"><defs><style>.cls-1{isolation:isolate;}.cls-2{fill:url(#radial-gradient);}.cls-14,.cls-3,.cls-4,.cls-48{fill:#fff;}.cls-3,.cls-5{stroke:#fff;stroke-miterlimit:10;stroke-width:1.91px;}.cls-5{fill:none;}.cls-6{fill:#56bcc1;}.cls-7{fill:#95d1db;}.cls-8{fill:#190101;opacity:0.2;}.cls-9{fill:#b9e8ed;}.cls-10{fill:#f26a9f;}.cls-11{fill:#ce3279;}.cls-12{fill:url(#linear-gradient);}.cls-13{opacity:0.3;mix-blend-mode:multiply;}.cls-14{opacity:0;}.cls-15{fill:#f6f3f3;opacity:0.05;}.cls-16{fill:#ede7e7;opacity:0.1;}.cls-17{fill:#e4dbdb;opacity:0.14;}.cls-18{fill:#dbcfcf;opacity:0.19;}.cls-19{fill:#d2c3c3;opacity:0.24;}.cls-20{fill:#c9b7b7;opacity:0.29;}.cls-21{fill:#c0abab;opacity:0.33;}.cls-22{fill:#b79f9f;opacity:0.38;}.cls-23{fill:#ae9393;opacity:0.43;}.cls-24{fill:#a58787;opacity:0.48;}.cls-25{fill:#9c7b7b;opacity:0.52;}.cls-26{fill:#936f6f;opacity:0.57;}.cls-27{fill:#8a6363;opacity:0.62;}.cls-28{fill:#815757;opacity:0.67;}.cls-29{fill:#784b4b;opacity:0.71;}.cls-30{fill:#6f3f3f;opacity:0.76;}.cls-31{fill:#633;opacity:0.81;}.cls-32{fill:#5d2727;opacity:0.86;}.cls-33{fill:#541b1b;opacity:0.9;}.cls-34{fill:#4b0f0f;opacity:0.95;}.cls-35{fill:#420303;}.cls-36{fill:#e54888;}.cls-37{fill:#f490b9;}.cls-38{fill:#32a5a5;}.cls-39{fill:url(#linear-gradient-2);}.cls-40{fill:#a379c9;}.cls-41{fill:#ffdb8a;}.cls-42{fill:#91e1c7;}.cls-43,.cls-54,.cls-55{fill:#58c4cb;}.cls-44{fill:#ff9f00;}.cls-45{fill:#ffd200;}.cls-46,.cls-48{opacity:0.6;}.cls-47{fill:#7dcbd3;}.cls-49{fill:#1b75bb;}.cls-50{fill:#23bbb8;}.cls-51{fill:#eb008b;}.cls-52{fill:#ff9400;}.cls-53{fill:#ffb000;}.cls-54{fill-rule:evenodd;}.cls-55{font-size:81.23px;font-family:YuppyTC-Regular-B5pc-H, Yuppy TC;}</style><radialGradient id="radial-gradient" cx="403" cy="403" r="403" gradientUnits="userSpaceOnUse"><stop offset="0" stop-color="#fff"/><stop offset="1" stop-color="#fedcdb"/></radialGradient><linearGradient id="linear-gradient" x1="167.7" y1="-211.13" x2="167.7" y2="-202.88" gradientTransform="translate(198.59 438.79) rotate(0.38)" gradientUnits="userSpaceOnUse"><stop offset="0" stop-color="#b61412"/><stop offset="0.05" stop-color="#f41601"/><stop offset="0.97" stop-color="#f41601"/><stop offset="0.98" stop-color="#db1508"/><stop offset="0.99" stop-color="#c6150e"/><stop offset="0.99" stop-color="#ba1411"/><stop offset="1" stop-color="#b61412"/></linearGradient><linearGradient id="linear-gradient-2" x1="248.61" y1="-184.63" x2="248.61" y2="-178.33" xlink:href="#linear-gradient"/></defs><title>bday</title><g class="cls-1"><g id="Layer_1" data-name="Layer 1"><rect class="cls-2" width="806" height="806"/><path class="cls-3" d="M356.6,374a.85.85,0,1,1,.85-.85A.87.87,0,0,1,356.6,374Z" transform="translate(2 2)"/><path class="cls-3" d="M622.6,372.13a.88.88,0,0,1-.88-.87.87.87,0,0,1,1.73,0A.88.88,0,0,1,622.6,372.13Z" transform="translate(2 2)"/><path class="cls-3" d="M268,409a.85.85,0,1,1,.85-.85A.83.83,0,0,1,268,409Z" transform="translate(2 2)"/><circle class="cls-3" cx="601.19" cy="613.55" r="0.91"/><path class="cls-3" d="M77,613.39a.92.92,0,1,1,1-.93A.93.93,0,0,1,77,613.39Z" transform="translate(2 2)"/><path class="cls-3" d="M457.48,235.3a.85.85,0,0,1,0-1.69.85.85,0,1,1,0,1.69Z" transform="translate(2 2)"/><path class="cls-3" d="M516.34,194.44a.85.85,0,1,1,.85-.85A.87.87,0,0,1,516.34,194.44Z" transform="translate(2 2)"/><path class="cls-3" d="M571.3,284.68a.86.86,0,0,1-.85-.85.87.87,0,0,1,.85-.84.84.84,0,0,1,.86.84A.83.83,0,0,1,571.3,284.68Z" transform="translate(2 2)"/><path class="cls-3" d="M303.07,252.17a.87.87,0,0,1-.89-.84.86.86,0,0,1,.89-.85.85.85,0,0,1,.84.85A.86.86,0,0,1,303.07,252.17Z" transform="translate(2 2)"/><path class="cls-3" d="M670.82,412.12a.85.85,0,1,1,0-1.69.85.85,0,0,1,0,1.69Z" transform="translate(2 2)"/><path class="cls-3" d="M273.05,266.24a.86.86,0,0,1,0-1.71.86.86,0,1,1,0,1.71Z" transform="translate(2 2)"/><path class="cls-3" d="M328,266.53a.85.85,0,0,1,0-1.69.85.85,0,1,1,0,1.69Z" transform="translate(2 2)"/><path class="cls-3" d="M325.6,200.11a.86.86,0,0,1,0-1.71.86.86,0,0,1,0,1.71Z" transform="translate(2 2)"/><path class="cls-3" d="M95.3,515.31a.83.83,0,0,1-.85-.84.84.84,0,0,1,.85-.85.87.87,0,0,1,.85.85A.85.85,0,0,1,95.3,515.31Z" transform="translate(2 2)"/><path class="cls-3" d="M110,314.23a.86.86,0,0,1,0-1.71.86.86,0,0,1,0,1.71Z" transform="translate(2 2)"/><path class="cls-3" d="M157.14,401.63a.86.86,0,0,1,0-1.71.86.86,0,0,1,0,1.71Z" transform="translate(2 2)"/><path class="cls-3" d="M59.17,419.13a.85.85,0,1,1,0-1.69.85.85,0,1,1,0,1.69Z" transform="translate(2 2)"/><path class="cls-3" d="M192.89,282.61a.85.85,0,1,1,0-1.69.85.85,0,1,1,0,1.69Z" transform="translate(2 2)"/><path class="cls-3" d="M95.3,152.3a.85.85,0,1,1,0-1.69.85.85,0,0,1,0,1.69Z" transform="translate(2 2)"/><path class="cls-3" d="M109.15,251.33a.86.86,0,0,1,0-1.72.86.86,0,0,1,0,1.72Z" transform="translate(2 2)"/><path class="cls-3" d="M69,193.59a.85.85,0,0,1,0-1.69.85.85,0,1,1,0,1.69Z" transform="translate(2 2)"/><path class="cls-3" d="M9.76,316.5a.85.85,0,1,1,.85-.85A.83.83,0,0,1,9.76,316.5Z" transform="translate(2 2)"/><path class="cls-3" d="M504.89,331a.85.85,0,1,1,.85-.84A.83.83,0,0,1,504.89,331Z" transform="translate(2 2)"/><path class="cls-3" d="M390.22,283.46a.85.85,0,1,1,0-1.7.85.85,0,0,1,0,1.7Z" transform="translate(2 2)"/><path class="cls-3" d="M565.58,235.3a.85.85,0,1,1,.85-.85A.83.83,0,0,1,565.58,235.3Z" transform="translate(2 2)"/><path class="cls-3" d="M405.57,212.52a.85.85,0,1,1,0-1.69.86.86,0,0,1,.84.84A.87.87,0,0,1,405.57,212.52Z" transform="translate(2 2)"/><path class="cls-3" d="M260.06,466.62a.84.84,0,0,1-.85-.85.85.85,0,1,1,1.69,0A.83.83,0,0,1,260.06,466.62Z" transform="translate(2 2)"/><path class="cls-3" d="M330.6,405.37a.85.85,0,1,1,.85-.85A.87.87,0,0,1,330.6,405.37Z" transform="translate(2 2)"/><path class="cls-3" d="M264.17,462a.85.85,0,0,1,0-1.69.85.85,0,1,1,0,1.69Z" transform="translate(2 2)"/><path class="cls-3" d="M192.61,562.31a.93.93,0,0,1,0-1.85.93.93,0,0,1,0,1.85Z" transform="translate(2 2)"/><path class="cls-3" d="M250.36,490.16a.38.38,0,0,1-.4-.37.37.37,0,0,1,.4-.38.36.36,0,0,1,.36.38A.37.37,0,0,1,250.36,490.16Z" transform="translate(2 2)"/><path class="cls-3" d="M291.23,389.89a.38.38,0,0,1-.39-.38.37.37,0,0,1,.39-.38.36.36,0,0,1,.36.38A.38.38,0,0,1,291.23,389.89Z" transform="translate(2 2)"/><path class="cls-3" d="M228.36,469.45a.38.38,0,1,1,0-.75.38.38,0,0,1,0,.75Z" transform="translate(2 2)"/><path class="cls-3" d="M225.34,476a.9.9,0,0,1,0-1.79.9.9,0,0,1,0,1.79Z" transform="translate(2 2)"/><path class="cls-3" d="M353,437.44a.69.69,0,0,1,0-1.38.69.69,0,0,1,0,1.38Z" transform="translate(2 2)"/><path class="cls-3" d="M235.42,559.6a.73.73,0,0,1-.74-.75.73.73,0,0,1,.74-.74.76.76,0,0,1,.75.74A.77.77,0,0,1,235.42,559.6Z" transform="translate(2 2)"/><path class="cls-3" d="M281.55,465.67a.7.7,0,0,1-.7-.67.71.71,0,0,1,.7-.69.68.68,0,0,1,.69.69A.66.66,0,0,1,281.55,465.67Z" transform="translate(2 2)"/><path class="cls-3" d="M647.16,591.48a.74.74,0,1,1,0-1.48.74.74,0,1,1,0,1.48Z" transform="translate(2 2)"/><path class="cls-3" d="M544.51,632.72a.77.77,0,0,1-.75-.75.76.76,0,0,1,.75-.74.73.73,0,0,1,.74.74A.73.73,0,0,1,544.51,632.72Z" transform="translate(2 2)"/><path class="cls-4" d="M123.1,633.46a.73.73,0,0,1-.75-.74.74.74,0,0,1,.75-.75.77.77,0,0,1,.74.75A.76.76,0,0,1,123.1,633.46Z" transform="translate(2 2)"/><path class="cls-5" d="M123.1,633.46a.73.73,0,0,1-.75-.74.74.74,0,0,1,.75-.75.77.77,0,0,1,.74.75A.76.76,0,0,1,123.1,633.46Z" transform="translate(2 2)"/><path class="cls-4" d="M19.86,194.28a.69.69,0,1,1,0-1.38.69.69,0,1,1,0,1.38Z" transform="translate(2 2)"/><path class="cls-5" d="M19.86,194.28a.69.69,0,1,1,0-1.38.69.69,0,1,1,0,1.38Z" transform="translate(2 2)"/><path class="cls-4" d="M17.55,285.21a.69.69,0,0,1,0-1.38.69.69,0,0,1,0,1.38Z" transform="translate(2 2)"/><path class="cls-5" d="M17.55,285.21a.69.69,0,0,1,0-1.38.69.69,0,0,1,0,1.38Z" transform="translate(2 2)"/><path class="cls-3" d="M434.45,325.5a.67.67,0,0,1-.66-.69.67.67,0,1,1,1.34,0A.68.68,0,0,1,434.45,325.5Z" transform="translate(2 2)"/><path class="cls-3" d="M309.81,339.12a.69.69,0,0,1,0-1.38.69.69,0,0,1,0,1.38Z" transform="translate(2 2)"/><path class="cls-3" d="M328,297.1a.71.71,0,0,1-.69-.69.7.7,0,0,1,.69-.68.67.67,0,0,1,.69.68A.68.68,0,0,1,328,297.1Z" transform="translate(2 2)"/><path class="cls-3" d="M103.36,553.28a.75.75,0,0,1,0-1.5.75.75,0,0,1,0,1.5Z" transform="translate(2 2)"/><path class="cls-3" d="M154,389.21a.71.71,0,0,1-.69-.69.69.69,0,0,1,.69-.67.66.66,0,0,1,.69.67A.68.68,0,0,1,154,389.21Z" transform="translate(2 2)"/><path class="cls-3" d="M192.08,459.74a.67.67,0,0,1-.69-.67.68.68,0,0,1,.69-.69.68.68,0,0,1,.65.69A.67.67,0,0,1,192.08,459.74Z" transform="translate(2 2)"/><path class="cls-3" d="M49.62,482.63a.66.66,0,0,1-.69-.67.68.68,0,0,1,.69-.69.67.67,0,0,1,.65.69A.65.65,0,0,1,49.62,482.63Z" transform="translate(2 2)"/><path class="cls-3" d="M113,473.87a.7.7,0,0,1-.69-.69.69.69,0,0,1,.69-.67.66.66,0,0,1,.69.67A.68.68,0,0,1,113,473.87Z" transform="translate(2 2)"/><path class="cls-3" d="M220.89,363.69a.7.7,0,0,1-.69-.69.69.69,0,0,1,.69-.67.67.67,0,0,1,.69.67A.68.68,0,0,1,220.89,363.69Z" transform="translate(2 2)"/><path class="cls-3" d="M40.39,388.52a.66.66,0,0,1-.69-.67.68.68,0,0,1,.69-.69.7.7,0,0,1,.69.69A.69.69,0,0,1,40.39,388.52Z" transform="translate(2 2)"/><path class="cls-3" d="M41.08,257.06a.68.68,0,1,1,0-1.36.68.68,0,1,1,0,1.36Z" transform="translate(2 2)"/><path class="cls-3" d="M153.31,338.43a.7.7,0,0,1-.69-.69.69.69,0,0,1,.69-.67.66.66,0,0,1,.69.67A.68.68,0,0,1,153.31,338.43Z" transform="translate(2 2)"/><path class="cls-3" d="M639.29,424.93a.67.67,0,0,1-.68-.68.69.69,0,0,1,.68-.7.72.72,0,0,1,.7.7A.71.71,0,0,1,639.29,424.93Z" transform="translate(2 2)"/><path class="cls-3" d="M472.73,402.78a.7.7,0,0,1-.69-.68.7.7,0,0,1,.69-.69.68.68,0,0,1,.69.69A.67.67,0,0,1,472.73,402.78Z" transform="translate(2 2)"/><path class="cls-3" d="M380.2,364.38a.69.69,0,0,1,0-1.38.69.69,0,0,1,0,1.38Z" transform="translate(2 2)"/><path class="cls-3" d="M463.7,361.09a.69.69,0,1,1,.65-.69A.67.67,0,0,1,463.7,361.09Z" transform="translate(2 2)"/><path class="cls-3" d="M562.84,153.29a.69.69,0,1,1,0-1.38.69.69,0,0,1,0,1.38Z" transform="translate(2 2)"/><path class="cls-3" d="M581,111.26a.69.69,0,1,1,0-1.38.69.69,0,0,1,0,1.38Z" transform="translate(2 2)"/><path class="cls-3" d="M521.71,325.5a.71.71,0,0,1-.7-.69.7.7,0,0,1,.7-.67.65.65,0,0,1,.68.67A.67.67,0,0,1,521.71,325.5Z" transform="translate(2 2)"/><path class="cls-3" d="M403.48,605.3a.92.92,0,0,1-.91-.91.94.94,0,0,1,.91-.93.92.92,0,0,1,.91.93A.9.9,0,0,1,403.48,605.3Z" transform="translate(2 2)"/><path class="cls-3" d="M508.21,597.53a.91.91,0,1,1,0-1.82.91.91,0,1,1,0,1.82Z" transform="translate(2 2)"/><path class="cls-3" d="M348.84,625.56a.73.73,0,0,1-.74-.74.73.73,0,0,1,.74-.75.77.77,0,0,1,.75.75A.76.76,0,0,1,348.84,625.56Z" transform="translate(2 2)"/><path class="cls-3" d="M433.36,619.29a.76.76,0,0,1-.75-.74.77.77,0,0,1,.75-.75.73.73,0,0,1,.74.75A.73.73,0,0,1,433.36,619.29Z" transform="translate(2 2)"/><path class="cls-3" d="M436.19,445.94a.85.85,0,0,1,0-1.69.85.85,0,1,1,0,1.69Z" transform="translate(2 2)"/><path class="cls-3" d="M348.05,540.92a.92.92,0,0,1-.91-.94.9.9,0,0,1,.91-.91.93.93,0,0,1,.91.91A1,1,0,0,1,348.05,540.92Z" transform="translate(2 2)"/><path class="cls-3" d="M452.78,533.15a.93.93,0,0,1,0-1.85.93.93,0,0,1,0,1.85Z" transform="translate(2 2)"/><path class="cls-3" d="M372.58,482.79a.69.69,0,0,1,0-1.38.69.69,0,0,1,0,1.38Z" transform="translate(2 2)"/><path class="cls-3" d="M293.37,561.15a.74.74,0,0,1,0-1.48.74.74,0,0,1,0,1.48Z" transform="translate(2 2)"/><path class="cls-3" d="M394.77,407.84a.69.69,0,0,1-.69-.67.7.7,0,0,1,.69-.69.68.68,0,0,1,.69.69A.66.66,0,0,1,394.77,407.84Z" transform="translate(2 2)"/><path class="cls-3" d="M377.92,554.89a.73.73,0,0,1-.74-.75.73.73,0,0,1,.74-.74.76.76,0,0,1,.75.74A.77.77,0,0,1,377.92,554.89Z" transform="translate(2 2)"/><path class="cls-3" d="M546.53,14.43a.69.69,0,0,1-.69-.7.68.68,0,0,1,.69-.68.7.7,0,0,1,.69.68A.71.71,0,0,1,546.53,14.43Z" transform="translate(2 2)"/><path class="cls-3" d="M526.89,80.91a.69.69,0,0,1,0-1.38.69.69,0,0,1,0,1.38Z" transform="translate(2 2)"/><path class="cls-3" d="M427,98.39a.7.7,0,0,1-.69-.69A.68.68,0,0,1,427,97a.65.65,0,0,1,.69.66A.68.68,0,0,1,427,98.39Z" transform="translate(2 2)"/><path class="cls-3" d="M425.62,160.56a.71.71,0,0,1-.7-.69.7.7,0,0,1,.7-.67.66.66,0,0,1,.69.67A.68.68,0,0,1,425.62,160.56Z" transform="translate(2 2)"/><path class="cls-3" d="M322.27,15.1a.67.67,0,0,1-.69-.67.69.69,0,0,1,.69-.69.71.71,0,0,1,.69.69A.69.69,0,0,1,322.27,15.1Z" transform="translate(2 2)"/><path class="cls-3" d="M587.26,190.71a.69.69,0,0,1,0-1.38.69.69,0,0,1,0,1.38Z" transform="translate(2 2)"/><path class="cls-3" d="M401.16,187.38a.71.71,0,0,1-.69-.69.69.69,0,0,1,.69-.67.66.66,0,0,1,.69.67A.68.68,0,0,1,401.16,187.38Z" transform="translate(2 2)"/><path class="cls-3" d="M149,166.87a.68.68,0,0,1-.69-.69.66.66,0,0,1,.69-.67.69.69,0,0,1,.69.67A.7.7,0,0,1,149,166.87Z" transform="translate(2 2)"/><path class="cls-3" d="M472.51,175.66a.66.66,0,0,1-.69-.67.68.68,0,0,1,.69-.69.7.7,0,0,1,.69.69A.69.69,0,0,1,472.51,175.66Z" transform="translate(2 2)"/><path class="cls-3" d="M516.34,152.82a.66.66,0,0,1-.68-.67.67.67,0,1,1,1.33,0A.65.65,0,0,1,516.34,152.82Z" transform="translate(2 2)"/><path class="cls-3" d="M342.5,184.28a.66.66,0,0,1-.69-.67.68.68,0,0,1,.69-.69.7.7,0,0,1,.69.69A.69.69,0,0,1,342.5,184.28Z" transform="translate(2 2)"/><path class="cls-3" d="M259.21,13.74a.68.68,0,0,1-.68-.7.66.66,0,0,1,.68-.67.7.7,0,0,1,.7.67A.72.72,0,0,1,259.21,13.74Z" transform="translate(2 2)"/><path class="cls-3" d="M372.9,32.09a.7.7,0,0,1-.69-.69.71.71,0,0,1,.69-.7.69.69,0,0,1,.69.7A.68.68,0,0,1,372.9,32.09Z" transform="translate(2 2)"/><path class="cls-3" d="M463.63,24.34a.69.69,0,1,1,0-1.38.69.69,0,0,1,0,1.38Z" transform="translate(2 2)"/><path class="cls-3" d="M289.79,55.81a.69.69,0,1,1,0-1.38.69.69,0,0,1,0,1.38Z" transform="translate(2 2)"/><path class="cls-3" d="M135.74,7.17a.67.67,0,0,1-.69-.67.69.69,0,0,1,.69-.69.71.71,0,0,1,.69.69A.69.69,0,0,1,135.74,7.17Z" transform="translate(2 2)"/><path class="cls-3" d="M134.35,69.34a.69.69,0,0,1-.68-.67.7.7,0,0,1,.68-.69.69.69,0,0,1,.7.69A.68.68,0,0,1,134.35,69.34Z" transform="translate(2 2)"/><path class="cls-3" d="M225,61.61a.69.69,0,0,1,0-1.38.69.69,0,1,1,0,1.38Z" transform="translate(2 2)"/><path class="cls-3" d="M51.24,93.08a.69.69,0,0,1,0-1.38.69.69,0,0,1,0,1.38Z" transform="translate(2 2)"/><path class="cls-3" d="M651.44,361.76a.69.69,0,0,1-.69-.67.71.71,0,0,1,.69-.69.68.68,0,0,1,.69.69A.66.66,0,0,1,651.44,361.76Z" transform="translate(2 2)"/><path class="cls-3" d="M332,462.78a.68.68,0,0,1-.64-.69.65.65,0,0,1,.64-.67.66.66,0,0,1,.69.67A.68.68,0,0,1,332,462.78Z" transform="translate(2 2)"/><path class="cls-3" d="M654.76,358a.69.69,0,0,1,0-1.38.69.69,0,0,1,0,1.38Z" transform="translate(2 2)"/><path class="cls-3" d="M216.36,592.23a.75.75,0,0,1,0-1.49.75.75,0,0,1,0,1.49Z" transform="translate(2 2)"/><path class="cls-3" d="M239,531.25a.31.31,0,0,1-.31-.33.33.33,0,0,1,.31-.33.38.38,0,0,1,.36.33A.35.35,0,0,1,239,531.25Z" transform="translate(2 2)"/><path class="cls-3" d="M300.27,450.27A.3.3,0,0,1,300,450a.29.29,0,1,1,.57,0A.29.29,0,0,1,300.27,450.27Z" transform="translate(2 2)"/><path class="cls-3" d="M625.87,364.06a.3.3,0,1,1,0-.6.29.29,0,0,1,.29.29A.3.3,0,0,1,625.87,364.06Z" transform="translate(2 2)"/><path class="cls-3" d="M623.45,369.37a.73.73,0,1,1,0-1.45.73.73,0,0,1,0,1.45Z" transform="translate(2 2)"/><path class="cls-3" d="M626.48,457.34a.85.85,0,0,1,0-1.69.85.85,0,1,1,0,1.69Z" transform="translate(2 2)"/><path class="cls-3" d="M401.58,542.71a.92.92,0,1,1,0-1.84.92.92,0,0,1,0,1.84Z" transform="translate(2 2)"/><path class="cls-3" d="M604.75,494.65a.85.85,0,0,1,0-1.69.85.85,0,1,1,0,1.69Z" transform="translate(2 2)"/><path class="cls-3" d="M644.23,492.16a.69.69,0,0,1-.69-.7.69.69,0,1,1,.69.7Z" transform="translate(2 2)"/><path class="cls-4" d="M447.6,562.78a.75.75,0,0,1-.74-.74.76.76,0,0,1,.74-.75.73.73,0,0,1,.74.75A.73.73,0,0,1,447.6,562.78Z" transform="translate(2 2)"/><path class="cls-5" d="M447.6,562.78a.75.75,0,0,1-.74-.74.76.76,0,0,1,.74-.75.73.73,0,0,1,.74.75A.73.73,0,0,1,447.6,562.78Z" transform="translate(2 2)"/><path class="cls-3" d="M441.58,486.32a.69.69,0,0,1,0-1.38.69.69,0,0,1,0,1.38Z" transform="translate(2 2)"/><path class="cls-3" d="M626.68,522.25a.68.68,0,0,1-.69-.69.66.66,0,0,1,.69-.67.69.69,0,0,1,.69.67A.7.7,0,0,1,626.68,522.25Z" transform="translate(2 2)"/><path class="cls-3" d="M647.53,466a.3.3,0,0,1-.29-.31.29.29,0,0,1,.29-.28.3.3,0,1,1,0,.59Z" transform="translate(2 2)"/><path class="cls-3" d="M9.76,612.46a.92.92,0,1,1,.91-.91A.9.9,0,0,1,9.76,612.46Z" transform="translate(2 2)"/><path class="cls-3" d="M27.43,284.68a.85.85,0,0,1-.84-.85.86.86,0,0,1,.84-.84.83.83,0,0,1,.85.84A.83.83,0,0,1,27.43,284.68Z" transform="translate(2 2)"/><path class="cls-3" d="M21.72,235.3a.85.85,0,1,1,0-1.69.85.85,0,0,1,0,1.69Z" transform="translate(2 2)"/><path class="cls-3" d="M14.82,550.34a.76.76,0,0,1-.75-.74.75.75,0,0,1,.75-.74.71.71,0,0,1,.74.74A.73.73,0,0,1,14.82,550.34Z" transform="translate(2 2)"/><path class="cls-3" d="M599.19,696.7a.91.91,0,1,1,0-1.82.91.91,0,1,1,0,1.82Z" transform="translate(2 2)"/><path class="cls-3" d="M77,697.63a.92.92,0,1,1,1-.93A.93.93,0,0,1,77,697.63Z" transform="translate(2 2)"/><path class="cls-3" d="M192.61,646.55a.92.92,0,1,1,0-1.84.92.92,0,0,1,0,1.84Z" transform="translate(2 2)"/><path class="cls-3" d="M235.42,643.84a.75.75,0,0,1,0-1.49.75.75,0,1,1,0,1.49Z" transform="translate(2 2)"/><path class="cls-3" d="M604.24,634.59a.75.75,0,0,1,0-1.49.75.75,0,1,1,0,1.49Z" transform="translate(2 2)"/><path class="cls-3" d="M544.51,717a.75.75,0,1,1,0-1.49.75.75,0,0,1,0,1.49Z" transform="translate(2 2)"/><path class="cls-4" d="M123.1,717.7a.73.73,0,0,1-.75-.74.74.74,0,0,1,.75-.75.77.77,0,0,1,.74.75A.76.76,0,0,1,123.1,717.7Z" transform="translate(2 2)"/><path class="cls-5" d="M123.1,717.7a.73.73,0,0,1-.75-.74.74.74,0,0,1,.75-.75.77.77,0,0,1,.74.75A.76.76,0,0,1,123.1,717.7Z" transform="translate(2 2)"/><path class="cls-3" d="M103.36,637.52a.73.73,0,0,1-.74-.75.73.73,0,0,1,.74-.74.75.75,0,0,1,.74.74A.76.76,0,0,1,103.36,637.52Z" transform="translate(2 2)"/><path class="cls-3" d="M403.48,689.54a.92.92,0,0,1-.91-.91.94.94,0,0,1,.91-.93.92.92,0,0,1,.91.93A.9.9,0,0,1,403.48,689.54Z" transform="translate(2 2)"/><path class="cls-3" d="M508.21,681.79a1,1,0,0,1-.92-.93.94.94,0,0,1,.92-.91.9.9,0,0,1,.91.91A.92.92,0,0,1,508.21,681.79Z" transform="translate(2 2)"/><path class="cls-3" d="M348.84,709.8a.73.73,0,0,1-.74-.74.73.73,0,0,1,.74-.75.77.77,0,0,1,.75.75A.76.76,0,0,1,348.84,709.8Z" transform="translate(2 2)"/><path class="cls-3" d="M433.36,703.53a.76.76,0,0,1-.75-.74.77.77,0,0,1,.75-.75.73.73,0,0,1,.74.75A.73.73,0,0,1,433.36,703.53Z" transform="translate(2 2)"/><path class="cls-3" d="M348.05,625.16a.93.93,0,0,1,0-1.85.93.93,0,0,1,0,1.85Z" transform="translate(2 2)"/><path class="cls-3" d="M452.78,617.39a.93.93,0,0,1,0-1.85.93.93,0,0,1,0,1.85Z" transform="translate(2 2)"/><path class="cls-3" d="M293.37,645.4a.76.76,0,0,1-.74-.75.75.75,0,0,1,.74-.74.73.73,0,0,1,.74.74A.73.73,0,0,1,293.37,645.4Z" transform="translate(2 2)"/><path class="cls-3" d="M377.92,639.13a.73.73,0,0,1-.74-.75.73.73,0,0,1,.74-.74.76.76,0,0,1,.75.74A.77.77,0,0,1,377.92,639.13Z" transform="translate(2 2)"/><path class="cls-3" d="M216.36,676.47a.75.75,0,0,1-.74-.74.76.76,0,0,1,.74-.75.73.73,0,0,1,.74.75A.73.73,0,0,1,216.36,676.47Z" transform="translate(2 2)"/><path class="cls-3" d="M239,615.5a.32.32,0,0,1-.31-.33.32.32,0,0,1,.31-.33.37.37,0,0,1,.36.33A.36.36,0,0,1,239,615.5Z" transform="translate(2 2)"/><path class="cls-3" d="M401.58,627a.9.9,0,0,1-.92-.91.89.89,0,0,1,.92-.91.91.91,0,0,1,.91.91A.93.93,0,0,1,401.58,627Z" transform="translate(2 2)"/><path class="cls-4" d="M447.6,647a.74.74,0,0,1,0-1.48.74.74,0,0,1,0,1.48Z" transform="translate(2 2)"/><path class="cls-5" d="M447.6,647a.74.74,0,0,1,0-1.48.74.74,0,0,1,0,1.48Z" transform="translate(2 2)"/><path class="cls-3" d="M9.76,696.7a.91.91,0,1,1,.91-.91A.9.9,0,0,1,9.76,696.7Z" transform="translate(2 2)"/><path class="cls-3" d="M14.82,634.59a.75.75,0,1,1,0-1.49.75.75,0,0,1,0,1.49Z" transform="translate(2 2)"/><path class="cls-3" d="M14.65,713.9a.93.93,0,0,1,0,1.85.93.93,0,0,1,0-1.85Z" transform="translate(2 2)"/><path class="cls-3" d="M536.77,713a.92.92,0,1,1-.92.91A.94.94,0,0,1,536.77,713Z" transform="translate(2 2)"/><path class="cls-3" d="M421.23,764.06a.94.94,0,0,1,.91.93.93.93,0,0,1-.91.91.9.9,0,0,1-.91-.91A.92.92,0,0,1,421.23,764.06Z" transform="translate(2 2)"/><path class="cls-3" d="M378.41,766.77a.74.74,0,1,1,0,1.48.74.74,0,0,1,0-1.48Z" transform="translate(2 2)"/><path class="cls-3" d="M9.59,776a.74.74,0,1,1,0,1.48.74.74,0,1,1,0-1.48Z" transform="translate(2 2)"/><path class="cls-3" d="M69.33,693.67a.74.74,0,0,1,.74.74.75.75,0,0,1-.74.73.73.73,0,0,1-.75-.73A.72.72,0,0,1,69.33,693.67Z" transform="translate(2 2)"/><path class="cls-4" d="M490.74,692.92a.74.74,0,0,1,.75.75.75.75,0,0,1-1.49,0A.75.75,0,0,1,490.74,692.92Z" transform="translate(2 2)"/><path class="cls-5" d="M490.74,692.92a.74.74,0,0,1,.75.75.75.75,0,0,1-1.49,0A.75.75,0,0,1,490.74,692.92Z" transform="translate(2 2)"/><path class="cls-3" d="M510.48,773.11a.71.71,0,0,1,.74.73.73.73,0,0,1-.74.74.77.77,0,0,1-.75-.74A.74.74,0,0,1,510.48,773.11Z" transform="translate(2 2)"/><path class="cls-3" d="M210.36,721.06a.93.93,0,0,1,0,1.85.93.93,0,0,1,0-1.85Z" transform="translate(2 2)"/><path class="cls-3" d="M105.63,728.83a.93.93,0,0,1,0,1.85.93.93,0,0,1,0-1.85Z" transform="translate(2 2)"/><path class="cls-3" d="M265,700.82a.73.73,0,0,1,.74.75.73.73,0,0,1-.74.74.76.76,0,0,1-.75-.74A.77.77,0,0,1,265,700.82Z" transform="translate(2 2)"/><path class="cls-3" d="M180.48,707.09a.77.77,0,0,1,.75.75.76.76,0,0,1-.75.74.73.73,0,0,1-.74-.74A.73.73,0,0,1,180.48,707.09Z" transform="translate(2 2)"/><path class="cls-3" d="M265.79,785.47a.9.9,0,0,1,.91.91.91.91,0,0,1-.91.93.94.94,0,0,1-.91-.93A.93.93,0,0,1,265.79,785.47Z" transform="translate(2 2)"/><path class="cls-3" d="M161.06,793.24a.91.91,0,1,1,0,1.82.91.91,0,0,1,0-1.82Z" transform="translate(2 2)"/><path class="cls-3" d="M320.47,765.23a.73.73,0,0,1,.74.72.76.76,0,0,1-.74.75.73.73,0,0,1-.74-.75A.71.71,0,0,1,320.47,765.23Z" transform="translate(2 2)"/><path class="cls-3" d="M235.91,771.48a.73.73,0,0,1,.75.74.74.74,0,0,1-.75.75.77.77,0,0,1-.74-.75A.76.76,0,0,1,235.91,771.48Z" transform="translate(2 2)"/><path class="cls-3" d="M397.48,734.13a.73.73,0,0,1,.7.75.71.71,0,0,1-.7.74.72.72,0,0,1-.74-.74A.73.73,0,0,1,397.48,734.13Z" transform="translate(2 2)"/><path class="cls-3" d="M374.86,795.12a.32.32,0,0,1,.31.32.32.32,0,0,1-.31.33.36.36,0,0,1-.36-.33A.37.37,0,0,1,374.86,795.12Z" transform="translate(2 2)"/><path class="cls-3" d="M212.26,783.65a.93.93,0,0,1,0,1.85.93.93,0,0,1,0-1.85Z" transform="translate(2 2)"/><path class="cls-4" d="M166.24,763.58a.75.75,0,0,1,0,1.49.75.75,0,1,1,0-1.49Z" transform="translate(2 2)"/><path class="cls-5" d="M166.24,763.58a.75.75,0,0,1,0,1.49.75.75,0,1,1,0-1.49Z" transform="translate(2 2)"/><path class="cls-3" d="M604.08,713.9a.93.93,0,0,1,0,1.85.93.93,0,0,1,0-1.85Z" transform="translate(2 2)"/><path class="cls-3" d="M599,776a.74.74,0,0,1,0,1.48.74.74,0,0,1,0-1.48Z" transform="translate(2 2)"/><path class="cls-3" d="M19,153.29a.69.69,0,1,1,.65-.69A.68.68,0,0,1,19,153.29Z" transform="translate(2 2)"/><path class="cls-3" d="M37.17,111.26a.69.69,0,1,1,0-1.38.69.69,0,0,1,0,1.38Z" transform="translate(2 2)"/><path class="cls-3" d="M20.87,25a.69.69,0,0,1,0-1.38.69.69,0,1,1,0,1.38Z" transform="translate(2 2)"/><path class="cls-3" d="M26.78,361.76a.66.66,0,0,1-.69-.67.68.68,0,0,1,.69-.69.67.67,0,0,1,.65.69A.65.65,0,0,1,26.78,361.76Z" transform="translate(2 2)"/><path class="cls-3" d="M30.1,358a.69.69,0,0,1,0-1.38.69.69,0,1,1,0,1.38Z" transform="translate(2 2)"/><path class="cls-3" d="M19.52,492.16a.7.7,0,0,1-.67-.7.69.69,0,0,1,.67-.68.68.68,0,0,1,.69.68A.69.69,0,0,1,19.52,492.16Z" transform="translate(2 2)"/><path class="cls-3" d="M22.87,466a.3.3,0,0,1-.33-.31.29.29,0,0,1,.33-.28.29.29,0,0,1,.28.28A.29.29,0,0,1,22.87,466Z" transform="translate(2 2)"/><path class="cls-3" d="M627.37,454.58a.72.72,0,1,1,.68-.72A.7.7,0,0,1,627.37,454.58Z" transform="translate(2 2)"/><path class="cls-3" d="M218.78,170.38a.85.85,0,1,1,.87-.84A.86.86,0,0,1,218.78,170.38Z" transform="translate(2 2)"/><path class="cls-3" d="M311.53,377.44a.85.85,0,1,1,0-1.69.85.85,0,0,1,0,1.69Z" transform="translate(2 2)"/><path class="cls-3" d="M232.59,114.44a.85.85,0,1,1,.85-.84A.83.83,0,0,1,232.59,114.44Z" transform="translate(2 2)"/><path class="cls-3" d="M236.71,109.78a.85.85,0,1,1,0-1.69.85.85,0,0,1,0,1.69Z" transform="translate(2 2)"/><path class="cls-3" d="M197,207.69a.85.85,0,0,1,0-1.7.85.85,0,1,1,0,1.7Z" transform="translate(2 2)"/><path class="cls-3" d="M157.75,236.14a.85.85,0,1,1,.84-.84A.83.83,0,0,1,157.75,236.14Z" transform="translate(2 2)"/><path class="cls-3" d="M86.68,210.83a.86.86,0,0,1,0-1.71.86.86,0,0,1,0,1.71Z" transform="translate(2 2)"/><path class="cls-3" d="M726.38,613.39a.92.92,0,1,0,0-1.84.92.92,0,0,0,0,1.84Z" transform="translate(2 2)"/><path class="cls-3" d="M708.16,515.31a.82.82,0,0,0,.84-.84.83.83,0,0,0-.84-.85.86.86,0,0,0-.85.85A.85.85,0,0,0,708.16,515.31Z" transform="translate(2 2)"/><path class="cls-3" d="M693.46,314.23a.86.86,0,0,0,0-1.71.86.86,0,1,0,0,1.71Z" transform="translate(2 2)"/><path class="cls-3" d="M646.31,401.63a.86.86,0,0,0,0-1.71.86.86,0,0,0,0,1.71Z" transform="translate(2 2)"/><path class="cls-3" d="M744.29,419.13a.85.85,0,0,0,0-1.69.85.85,0,1,0,0,1.69Z" transform="translate(2 2)"/><path class="cls-3" d="M708.16,152.3a.85.85,0,0,0,0-1.69.85.85,0,1,0,0,1.69Z" transform="translate(2 2)"/><path class="cls-3" d="M694.3,251.33a.86.86,0,0,0,0-1.72.86.86,0,0,0,0,1.72Z" transform="translate(2 2)"/><path class="cls-3" d="M734.45,193.59a.85.85,0,1,0,0-1.69.85.85,0,1,0,0,1.69Z" transform="translate(2 2)"/><path class="cls-3" d="M793.69,316.5a.85.85,0,1,0-.84-.85A.84.84,0,0,0,793.69,316.5Z" transform="translate(2 2)"/><path class="cls-4" d="M680.36,633.46a.75.75,0,0,0,.74-.74.76.76,0,0,0-.74-.75.73.73,0,0,0-.74.75A.73.73,0,0,0,680.36,633.46Z" transform="translate(2 2)"/><path class="cls-5" d="M680.36,633.46a.75.75,0,0,0,.74-.74.76.76,0,0,0-.74-.75.73.73,0,0,0-.74.75A.73.73,0,0,0,680.36,633.46Z" transform="translate(2 2)"/><path class="cls-4" d="M783.59,194.28a.69.69,0,1,0,0-1.38.69.69,0,1,0,0,1.38Z" transform="translate(2 2)"/><path class="cls-5" d="M783.59,194.28a.69.69,0,1,0,0-1.38.69.69,0,1,0,0,1.38Z" transform="translate(2 2)"/><path class="cls-4" d="M785.91,285.21a.69.69,0,0,0,0-1.38.69.69,0,1,0,0,1.38Z" transform="translate(2 2)"/><path class="cls-5" d="M785.91,285.21a.69.69,0,0,0,0-1.38.69.69,0,1,0,0,1.38Z" transform="translate(2 2)"/><path class="cls-3" d="M700.1,553.28a.75.75,0,1,0-.75-.75A.77.77,0,0,0,700.1,553.28Z" transform="translate(2 2)"/><path class="cls-3" d="M649.45,389.21a.67.67,0,0,0,.65-.69.65.65,0,0,0-.65-.67.66.66,0,0,0-.69.67A.68.68,0,0,0,649.45,389.21Z" transform="translate(2 2)"/><path class="cls-3" d="M753.83,482.63a.66.66,0,0,0,.69-.67.68.68,0,0,0-.69-.69.7.7,0,0,0-.69.69A.69.69,0,0,0,753.83,482.63Z" transform="translate(2 2)"/><path class="cls-3" d="M690.49,473.87a.7.7,0,0,0,.69-.69.69.69,0,0,0-.69-.67.66.66,0,0,0-.69.67A.68.68,0,0,0,690.49,473.87Z" transform="translate(2 2)"/><path class="cls-3" d="M763.07,388.52a.69.69,0,0,0,.69-.67.69.69,0,1,0-1.38,0A.69.69,0,0,0,763.07,388.52Z" transform="translate(2 2)"/><path class="cls-3" d="M762.38,257.06a.68.68,0,1,0,0-1.36.68.68,0,1,0,0,1.36Z" transform="translate(2 2)"/><path class="cls-3" d="M650.1,338.43a.68.68,0,0,0,.69-.69.66.66,0,0,0-.69-.67.65.65,0,0,0-.65.67A.67.67,0,0,0,650.1,338.43Z" transform="translate(2 2)"/><path class="cls-3" d="M654.48,166.87a.71.71,0,0,0,.69-.69.69.69,0,0,0-1.38,0A.7.7,0,0,0,654.48,166.87Z" transform="translate(2 2)"/><path class="cls-3" d="M667.72,7.17a.69.69,0,0,0,.69-.67.7.7,0,0,0-.69-.69.68.68,0,0,0-.69.69A.66.66,0,0,0,667.72,7.17Z" transform="translate(2 2)"/><path class="cls-3" d="M669.1,69.34a.67.67,0,0,0,.66-.67.68.68,0,1,0-1.35,0A.67.67,0,0,0,669.1,69.34Z" transform="translate(2 2)"/><path class="cls-3" d="M752.22,93.08a.69.69,0,1,0,0-1.38.69.69,0,1,0,0,1.38Z" transform="translate(2 2)"/><path class="cls-3" d="M793.69,612.46a.92.92,0,1,0-.91-.91A.9.9,0,0,0,793.69,612.46Z" transform="translate(2 2)"/><path class="cls-3" d="M776,284.68a.86.86,0,0,0,.89-.85A.87.87,0,0,0,776,283a.86.86,0,0,0-.84.84A.85.85,0,0,0,776,284.68Z" transform="translate(2 2)"/><path class="cls-3" d="M781.74,235.3a.85.85,0,1,0,0-1.69.85.85,0,1,0,0,1.69Z" transform="translate(2 2)"/><path class="cls-3" d="M788.6,550.34a.73.73,0,0,0,.74-.74.73.73,0,1,0-1.45,0A.73.73,0,0,0,788.6,550.34Z" transform="translate(2 2)"/><path class="cls-3" d="M726.38,697.63a.92.92,0,1,0,0-1.84.92.92,0,0,0,0,1.84Z" transform="translate(2 2)"/><path class="cls-4" d="M680.36,717.7a.75.75,0,0,0,.74-.74.76.76,0,0,0-.74-.75.73.73,0,0,0-.74.75A.73.73,0,0,0,680.36,717.7Z" transform="translate(2 2)"/><path class="cls-5" d="M680.36,717.7a.75.75,0,0,0,.74-.74.76.76,0,0,0-.74-.75.73.73,0,0,0-.74.75A.73.73,0,0,0,680.36,717.7Z" transform="translate(2 2)"/><path class="cls-3" d="M700.1,637.52a.77.77,0,0,0,.74-.75.75.75,0,1,0-.74.75Z" transform="translate(2 2)"/><path class="cls-3" d="M793.69,696.7a.91.91,0,1,0-.91-.91A.9.9,0,0,0,793.69,696.7Z" transform="translate(2 2)"/><path class="cls-3" d="M788.6,634.59a.75.75,0,1,0-.71-.74A.73.73,0,0,0,788.6,634.59Z" transform="translate(2 2)"/><path class="cls-3" d="M788.81,713.9a.93.93,0,0,0,0,1.85.93.93,0,0,0,0-1.85Z" transform="translate(2 2)"/><path class="cls-3" d="M793.86,776a.74.74,0,1,0,0,1.48.74.74,0,1,0,0-1.48Z" transform="translate(2 2)"/><path class="cls-3" d="M734.13,693.67a.75.75,0,0,0-.75.74.76.76,0,0,0,.75.73.73.73,0,0,0,.74-.73A.72.72,0,0,0,734.13,693.67Z" transform="translate(2 2)"/><path class="cls-3" d="M709,751.53a.91.91,0,0,0,0,1.82.91.91,0,1,0,0-1.82Z" transform="translate(2 2)"/><path class="cls-3" d="M642.39,793.24a.91.91,0,0,0,0,1.82.91.91,0,0,0,0-1.82Z" transform="translate(2 2)"/><path class="cls-4" d="M637.22,763.58a.75.75,0,1,0,0,1.49.75.75,0,0,0,0-1.49Z" transform="translate(2 2)"/><path class="cls-5" d="M637.22,763.58a.75.75,0,1,0,0,1.49.75.75,0,0,0,0-1.49Z" transform="translate(2 2)"/><path class="cls-3" d="M784.49,153.29a.69.69,0,1,0,0-1.38.69.69,0,1,0,0,1.38Z" transform="translate(2 2)"/><path class="cls-3" d="M766.28,111.26a.69.69,0,0,0,0-1.38.69.69,0,0,0,0,1.38Z" transform="translate(2 2)"/><path class="cls-3" d="M782.59,25a.69.69,0,1,0,0-1.38.69.69,0,1,0,0,1.38Z" transform="translate(2 2)"/><path class="cls-3" d="M776.67,361.76a.66.66,0,0,0,.69-.67.68.68,0,0,0-.69-.69.7.7,0,0,0-.69.69A.69.69,0,0,0,776.67,361.76Z" transform="translate(2 2)"/><path class="cls-3" d="M773.35,358a.69.69,0,0,0,0-1.38.69.69,0,0,0,0,1.38Z" transform="translate(2 2)"/><path class="cls-3" d="M783.89,492.16a.69.69,0,0,0,.69-.7.68.68,0,0,0-.69-.68.67.67,0,0,0-.65.68A.68.68,0,0,0,783.89,492.16Z" transform="translate(2 2)"/><path class="cls-3" d="M780.59,466a.3.3,0,1,0,0-.59.28.28,0,0,0-.28.28A.29.29,0,0,0,780.59,466Z" transform="translate(2 2)"/><path class="cls-3" d="M645.71,236.14a.85.85,0,1,0-.84-.84A.83.83,0,0,0,645.71,236.14Z" transform="translate(2 2)"/><path class="cls-3" d="M716.78,210.83a.86.86,0,0,0,0-1.71.86.86,0,0,0,0,1.71Z" transform="translate(2 2)"/><path class="cls-3" d="M222.89,138a.38.38,0,0,1-.39-.38.37.37,0,0,1,.39-.37.36.36,0,0,1,.36.37A.38.38,0,0,1,222.89,138Z" transform="translate(2 2)"/><path class="cls-3" d="M200.89,117.28a.38.38,0,0,1-.4-.38.39.39,0,0,1,.4-.37.37.37,0,0,1,.35.37A.36.36,0,0,1,200.89,117.28Z" transform="translate(2 2)"/><path class="cls-3" d="M197.88,123.85A.87.87,0,0,1,197,123a.89.89,0,1,1,1.77,0A.87.87,0,0,1,197.88,123.85Z" transform="translate(2 2)"/><path class="cls-3" d="M236.51,205.18a.69.69,0,0,1-.69-.67.69.69,0,0,1,1.38,0A.68.68,0,0,1,236.51,205.18Z" transform="translate(2 2)"/><path class="cls-3" d="M254.08,113.5a.69.69,0,0,1-.69-.67.7.7,0,0,1,.69-.69.68.68,0,0,1,.69.69A.66.66,0,0,1,254.08,113.5Z" transform="translate(2 2)"/><path class="cls-3" d="M247.65,160a.69.69,0,0,1,0-1.38.69.69,0,0,1,0,1.38Z" transform="translate(2 2)"/><path class="cls-3" d="M304.59,110.6a.68.68,0,0,1-.68-.69.67.67,0,1,1,1.34,0A.67.67,0,0,1,304.59,110.6Z" transform="translate(2 2)"/><path class="cls-3" d="M251,156.27a.67.67,0,0,1-.65-.69.65.65,0,0,1,.65-.67.66.66,0,0,1,.69.67A.68.68,0,0,1,251,156.27Z" transform="translate(2 2)"/><path class="cls-3" d="M219,235.3a.69.69,0,0,1,0-1.38.69.69,0,1,1,0,1.38Z" transform="translate(2 2)"/><path class="cls-3" d="M239.8,179a.28.28,0,0,1-.28-.3.31.31,0,0,1,.28-.31.34.34,0,0,1,.33.31A.32.32,0,0,1,239.8,179Z" transform="translate(2 2)"/><path class="cls-3" d="M222.07,162.34a.32.32,0,0,1-.33-.31.3.3,0,0,1,.33-.31.3.3,0,0,1,.29.31A.31.31,0,0,1,222.07,162.34Z" transform="translate(2 2)"/><path class="cls-3" d="M219.65,167.63a.73.73,0,0,1,0-1.45.73.73,0,0,1,0,1.45Z" transform="translate(2 2)"/><polygon class="cls-6" points="318.68 252.28 318.61 312.45 369.8 327.17 369.86 265.38 318.68 252.28"/><polygon class="cls-7" points="420.76 252.39 420.66 312.56 369.44 327.17 369.51 265.38 420.76 252.39"/><polygon class="cls-8" points="318.8 253.55 318.8 256.83 369.67 271.88 420.53 256.28 420.76 252.39 318.8 253.55"/><polygon class="cls-6" points="314.94 240.54 314.93 253.1 369 268.48 369.01 255.51 314.94 240.54"/><polygon class="cls-7" points="422.82 240.68 422.81 252.91 368.7 268.48 368.71 255.51 422.82 240.68"/><polygon class="cls-9" points="314.94 240.54 368.71 255.51 422.82 240.68 369.37 228.19 314.94 240.54"/><polygon class="cls-10" points="336.21 318.51 345.73 321.25 345.81 249.15 336.96 247 336.21 318.51"/><polygon class="cls-10" points="402.95 318.17 393.42 320.89 393.5 248.79 402.36 246.04 402.95 318.17"/><polygon class="cls-10" points="393.5 248.79 402.36 246.04 353.19 230.85 343.72 233.91 393.5 248.79"/><polygon class="cls-10" points="336.96 247 345.81 249.15 398.53 234.07 391.43 231.92 336.96 247"/><path class="cls-11" d="M368,231.09a74.69,74.69,0,0,0-20.41,9c-9.71,6.35-12.54,13.25-12.54,13.25L347,252.14l3,7.5s21.5-15,20.46-27.33C368.79,231.55,368,231.09,368,231.09Z" transform="translate(2 2)"/><path class="cls-11" d="M364.69,231.72a53.81,53.81,0,0,0,6.94,14.93c6.27,9.55,13.27,10.91,13.27,10.91l2.21-8.21h15.12s-10.91-8.13-17.33-12.7c-5.15-3.63-13.13-6.85-15.61-7.26A48.67,48.67,0,0,1,364.69,231.72Z" transform="translate(2 2)"/><path class="cls-12" d="M362.85,229.75s1-1.16,4.66-.93,4.15-.47,5.17.61c-.06,2.29-.24,6-.18,6.41s-1.66,1-4.55,1.15-4.17-.1-5.31-1.07C362.59,234.41,362.85,229.75,362.85,229.75Z" transform="translate(2 2)"/><g class="cls-13"><path class="cls-14" d="M388.77,222.83c3.09,1.34,1.71,5.9-2.52,9.12s-10.12,4.8-13.21,3.46-2.15-5,2-8.24S385.72,221.52,388.77,222.83Z" transform="translate(2 2)"/><path class="cls-15" d="M388.58,223c3,1.3,1.6,5.74-2.57,8.92s-10,4.7-13,3.4-2-4.9,2.12-8.08S385.62,221.73,388.58,223Z" transform="translate(2 2)"/><path class="cls-16" d="M388.39,223.2c2.92,1.28,1.51,5.6-2.63,8.72s-9.82,4.62-12.75,3.34-1.9-4.8,2.2-7.92S385.51,221.94,388.39,223.2Z" transform="translate(2 2)"/><path class="cls-17" d="M388.2,223.38c2.83,1.25,1.41,5.46-2.68,8.52s-9.68,4.53-12.52,3.28-1.78-4.69,2.28-7.75S385.41,222.15,388.2,223.38Z" transform="translate(2 2)"/><path class="cls-18" d="M388,223.57c2.75,1.21,1.31,5.31-2.73,8.31s-9.54,4.45-12.29,3.23-1.66-4.6,2.36-7.6S385.31,222.36,388,223.57Z" transform="translate(2 2)"/><path class="cls-19" d="M387.82,223.75c2.66,1.19,1.21,5.17-2.79,8.11s-9.39,4.36-12,3.17-1.54-4.49,2.44-7.43S385.2,222.58,387.82,223.75Z" transform="translate(2 2)"/><path class="cls-20" d="M387.63,223.93c2.58,1.16,1.12,5-2.84,7.91S375.55,236.12,373,235s-1.42-4.4,2.52-7.28S385.1,222.79,387.63,223.93Z" transform="translate(2 2)"/><path class="cls-21" d="M387.45,224.12c2.49,1.13,1,4.88-2.91,7.7S375.45,236,373,234.88s-1.3-4.29,2.6-7.11S385,223,387.45,224.12Z" transform="translate(2 2)"/><path class="cls-22" d="M387.26,224.3c2.4,1.1.91,4.74-3,7.5s-8.95,4.11-11.36,3-1.18-4.2,2.68-7S384.89,223.21,387.26,224.3Z" transform="translate(2 2)"/><path class="cls-23" d="M387.07,224.48c2.32,1.08.82,4.6-3,7.3s-8.81,4-11.13,2.95-1.06-4.09,2.76-6.79S384.79,223.43,387.07,224.48Z" transform="translate(2 2)"/><path class="cls-24" d="M386.88,224.67c2.23,1,.72,4.46-3.07,7.09s-8.66,3.94-10.89,2.89-.94-4,2.84-6.62S384.69,223.64,386.88,224.67Z" transform="translate(2 2)"/><path class="cls-25" d="M386.69,224.85c2.15,1,.63,4.32-3.12,6.89s-8.52,3.86-10.66,2.84-.82-3.89,2.92-6.47S384.59,223.85,386.69,224.85Z" transform="translate(2 2)"/><path class="cls-26" d="M386.5,225c2.06,1,.53,4.17-3.18,6.68s-8.36,3.77-10.43,2.78-.69-3.79,3-6.3S384.48,224.07,386.5,225Z" transform="translate(2 2)"/><path class="cls-27" d="M386.31,225.22c2,1,.43,4-3.23,6.48s-8.22,3.69-10.2,2.73-.57-3.69,3.08-6.15S384.38,224.28,386.31,225.22Z" transform="translate(2 2)"/><path class="cls-28" d="M386.12,225.4c1.89.93.33,3.89-3.29,6.28s-8.07,3.6-10,2.67-.45-3.59,3.16-6S384.27,224.49,386.12,225.4Z" transform="translate(2 2)"/><path class="cls-29" d="M385.94,225.59c1.8.9.23,3.74-3.35,6.07s-7.93,3.52-9.73,2.62-.33-3.49,3.24-5.83S384.17,224.7,385.94,225.59Z" transform="translate(2 2)"/><path class="cls-30" d="M385.75,225.77c1.71.87.13,3.6-3.4,5.87s-7.79,3.43-9.5,2.56-.21-3.39,3.32-5.66S384.07,224.92,385.75,225.77Z" transform="translate(2 2)"/><path class="cls-31" d="M385.56,226c1.63.85,0,3.46-3.46,5.67s-7.64,3.35-9.27,2.51-.08-3.29,3.4-5.51S384,225.13,385.56,226Z" transform="translate(2 2)"/><path class="cls-32" d="M385.37,226.14c1.54.81-.07,3.32-3.51,5.47s-7.49,3.26-9,2.44,0-3.19,3.48-5.34S383.86,225.34,385.37,226.14Z" transform="translate(2 2)"/><path class="cls-33" d="M385.18,226.32c1.46.79-.17,3.18-3.57,5.27s-7.34,3.17-8.8,2.38.16-3.08,3.56-5.18S383.76,225.55,385.18,226.32Z" transform="translate(2 2)"/><path class="cls-34" d="M385,226.5c1.37.76-.26,3-3.62,5.07s-7.2,3.09-8.57,2.33.28-3,3.64-5S383.65,225.77,385,226.5Z" transform="translate(2 2)"/><path class="cls-35" d="M384.8,226.69c1.29.72-.36,2.89-3.67,4.86s-7.05,3-8.34,2.27.4-2.88,3.72-4.86S383.56,226,384.8,226.69Z" transform="translate(2 2)"/></g><path class="cls-36" d="M363.53,229.75c-2.69-.71-4.84-3-10.48-5.83-10.58-5.28-15.52-4.84-23.67-3.17-3.92,13.74,3.24,20.9,3.24,20.9,10.44.48,26.8-3.7,30.74-5.74A29.93,29.93,0,0,1,363.53,229.75Z" transform="translate(2 2)"/><path class="cls-36" d="M371.8,229.26c2.55-1,4.27-3.55,9.4-7,9.58-6.51,14.5-6.64,22.89-5.95,6.22,13.12.32,21.06.32,21.06-10.27,1.74-27.13-.48-31.41-2A28.56,28.56,0,0,0,371.8,229.26Z" transform="translate(2 2)"/><path class="cls-10" d="M361.94,230.68c.42-1.22,2.11-2.16,5.84-2.16,4.36,0,4.51.16,5.54,1.25,1,1.68.71,5-.82,6.3-.4.33-.75.92-4.55.92-2.89,0-4.17-.1-5.31-1.07S361.48,232.18,361.94,230.68Z" transform="translate(2 2)"/><polygon class="cls-10" points="411.42 274.26 411.37 320.27 450.49 331.53 450.54 284.27 411.42 274.26"/><polygon class="cls-36" points="489.48 274.34 489.43 320.36 450.25 331.53 450.3 284.27 489.48 274.34"/><polygon class="cls-8" points="411.51 275.22 411.51 277.73 450.39 289.24 489.34 277.32 489.48 274.34 411.51 275.22"/><polygon class="cls-10" points="408.55 265.27 408.54 274.88 449.91 286.64 449.92 276.73 408.55 265.27"/><polygon class="cls-36" points="491.08 265.36 491.06 274.73 449.67 286.64 449.68 276.73 491.08 265.36"/><polygon class="cls-37" points="408.55 265.27 449.68 276.73 491.08 265.36 450.19 255.82 408.55 265.27"/><polygon class="cls-7" points="424.84 324.92 432.11 327.01 432.17 271.87 425.38 270.21 424.84 324.92"/><polygon class="cls-7" points="475.88 324.66 468.56 326.73 468.62 271.58 475.42 269.49 475.88 324.66"/><polygon class="cls-7" points="468.62 271.58 475.42 269.49 437.79 257.85 430.55 260.2 468.62 271.58"/><polygon class="cls-7" points="425.38 270.21 432.17 271.87 472.49 260.31 467.05 258.68 425.38 270.21"/><path class="cls-38" d="M448.71,257.59a56.36,56.36,0,0,0-15.62,6.83c-7.46,4.86-9.59,10.14-9.59,10.14l9.08-.9,2.27,5.74s16.46-11.47,15.65-20.89C449.26,257.92,448.71,257.59,448.71,257.59Z" transform="translate(2 2)"/><path class="cls-38" d="M446.12,258.06a41.83,41.83,0,0,0,5.31,11.41c4.79,7.31,10.14,8.34,10.14,8.34l1.72-6.28h11.55s-8.36-6.23-13.26-9.71c-3.93-2.78-10-5.25-11.93-5.56A39.56,39.56,0,0,1,446.12,258.06Z" transform="translate(2 2)"/><path class="cls-39" d="M444.73,256.55s.78-.88,3.57-.72,3.15-.35,3.94.47c-.05,1.76-.18,4.6-.14,4.92s-1.29.78-3.48.87-3.21-.08-4.06-.82C444.52,260.11,444.73,256.55,444.73,256.55Z" transform="translate(2 2)"/><g class="cls-13"><path class="cls-14" d="M464.58,251.27c2.36,1,1.25,4.5-2,7s-7.74,3.66-10.1,2.64-1.67-3.83,1.54-6.3S462.21,250.25,464.58,251.27Z" transform="translate(2 2)"/><path class="cls-15" d="M464.43,251.41c2.29,1,1.18,4.39-2,6.81s-7.63,3.6-9.92,2.61-1.58-3.77,1.6-6.18S462.13,250.42,464.43,251.41Z" transform="translate(2 2)"/><path class="cls-16" d="M464.29,251.55c2.22,1,1.1,4.28-2,6.66s-7.52,3.53-9.75,2.56-1.49-3.69,1.67-6.06S462.05,250.58,464.29,251.55Z" transform="translate(2 2)"/><path class="cls-17" d="M464.14,251.69c2.16.94,1,4.17-2.08,6.5s-7.41,3.47-9.57,2.52-1.39-3.62,1.73-5.93S462,250.75,464.14,251.69Z" transform="translate(2 2)"/><path class="cls-18" d="M464,251.83c2.09.92.95,4.06-2.13,6.35s-7.29,3.4-9.39,2.47-1.3-3.54,1.79-5.81S461.9,250.91,464,251.83Z" transform="translate(2 2)"/><path class="cls-19" d="M463.85,252c2,.9.88,3.95-2.17,6.19s-7.18,3.34-9.21,2.43-1.2-3.46,1.86-5.68S461.82,251.07,463.85,252Z" transform="translate(2 2)"/><path class="cls-20" d="M463.71,252.11c2,.88.81,3.84-2.21,6s-7.08,3.27-9,2.39-1.11-3.39,1.92-5.57S461.74,251.23,463.71,252.11Z" transform="translate(2 2)"/><path class="cls-21" d="M463.56,252.25c1.89.85.74,3.73-2.25,5.88s-7,3.21-8.86,2.35-1-3.31,2-5.45S461.66,251.4,463.56,252.25Z" transform="translate(2 2)"/><path class="cls-22" d="M463.42,252.39c1.82.83.66,3.62-2.3,5.73s-6.85,3.14-8.68,2.3-.91-3.23,2.05-5.32S461.58,251.56,463.42,252.39Z" transform="translate(2 2)"/><path class="cls-23" d="M463.27,252.53c1.76.81.59,3.51-2.34,5.57s-6.73,3.08-8.5,2.26-.82-3.15,2.11-5.2S461.51,251.72,463.27,252.53Z" transform="translate(2 2)"/><path class="cls-24" d="M463.13,252.67c1.69.79.51,3.4-2.38,5.42s-6.63,3-8.33,2.22-.72-3.08,2.17-5.08S461.43,251.88,463.13,252.67Z" transform="translate(2 2)"/><path class="cls-25" d="M463,252.81c1.63.76.45,3.29-2.42,5.26s-6.52,2.95-8.15,2.18-.63-3,2.23-5S461.35,252.05,463,252.81Z" transform="translate(2 2)"/><path class="cls-26" d="M462.84,253c1.56.74.37,3.19-2.47,5.11s-6.4,2.88-8,2.13-.54-2.92,2.29-4.83S461.27,252.21,462.84,253Z" transform="translate(2 2)"/><path class="cls-27" d="M462.69,253.09c1.5.72.3,3.08-2.51,5s-6.29,2.82-7.78,2.09-.45-2.84,2.35-4.71S461.19,252.37,462.69,253.09Z" transform="translate(2 2)"/><path class="cls-28" d="M462.55,253.23c1.43.69.22,3-2.55,4.79s-6.19,2.76-7.61,2.05-.35-2.76,2.41-4.58S461.12,252.53,462.55,253.23Z" transform="translate(2 2)"/><path class="cls-29" d="M462.4,253.37c1.37.67.15,2.86-2.59,4.64s-6.07,2.69-7.43,2-.25-2.69,2.48-4.47S461,252.69,462.4,253.37Z" transform="translate(2 2)"/><path class="cls-30" d="M462.26,253.51c1.29.65.07,2.75-2.64,4.48s-6,2.63-7.25,2-.16-2.62,2.54-4.35S461,252.86,462.26,253.51Z" transform="translate(2 2)"/><path class="cls-31" d="M462.11,253.65c1.23.63,0,2.64-2.68,4.33s-5.84,2.56-7.07,1.92-.06-2.54,2.6-4.22S460.88,253,462.11,253.65Z" transform="translate(2 2)"/><path class="cls-32" d="M462,253.79c1.16.6-.07,2.53-2.72,4.17s-5.74,2.5-6.9,1.88,0-2.46,2.67-4.1S460.8,253.18,462,253.79Z" transform="translate(2 2)"/><path class="cls-33" d="M461.82,253.93c1.1.58-.14,2.42-2.76,4s-5.63,2.43-6.72,1.84.13-2.39,2.73-4S460.73,253.34,461.82,253.93Z" transform="translate(2 2)"/><path class="cls-34" d="M461.68,254.07c1,.56-.22,2.31-2.81,3.86s-5.51,2.37-6.54,1.8.22-2.31,2.79-3.86S460.65,253.51,461.68,254.07Z" transform="translate(2 2)"/><path class="cls-35" d="M461.53,254.21c1,.54-.28,2.22-2.85,3.71s-5.39,2.29-6.36,1.75.32-2.22,2.85-3.73S460.57,253.67,461.53,254.21Z" transform="translate(2 2)"/></g><path class="cls-6" d="M445.25,256.55c-2.05-.53-3.68-2.31-8-4.45-8.09-4.07-11.85-3.72-18.1-2.44-3,10.51,2.47,16,2.47,16,8,.37,20.5-2.83,23.52-4.39A22.89,22.89,0,0,1,445.25,256.55Z" transform="translate(2 2)"/><path class="cls-6" d="M451.56,256.17c2-.78,3.27-2.72,7.17-5.37,7.37-5,11.13-5.08,17.55-4.54,4.75,10,.25,16.12.25,16.12-7.86,1.31-20.76-.37-24-1.56A21.46,21.46,0,0,0,451.56,256.17Z" transform="translate(2 2)"/><path class="cls-7" d="M444.06,257.27c.29-.95,1.6-1.66,4.41-1.66,3.39,0,3.48.13,4.27.95a4.44,4.44,0,0,1-.64,4.82c-.27.25-.58.71-3.48.71-2.18,0-3.21-.08-4.06-.82S443.66,258.42,444.06,257.27Z" transform="translate(2 2)"/><path class="cls-10" d="M298.34,204.43l-9.21,3.88-24.77-58.47,9.2-3.89L284.19,171l10.43-4.44L284,141.53l9.36-4L318.13,196l-9.36,4L298.14,175l-10.43,4.42Z" transform="translate(2 2)"/><path class="cls-10" d="M371.1,183.67l-9.91,1.89-3.81-11-12.06,2.28.48,11.64-9,1.71-1.88-64.27,14.34-2.74ZM345,168.14l9.44-1.79-10.66-30.67-.17,0Z" transform="translate(2 2)"/><path class="cls-10" d="M421.15,135l-.17,8.25c-.15,10.17-5.13,15.62-15.12,15.45l-4.72-.07-.36,23.86-10-.17,1-63.49,14.71.25C416.5,119.22,421.3,124.83,421.15,135Zm-19.5-7-.37,21.51,4.72.07c3.17,0,4.95-1.36,5-5.91l.15-9.52c.07-4.52-1.63-6-4.8-6.05Z" transform="translate(2 2)"/><path class="cls-10" d="M478.89,144.54l-1.7,8.09c-2.13,9.93-8.05,14.32-17.83,12.26l-4.63-1-4.94,23.33L440,185.18l13.17-62.12,14.41,3.06C477.36,128.19,481,134.61,478.89,144.54ZM461.08,134l-4.43,21,4.62,1c3.06.65,5.07-.42,6-4.85l2-9.3c.94-4.46-.46-6.22-3.57-6.89Z" transform="translate(2 2)"/><path class="cls-10" d="M504.45,181.86l5.38-44,9.56,4.16-4.6,29.53.16.07,18.43-23.51,8.73,3.78-28.49,33.9-8.41,19.3-9.13-4Z" transform="translate(2 2)"/><path class="cls-40" d="M583,394.66a1.36,1.36,0,0,0,.44-.07,2.39,2.39,0,0,1,2.52.62c-4.84,10-12.77,23.88-19.15,28-6.32,30.76-16.5,63.6-34.69,61.43-5.2-.64-8.62-5.63-8.62-12.21a21,21,0,0,1,.6-4.92c4.64-17.21,16.49-29,29.3-40.09,1-4.9,2.15-10.53,3.63-17.88l-.91,1.32c-6,9.48-12.5,18.75-19.66,18.75-4.83,0-6.58-3.58-6.58-8.85,0-.91.07-1.9.14-2.88.57-6.18,3-14.66,4.83-21.62,1.55-5.61,3-11,3.29-14.11a9.84,9.84,0,0,0-.26-3.16,4,4,0,0,1-.14-1c.07-1.28,1.24-1.7,2.52-1.7a12.09,12.09,0,0,1,4.9,1.19c2.66,1.84,3.61,5.42,3.3,9a40,40,0,0,1-2.32,10l-.4,1.34c-1.75,5.41-4.9,15.92-5.54,21.47-.07,2,.06,3.79.9,3.79,3.43,0,12.44-15.15,17-23v.07c.33-.58.73-1.13,1-1.68l-.07.07a137.85,137.85,0,0,0,2.25-14,13.52,13.52,0,0,0-.31-3.78,5.32,5.32,0,0,1-.13-1.28c.13-1.26,1.28-1.61,2.76-1.68,6.14,0,8.46,3,9,6.89a274.79,274.79,0,0,1-4.71,32.84c5.22-4.22,10.89-14.82,14.82-22.68ZM530.83,476.5c2.18-.28,4.26-2,6.11-4.41,5.48-7.24,9.87-21.2,13-31.18.57-1.68.9-3.36,1.41-4.77v.07l.71-2.74a83.21,83.21,0,0,0-17.6,19.23c-2.06,3.38-7.14,13.62-7.14,19.52C527.29,474.67,528.31,476.5,530.83,476.5Z" transform="translate(2 2)"/><path class="cls-40" d="M241.16,428.69c-2.06,5.64-5.48,11-13.92,9.92-1.74-.64-3.35-1.41-2.51-3.09a2.19,2.19,0,0,1,.5-1.42,17.27,17.27,0,0,0,2-3.86l-.07.07c3.29-11,5.48-27.3,7.22-41.41,1.55-11.58,2.7-21.62,4.44-26.75-4.64,2.68-10.44,5.28-15.66,5.9-5.88.57-10.44-2.1-10-6.87a10.8,10.8,0,0,1,2.38-5.54c4.71-6.54,15.09-12.15,20.16-14.4,9-3.86,21.21-7,31.32-6.67,14.95.29,27.65,7.66,27.34,26.46,0,.64-.06,1.7-.13,2.39C293,377.88,284,392.13,267.39,396.21c10.38,4.06,15.73,11.22,16.63,18.94a29.92,29.92,0,0,1,.1,5.84c-2.11,25.39-35.3,41.89-58,41.89a37.91,37.91,0,0,1-7.8-.77c-17.33-3.58-29.57-16.35-28.09-34.39a44,44,0,0,1,1.68-8.43c4.11-12.55,17.14-21.54,26.68-21.54,6.56,0,11.46,4,10.62,14.11a31.37,31.37,0,0,1-.44,3.16c-1.24,1.81-2.39,1.61-3,.78.64-9.06-2.2-12.57-6.07-12.57-6,0-14.35,8-17.58,17.18a44.32,44.32,0,0,0-1.94,9.41c-1,14.6,6.31,26,20.23,27.58a15.67,15.67,0,0,0,3.16.22c20.25,0,45.69-22,46-42.75.2-8.77-5-15.57-18.44-17.05-.71-.71-.24-3.16.84-3.86,16.5-4.84,24-17.63,25.13-30.11.07-.86.13-1.7.13-2.38.14-10.53-5.08-15.88-12.43-17.91a28.37,28.37,0,0,0-7.93-1.06c-6.12,0-13.34,1.77-19.46,3.93-8,3.25-13.86,7.09-16.62,10.11-1.48,1.68-2.39,3.23-2.46,4.42-.13,1.61,1.35,2.46,4.27,1.77,3.53-1.06,8.81-3.93,13-6.41a82.42,82.42,0,0,1,7.67-4.13,14.46,14.46,0,0,1,5-1.19c4.13,0,4.91,3.65,4.71,8.64C250,378.87,243.34,418.25,241.16,428.69Z" transform="translate(2 2)"/><path class="cls-40" d="M297.23,383.15a12.68,12.68,0,0,0,.2-2,5.79,5.79,0,0,1,.17-1.35c.33-1.19,1.61-1.32,2.92-1,3.86,1.39,5.64,2.94,5.64,5.61a17.07,17.07,0,0,1-.94,4.77c-1.88,6.05-4.9,17.91-5.81,25.69-.06.92-.13,2.12-.13,2.89,0,3.29.64,5.47,2.19,5.54,3.92,0,12.06-15.44,16.63-24.15,1.17-2.24,2.07-4,2.78-5.13a2.76,2.76,0,0,1,1.08-.33c.66,0,1.24.55,1.75,1.39l-.78,1.48C317.46,408,306.5,429.2,298.38,429.2c-6.56,0-8.64-5.63-8.64-12.63,0-1.13.07-2.32.13-3.45.77-9.12,3.49-18,6.38-26.81l1-3.24Zm14-13.33c-.26,3.16-3.22,5-5.81,5-2.25,0-4.23-1.81-4.1-5.68.31-3,2.25-6.38,4.94-6.38a4.51,4.51,0,0,1,3.63,2.38A8.23,8.23,0,0,1,311.27,369.82Z" transform="translate(2 2)"/><path class="cls-40" d="M366,368.47c8.19-.07,15.35,1.61,18.57,8.79h-.06a1.12,1.12,0,0,1-1.55,1.46c-3.87-3.93-9.81-5-16.36-5h-1.75c-.9,4.13-2,8.41-3.16,12.76l-1.34,5.35-.2.9c-1.24,4.84-4.57,17.76-4.57,25.55,0,2.68.37,4.84,1.48,5.61.84.64,2.82.16,5.47-1.81,5.85-4.63,11.15-15.37,14.38-22.13h-.07a33.46,33.46,0,0,1,3.4-6,2.05,2.05,0,0,1,.78-.06c.7,0,1.23.41,1.61,1.34l-2.56,5.26h.11C374.17,413.12,366,430,355.86,430c-8.37,0-11.2-4.35-11.2-11.73,0-1,.11-2,.18-3.16.53-6.44,4.39-23,7.55-36.5l1-4c-3.17.29-6.05.49-8.81.49-5.68,0-10.32-1.12-12.06-5-.44-1-.33-2.74,1.41-1.7l-.06-.07a25,25,0,0,0,9.74,1.62c3.35,0,7.35-.42,11-.78,1.27-5.82,2.31-10.6,2.51-12.56a16.61,16.61,0,0,0-.26-3.51,9.62,9.62,0,0,1-.13-1.26c.13-1.33,1.23-1.61,2.58-1.61,7.29,0,8.5,4.92,8.06,9.76C367.21,362.51,366.64,365.31,366,368.47Z" transform="translate(2 2)"/><path class="cls-40" d="M389.82,396.34c1.18-1.61,2.19-3.44,3.43-5.26,5-7.86,10.82-16.78,18.24-16.78,5.14,0,6.69,3.8,6.18,8.77-.46,5.13-2.78,12-5,18.39-2.18,6.12-4.19,12.28-4.63,16.43-.07,1.9.06,5.41,1.61,5.41,4.44,0,17.6-26.05,18.37-27.51l.24-.49h-.06c.4-.93.66-1.54,1.81-1.54a1.9,1.9,0,0,1,1.68,1.32l-2.12,4.28C424,410.45,414.71,429,406.19,429c-6.49,0-8.57-4-8.57-9.54a20.85,20.85,0,0,1,.07-2.1c.9-7.24,4.47-17.07,7.22-24.36,1.87-5.05,3.49-9.21,3.73-11.1.07-.91-.13-1.26-.64-1.26-5.08,0-15.59,18.17-19.46,24.71v-.07l-1.1,2h.06a51.53,51.53,0,0,0-3.15,13.54,23,23,0,0,0,.57,7,3.72,3.72,0,0,1,.2,1.06c0,.77-.64,1-1.61,1-6.76,0-8.51-6-8.51-11.72,0-.91.07-1.9.14-2.88.57-6.53,4.06-21.33,7.22-34.67,2.56-10.73,4.84-20.49,5.14-23.8a14,14,0,0,0-.3-3.51,9.84,9.84,0,0,1-.14-1.26c.07-1.26,1.28-1.61,2.63-1.61,7.09,0,8.39,5.05,8.06,9.76-.26,2.8-3.16,15.3-5.47,25.33Z" transform="translate(2 2)"/><path class="cls-40" d="M450.33,418.09c0-.84.07-1.81.14-2.87a14.23,14.23,0,0,1,.26-3.09c-5.17,8.64-12.5,17.69-20.63,17.69-7.35,0-9.84-5.48-9.84-11.73a16.87,16.87,0,0,1,.1-2.23c1.75-14.11,15.22-39.37,31.14-39.37a10.62,10.62,0,0,1,6.52,2.16l.7-2.67c2.06-8.84,3.87-16.34,4.11-19.21a15.06,15.06,0,0,0-.31-3.52,12.14,12.14,0,0,1-.13-1.27c.07-1.27,1.35-1.62,2.65-1.62,7.33,0,8.44,4.92,8,9.76-.38,4.29-2.9,15-5.59,26.39-.33,1.9-1.1,4.64-1.81,7.67-2,7.92-4.64,18.52-4.64,24.77a10.77,10.77,0,0,0,.14,2.23c.3,2,1.21,2.9,2.56,2.9,2.32,0,5.54-2.48,7.35-4.57,4.84-5.41,9.08-14.18,11.86-19.86a54.12,54.12,0,0,1,2.76-5.34,1.77,1.77,0,0,1,1.1-.35,1.84,1.84,0,0,1,1.62,1.34c-.91,1.68-1.81,3.85-2.79,5.81-3.33,6.74-7.19,14.75-11.46,20.43-3.16,4-7,8.15-12.56,8.5C453.42,430,450.33,425.62,450.33,418.09Zm2.45-16.34c1-4.64,2.19-9.76,3.36-14.88.2-1,.57-1.83.77-2.88a5.37,5.37,0,0,0-3.36-1.05c-9.91,0-20.8,25.48-21.5,33.69-.27,2.66,0,6.32,3.33,6.32,6.32,0,14.18-14.82,17.47-21.27Z" transform="translate(2 2)"/><path class="cls-40" d="M519.43,396.48a3.61,3.61,0,0,1-1.74.63,2,2,0,0,1-1.48-.84,12.88,12.88,0,0,0,.64-2.87c.2-4.77-1.68-10.75-6.78-10.75-9.92,0-20.81,25.48-21.51,33.7-.2,2.67.06,6.31,3.4,6.31,5.87,0,13.29-13.4,16.83-20.27.26-1.06,1.1-2.47,1-4.15-.13-1.26,1.35-1.61,2.76-1.68,5.54.49,7.35,2.74,7.62,5.68s-1,6.67-1.44,9.69c-.37,1.9-2.18,12.92,1.31,9.76,4.57-4.57,10.37-15.1,14-22a61,61,0,0,1,3-5.69,2.74,2.74,0,0,1,1-.2,1.82,1.82,0,0,1,1.68,1.32l-.71,1.55c-3.86,7.79-12.06,24.49-18.64,29.9a12.35,12.35,0,0,1-7.26,2.74c-6.65,0-7.23-11-6.52-15.66a5,5,0,0,1,.07-.71c-5,8.36-12.26,16.65-20.12,16.65-7.4,0-9.78-5.56-9.78-11.94,0-.55,0-1.39.06-2,1.79-14.12,15.26-39.38,31.18-39.38,8.2,0,12.9,8.63,12.37,16.43a18.41,18.41,0,0,1-.84,3.78Z" transform="translate(2 2)"/><path class="cls-40" d="M343.76,434.88a15,15,0,0,0-5.1,1,11.09,11.09,0,0,0-7.27,9.62,4.58,4.58,0,0,0,1.31,3.88,2.93,2.93,0,0,0,1.33.81h0c0-.2,0-.38,0-.55,0-4.57,2.78-8.37,6.05-9.34a7,7,0,0,1,2.21-.36c3.26,0,4.7,2.52,4.7,5.68a13.46,13.46,0,0,1-12.06,12.92c-6.31.84-9-5.48-9.47-11a36.37,36.37,0,0,1,.33-5.12c1.86-9.35,6-20.92,9.59-31.1.26-.84.84-2,1.17-2.8,1.9-4.57,5.21-12.43,5.21-16.92,0-1.9-.51-3.09-1.79-3.64a12.09,12.09,0,0,0-4.2-.58c-.64,0-1.41.09-2.18.09s-1.62.07-2.39.07a20.53,20.53,0,0,1-3.77-.29c.15-.35.15-.49.28-.77,1-2.68,3.16-8.64,3.67-13.34.26-4.64-1.55-7.22-5.48-7.22-7,0-11.73,7.09-12.3,13.47-.51,5.83,1.88,11.5,8.77,11.86-1.55,3.22-3.23,6.31-4.84,9.54a13.71,13.71,0,0,0,3,.77l4.77-9.89c.7.06,1.94.15,2.65.15a20.68,20.68,0,0,0,2.18.07c-.84,2-1.48,3.86-2.25,5.83-4,10-9.1,22.66-12.12,39.86l-1,6c.31,13.27,8.31,19.66,18.11,19.66a30.2,30.2,0,0,0,4.44-.36c11.46-2.6,17.47-10,17.47-16.43C354.78,440.29,350.51,434.88,343.76,434.88ZM324,386.67c-1.74-.44-2.32-1.7-2.12-3.45.38-4,4.24-9.76,5.72-9.76.2,0,.33.49.26,1.48C327.5,378.52,324.74,385,324,386.67Z" transform="translate(2 2)"/><path class="cls-41" d="M201.39,549.53H600.61a2.32,2.32,0,0,0,2.31-2.31h0a2.32,2.32,0,0,0-2.31-2.33H201.39a2.34,2.34,0,0,0-2.33,2.33h0A2.33,2.33,0,0,0,201.39,549.53Z" transform="translate(2 2)"/><polygon class="cls-40" points="557.3 546.89 518.73 546.89 557.3 480.07 595.88 546.89 557.3 546.89"/><polygon class="cls-41" points="480.15 546.89 441.58 546.89 480.15 480.07 518.73 546.89 480.15 546.89"/><polygon class="cls-42" points="403 546.89 364.43 546.89 403 480.07 441.58 546.89 403 546.89"/><polygon class="cls-10" points="325.85 546.89 287.27 546.89 325.85 480.07 364.43 546.89 325.85 546.89"/><polygon class="cls-43" points="248.7 546.89 210.12 546.89 248.7 480.07 287.27 546.89 248.7 546.89"/><path class="cls-43" d="M324.35,561.88c-.66,0,.19-1.53,1.94-2.22h-126a1.17,1.17,0,0,0-1.19,1.16h0a1.18,1.18,0,0,0,1.19,1.17h123.6S326.68,561.88,324.35,561.88Z" transform="translate(2 2)"/><path class="cls-10" d="M250.6,503.56a2.68,2.68,0,0,1,2.68-2.7,2.69,2.69,0,1,1,0,5.38A2.67,2.67,0,0,1,250.6,503.56Z" transform="translate(2 2)"/><path class="cls-10" d="M257.16,516.11a2.71,2.71,0,0,1,2.73-2.68,2.69,2.69,0,0,1,0,5.38A2.72,2.72,0,0,1,257.16,516.11Z" transform="translate(2 2)"/><path class="cls-10" d="M216.91,538.32a2.71,2.71,0,1,1,2.73,2.7A2.72,2.72,0,0,1,216.91,538.32Z" transform="translate(2 2)"/><path class="cls-10" d="M265.51,527.39a2.71,2.71,0,0,1,5.41,0,2.71,2.71,0,1,1-5.41,0Z" transform="translate(2 2)"/><path class="cls-10" d="M244,490.8a2.69,2.69,0,1,1,2.69,2.71A2.69,2.69,0,0,1,244,490.8Z" transform="translate(2 2)"/><path class="cls-10" d="M242.51,513.43a2.68,2.68,0,1,1,2.68,2.68A2.68,2.68,0,0,1,242.51,513.43Z" transform="translate(2 2)"/><path class="cls-10" d="M252.11,526.9a2.68,2.68,0,0,1,2.68-2.71,2.71,2.71,0,1,1,0,5.41A2.68,2.68,0,0,1,252.11,526.9Z" transform="translate(2 2)"/><path class="cls-10" d="M256,538.78a2.68,2.68,0,0,1,2.68-2.7,2.71,2.71,0,1,1,0,5.41A2.68,2.68,0,0,1,256,538.78Z" transform="translate(2 2)"/><path class="cls-10" d="M270.19,539.38a2.68,2.68,0,0,1,2.68-2.7,2.7,2.7,0,1,1,0,5.39A2.68,2.68,0,0,1,270.19,539.38Z" transform="translate(2 2)"/><path class="cls-10" d="M239.16,527.83a2.72,2.72,0,0,1,2.73-2.71,2.71,2.71,0,0,1,0,5.41A2.71,2.71,0,0,1,239.16,527.83Z" transform="translate(2 2)"/><path class="cls-10" d="M241.89,538.78a2.68,2.68,0,0,1,2.68-2.7,2.71,2.71,0,1,1,0,5.41A2.68,2.68,0,0,1,241.89,538.78Z" transform="translate(2 2)"/><path class="cls-10" d="M229.45,539.38a2.71,2.71,0,1,1,2.68,2.69A2.71,2.71,0,0,1,229.45,539.38Z" transform="translate(2 2)"/><path class="cls-10" d="M224.86,529a2.73,2.73,0,0,1,2.73-2.7,2.71,2.71,0,0,1,0,5.41A2.72,2.72,0,0,1,224.86,529Z" transform="translate(2 2)"/><path class="cls-10" d="M235.35,504.14a2.68,2.68,0,1,1,2.68,2.7A2.68,2.68,0,0,1,235.35,504.14Z" transform="translate(2 2)"/><path class="cls-10" d="M228.14,518a2.73,2.73,0,0,1,2.73-2.7,2.71,2.71,0,0,1,0,5.41A2.72,2.72,0,0,1,228.14,518Z" transform="translate(2 2)"/><path class="cls-10" d="M559.67,503.56a2.69,2.69,0,1,1,2.68,2.68A2.68,2.68,0,0,1,559.67,503.56Z" transform="translate(2 2)"/><path class="cls-10" d="M566.23,516.11a2.68,2.68,0,0,1,2.68-2.68,2.69,2.69,0,1,1-2.68,2.68Z" transform="translate(2 2)"/><path class="cls-10" d="M526,538.32a2.69,2.69,0,0,1,2.68-2.71,2.71,2.71,0,1,1,0,5.41A2.68,2.68,0,0,1,526,538.32Z" transform="translate(2 2)"/><path class="cls-10" d="M574.55,527.39a2.71,2.71,0,0,1,2.72-2.7,2.71,2.71,0,0,1,0,5.41A2.71,2.71,0,0,1,574.55,527.39Z" transform="translate(2 2)"/><path class="cls-10" d="M553,490.8a2.71,2.71,0,1,1,2.73,2.71A2.72,2.72,0,0,1,553,490.8Z" transform="translate(2 2)"/><path class="cls-10" d="M551.54,513.43a2.71,2.71,0,0,1,2.72-2.71,2.7,2.7,0,0,1,0,5.39A2.71,2.71,0,0,1,551.54,513.43Z" transform="translate(2 2)"/><path class="cls-10" d="M561.17,526.9a2.69,2.69,0,1,1,2.69,2.7A2.69,2.69,0,0,1,561.17,526.9Z" transform="translate(2 2)"/><path class="cls-10" d="M565,538.78a2.71,2.71,0,0,1,2.72-2.7,2.71,2.71,0,0,1,0,5.41A2.71,2.71,0,0,1,565,538.78Z" transform="translate(2 2)"/><path class="cls-10" d="M579.21,539.38a2.73,2.73,0,0,1,2.73-2.7,2.7,2.7,0,0,1,0,5.39A2.73,2.73,0,0,1,579.21,539.38Z" transform="translate(2 2)"/><path class="cls-10" d="M548.23,527.83a2.71,2.71,0,1,1,2.68,2.7A2.71,2.71,0,0,1,548.23,527.83Z" transform="translate(2 2)"/><path class="cls-10" d="M550.91,538.78a2.72,2.72,0,0,1,2.73-2.7,2.71,2.71,0,0,1,0,5.41A2.72,2.72,0,0,1,550.91,538.78Z" transform="translate(2 2)"/><path class="cls-10" d="M538.52,539.38a2.69,2.69,0,0,1,2.69-2.7,2.7,2.7,0,1,1,0,5.39A2.68,2.68,0,0,1,538.52,539.38Z" transform="translate(2 2)"/><path class="cls-10" d="M533.93,529a2.7,2.7,0,0,1,2.69-2.7,2.71,2.71,0,1,1,0,5.41A2.69,2.69,0,0,1,533.93,529Z" transform="translate(2 2)"/><path class="cls-10" d="M544.37,504.14a2.72,2.72,0,0,1,2.73-2.71,2.71,2.71,0,0,1,0,5.41A2.72,2.72,0,0,1,544.37,504.14Z" transform="translate(2 2)"/><path class="cls-10" d="M537.21,518a2.71,2.71,0,1,1,2.69,2.71A2.73,2.73,0,0,1,537.21,518Z" transform="translate(2 2)"/><polygon class="cls-43" points="330.8 488.67 317.49 494.52 312.55 503.09 333.45 493.19 330.8 488.67"/><polygon class="cls-43" points="336.79 499.01 307.24 512.28 302.22 521 339.35 503.45 336.79 499.01"/><polygon class="cls-43" points="344 511.51 295 533.51 289.78 542.51 346.45 515.77 344 511.51"/><polygon class="cls-43" points="313.81 546.89 353.39 527.76 350.94 523.51 298.59 546.89 313.81 546.89"/><polygon class="cls-43" points="357.48 534.86 330.57 546.89 344.17 546.89 360 539.23 357.48 534.86"/><polygon class="cls-41" points="403 480.07 419.6 546.89 430.64 546.89 403 480.07"/><polygon class="cls-41" points="403 480.07 410.69 546.89 398.01 546.89 403 480.07"/><polygon class="cls-41" points="403 480.07 385.06 546.89 372.61 546.89 403 480.07"/><polygon class="cls-43" points="485.11 488.67 471.79 494.52 466.85 503.09 487.75 493.19 485.11 488.67"/><polygon class="cls-43" points="491.1 499.01 461.54 512.28 456.52 521 493.65 503.45 491.1 499.01"/><polygon class="cls-43" points="498.3 511.51 449.31 533.51 444.09 542.51 500.75 515.77 498.3 511.51"/><polygon class="cls-43" points="468.11 546.89 507.69 527.76 505.24 523.51 452.89 546.89 468.11 546.89"/><polygon class="cls-43" points="511.78 534.86 484.88 546.89 498.47 546.89 514.3 539.23 511.78 534.86"/><path class="cls-7" d="M197.81,644.5c-30.07-38.21-37.76-78.56-37.83-79l3.18-.58c.07.4,7.65,40,37.19,77.55Z" transform="translate(2 2)"/><path class="cls-10" d="M604.81,644.5l-2.54-2c29.57-37.6,37.12-77.15,37.19-77.55l3.18.58C642.57,565.94,634.88,606.29,604.81,644.5Z" transform="translate(2 2)"/><path class="cls-44" d="M227.3,291.88s1.47.76,1.41,4,1,21.68,6.66,22.16c0,0-4.15,4.08-10.48.18-6.5-4-6.38-22.29-2.7-27.2Z" transform="translate(2 2)"/><path class="cls-44" d="M197.87,289.76c-.13,3.5.7,23.33,7.27,23.91,0,0-4.87,4.32-12.16.05-7.56-4.4-7.56-19.58-5.3-29.08Z" transform="translate(2 2)"/><path class="cls-45" d="M227.3,291.88l-10.24-2s-6.29,27.45-21.37,25.05c0,0,17.27,5.9,24.57-7.5C227.21,294.73,227.3,291.88,227.3,291.88Z" transform="translate(2 2)"/><path class="cls-45" d="M222.33,315.7s5,6.21,15.4-1.48c11.41-8.33,23.89,6.9,23.89,6.9l-2.21,11.08s-5.55-18-16.64-13.84C230.85,322.84,228,322.25,222.33,315.7Z" transform="translate(2 2)"/><path class="cls-44" d="M574.7,291.88s-1.47.76-1.41,4-1,21.68-6.66,22.16c0,0,4.15,4.08,10.48.18,6.5-4,6.38-22.29,2.7-27.2Z" transform="translate(2 2)"/><path class="cls-44" d="M604.13,289.76c.13,3.5-.7,23.33-7.27,23.91,0,0,4.87,4.32,12.16.05,7.56-4.4,7.56-19.58,5.29-29.08Z" transform="translate(2 2)"/><path class="cls-45" d="M574.7,291.88l10.24-2s6.29,27.45,21.37,25.05c0,0-17.27,5.9-24.57-7.5C574.79,294.73,574.7,291.88,574.7,291.88Z" transform="translate(2 2)"/><path class="cls-45" d="M579.67,315.7s-5.06,6.21-15.39-1.48c-11.42-8.33-23.9,6.9-23.9,6.9l2.21,11.08s5.55-18,16.64-13.84C571.15,322.84,574.05,322.25,579.67,315.7Z" transform="translate(2 2)"/><path class="cls-6" d="M528.62,251.47s-1.87,2.34.6,7.69,14.18,36.77,5.09,41.72c0,0,9.83,3.74,17.54-7.34,7.91-11.42-5.65-41.74-15.32-47.24Z" transform="translate(2 2)"/><path class="cls-6" d="M576.07,226.53c2.81,5.69,15.88,39.27,5.33,45.06,0,0,11.29,3.62,20.32-8.79,9.33-12.82-1.72-38.07-12.43-52.24Z" transform="translate(2 2)"/><path class="cls-7" d="M528.62,251.47l15.61-10.76s30.49,41.1,53.81,26.11c0,0-24.42,22.4-46.36,5.44C530.87,256.15,528.62,251.47,528.62,251.47Z" transform="translate(2 2)"/><path class="cls-7" d="M554.3,287.51s-3.92,14-26.69,8.72c-25.08-5.51-34.72,28.9-34.72,28.9L504.63,342s-3.89-34,17.58-35.15C545.31,305.59,549.71,302.49,554.3,287.51Z" transform="translate(2 2)"/><path class="cls-36" d="M273,251.13s1.94,2.31-.45,7.7-13.63,37-4.48,41.79c0,0-9.73,3.91-17.6-7.06-8.12-11.3,4.95-41.81,14.54-47.48Z" transform="translate(2 2)"/><path class="cls-36" d="M225.15,226.93c-2.73,5.74-15.25,39.53-4.62,45.14,0,0-11.23,3.81-20.44-8.46-9.53-12.66,1.11-38.1,11.56-52.43Z" transform="translate(2 2)"/><path class="cls-10" d="M273,251.13,257.2,240.6s-29.84,41.59-53.42,27c0,0,24.79,22,46.44,4.71C270.83,255.85,273,251.13,273,251.13Z" transform="translate(2 2)"/><path class="cls-10" d="M247.86,287.57s4.17,13.94,26.86,8.3c24.95-5.9,35.14,28.37,35.14,28.37l-11.45,17s3.35-34.06-18.14-34.87C257.11,305.5,252.71,302.48,247.86,287.57Z" transform="translate(2 2)"/><path class="cls-7" d="M191.8,475.24c-11.44-38.64-42.35-52.57-69.9-44.38s-46,36-34.31,75.32c11.34,38.26,50.84,59.38,70.76,56.12a72.41,72.41,0,0,1-1.2,12c6.43-3.08,8.08-1.22,13.51-4-2.18-2.56-5.41-6.82-7.35-9.47C181.67,552.42,202.76,512.11,191.8,475.24Z" transform="translate(2 2)"/><g class="cls-46"><path class="cls-4" d="M182.74,486.31c-10.59-35.59-39-48.41-64.38-40.88a48.08,48.08,0,0,0-24.69,16.64,46,46,0,0,1,29.45-25.3c24.6-7.32,52.17,5.14,62.42,39.65C190,491.19,186.06,497.5,182.74,486.31Z" transform="translate(2 2)"/></g><path class="cls-4" d="M161.64,563.8a10.06,10.06,0,0,1-3.63.38,1.36,1.36,0,0,1-1.19-1.5,1.38,1.38,0,0,1,1.5-1.22,6.52,6.52,0,0,0,4.48-1.35,1.39,1.39,0,0,1,1.95.12,1.41,1.41,0,0,1-.1,1.93A7.8,7.8,0,0,1,161.64,563.8Z" transform="translate(2 2)"/><path class="cls-4" d="M162.94,565.23a10.49,10.49,0,0,1-5.32.06,1.36,1.36,0,0,1,.73-2.63c.07,0,3.42.88,5.49-1a1.37,1.37,0,0,1,1.81,2A6.82,6.82,0,0,1,162.94,565.23Z" transform="translate(2 2)"/><path class="cls-47" d="M87.59,506.18c-3.32-11.19-4.23-21.45-3.12-30.61.15.34,35,80,107,39.66l1.38-.76c-4.86,22.37-17.76,40.93-29.57,46.32,1.94,2.65,5.17,6.91,7.35,9.47-5.43,2.79-7.08.93-13.51,4a72.41,72.41,0,0,0,1.2-12C138.43,565.56,98.93,544.44,87.59,506.18Z" transform="translate(2 2)"/><path class="cls-10" d="M610.2,475.24c11.44-38.64,42.35-52.57,69.9-44.38s46,36,34.31,75.32c-11.34,38.26-50.85,59.38-70.76,56.12a71.41,71.41,0,0,0,1.21,12c-6.44-3.08-8.09-1.22-13.52-4,2.18-2.56,5.42-6.82,7.35-9.47C620.33,552.42,599.24,512.11,610.2,475.24Z" transform="translate(2 2)"/><path class="cls-48" d="M619.26,486.31c10.59-35.59,39-48.41,64.38-40.88a48.08,48.08,0,0,1,24.69,16.64,46,46,0,0,0-29.45-25.3c-24.6-7.32-52.17,5.14-62.41,39.65C612.05,491.19,615.94,497.5,619.26,486.31Z" transform="translate(2 2)"/><path class="cls-4" d="M640.36,563.8a10,10,0,0,0,3.63.38,1.36,1.36,0,0,0,1.19-1.5,1.38,1.38,0,0,0-1.5-1.22,6.52,6.52,0,0,1-4.48-1.35,1.39,1.39,0,0,0-2,.12,1.41,1.41,0,0,0,.1,1.93A8.09,8.09,0,0,0,640.36,563.8Z" transform="translate(2 2)"/><path class="cls-4" d="M639.07,565.23a10.46,10.46,0,0,0,5.31.06,1.36,1.36,0,0,0-.73-2.63c-.07,0-3.42.88-5.48-1a1.35,1.35,0,0,0-1.91.12,1.34,1.34,0,0,0,.09,1.93A6.79,6.79,0,0,0,639.07,565.23Z" transform="translate(2 2)"/><path class="cls-36" d="M714.41,506.18c3.32-11.19,4.23-21.45,3.12-30.61-.15.34-35,80-107,39.66l-1.38-.76c4.85,22.37,17.76,40.93,29.57,46.32-1.93,2.65-5.17,6.91-7.35,9.47,5.43,2.79,7.08.93,13.52,4a71.41,71.41,0,0,1-1.21-12C663.56,565.56,703.07,544.44,714.41,506.18Z" transform="translate(2 2)"/><polygon class="cls-49" points="168 354.07 177.98 362.4 163.94 371.42 148.59 358.86 168 354.07"/><polygon class="cls-50" points="207.76 353.57 199.78 351.82 200.34 346.85 206.92 344.82 207.76 353.57"/><polygon class="cls-51" points="168.67 414.56 163.26 415.04 166 409.27 173.19 408.8 168.67 414.56"/><polygon class="cls-51" points="180.6 331.36 175.24 331.82 177.94 326.05 185.13 325.58 180.6 331.36"/><polygon class="cls-51" points="204.19 391.31 198.82 391.78 201.52 386.01 208.72 385.55 204.19 391.31"/><polygon class="cls-49" points="125.37 390.95 131.79 394.24 125.73 400.76 115.84 395.87 125.37 390.95"/><polygon class="cls-49" points="637.99 354.07 628.02 362.4 642.06 371.42 657.41 358.86 637.99 354.07"/><polygon class="cls-50" points="448.9 488.82 456.88 487.07 456.36 482.09 449.74 480.07 448.9 488.82"/><polygon class="cls-50" points="468.43 456.6 476.41 454.85 475.89 449.88 469.27 447.85 468.43 456.6"/><polygon class="cls-50" points="299.36 447.7 307.35 445.93 306.82 440.95 300.2 438.93 299.36 447.7"/><polygon class="cls-50" points="407.52 340.93 415.51 339.18 414.94 334.2 408.36 332.18 407.52 340.93"/><polygon class="cls-50" points="594.24 434.97 602.23 433.22 601.66 428.25 595.09 426.22 594.24 434.97"/><polygon class="cls-50" points="203.15 481.96 211.13 480.19 210.6 475.23 203.99 473.18 203.15 481.96"/><polygon class="cls-50" points="598.24 353.57 606.22 351.82 605.7 346.85 599.08 344.82 598.24 353.57"/><polygon class="cls-51" points="637.33 414.56 642.73 415.04 640 409.27 632.81 408.8 637.33 414.56"/><polygon class="cls-51" points="625.71 329.39 631.12 329.85 628.38 324.1 621.18 323.61 625.71 329.39"/><polygon class="cls-51" points="542.62 359.83 548.02 360.31 545.33 354.54 538.13 354.07 542.62 359.83"/><polygon class="cls-51" points="326.42 351.86 331.82 352.32 329.08 346.56 321.88 346.08 326.42 351.86"/><polygon class="cls-51" points="601.8 391.31 607.17 391.78 604.48 386.01 597.28 385.55 601.8 391.31"/><polygon class="cls-51" points="372.19 449.08 377.6 449.54 374.86 443.79 367.66 443.3 372.19 449.08"/><polygon class="cls-45" points="277.4 477.7 285.99 477.96 285.89 469.38 275.57 469.14 277.4 477.7"/><polygon class="cls-45" points="417.74 455.47 426.32 455.75 426.19 447.15 415.86 446.93 417.74 455.47"/><polygon class="cls-45" points="494.56 366.88 503.14 367.15 503.05 358.56 492.72 358.31 494.56 366.88"/><polygon class="cls-45" points="355.29 338.34 362.11 338.54 362.04 331.73 353.86 331.53 355.29 338.34"/><polygon class="cls-49" points="680.63 390.95 674.19 394.24 680.27 400.76 690.16 395.87 680.63 390.95"/><polygon class="cls-49" points="511.08 441.53 504.67 444.79 510.77 451.34 520.61 446.43 511.08 441.53"/><polygon class="cls-49" points="358.44 479.53 352.02 482.81 358.13 489.34 368.01 484.45 358.44 479.53"/><polygon class="cls-49" points="429.42 355.29 422.96 358.56 429.07 365.1 438.95 360.19 429.42 355.29"/><polygon class="cls-52" points="139.52 309.89 123.35 307.43 131.25 321.79 123.88 336.42 139.98 333.34 150.75 297.95 139.52 309.89"/><polygon class="cls-53" points="153.66 328.6 168.23 321.08 153.4 314.11 150.75 297.95 139.98 333.34 151.64 344.84 153.66 328.6"/><polygon class="cls-6" points="666.48 309.89 682.65 307.43 674.75 321.79 682.12 336.42 666.02 333.34 655.25 297.95 666.48 309.89"/><polygon class="cls-7" points="652.34 328.6 637.77 321.08 652.6 314.11 655.25 297.95 666.02 333.34 654.36 344.84 652.34 328.6"/><polygon class="cls-36" points="436.72 215.8 426.3 216.19 432.94 224.24 430.07 234.28 439.8 230.45 442.3 206.99 436.72 215.8"/><polygon class="cls-10" points="447.81 225.83 456 219.37 445.88 216.79 442.3 206.99 439.8 230.45 448.48 236.24 447.81 225.83"/><path class="cls-54" d="M461.12,553.4c-7.45,0-15.37,5.11-19.35,7.72C432.42,567,423.92,573.86,416,575.2c-14,2.33-18-12.48-8.09-17.92,3.88-2.14,11.88-2.42,14.53,4.15.83,2.05,1.18,3.52-.49,5.23l5.69-1.87c.55-4-4.52-11.11-14-10.57-7.28.43-12.57,6-12.69,12.26a12.76,12.76,0,0,0,1.33,6c2.85,5.59,10,7.29,15.07,6.88,8.53-.68,16.45-6.71,22.3-10.72,7.87-5.36,15.79-12.65,26.53-11.82,7.55.59,12.42,5.52,13.3,10.76.8,6.42-4.88,9.62-11.07,6.13-2.5-1.41-6.52-3.74-11-1.5,5.82,0,5,7.5,12.62,7.29a10.65,10.65,0,0,0,5.77-2.13,11.57,11.57,0,0,0,4.71-7.07C482,563.52,475.56,553.43,461.12,553.4Z" transform="translate(2 2)"/><path class="cls-54" d="M340.89,553.4c7.43,0,15.38,5.11,19.36,7.72C369.6,567,378.07,573.86,386,575.2c14,2.33,18-12.48,8.11-17.92-3.9-2.14-11.91-2.42-14.56,4.15-.82,2.05-1.15,3.52.49,5.23l-5.68-1.87c-.56-4,4.51-11.11,14-10.57,7.27.43,12.57,6,12.71,12.26a12.75,12.75,0,0,1-1.36,6c-2.85,5.59-10,7.29-15,6.88-8.54-.68-16.47-6.71-22.29-10.72-7.89-5.36-15.81-12.65-26.53-11.82-7.62.59-12.45,5.52-13.33,10.76-.78,6.42,4.91,9.62,11.09,6.13,2.48-1.41,6.51-3.74,11-1.5-5.82,0-5,7.5-12.6,7.29a10.62,10.62,0,0,1-5.77-2.13,11.58,11.58,0,0,1-4.72-7.07C320,563.52,326.44,553.43,340.89,553.4Z" transform="translate(2 2)"/><path class="cls-43" d="M389,569.68a34.8,34.8,0,0,1-3.8-3.06,4.41,4.41,0,0,1-1.38-2.44,2.67,2.67,0,0,1,2.71-3.33,2.74,2.74,0,0,1,2.39,1.31l.08.13.08-.13a2.74,2.74,0,0,1,2.38-1.31,2.8,2.8,0,0,1,1.71.55,2.91,2.91,0,0,1,1,2.78,4.24,4.24,0,0,1-1.33,2.44A35.82,35.82,0,0,1,389,569.68Z" transform="translate(2 2)"/><path class="cls-43" d="M413,569.68a34.8,34.8,0,0,1-3.8-3.06,4.24,4.24,0,0,1-1.33-2.44,2.88,2.88,0,0,1,1-2.78,2.86,2.86,0,0,1,4.09.76l.08.13.08-.13a2.72,2.72,0,0,1,2.38-1.31,2.67,2.67,0,0,1,2.71,3.33,4.29,4.29,0,0,1-1.38,2.44A34.5,34.5,0,0,1,413,569.68Z" transform="translate(2 2)"/><path class="cls-43" d="M401,595.15a56.33,56.33,0,0,1-6.89-5.55,7.71,7.71,0,0,1-2.47-4.42,5.43,5.43,0,0,1,1.75-5.06,5.32,5.32,0,0,1,3.11-1,4.93,4.93,0,0,1,4.35,2.35l.15.24.14-.24a5,5,0,0,1,4.36-2.35,5.32,5.32,0,0,1,3.11,1,5.48,5.48,0,0,1,1.75,5.06,7.76,7.76,0,0,1-2.47,4.42A57.12,57.12,0,0,1,401,595.15Z" transform="translate(2 2)"/><path class="cls-43" d="M602.92,560.82a1.15,1.15,0,0,0-1.17-1.16H476.46a3.94,3.94,0,0,0-.6,0,4.52,4.52,0,0,1,2.09,1.83,1.1,1.1,0,0,0,.92.46H601.75a1.16,1.16,0,0,0,1.17-1.17Z" transform="translate(2 2)"/></g><g id="Eva"><text class="cls-55" transform="matrix(0.82, 0.29, -0.33, 0.94, 269.19, 636.59)">TO</text><text class="cls-55" transform="matrix(0.83, -0.26, 0.3, 0.96, 435.83, 664.29)">EVA</text></g></g></svg>