<svg xmlns="http://www.w3.org/2000/svg" viewBox="0 0 800 800"><defs><style>.cls-1{fill:#87c1bc;}.cls-2{opacity:0.6;}.cls-3,.cls-4,.cls-8{fill:#fff;}.cls-3{opacity:0.3;}.cls-4{font-size:120.92px;font-family:BebasNeueLight, Bebas Neue;letter-spacing:0em;}.cls-5{letter-spacing:0.04em;}.cls-6,.cls-8{font-size:121.39px;font-family:BebasNeueRegular, Bebas Neue;letter-spacing:0.09em;}.cls-12,.cls-6{fill:#ffab0e;}.cls-7{letter-spacing:0.1em;}.cls-9{fill:#fbecb5;}.cls-10{fill:#2f0000;}.cls-11{fill:#c70117;}</style></defs><title>Asset 1</title><g id="Layer_2" data-name="Layer 2"><g id="background"><rect id="_Rectangle_" data-name="&lt;Rectangle&gt;" class="cls-1" width="800" height="800"/><g class="cls-2"><circle class="cls-3" cx="88.13" cy="130.1" r="10"/><circle class="cls-3" cx="23.34" cy="35.48" r="10"/><circle class="cls-3" cx="34.35" cy="196.16" r="10"/><circle class="cls-3" cx="253.6" cy="76.36" r="10"/><circle class="cls-3" cx="492.92" cy="106.85" r="10"/><circle class="cls-3" cx="648.3" cy="116.85" r="10"/><circle class="cls-3" cx="638.3" cy="35.48" r="10"/><circle class="cls-3" cx="689.21" cy="274.16" r="10"/><circle class="cls-3" cx="752.26" cy="232.86" r="10"/><circle class="cls-3" cx="765.76" cy="489.2" r="10"/><circle class="cls-3" cx="33.34" cy="469.2" r="10"/><circle class="cls-3" cx="166.35" cy="740.66" r="10"/><circle class="cls-3" cx="51.11" cy="753.68" r="10"/><circle class="cls-3" cx="286.84" cy="673.1" r="10"/><circle class="cls-3" cx="689.21" cy="183.62" r="6.75"/><circle class="cls-3" cx="624.41" cy="222.86" r="6.75"/><circle class="cls-3" cx="584.86" cy="140.1" r="6.75"/><circle class="cls-3" cx="314.38" cy="123.61" r="6.75"/><circle class="cls-3" cx="752.26" cy="116.85" r="6.75"/><circle class="cls-3" cx="544.85" cy="49.61" r="6.75"/><circle class="cls-3" cx="169.86" cy="35.48" r="6.75"/><circle class="cls-3" cx="333.34" cy="35.48" r="6.75"/><circle class="cls-3" cx="238.1" cy="786.38" r="6.75"/><circle class="cls-3" cx="446.41" cy="35.48" r="6.75"/><circle class="cls-3" cx="385.41" cy="130.1" r="6.75"/><circle class="cls-3" cx="176.35" cy="146.85" r="6.75"/><circle class="cls-3" cx="741.17" cy="35.48" r="6.75"/><circle class="cls-3" cx="34.35" cy="341.77" r="6.75"/><circle class="cls-3" cx="111.64" cy="76.36" r="6.75"/><circle class="cls-3" cx="41.11" cy="602.49" r="6.75"/><circle class="cls-3" cx="745.5" cy="335.02" r="6.75"/><circle class="cls-3" cx="538.09" cy="679.85" r="6.75"/><circle class="cls-3" cx="410.9" cy="673.1" r="6.75"/><circle class="cls-3" cx="467.24" cy="712.56" r="6.75"/><circle class="cls-3" cx="273.6" cy="183.62" r="6.75"/><circle class="cls-3" cx="565.11" cy="779.62" r="6.75"/><circle class="cls-3" cx="742.26" cy="712.56" r="6.75"/><circle class="cls-3" cx="614.85" cy="729.25" r="6.75"/><circle class="cls-3" cx="689.82" cy="764.69" r="6.75"/><circle class="cls-3" cx="67.86" cy="673.1" r="6.75"/><circle class="cls-3" cx="354.87" cy="719.31" r="6.75"/><circle class="cls-3" cx="734.42" cy="629.76" r="6.75"/><circle class="cls-3" cx="765.77" cy="542.57" r="6.75"/><circle class="cls-3" cx="189.86" cy="679.85" r="6.75"/><circle class="cls-3" cx="655.05" cy="663.1" r="6.75"/></g></g><g id="object"><text class="cls-4" transform="translate(64.78 319.45)">T<tspan class="cls-5" x="45.47" y="0">AKE</tspan><tspan class="cls-5"><tspan x="0" y="146.98">THE BULL</tspan></tspan></text><text class="cls-6" transform="translate(80.6 613.54)">b<tspan class="cls-7" x="57.9" y="0">y the horns</tspan></text><text class="cls-8" transform="translate(76.6 608.91)">b<tspan class="cls-7" x="57.9" y="0">y the horns</tspan></text><g id="_Group_" data-name="&lt;Group&gt;"><g id="_Group_2" data-name="&lt;Group&gt;"><g id="_Group_3" data-name="&lt;Group&gt;"><path class="cls-9" d="M458.72,227.84s-24.6-27.66,2.42-59.1c0,0-20.95,6.18-28,27.55-5.75,17.4,7.34,36.21,7.34,36.21Z"/></g><g id="_Group_4" data-name="&lt;Group&gt;"><path class="cls-9" d="M484.33,164.73c1.27,0,33.84,40.15,8.81,65.62l18.68,7.33a49.78,49.78,0,0,0,7.83-42C512.4,167.27,484.33,164.73,484.33,164.73Z"/></g><g id="_Group_5" data-name="&lt;Group&gt;"><g id="_Group_6" data-name="&lt;Group&gt;"><g id="_Group_7" data-name="&lt;Group&gt;"><path class="cls-10" d="M526.56,445.88l-11.14,6.39c-9.87-15.84-28.26-48.45-28.26-48.45s7.36,2.39,20.08,5.1Z"/></g><g id="_Group_8" data-name="&lt;Group&gt;"><path class="cls-9" d="M531.62,455.55s-8.51,4.09-10.15,5.15c-.41.26-2.75-3.15-6-8.42l11.14-6.39Z"/></g><g id="_Group_9" data-name="&lt;Group&gt;"><path class="cls-10" d="M624.41,463.42l-14.54-2.17,6-46c9.27-1.06,18.77-2.57,28.41-4.62Z"/></g><g id="_Group_10" data-name="&lt;Group&gt;"><polygon class="cls-9" points="620.3 474.31 608.17 474.23 609.87 461.25 624.41 463.42 620.3 474.31"/></g><g id="_Group_11" data-name="&lt;Group&gt;"><path class="cls-9" d="M693.12,467.92,677,472.05l-2.75-10.77,17.55-4.49C692.61,463.73,693.12,467.92,693.12,467.92Z"/></g><g id="_Group_12" data-name="&lt;Group&gt;"><polygon class="cls-9" points="480.29 463.06 469.2 462.07 466.75 447.06 481.82 449.04 480.29 463.06"/></g><g id="_Group_13" data-name="&lt;Group&gt;"><path class="cls-10" d="M414.79,296l-9.15-58.4c30.76-8.63,70.88-17.86,95.83-15.74,44.94,3.81,59.62,61.23,59.62,61.23s107.55,34.32,111.95,44c3.61,8,14.82,97.83,18.71,129.69l-17.55,4.49-13.76-53.84q-8.09,2.24-16.08,3.93c-9.64,2.06-19.14,3.57-28.41,4.63-46,5.25-86.38-.65-109.31-5.54-12.72-2.71-20.08-5.1-20.08-5.1L481.82,449l-15.07-2L442.12,296.28Z"/></g></g><g id="_Group_14" data-name="&lt;Group&gt;"><path class="cls-9" d="M360.83,251.27s2.75-.67,5-1.41c-.87-6.39-1.31-15.18,2.7-16,4.26-.88,9.78,6.27,10.89,11.68,2.41-.77,2-.72,4.86-1.62.23-5.81,1.32-14.18,5.65-13.62,4.53.59,7.43,6,8.8,9.28,2.26-.66,4.59-1.32,7-2l9.15,58.4-42.64-.45Z"/></g></g><g id="_Group_15" data-name="&lt;Group&gt;"><path class="cls-10" d="M523.29,230.56c-8.65-10.62,42.81-46.95,42.81-46.95s10.6,21.74-5.81,39.6C547.46,237.18,526.62,234.64,523.29,230.56Z"/></g><g id="_Group_16" data-name="&lt;Group&gt;"><path class="cls-10" d="M431.47,230.86c.89,5.75-39.14-10.75-44.6-32.3C386.87,198.56,424.41,185.46,431.47,230.86Z"/></g><g id="_Group_17" data-name="&lt;Group&gt;"><path class="cls-9" d="M480.45,236.78a55.45,55.45,0,0,0-2.94,6.36c-.43,1.09-.83,2.19-1.18,3.32s-.69,2.26-.94,3.42a30.23,30.23,0,0,0-.57,3.54,14.27,14.27,0,0,0,.1,3.71,7.11,7.11,0,0,0,1.65,3.65,8.67,8.67,0,0,0,.82.71,6.52,6.52,0,0,0,.94.53l.5.19.25.09.13,0h.09l.11,0a4.23,4.23,0,0,0,.46.06h.66a2.81,2.81,0,0,0,.57-.09c.17,0,.35-.07.52-.12s.65-.21.94-.35a13.32,13.32,0,0,0,1.67-.91,22.39,22.39,0,0,0,2.89-2.22,58.46,58.46,0,0,0,5-5.08q2.3-2.68,4.4-5.48c1.38-1.89,2.75-3.78,4-5.76l-1,.16q2.44,1.69,4.91,3.34t5,3.24q-2.22-2-4.49-3.9t-4.57-3.8l-.53-.43-.46.59c-1.41,1.81-2.85,3.64-4.34,5.4s-3,3.53-4.53,5.22a57.55,57.55,0,0,1-4.84,4.83,24.94,24.94,0,0,1-2.62,2,10.85,10.85,0,0,1-1.37.77c-.23.12-.46.18-.68.27l-.33.08a1.21,1.21,0,0,1-.29.06l-.21,0a3,3,0,0,1-.4,0l-.11,0h-.1l.11,0-.16-.06-.32-.11a4.59,4.59,0,0,1-.59-.3c-.18-.12-.34-.27-.52-.41a5.17,5.17,0,0,1-1.24-2.58,19.28,19.28,0,0,1,.09-6.6,60,60,0,0,1,1.47-6.73C479,241.2,479.68,239,480.45,236.78Z"/></g><g id="_Group_18" data-name="&lt;Group&gt;"><path class="cls-9" d="M465.1,237.83q-2.06,2.91-4.15,5.76l-2.12,2.83-2.18,2.77q-1.1,1.37-2.26,2.68c-.77.87-1.55,1.74-2.36,2.55a27.14,27.14,0,0,1-2.54,2.27,9.58,9.58,0,0,1-2.72,1.58,3.05,3.05,0,0,1-1.26.17,1.91,1.91,0,0,1-1-.51,3.54,3.54,0,0,1-1-2.45,12.41,12.41,0,0,1,.24-3.24,30.47,30.47,0,0,1,.81-3.32c.33-1.1.73-2.2,1.13-3.29s.84-2.18,1.3-3.25c.92-2.15,1.91-4.29,3-6.38l.31-.62-.63-.1c-2.28-.36-4.56-.7-6.85-1,2.2.69,4.42,1.32,6.64,1.94l-.31-.72c-.67,1-1.28,2-1.88,3.05s-1.18,2.07-1.72,3.14a51.08,51.08,0,0,0-2.88,6.61,29.59,29.59,0,0,0-1,3.53,14.44,14.44,0,0,0-.32,3.81,6.54,6.54,0,0,0,.13,1,5.68,5.68,0,0,0,.28,1,5.82,5.82,0,0,0,.49,1,4.89,4.89,0,0,0,.76.89l.16.15.09.07,0,0h0l.1.08.07,0,.54.3a1.93,1.93,0,0,0,.57.22c.2.05.4.11.6.15a5.17,5.17,0,0,0,2.23-.28,11.57,11.57,0,0,0,3.37-2,27.57,27.57,0,0,0,2.66-2.55,52.55,52.55,0,0,0,4.48-5.65c.7-1,1.34-2,2-3s1.27-2,1.86-3C463,242.08,464.09,240,465.1,237.83Z"/></g><g id="_Group_19" data-name="&lt;Group&gt;"><circle class="cls-11" cx="496.19" cy="283.42" r="9.26" transform="translate(-54.74 131.72) rotate(-14.34)"/></g><g id="_Group_20" data-name="&lt;Group&gt;"><path class="cls-11" d="M391.3,238.22c2.12-.53,7.46,13.07,3.95,14.29S387.08,239.27,391.3,238.22Z"/></g><g id="_Group_21" data-name="&lt;Group&gt;"><path class="cls-10" d="M668.33,324.78s27.56,15.58,41.76,67.39l-3.59.92s-21.3-49.68-36.62-57.24Z"/></g><g id="_Group_22" data-name="&lt;Group&gt;"><path class="cls-9" d="M718.06,439.53s10.88-9.79,9.08-24.31a28.21,28.21,0,0,0-17-23l-3.59.92s-8.33,11.05-4.89,24.51S718.06,439.53,718.06,439.53Z"/></g><g id="_Group_23" data-name="&lt;Group&gt;"><path class="cls-9" d="M424,290.39l.49,0c.32,0,.79,0,1.39-.08s1.32-.12,2.15-.23,1.77-.24,2.77-.46l1.58-.31,1.67-.41c1.15-.27,2.34-.64,3.58-1l1.86-.64c.63-.22,1.27-.43,1.89-.7,1.25-.52,2.54-1,3.78-1.63l1.86-.91,1.8-1c.6-.33,1.19-.65,1.75-1l1.65-1.08c.54-.36,1.09-.68,1.58-1.06l1.45-1.12,1.36-1.06c.43-.35.81-.74,1.2-1.08.76-.7,1.46-1.34,2-1.93s1-1.17,1.44-1.62c.79-.91,1.22-1.44,1.22-1.44s-.57.4-1.52,1.11c-.47.36-1.05.79-1.7,1.3l-2.28,1.57c-.42.28-.84.6-1.3.89l-1.43.89-1.5.95-1.61.93-1.66,1-1.74.91-1.76.92-1.82.85c-1.19.61-2.43,1.12-3.64,1.65s-2.42,1-3.59,1.48-2.31.9-3.41,1.27-2.12.76-3.09,1.07c-1.92.64-3.55,1.15-4.69,1.49l-1.33.39Z"/></g><g id="_Group_24" data-name="&lt;Group&gt;"><path class="cls-11" d="M371.15,241.77c2.27-1.37,6.52,14.28,3.46,16S367.56,243.94,371.15,241.77Z"/></g><g id="_Group_25" data-name="&lt;Group&gt;"><path class="cls-12" d="M395.32,248.5c5,2.22,12.19,31.09-6.73,34.06-16.23,2.56-16.84-27.24-16.84-27.24l4.85,0s-.2,24.91,12.95,21.86,3.07-26.44,3.07-26.44Z"/></g></g></g></g></g></svg>