<svg xmlns="http://www.w3.org/2000/svg" xmlns:xlink="http://www.w3.org/1999/xlink" viewBox="0 0 800 674.55"><defs><style>.cls-1,.cls-15,.cls-18,.cls-19,.cls-20,.cls-21,.cls-49,.cls-57,.cls-58,.cls-6,.cls-61{fill:none;}.cls-2{isolation:isolate;}.cls-3{fill:#25475b;}.cls-4{fill:#1f3c47;}.cls-5{opacity:0.6;mix-blend-mode:multiply;}.cls-12,.cls-15,.cls-18,.cls-19,.cls-20,.cls-6{stroke:#194454;}.cls-12,.cls-21,.cls-41,.cls-6{stroke-miterlimit:10;}.cls-21,.cls-6{stroke-width:11.65px;}.cls-11,.cls-12,.cls-13,.cls-14,.cls-16,.cls-17,.cls-7,.cls-8,.cls-9{fill:#194454;}.cls-28,.cls-8{opacity:0.2;}.cls-35,.cls-9{opacity:0.28;}.cls-10{clip-path:url(#clip-path);}.cls-11,.cls-40{opacity:0.36;}.cls-12,.cls-41{stroke-width:7.45px;}.cls-13,.cls-43{opacity:0.17;}.cls-14,.cls-45{opacity:0.26;}.cls-15,.cls-18,.cls-19,.cls-20,.cls-49,.cls-57,.cls-58,.cls-61{stroke-linecap:round;stroke-linejoin:round;}.cls-15,.cls-49{stroke-width:2px;}.cls-16,.cls-54{font-size:22.94px;font-family:Antonio-Bold, Antonio Bold;font-weight:700;}.cls-17,.cls-56{opacity:0.22;}.cls-18,.cls-57{stroke-width:2.66px;}.cls-19,.cls-58{stroke-width:2.6px;}.cls-20,.cls-61{stroke-width:2.25px;}.cls-21{stroke:#f9a825;}.cls-22{fill:#ffd54f;}.cls-23{fill:#fff9c4;}.cls-24{fill:#ffee58;}.cls-25{fill:#ffb300;}.cls-26,.cls-41{fill:#7cb342;}.cls-27{fill:#9ccc65;}.cls-28,.cls-30,.cls-35,.cls-40,.cls-43,.cls-45,.cls-56{fill:#fff;}.cls-29{fill:#ef5350;}.cls-31{fill:#80cbc4;}.cls-32{fill:#26a69a;}.cls-33{fill:#424242;}.cls-34{fill:#ffa726;}.cls-36{clip-path:url(#clip-path-2);}.cls-37{fill:#ffe0b2;}.cls-38,.cls-54{fill:#f5f5f5;}.cls-39{fill:#fdd835;}.cls-41,.cls-49,.cls-57{stroke:#689f38;}.cls-42{fill:#c5e1a5;}.cls-44{fill:#f57c00;}.cls-46{fill:#689f38;}.cls-47{fill:#dce775;}.cls-48{fill:#ffca28;}.cls-50{fill:#c0ca33;}.cls-51{fill:#f0f4c3;}.cls-52{fill:#b2dfdb;}.cls-53{fill:#4db6ac;}.cls-55{fill:#aed581;}.cls-58,.cls-61{stroke:#558b2f;}.cls-59{fill:#afb42b;}.cls-60{fill:#9e9d24;}.cls-62{fill:#558b2f;}</style><clipPath id="clip-path"><path class="cls-1" d="M400.6,457.53,427,593.61a3.44,3.44,0,0,0,6.76,0L460.2,457.53a13,13,0,0,0-12.74-15.46H413.34A13,13,0,0,0,400.6,457.53Z"/></clipPath><clipPath id="clip-path-2"><path class="cls-1" d="M396.6,453.53,423,589.61a3.44,3.44,0,0,0,6.76,0L456.2,453.53a13,13,0,0,0-12.74-15.46H409.34A13,13,0,0,0,396.6,453.53Z"/></clipPath></defs><title>Asset 3</title><g class="cls-2"><g id="Layer_2" data-name="Layer 2"><g id="BACKGROUND"><rect class="cls-3" width="800" height="674.55"/></g><g id="OBJECTS"><circle class="cls-4" cx="389.81" cy="333.63" r="236.79"/><g class="cls-5"><path class="cls-6" d="M240.74,266.54H151.31a6.6,6.6,0,0,0-6.6,6.6v7a6.6,6.6,0,0,0,6.6,6.6h.15V364a4.25,4.25,0,0,0,4.25,4.25h80.64A4.25,4.25,0,0,0,240.6,364V286.77h.15a6.6,6.6,0,0,0,6.6-6.6v-7A6.6,6.6,0,0,0,240.74,266.54Z"/><path class="cls-7" d="M240.74,266.54H151.31a6.6,6.6,0,0,0-6.6,6.6v7a6.6,6.6,0,0,0,6.6,6.6h.15V364a4.25,4.25,0,0,0,4.25,4.25h80.64A4.25,4.25,0,0,0,240.6,364V286.77h.15a6.6,6.6,0,0,0,6.6-6.6v-7A6.6,6.6,0,0,0,240.74,266.54Z"/><path class="cls-7" d="M227.45,317.42h-5.86a1.22,1.22,0,0,1-1.22-1.22h0a1.22,1.22,0,0,1,1.22-1.22h5.86a1.22,1.22,0,0,1,1.22,1.22h0A1.22,1.22,0,0,1,227.45,317.42Z"/><path class="cls-7" d="M202.5,311.45h-5.86a1.22,1.22,0,0,1-1.22-1.22h0a1.22,1.22,0,0,1,1.22-1.22h5.86a1.22,1.22,0,0,1,1.22,1.22h0A1.22,1.22,0,0,1,202.5,311.45Z"/><path class="cls-7" d="M213.08,289.24h-5.86A1.22,1.22,0,0,1,206,288h0a1.22,1.22,0,0,1,1.22-1.22h5.86a1.22,1.22,0,0,1,1.22,1.22h0A1.22,1.22,0,0,1,213.08,289.24Z"/><path class="cls-7" d="M179,277.73h-5.86a1.22,1.22,0,0,1-1.22-1.22h0a1.22,1.22,0,0,1,1.22-1.22H179a1.22,1.22,0,0,1,1.22,1.22h0A1.22,1.22,0,0,1,179,277.73Z"/><path class="cls-7" d="M184.15,298.5h-5.86a1.22,1.22,0,0,1-1.22-1.22h0a1.22,1.22,0,0,1,1.22-1.22h5.86a1.22,1.22,0,0,1,1.22,1.22h0A1.22,1.22,0,0,1,184.15,298.5Z"/><path class="cls-7" d="M204.78,336.28h-5.86a1.22,1.22,0,0,1-1.22-1.22h0a1.22,1.22,0,0,1,1.22-1.22h5.86a1.22,1.22,0,0,1,1.22,1.22h0A1.22,1.22,0,0,1,204.78,336.28Z"/><path class="cls-7" d="M217.24,358.17h-5.86a1.22,1.22,0,0,1-1.22-1.22h0a1.22,1.22,0,0,1,1.22-1.22h5.86a1.22,1.22,0,0,1,1.22,1.22h0A1.22,1.22,0,0,1,217.24,358.17Z"/><path class="cls-7" d="M179,322.3h-5.86a1.22,1.22,0,0,1-1.22-1.22h0a1.22,1.22,0,0,1,1.22-1.22H179a1.22,1.22,0,0,1,1.22,1.22h0A1.22,1.22,0,0,1,179,322.3Z"/><path class="cls-7" d="M170,358.17h-5.86a1.22,1.22,0,0,1-1.22-1.22h0a1.22,1.22,0,0,1,1.22-1.22H170a1.22,1.22,0,0,1,1.22,1.22h0A1.22,1.22,0,0,1,170,358.17Z"/><path class="cls-7" d="M191.63,348h-5.86a1.22,1.22,0,0,1-1.22-1.22h0a1.22,1.22,0,0,1,1.22-1.22h5.86a1.22,1.22,0,0,1,1.22,1.22h0A1.22,1.22,0,0,1,191.63,348Z"/><path class="cls-7" d="M228,342.78h-5.86a1.22,1.22,0,0,1-1.22-1.22h0a1.22,1.22,0,0,1,1.22-1.22H228a1.22,1.22,0,0,1,1.22,1.22h0A1.22,1.22,0,0,1,228,342.78Z"/><path class="cls-7" d="M167.15,333.74h-5.86a1.22,1.22,0,0,1-1.22-1.22h0a1.22,1.22,0,0,1,1.22-1.22h5.86a1.22,1.22,0,0,1,1.22,1.22h0A1.22,1.22,0,0,1,167.15,333.74Z"/><path class="cls-7" d="M165.87,291.68H160a1.22,1.22,0,0,1-1.22-1.22h0a1.22,1.22,0,0,1,1.22-1.22h5.86a1.22,1.22,0,0,1,1.22,1.22h0A1.22,1.22,0,0,1,165.87,291.68Z"/><path class="cls-7" d="M231.61,281.52h-5.86a1.22,1.22,0,0,1-1.22-1.22h0a1.22,1.22,0,0,1,1.22-1.22h5.86a1.22,1.22,0,0,1,1.22,1.22h0A1.22,1.22,0,0,1,231.61,281.52Z"/><path class="cls-7" d="M617.9,339.72H497.75v36.86a8.39,8.39,0,1,1,0,16.4v16.83H617.9a35,35,0,0,0,35-35h0A35,35,0,0,0,617.9,339.72Z"/><path class="cls-7" d="M617.9,339.72h-25a35,35,0,0,1,35,35h0a35,35,0,0,1-35,35h25a35,35,0,0,0,35-35h0A35,35,0,0,0,617.9,339.72Z"/><circle class="cls-7" cx="510.61" cy="364.79" r="4.22"/><circle class="cls-7" cx="612.49" cy="376.73" r="7.97"/><circle class="cls-7" cx="533.78" cy="397.54" r="3.38"/><circle class="cls-7" cx="546.25" cy="376.73" r="4.49"/><circle class="cls-7" cx="599.76" cy="354.24" r="3.38"/><circle class="cls-7" cx="533.78" cy="349.59" r="5.49"/><circle class="cls-7" cx="573.35" cy="364.79" r="8.39"/><circle class="cls-7" cx="594" cy="397.54" r="5.76"/><path class="cls-7" d="M423.65,298.13c3.11,5.39,1.31,12.26,1.31,12.26s-6.85-1.87-10-7.27-1.31-12.26-1.31-12.26S420.54,292.74,423.65,298.13Z"/><path class="cls-7" d="M413.69,305.4c6.23,0,11.28,5,11.28,5s-5,5-11.28,5-11.28-5-11.28-5S407.46,305.4,413.69,305.4Z"/><path class="cls-7" d="M436.24,315.4c-6.23,0-11.28-5-11.28-5s5-5,11.28-5,11.28,5,11.28,5S442.46,315.4,436.24,315.4Z"/><path class="cls-7" d="M434.93,303.13c-3.11,5.39-10,7.27-10,7.27s-1.8-6.87,1.31-12.26,10-7.27,10-7.27S438,297.74,434.93,303.13Z"/><path class="cls-7" d="M430,299.12c0,6.23-5,11.28-5,11.28s-5-5-5-11.28,5-11.28,5-11.28S430,292.9,430,299.12Z"/><path class="cls-7" d="M417.7,300.43c5.39,3.11,7.27,10,7.27,10s-6.87,1.8-12.26-1.31-7.27-10-7.27-10S412.3,297.32,417.7,300.43Z"/><path class="cls-7" d="M437.23,309.09C431.83,312.2,425,310.4,425,310.4s1.87-6.85,7.27-10,12.26-1.31,12.26-1.31S442.62,306,437.23,309.09Z"/><path class="cls-8" d="M440.66,306.19a20.43,20.43,0,0,0,3.84-7.07,20.43,20.43,0,0,0-8-.21,20.43,20.43,0,0,0-.21-8,20.43,20.43,0,0,0-7.07,3.84,20.43,20.43,0,0,0-4.2-6.86V310.4s5,5,11.28,5,11.28-5,11.28-5A20.43,20.43,0,0,0,440.66,306.19Z"/><path class="cls-7" d="M389.2,323.78l28.25,43.8a8.94,8.94,0,0,0,15,0l28.25-43.8A8.94,8.94,0,0,0,453.21,310h-56.5A8.94,8.94,0,0,0,389.2,323.78Z"/><path class="cls-8" d="M453.21,310H425v61.69a8.87,8.87,0,0,0,7.51-4.1l28.25-43.8A8.94,8.94,0,0,0,453.21,310Z"/><ellipse class="cls-7" cx="398.32" cy="319.67" rx="0.96" ry="1.38"/><ellipse class="cls-7" cx="404.98" cy="319.67" rx="0.96" ry="1.38"/><ellipse class="cls-7" cx="411.64" cy="319.67" rx="0.96" ry="1.38"/><ellipse class="cls-7" cx="418.3" cy="319.67" rx="0.96" ry="1.38"/><ellipse class="cls-7" cx="424.96" cy="319.67" rx="0.96" ry="1.38"/><ellipse class="cls-7" cx="431.62" cy="319.67" rx="0.96" ry="1.38"/><ellipse class="cls-7" cx="438.28" cy="319.67" rx="0.96" ry="1.38"/><ellipse class="cls-7" cx="444.94" cy="319.67" rx="0.96" ry="1.38"/><ellipse class="cls-7" cx="451.6" cy="319.67" rx="0.96" ry="1.38"/><ellipse class="cls-7" cx="398.32" cy="327.89" rx="0.96" ry="1.38"/><ellipse class="cls-7" cx="404.98" cy="327.89" rx="0.96" ry="1.38"/><ellipse class="cls-7" cx="411.64" cy="327.89" rx="0.96" ry="1.38"/><ellipse class="cls-7" cx="418.3" cy="327.89" rx="0.96" ry="1.38"/><ellipse class="cls-7" cx="424.96" cy="327.89" rx="0.96" ry="1.38"/><ellipse class="cls-7" cx="431.62" cy="327.89" rx="0.96" ry="1.38"/><ellipse class="cls-7" cx="438.28" cy="327.89" rx="0.96" ry="1.38"/><ellipse class="cls-7" cx="444.94" cy="327.89" rx="0.96" ry="1.38"/><ellipse class="cls-7" cx="451.6" cy="327.89" rx="0.96" ry="1.38"/><ellipse class="cls-7" cx="404.98" cy="336.11" rx="0.96" ry="1.38"/><ellipse class="cls-7" cx="411.64" cy="336.11" rx="0.96" ry="1.38"/><ellipse class="cls-7" cx="418.3" cy="336.11" rx="0.96" ry="1.38"/><ellipse class="cls-7" cx="424.96" cy="336.11" rx="0.96" ry="1.38"/><ellipse class="cls-7" cx="431.62" cy="336.11" rx="0.96" ry="1.38"/><ellipse class="cls-7" cx="438.28" cy="336.11" rx="0.96" ry="1.38"/><ellipse class="cls-7" cx="444.94" cy="336.11" rx="0.96" ry="1.38"/><ellipse class="cls-7" cx="411.64" cy="344.33" rx="0.96" ry="1.38"/><ellipse class="cls-7" cx="418.3" cy="344.33" rx="0.96" ry="1.38"/><ellipse class="cls-7" cx="424.96" cy="344.33" rx="0.96" ry="1.38"/><ellipse class="cls-7" cx="431.62" cy="344.33" rx="0.96" ry="1.38"/><ellipse class="cls-7" cx="438.28" cy="344.33" rx="0.96" ry="1.38"/><ellipse class="cls-7" cx="418.3" cy="352.55" rx="0.96" ry="1.38"/><ellipse class="cls-7" cx="424.96" cy="352.55" rx="0.96" ry="1.38"/><ellipse class="cls-7" cx="431.62" cy="352.55" rx="0.96" ry="1.38"/><ellipse class="cls-7" cx="424.96" cy="360.76" rx="0.96" ry="1.38"/><path class="cls-7" d="M219.76,388.88A34.94,34.94,0,0,0,207.58,391c6.57,2.46,10.95,6.86,10.95,11.87s-4.38,9.41-10.95,11.87a34.94,34.94,0,0,0,12.18,2.09c12.77,0,23.12-6.25,23.12-14S232.53,388.88,219.76,388.88Z"/><path class="cls-7" d="M308.81,362c-13.25-3.46-31.6,3.61-36.6,5.72,11.56,4.13,17.19,11.37,16.47,18.4a37.86,37.86,0,0,0,12.24,6.18c11,2.86,19-2.29,21.16-10.66S319.78,364.89,308.81,362Z"/><path class="cls-7" d="M289.14,424.16c-9.66,7.21-27,7.54-31.75,7.48,8.06-7.2,10.25-15,7.33-20.47a33.33,33.33,0,0,1,7.93-9.1c8-6,16.24-4.42,20.79,1.68S297.13,418.19,289.14,424.16Z"/><path class="cls-7" d="M392.14,402.85S370,433.46,320,433.46s-90.54-30.61-90.54-30.61S270,372.24,320,372.24,392.14,402.85,392.14,402.85Z"/><path class="cls-7" d="M361.67,380.51a32.37,32.37,0,0,0,0,44.68c20.85-9.07,30.48-22.34,30.48-22.34S382.52,389.57,361.67,380.51Z"/><circle class="cls-7" cx="368.33" cy="397.55" r="3.07"/><path class="cls-7" d="M330.78,372.75q-2.12-.2-4.31-.32a37,37,0,0,0,5.72,60.37q2-.21,3.86-.48a37,37,0,0,1-5.26-59.57Z"/><path class="cls-7" d="M337.69,373.6a37,37,0,0,0,4.53,57.67q1.82-.37,3.57-.79a37,37,0,0,1-4.15-56.18Q339.71,373.92,337.69,373.6Z"/><path class="cls-7" d="M348.06,375.79a37,37,0,0,0,3.56,53.09q1.75-.54,3.42-1.12a36.93,36.93,0,0,1-3.23-50.9Q350,376.3,348.06,375.79Z"/><path class="cls-8" d="M218.51,402.44H391.83c-2.82-3.6-25.24-30.2-71.86-30.2-34.71,0-64.86,14.75-80.05,23.77-4-4.25-11.5-7.13-20.16-7.13A34.94,34.94,0,0,0,207.58,391C214,393.37,218.27,397.59,218.51,402.44Z"/><polygon class="cls-7" points="431.46 451.8 429.34 451.8 424.6 380.95 436.2 380.95 431.46 451.8"/><polygon class="cls-7" points="432.04 456.02 430.06 455.49 442.1 392.37 452.96 400 432.04 456.02"/><polygon class="cls-7" points="428.76 456.02 430.74 455.49 418.7 392.37 407.84 400 428.76 456.02"/><path class="cls-7" d="M400.6,457.53,427,593.61a3.44,3.44,0,0,0,6.76,0L460.2,457.53a13,13,0,0,0-12.74-15.46H413.34A13,13,0,0,0,400.6,457.53Z"/><path class="cls-9" d="M447.46,442.07h-17.4v154.3a3.37,3.37,0,0,0,3.72-2.76L460.2,457.53A13,13,0,0,0,447.46,442.07Z"/><g class="cls-10"><path class="cls-7" d="M418.66,473.69h-7.18a1.5,1.5,0,0,1-1.5-1.5h0a1.5,1.5,0,0,1,1.5-1.5h7.18a1.5,1.5,0,0,1,1.5,1.5h0A1.5,1.5,0,0,1,418.66,473.69Z"/><path class="cls-7" d="M431.73,490.65h-7.18a1.5,1.5,0,0,1-1.5-1.5h0a1.5,1.5,0,0,1,1.5-1.5h7.18a1.5,1.5,0,0,1,1.5,1.5h0A1.5,1.5,0,0,1,431.73,490.65Z"/><path class="cls-7" d="M439.79,465.36h-7.18a1.5,1.5,0,0,1-1.5-1.5h0a1.5,1.5,0,0,1,1.5-1.5h7.18a1.5,1.5,0,0,1,1.5,1.5h0A1.5,1.5,0,0,1,439.79,465.36Z"/><path class="cls-7" d="M416.47,456.25h-7.18a1.5,1.5,0,0,1-1.5-1.5h0a1.5,1.5,0,0,1,1.5-1.5h7.18a1.5,1.5,0,0,1,1.5,1.5h0A1.5,1.5,0,0,1,416.47,456.25Z"/><path class="cls-7" d="M414,504h-7.18a1.5,1.5,0,0,1-1.5-1.5h0a1.5,1.5,0,0,1,1.5-1.5H414a1.5,1.5,0,0,1,1.5,1.5h0A1.5,1.5,0,0,1,414,504Z"/><path class="cls-7" d="M435.69,524.23h-7.18a1.5,1.5,0,0,1-1.5-1.5h0a1.5,1.5,0,0,1,1.5-1.5h7.18a1.5,1.5,0,0,1,1.5,1.5h0A1.5,1.5,0,0,1,435.69,524.23Z"/><path class="cls-7" d="M436.81,551h-7.18a1.5,1.5,0,0,1-1.5-1.5h0a1.5,1.5,0,0,1,1.5-1.5h7.18a1.5,1.5,0,0,1,1.5,1.5h0A1.5,1.5,0,0,1,436.81,551Z"/><path class="cls-7" d="M428.19,577.76H421a1.5,1.5,0,0,1-1.5-1.5h0a1.5,1.5,0,0,1,1.5-1.5h7.18a1.5,1.5,0,0,1,1.5,1.5h0A1.5,1.5,0,0,1,428.19,577.76Z"/><path class="cls-7" d="M451,533.87h-7.18a1.5,1.5,0,0,1-1.5-1.5h0a1.5,1.5,0,0,1,1.5-1.5H451a1.5,1.5,0,0,1,1.5,1.5h0A1.5,1.5,0,0,1,451,533.87Z"/><path class="cls-7" d="M421.55,536.86h-7.18a1.5,1.5,0,0,1-1.5-1.5h0a1.5,1.5,0,0,1,1.5-1.5h7.18a1.5,1.5,0,0,1,1.5,1.5h0A1.5,1.5,0,0,1,421.55,536.86Z"/><path class="cls-7" d="M445.87,504h-7.18a1.5,1.5,0,0,1-1.5-1.5h0a1.5,1.5,0,0,1,1.5-1.5h7.18a1.5,1.5,0,0,1,1.5,1.5h0A1.5,1.5,0,0,1,445.87,504Z"/><path class="cls-7" d="M449,478.93H441.8a1.5,1.5,0,0,1-1.5-1.5h0a1.5,1.5,0,0,1,1.5-1.5H449a1.5,1.5,0,0,1,1.5,1.5h0A1.5,1.5,0,0,1,449,478.93Z"/><path class="cls-7" d="M449,449.63H441.8a1.5,1.5,0,0,1-1.5-1.5h0a1.5,1.5,0,0,1,1.5-1.5H449a1.5,1.5,0,0,1,1.5,1.5h0A1.5,1.5,0,0,1,449,449.63Z"/></g><path class="cls-7" d="M643.12,270c0,27.29-15.54,38.79-34.71,38.79s-34.71-11.5-34.71-38.79,15.54-58.62,34.71-58.62S643.12,242.73,643.12,270Z"/><circle class="cls-7" cx="608.41" cy="273.22" r="26.28"/><path class="cls-11" d="M608.41,211.4c19.17,0,34.71,31.33,34.71,58.62s-15.54,38.79-34.71,38.79"/><path class="cls-7" d="M319.71,448.28a75.39,75.39,0,1,1-150.79,0"/><path class="cls-7" d="M316.46,448.28a72.15,72.15,0,0,1-144.31,0"/><path class="cls-7" d="M310,448.28a65.67,65.67,0,1,1-131.34,0"/><ellipse class="cls-7" cx="244.31" cy="505.94" rx="1.64" ry="2.95"/><ellipse class="cls-7" cx="244.31" cy="492.45" rx="1.64" ry="2.95"/><ellipse class="cls-7" cx="249.58" cy="478.18" rx="1.64" ry="2.95" transform="translate(-79.24 50.6) rotate(-10)"/><ellipse class="cls-7" cx="259.49" cy="474.58" rx="1.64" ry="2.95" transform="translate(-202.52 193.33) rotate(-30)"/><ellipse class="cls-7" cx="267.57" cy="467.8" rx="1.64" ry="2.95" transform="translate(-262.78 372.07) rotate(-50)"/><ellipse class="cls-7" cx="272.84" cy="458.67" rx="1.64" ry="2.95" transform="translate(-251.48 558.18) rotate(-70)"/><ellipse class="cls-7" cx="215.78" cy="458.67" rx="2.95" ry="1.64" transform="translate(-143.86 101.46) rotate(-20)"/><ellipse class="cls-7" cx="221.05" cy="467.8" rx="2.95" ry="1.64" transform="translate(-248.98 251.54) rotate(-40)"/><ellipse class="cls-7" cx="229.13" cy="474.58" rx="2.95" ry="1.64" transform="translate(-296.43 435.72) rotate(-60)"/><ellipse class="cls-7" cx="239.04" cy="478.18" rx="2.95" ry="1.64" transform="translate(-273.39 630.56) rotate(-80)"/><ellipse class="cls-7" cx="251.98" cy="491.78" rx="1.64" ry="2.95" transform="translate(-81.57 51.23) rotate(-10)"/><ellipse class="cls-7" cx="259.42" cy="489.79" rx="1.64" ry="2.95" transform="translate(-151.87 118.27) rotate(-20)"/><ellipse class="cls-7" cx="266.39" cy="486.53" rx="1.64" ry="2.95" transform="translate(-207.57 198.37) rotate(-30)"/><ellipse class="cls-7" cx="272.7" cy="482.12" rx="1.64" ry="2.95" transform="translate(-246.1 288.08) rotate(-40)"/><ellipse class="cls-7" cx="278.14" cy="476.67" rx="1.64" ry="2.95" transform="translate(-265.8 383.35) rotate(-50)"/><ellipse class="cls-7" cx="282.56" cy="470.37" rx="1.64" ry="2.95" transform="translate(-266.07 479.89) rotate(-60)"/><ellipse class="cls-7" cx="285.81" cy="463.39" rx="1.64" ry="2.95" transform="translate(-247.38 573.48) rotate(-70)"/><ellipse class="cls-7" cx="287.81" cy="455.95" rx="1.64" ry="2.95" transform="translate(-211.2 660.21) rotate(-80)"/><ellipse class="cls-7" cx="200.82" cy="455.95" rx="2.95" ry="1.64" transform="translate(-76.13 41.8) rotate(-10)"/><ellipse class="cls-7" cx="202.81" cy="463.39" rx="2.95" ry="1.64" transform="translate(-146.26 97.31) rotate(-20)"/><ellipse class="cls-7" cx="206.06" cy="470.37" rx="2.95" ry="1.64" transform="translate(-207.58 166.05) rotate(-30)"/><ellipse class="cls-7" cx="210.48" cy="476.67" rx="2.95" ry="1.64" transform="translate(-257.15 246.81) rotate(-40)"/><ellipse class="cls-7" cx="215.92" cy="482.12" rx="2.95" ry="1.64" transform="translate(-292.19 337.62) rotate(-50)"/><ellipse class="cls-7" cx="222.23" cy="486.53" rx="2.95" ry="1.64" transform="translate(-310.24 435.73) rotate(-60)"/><ellipse class="cls-7" cx="229.21" cy="489.79" rx="2.95" ry="1.64" transform="translate(-309.44 537.65) rotate(-70)"/><ellipse class="cls-7" cx="236.64" cy="491.78" rx="2.95" ry="1.64" transform="translate(-288.76 639.43) rotate(-80)"/><ellipse class="cls-7" cx="254.32" cy="505.06" rx="1.64" ry="2.95" transform="translate(-83.84 51.83) rotate(-10)"/><ellipse class="cls-7" cx="264.03" cy="502.46" rx="1.64" ry="2.95" transform="translate(-155.93 120.61) rotate(-20)"/><ellipse class="cls-7" cx="273.14" cy="498.21" rx="1.64" ry="2.95" transform="translate(-212.51 203.32) rotate(-30)"/><ellipse class="cls-7" cx="281.37" cy="492.45" rx="1.64" ry="2.95" transform="translate(-250.71 296.08) rotate(-40)"/><ellipse class="cls-7" cx="288.48" cy="485.34" rx="1.64" ry="2.95" transform="translate(-268.75 394.35) rotate(-50)"/><ellipse class="cls-7" cx="294.24" cy="477.11" rx="1.64" ry="2.95" transform="translate(-266.07 493.38) rotate(-60)"/><ellipse class="cls-7" cx="298.49" cy="468" rx="1.64" ry="2.95" transform="translate(-243.38 588.42) rotate(-70)"/><ellipse class="cls-7" cx="301.09" cy="458.3" rx="1.64" ry="2.95" transform="translate(-202.53 675.23) rotate(-80)"/><ellipse class="cls-7" cx="187.53" cy="458.3" rx="2.95" ry="1.64" transform="translate(-76.73 39.53) rotate(-10)"/><ellipse class="cls-7" cx="190.13" cy="468" rx="2.95" ry="1.64" transform="translate(-148.6 93.26) rotate(-20)"/><ellipse class="cls-7" cx="194.38" cy="477.11" rx="2.95" ry="1.64" transform="translate(-212.51 161.1) rotate(-30)"/><ellipse class="cls-7" cx="200.15" cy="485.34" rx="2.95" ry="1.64" transform="translate(-265.15 242.2) rotate(-40)"/><ellipse class="cls-7" cx="207.25" cy="492.45" rx="2.95" ry="1.64" transform="translate(-303.21 334.68) rotate(-50)"/><ellipse class="cls-7" cx="215.48" cy="498.21" rx="2.95" ry="1.64" transform="translate(-323.72 435.72) rotate(-60)"/><ellipse class="cls-7" cx="224.59" cy="502.46" rx="2.95" ry="1.64" transform="translate(-324.38 541.66) rotate(-70)"/><ellipse class="cls-7" cx="234.3" cy="505.06" rx="2.95" ry="1.64" transform="translate(-303.77 648.1) rotate(-80)"/><path class="cls-12" d="M387.51,551.55c0,29.81-18.85,38.56-42.11,38.56s-42.11-8.75-42.11-38.56,18.85-72.49,42.11-72.49S387.51,521.74,387.51,551.55Z"/><path class="cls-7" d="M387.51,551.55c0,29.81-18.85,38.56-42.11,38.56s-42.11-8.75-42.11-38.56,18.85-72.49,42.11-72.49S387.51,521.74,387.51,551.55Z"/><ellipse class="cls-7" cx="345.4" cy="546.28" rx="22.1" ry="28.92"/><ellipse class="cls-7" cx="345.4" cy="546.28" rx="18.51" ry="24.23"/><path class="cls-13" d="M345.4,479.06c23.26,0,42.11,42.68,42.11,72.49s-18.85,38.56-42.11,38.56"/><circle class="cls-7" cx="326.89" cy="305.44" r="44.73"/><circle class="cls-7" cx="326.89" cy="305.44" r="41.48"/><path class="cls-7" d="M327.61,311.52v29.83a2.24,2.24,0,0,0,2.4,2.24A38,38,0,0,0,343.28,340a2.23,2.23,0,0,0,1-3.13l-14.92-25.84A.91.91,0,0,0,327.61,311.52Z"/><path class="cls-7" d="M309.55,274l14.92,25.84a.91.91,0,0,0,1.71-.46V269.53a2.24,2.24,0,0,0-2.4-2.24,38,38,0,0,0-13.28,3.55A2.23,2.23,0,0,0,309.55,274Z"/><path class="cls-7" d="M326.18,341.35V311.52a.91.91,0,0,0-1.71-.46l-14.92,25.84a2.23,2.23,0,0,0,1,3.13,38,38,0,0,0,13.28,3.55A2.24,2.24,0,0,0,326.18,341.35Z"/><path class="cls-7" d="M333,304.72H362.8a2.24,2.24,0,0,0,2.24-2.4A38,38,0,0,0,361.49,289a2.23,2.23,0,0,0-3.13-1L332.52,303A.91.91,0,0,0,333,304.72Z"/><path class="cls-7" d="M331.8,301.78l25.84-14.92a2.23,2.23,0,0,0,.74-3.19,38.49,38.49,0,0,0-9.71-9.71,2.23,2.23,0,0,0-3.19.74l-14.92,25.84A.91.91,0,0,0,331.8,301.78Z"/><path class="cls-7" d="M361.49,321.83A38,38,0,0,0,365,308.55a2.24,2.24,0,0,0-2.24-2.4H333a.91.91,0,0,0-.46,1.71l25.84,14.92A2.23,2.23,0,0,0,361.49,321.83Z"/><path class="cls-7" d="M292.29,289a38,38,0,0,0-3.55,13.28,2.24,2.24,0,0,0,2.24,2.4h29.83a.91.91,0,0,0,.46-1.71l-25.84-14.92A2.23,2.23,0,0,0,292.29,289Z"/><path class="cls-7" d="M330.55,310.35l14.92,25.84a2.23,2.23,0,0,0,3.19.74,38.49,38.49,0,0,0,9.71-9.71,2.23,2.23,0,0,0-.74-3.19L331.8,309.1A.91.91,0,0,0,330.55,310.35Z"/><path class="cls-7" d="M327.61,269.53v29.83a.91.91,0,0,0,1.71.46L344.23,274a2.23,2.23,0,0,0-1-3.13A38,38,0,0,0,330,267.29,2.24,2.24,0,0,0,327.61,269.53Z"/><path class="cls-7" d="M322,309.1,296.14,324a2.23,2.23,0,0,0-.74,3.19,38.49,38.49,0,0,0,9.71,9.71,2.23,2.23,0,0,0,3.19-.74l14.92-25.84A.91.91,0,0,0,322,309.1Z"/><path class="cls-7" d="M320.81,306.15H291a2.24,2.24,0,0,0-2.24,2.4,38,38,0,0,0,3.55,13.28,2.23,2.23,0,0,0,3.13,1l25.84-14.92A.91.91,0,0,0,320.81,306.15Z"/><path class="cls-7" d="M323.23,300.53l-14.92-25.84a2.23,2.23,0,0,0-3.19-.74,38.49,38.49,0,0,0-9.71,9.71,2.23,2.23,0,0,0,.74,3.19L322,301.78A.91.91,0,0,0,323.23,300.53Z"/><path class="cls-14" d="M326.89,260.71a44.73,44.73,0,1,1,0,89.46"/><rect class="cls-7" x="489.28" y="271.98" width="21.59" height="56.75"/><rect class="cls-7" x="483.83" y="279.59" width="69.59" height="14.08" transform="translate(5.83 583.58) rotate(-59)"/><rect class="cls-7" x="474.47" y="251.84" width="14.08" height="69.59" transform="translate(-78.85 288.91) rotate(-31)"/><circle class="cls-7" cx="537.17" cy="247.78" r="9.56"/><circle class="cls-7" cx="525.32" cy="252.69" r="9.56" transform="translate(-24.81 445.47) rotate(-45)"/><circle class="cls-7" cx="520.42" cy="264.53" r="9.56"/><circle class="cls-7" cx="525.32" cy="276.37" r="9.56" transform="translate(-41.56 452.41) rotate(-45)"/><circle class="cls-7" cx="537.17" cy="281.28" r="9.56"/><circle class="cls-7" cx="549.01" cy="276.37" r="9.56" transform="translate(-34.62 469.16) rotate(-45)"/><circle class="cls-7" cx="553.92" cy="264.53" r="9.56"/><circle class="cls-7" cx="549.01" cy="252.69" r="9.56" transform="translate(-17.88 462.22) rotate(-45)"/><circle class="cls-7" cx="537.17" cy="264.53" r="12.92"/><circle class="cls-7" cx="463.44" cy="247.78" r="9.56"/><circle class="cls-7" cx="451.59" cy="252.69" r="9.56" transform="translate(-46.41 393.34) rotate(-45)"/><circle class="cls-7" cx="446.69" cy="264.53" r="9.56"/><circle class="cls-7" cx="451.59" cy="276.37" r="9.56" transform="translate(-63.16 400.27) rotate(-45)"/><circle class="cls-7" cx="463.44" cy="281.28" r="9.56"/><circle class="cls-7" cx="475.28" cy="276.37" r="9.56" transform="translate(-56.22 417.02) rotate(-45)"/><circle class="cls-7" cx="480.18" cy="264.53" r="9.56"/><circle class="cls-7" cx="475.28" cy="252.69" r="9.56" transform="translate(-39.47 410.08) rotate(-45)"/><circle class="cls-7" cx="463.44" cy="264.53" r="12.92"/><circle class="cls-7" cx="500.07" cy="230.01" r="10.93"/><circle class="cls-7" cx="486.52" cy="235.62" r="10.93" transform="translate(-24.11 413.04) rotate(-45)"/><circle class="cls-7" cx="480.91" cy="249.17" r="10.93"/><circle class="cls-7" cx="486.52" cy="262.72" r="10.93" transform="translate(-43.27 420.97) rotate(-45)"/><circle class="cls-7" cx="500.07" cy="268.33" r="10.93"/><circle class="cls-7" cx="513.62" cy="262.72" r="10.93" transform="translate(-35.34 440.13) rotate(-45)"/><circle class="cls-7" cx="519.23" cy="249.17" r="10.93"/><circle class="cls-7" cx="513.62" cy="235.62" r="10.93" transform="translate(-16.18 432.19) rotate(-45)"/><circle class="cls-7" cx="500.07" cy="249.17" r="14.78"/><path class="cls-8" d="M563.47,264.53A9.55,9.55,0,0,0,558,255.9a9.54,9.54,0,0,0-12.2-12.2,9.54,9.54,0,0,0-17.2-.13,11,11,0,0,0-4.7-4.26,10.92,10.92,0,0,0-14-14,10.92,10.92,0,0,0-9.64-6.25V328.74h10.56v-15.5l16.55-27.54a9.55,9.55,0,0,0,1.13-.33,9.54,9.54,0,0,0,17.26,0,9.54,9.54,0,0,0,12.2-12.2A9.55,9.55,0,0,0,563.47,264.53Zm-47.62,13-5,8.31V273.29a11,11,0,0,0,5.42,0A9.58,9.58,0,0,0,515.85,277.58Z"/><rect class="cls-7" x="261.96" y="120.65" width="21.92" height="107.71"/><path class="cls-7" d="M246.82,245.2H299a43.94,43.94,0,1,0-52.2,0Z"/><path class="cls-7" d="M239.36,189.42a39,39,0,0,0,10.37,51.37h46.38a39,39,0,0,0,10.37-51.37Z"/><path class="cls-7" d="M280,120.65H265.83v-7.93a4.5,4.5,0,0,1,4.5-4.5h5.19a4.5,4.5,0,0,1,4.5,4.5Z"/><path class="cls-11" d="M283.88,167.29V120.65H280V112a3.73,3.73,0,0,0-3.73-3.73h-3.37v137H299a43.95,43.95,0,0,0-15.14-77.91Z"/><path class="cls-15" d="M278.12,242.89A157.93,157.93,0,0,1,331.24,245s-11.37-11.12-37.45-15"/><ellipse class="cls-7" cx="271.59" cy="241.48" rx="13.33" ry="7.9"/><ellipse class="cls-7" cx="266.74" cy="239.31" rx="4.85" ry="2.88"/><ellipse class="cls-7" cx="292.52" cy="231.42" rx="10.65" ry="6.31"/><path class="cls-7" d="M332.28,245.67s-.69-15-29.11-24.19C303.17,221.49,316.2,236.49,332.28,245.67Z"/><path class="cls-7" d="M332.28,245.68S324,239.57,307.51,250C307.51,250,320.82,249.86,332.28,245.68Z"/><ellipse class="cls-7" cx="289.57" cy="229.47" rx="3.95" ry="2.34"/><path class="cls-7" d="M400.1,110.84l-6.94-12.22A19.53,19.53,0,0,1,390.62,89V84.84H367.5V89A19.54,19.54,0,0,1,365,98.62L358,110.84a100.72,100.72,0,0,0-13.13,49.73v83.52a5.47,5.47,0,0,0,5.47,5.47h57.4a5.47,5.47,0,0,0,5.47-5.47V160.57A100.72,100.72,0,0,0,400.1,110.84Z"/><path class="cls-7" d="M393.89,84.84H364.24V82a5.23,5.23,0,0,1,5.23-5.23h19.19A5.23,5.23,0,0,1,393.89,82Z"/><path class="cls-7" d="M348.33,150.48a92.4,92.4,0,0,0-.63,10.63v76.64a5,5,0,0,0,5,5H405.4a5,5,0,0,0,5-5V161.11a92.38,92.38,0,0,0-.63-10.63Z"/><rect class="cls-7" x="344.89" y="183.84" width="68.34" height="28.46"/><text class="cls-16" transform="translate(355.42 207.78)">MILK</text><path class="cls-11" d="M400.1,110.84l-6.94-12.22A19.54,19.54,0,0,1,390.62,89V84.84h3.27V81.13a4.33,4.33,0,0,0-4.33-4.33H379V249.56h28.75a5.47,5.47,0,0,0,5.47-5.47V160.57A100.72,100.72,0,0,0,400.1,110.84Z"/><ellipse class="cls-7" cx="453.89" cy="153.97" rx="13.81" ry="61.86"/><ellipse class="cls-7" cx="453.89" cy="153.97" rx="10.49" ry="61.86"/><ellipse class="cls-7" cx="453.89" cy="110.06" rx="4.42" ry="6.08"/><ellipse class="cls-7" cx="453.89" cy="124.69" rx="4.42" ry="6.08"/><ellipse class="cls-7" cx="453.89" cy="139.33" rx="4.42" ry="6.08"/><ellipse class="cls-7" cx="453.89" cy="153.97" rx="4.42" ry="6.08"/><ellipse class="cls-7" cx="453.89" cy="168.6" rx="4.42" ry="6.08"/><ellipse class="cls-7" cx="453.89" cy="183.24" rx="4.42" ry="6.08"/><ellipse class="cls-7" cx="453.89" cy="197.88" rx="4.42" ry="6.08"/><path class="cls-17" d="M453.89,215.83c7.63,0,13.81-27.7,13.81-61.86S461.52,92.1,453.89,92.1"/><ellipse class="cls-7" cx="422.86" cy="96.26" rx="4.42" ry="6.08"/><ellipse class="cls-7" cx="436.11" cy="86.6" rx="4.42" ry="6.08"/><ellipse class="cls-7" cx="431.7" cy="116.94" rx="4.42" ry="6.08"/><path class="cls-18" d="M517.31,473.39s-1-15.53,9-27.14"/><path class="cls-7" d="M513.23,462c4.67,5.53,4,13.76,4,13.76s-8.22-.73-12.9-6.26-4-13.76-4-13.76S508.56,456.49,513.23,462Z"/><path class="cls-7" d="M520.69,465.16c-4,3.59-4.34,9.7-4.34,9.7s6.11.29,10.1-3.3,4.34-9.7,4.34-9.7S524.68,461.57,520.69,465.16Z"/><path class="cls-7" d="M534.34,467.94c-5.7,0-11.9,2.28-17.62,6.24-5.72-4-11.92-6.24-17.62-6.24-16.93,0-30.65,20.07-30.65,44.82s13.72,39.46,30.65,39.46c5.7,0,11.9-2.28,17.62-6.24,5.72,4,11.92,6.24,17.62,6.24,16.93,0,30.65-14.7,30.65-39.46S551.26,467.94,534.34,467.94Z"/><path class="cls-8" d="M534.34,467.94c-5.7,0-11.9,2.28-17.62,6.24V546c5.72,4,11.92,6.24,17.62,6.24,16.93,0,30.65-14.7,30.65-39.46S551.26,467.94,534.34,467.94Z"/><path class="cls-7" d="M616.85,466.29c0,12.69-10.29,20.74-23,20.74s-23-8-23-20.74c0-19.05,23-41.7,23-41.7S616.85,447.61,616.85,466.29Z"/><line class="cls-19" x1="593.86" y1="440.13" x2="593.86" y2="498.51"/><polyline class="cls-19" points="578.49 463.41 593.86 475.23 609.24 463.41"/><polyline class="cls-19" points="582.63 454.75 593.86 463.38 605.09 454.75"/><polyline class="cls-19" points="586.58 447.35 593.86 452.94 601.14 447.35"/><path class="cls-7" d="M201.3,226h0c.49,4.22-14.76,6.56-22.85-3.94a27.59,27.59,0,0,1,0-33.67c8.1-10.5,23.34-8.16,22.85-3.94h0c-.28,4-6.73,8-9.65,12.7a13.24,13.24,0,0,0,0,16.16C194.57,218,201,222,201.3,226Z"/><path class="cls-7" d="M191.65,213.33a13.24,13.24,0,0,1,0-16.16,22.85,22.85,0,0,1,2.63-3.3c-5.81,1.1-10.17,5.78-10.17,11.38s4.36,10.28,10.17,11.38A22.85,22.85,0,0,1,191.65,213.33Z"/><path class="cls-7" d="M209.48,208.46h0c2.63-3.34,15.1,5.73,13.45,18.89a27.59,27.59,0,0,1-23.71,23.91c-13.15,1.76-22.32-10.64-19-13.29h0c3-2.67,10.44-1,15.79-2.22a13.24,13.24,0,0,0,11.38-11.47C208.6,218.91,206.84,211.52,209.48,208.46Z"/><path class="cls-7" d="M207.4,224.27A13.24,13.24,0,0,1,196,235.75a22.85,22.85,0,0,1-4.19.49c4.9,3.31,11.29,3.06,15.24-.92s4.14-10.37.79-15.24A22.84,22.84,0,0,1,207.4,224.27Z"/><ellipse class="cls-7" cx="533.59" cy="171.08" rx="42.82" ry="40.64"/><path class="cls-8" d="M533.59,130.44c23.65,0,42.82,18.19,42.82,40.64s-19.17,40.64-42.82,40.64"/><path class="cls-7" d="M536.3,130.64a18,18,0,0,1-2.54,8.78,16.43,16.43,0,0,1,0-17.56A18,18,0,0,1,536.3,130.64Z"/><path class="cls-7" d="M529.35,131.41a18,18,0,0,1,4.41,8A16.43,16.43,0,0,1,521.34,127,18,18,0,0,1,529.35,131.41Z"/><path class="cls-7" d="M525,136.87a18,18,0,0,1,8.78,2.54,16.43,16.43,0,0,1-17.56,0A18,18,0,0,1,525,136.87Z"/><path class="cls-7" d="M525.75,142.53a21.42,21.42,0,0,1,8-3.12,12,12,0,0,1-4.41,5.66,21.42,21.42,0,0,1-8,3.12A12,12,0,0,1,525.75,142.53Z"/><path class="cls-7" d="M531.22,145.62a10.4,10.4,0,0,1,2.54-6.21,8.85,8.85,0,0,1,0,12.42A10.4,10.4,0,0,1,531.22,145.62Z"/><path class="cls-7" d="M538.17,145.08a12,12,0,0,1-4.41-5.66,21.43,21.43,0,0,1,8,3.12,12,12,0,0,1,4.41,5.66A21.42,21.42,0,0,1,538.17,145.08Z"/><path class="cls-7" d="M542.54,142a18,18,0,0,1-8.78-2.54,16.43,16.43,0,0,1,17.56,0A18,18,0,0,1,542.54,142Z"/><path class="cls-7" d="M541.77,135a18,18,0,0,1-8,4.41A16.43,16.43,0,0,1,546.17,127,18,18,0,0,1,541.77,135Z"/><path class="cls-8" d="M541.77,142.53c-.36-.25-.73-.48-1.11-.7a14.67,14.67,0,0,0,1.88.13,18,18,0,0,0,8.78-2.54,18,18,0,0,0-8.78-2.54,15.67,15.67,0,0,0-3.88.51,15.68,15.68,0,0,0,3.11-2.38,18,18,0,0,0,4.41-8,18,18,0,0,0-8,4.41,15.67,15.67,0,0,0-2.38,3.11,15.68,15.68,0,0,0,.51-3.88,18,18,0,0,0-2.54-8.78v30a10.4,10.4,0,0,0,2.54-6.21,8.07,8.07,0,0,0-.51-2.74,12.55,12.55,0,0,0,2.38,2.2,21.42,21.42,0,0,0,8,3.12A12,12,0,0,0,541.77,142.53Z"/><path class="cls-20" d="M533.76,137.55s1.77-11.14,10.77-14.56"/><ellipse class="cls-7" cx="533.76" cy="137.97" rx="3.32" ry="2.09"/></g><path class="cls-21" d="M236.74,262.54H147.31a6.6,6.6,0,0,0-6.6,6.6v7a6.6,6.6,0,0,0,6.6,6.6h.15V360a4.25,4.25,0,0,0,4.25,4.25h80.64A4.25,4.25,0,0,0,236.6,360V282.77h.15a6.6,6.6,0,0,0,6.6-6.6v-7A6.6,6.6,0,0,0,236.74,262.54Z"/><path class="cls-22" d="M236.74,262.54H147.31a6.6,6.6,0,0,0-6.6,6.6v7a6.6,6.6,0,0,0,6.6,6.6h.15V360a4.25,4.25,0,0,0,4.25,4.25h80.64A4.25,4.25,0,0,0,236.6,360V282.77h.15a6.6,6.6,0,0,0,6.6-6.6v-7A6.6,6.6,0,0,0,236.74,262.54Z"/><path class="cls-23" d="M223.45,313.42h-5.86a1.22,1.22,0,0,1-1.22-1.22h0a1.22,1.22,0,0,1,1.22-1.22h5.86a1.22,1.22,0,0,1,1.22,1.22h0A1.22,1.22,0,0,1,223.45,313.42Z"/><path class="cls-23" d="M198.5,307.45h-5.86a1.22,1.22,0,0,1-1.22-1.22h0a1.22,1.22,0,0,1,1.22-1.22h5.86a1.22,1.22,0,0,1,1.22,1.22h0A1.22,1.22,0,0,1,198.5,307.45Z"/><path class="cls-23" d="M209.08,285.24h-5.86A1.22,1.22,0,0,1,202,284h0a1.22,1.22,0,0,1,1.22-1.22h5.86a1.22,1.22,0,0,1,1.22,1.22h0A1.22,1.22,0,0,1,209.08,285.24Z"/><path class="cls-23" d="M175,273.73h-5.86a1.22,1.22,0,0,1-1.22-1.22h0a1.22,1.22,0,0,1,1.22-1.22H175a1.22,1.22,0,0,1,1.22,1.22h0A1.22,1.22,0,0,1,175,273.73Z"/><path class="cls-23" d="M180.15,294.5h-5.86a1.22,1.22,0,0,1-1.22-1.22h0a1.22,1.22,0,0,1,1.22-1.22h5.86a1.22,1.22,0,0,1,1.22,1.22h0A1.22,1.22,0,0,1,180.15,294.5Z"/><path class="cls-23" d="M200.78,332.28h-5.86a1.22,1.22,0,0,1-1.22-1.22h0a1.22,1.22,0,0,1,1.22-1.22h5.86a1.22,1.22,0,0,1,1.22,1.22h0A1.22,1.22,0,0,1,200.78,332.28Z"/><path class="cls-23" d="M213.24,354.17h-5.86a1.22,1.22,0,0,1-1.22-1.22h0a1.22,1.22,0,0,1,1.22-1.22h5.86a1.22,1.22,0,0,1,1.22,1.22h0A1.22,1.22,0,0,1,213.24,354.17Z"/><path class="cls-23" d="M175,318.3h-5.86a1.22,1.22,0,0,1-1.22-1.22h0a1.22,1.22,0,0,1,1.22-1.22H175a1.22,1.22,0,0,1,1.22,1.22h0A1.22,1.22,0,0,1,175,318.3Z"/><path class="cls-23" d="M166,354.17h-5.86a1.22,1.22,0,0,1-1.22-1.22h0a1.22,1.22,0,0,1,1.22-1.22H166a1.22,1.22,0,0,1,1.22,1.22h0A1.22,1.22,0,0,1,166,354.17Z"/><path class="cls-23" d="M187.63,344h-5.86a1.22,1.22,0,0,1-1.22-1.22h0a1.22,1.22,0,0,1,1.22-1.22h5.86a1.22,1.22,0,0,1,1.22,1.22h0A1.22,1.22,0,0,1,187.63,344Z"/><path class="cls-23" d="M224,338.78h-5.86a1.22,1.22,0,0,1-1.22-1.22h0a1.22,1.22,0,0,1,1.22-1.22H224a1.22,1.22,0,0,1,1.22,1.22h0A1.22,1.22,0,0,1,224,338.78Z"/><path class="cls-23" d="M163.15,329.74h-5.86a1.22,1.22,0,0,1-1.22-1.22h0a1.22,1.22,0,0,1,1.22-1.22h5.86a1.22,1.22,0,0,1,1.22,1.22h0A1.22,1.22,0,0,1,163.15,329.74Z"/><path class="cls-23" d="M161.87,287.68H156a1.22,1.22,0,0,1-1.22-1.22h0a1.22,1.22,0,0,1,1.22-1.22h5.86a1.22,1.22,0,0,1,1.22,1.22h0A1.22,1.22,0,0,1,161.87,287.68Z"/><path class="cls-23" d="M227.61,277.52h-5.86a1.22,1.22,0,0,1-1.22-1.22h0a1.22,1.22,0,0,1,1.22-1.22h5.86a1.22,1.22,0,0,1,1.22,1.22h0A1.22,1.22,0,0,1,227.61,277.52Z"/><path class="cls-24" d="M613.9,335.72H493.75v36.86a8.39,8.39,0,1,1,0,16.4v16.83H613.9a35,35,0,0,0,35-35h0A35,35,0,0,0,613.9,335.72Z"/><path class="cls-25" d="M613.9,335.72h-25a35,35,0,0,1,35,35h0a35,35,0,0,1-35,35h25a35,35,0,0,0,35-35h0A35,35,0,0,0,613.9,335.72Z"/><circle class="cls-23" cx="506.61" cy="360.79" r="4.22"/><circle class="cls-23" cx="608.49" cy="372.73" r="7.97"/><circle class="cls-23" cx="529.78" cy="393.54" r="3.38"/><circle class="cls-23" cx="542.25" cy="372.73" r="4.49"/><circle class="cls-23" cx="595.76" cy="350.24" r="3.38"/><circle class="cls-23" cx="529.78" cy="345.59" r="5.49"/><circle class="cls-23" cx="569.35" cy="360.79" r="8.39"/><circle class="cls-23" cx="590" cy="393.54" r="5.76"/><path class="cls-26" d="M419.65,294.13c3.11,5.39,1.31,12.26,1.31,12.26s-6.85-1.87-10-7.27-1.31-12.26-1.31-12.26S416.54,288.74,419.65,294.13Z"/><path class="cls-26" d="M409.69,301.4c6.23,0,11.28,5,11.28,5s-5,5-11.28,5-11.28-5-11.28-5S403.46,301.4,409.69,301.4Z"/><path class="cls-26" d="M432.24,311.4c-6.23,0-11.28-5-11.28-5s5-5,11.28-5,11.28,5,11.28,5S438.46,311.4,432.24,311.4Z"/><path class="cls-26" d="M430.93,299.13c-3.11,5.39-10,7.27-10,7.27s-1.8-6.87,1.31-12.26,10-7.27,10-7.27S434,293.74,430.93,299.13Z"/><path class="cls-27" d="M426,295.12c0,6.23-5,11.28-5,11.28s-5-5-5-11.28,5-11.28,5-11.28S426,288.9,426,295.12Z"/><path class="cls-27" d="M413.7,296.43c5.39,3.11,7.27,10,7.27,10s-6.87,1.8-12.26-1.31-7.27-10-7.27-10S408.3,293.32,413.7,296.43Z"/><path class="cls-27" d="M433.23,305.09C427.83,308.2,421,306.4,421,306.4s1.87-6.85,7.27-10,12.26-1.31,12.26-1.31S438.62,302,433.23,305.09Z"/><path class="cls-28" d="M436.66,302.19a20.43,20.43,0,0,0,3.84-7.07,20.43,20.43,0,0,0-8-.21,20.43,20.43,0,0,0-.21-8,20.43,20.43,0,0,0-7.07,3.84,20.43,20.43,0,0,0-4.2-6.86V306.4s5,5,11.28,5,11.28-5,11.28-5A20.43,20.43,0,0,0,436.66,302.19Z"/><path class="cls-29" d="M385.2,319.78l28.25,43.8a8.94,8.94,0,0,0,15,0l28.25-43.8A8.94,8.94,0,0,0,449.21,306h-56.5A8.94,8.94,0,0,0,385.2,319.78Z"/><path class="cls-28" d="M449.21,306H421v61.69a8.87,8.87,0,0,0,7.51-4.1l28.25-43.8A8.94,8.94,0,0,0,449.21,306Z"/><ellipse class="cls-30" cx="394.32" cy="315.67" rx="0.96" ry="1.38"/><ellipse class="cls-30" cx="400.98" cy="315.67" rx="0.96" ry="1.38"/><ellipse class="cls-30" cx="407.64" cy="315.67" rx="0.96" ry="1.38"/><ellipse class="cls-30" cx="414.3" cy="315.67" rx="0.96" ry="1.38"/><ellipse class="cls-30" cx="420.96" cy="315.67" rx="0.96" ry="1.38"/><ellipse class="cls-30" cx="427.62" cy="315.67" rx="0.96" ry="1.38"/><ellipse class="cls-30" cx="434.28" cy="315.67" rx="0.96" ry="1.38"/><ellipse class="cls-30" cx="440.94" cy="315.67" rx="0.96" ry="1.38"/><ellipse class="cls-30" cx="447.6" cy="315.67" rx="0.96" ry="1.38"/><ellipse class="cls-30" cx="394.32" cy="323.89" rx="0.96" ry="1.38"/><ellipse class="cls-30" cx="400.98" cy="323.89" rx="0.96" ry="1.38"/><ellipse class="cls-30" cx="407.64" cy="323.89" rx="0.96" ry="1.38"/><ellipse class="cls-30" cx="414.3" cy="323.89" rx="0.96" ry="1.38"/><ellipse class="cls-30" cx="420.96" cy="323.89" rx="0.96" ry="1.38"/><ellipse class="cls-30" cx="427.62" cy="323.89" rx="0.96" ry="1.38"/><ellipse class="cls-30" cx="434.28" cy="323.89" rx="0.96" ry="1.38"/><ellipse class="cls-30" cx="440.94" cy="323.89" rx="0.96" ry="1.38"/><ellipse class="cls-30" cx="447.6" cy="323.89" rx="0.96" ry="1.38"/><ellipse class="cls-30" cx="400.98" cy="332.11" rx="0.96" ry="1.38"/><ellipse class="cls-30" cx="407.64" cy="332.11" rx="0.96" ry="1.38"/><ellipse class="cls-30" cx="414.3" cy="332.11" rx="0.96" ry="1.38"/><ellipse class="cls-30" cx="420.96" cy="332.11" rx="0.96" ry="1.38"/><ellipse class="cls-30" cx="427.62" cy="332.11" rx="0.96" ry="1.38"/><ellipse class="cls-30" cx="434.28" cy="332.11" rx="0.96" ry="1.38"/><ellipse class="cls-30" cx="440.94" cy="332.11" rx="0.96" ry="1.38"/><ellipse class="cls-30" cx="407.64" cy="340.33" rx="0.96" ry="1.38"/><ellipse class="cls-30" cx="414.3" cy="340.33" rx="0.96" ry="1.38"/><ellipse class="cls-30" cx="420.96" cy="340.33" rx="0.96" ry="1.38"/><ellipse class="cls-30" cx="427.62" cy="340.33" rx="0.96" ry="1.38"/><ellipse class="cls-30" cx="434.28" cy="340.33" rx="0.96" ry="1.38"/><ellipse class="cls-30" cx="414.3" cy="348.55" rx="0.96" ry="1.38"/><ellipse class="cls-30" cx="420.96" cy="348.55" rx="0.96" ry="1.38"/><ellipse class="cls-30" cx="427.62" cy="348.55" rx="0.96" ry="1.38"/><ellipse class="cls-30" cx="420.96" cy="356.76" rx="0.96" ry="1.38"/><path class="cls-31" d="M215.76,384.88A34.94,34.94,0,0,0,203.58,387c6.57,2.46,10.95,6.86,10.95,11.87s-4.38,9.41-10.95,11.87a34.94,34.94,0,0,0,12.18,2.09c12.77,0,23.12-6.25,23.12-14S228.53,384.88,215.76,384.88Z"/><path class="cls-31" d="M304.81,358c-13.25-3.46-31.6,3.61-36.6,5.72,11.56,4.13,17.19,11.37,16.47,18.4a37.86,37.86,0,0,0,12.24,6.18c11,2.86,19-2.29,21.16-10.66S315.78,360.89,304.81,358Z"/><path class="cls-31" d="M285.14,420.16c-9.66,7.21-27,7.54-31.75,7.48,8.06-7.2,10.25-15,7.33-20.47a33.33,33.33,0,0,1,7.93-9.1c8-6,16.24-4.42,20.79,1.68S293.13,414.19,285.14,420.16Z"/><path class="cls-32" d="M388.14,398.85S366,429.46,316,429.46s-90.54-30.61-90.54-30.61S266,368.24,316,368.24,388.14,398.85,388.14,398.85Z"/><path class="cls-31" d="M357.67,376.51a32.37,32.37,0,0,0,0,44.68c20.85-9.07,30.48-22.34,30.48-22.34S378.52,385.57,357.67,376.51Z"/><circle class="cls-33" cx="364.33" cy="393.55" r="3.07"/><path class="cls-31" d="M326.78,368.75q-2.12-.2-4.31-.32a37,37,0,0,0,5.72,60.37q2-.21,3.86-.48a37,37,0,0,1-5.26-59.57Z"/><path class="cls-31" d="M333.69,369.6a37,37,0,0,0,4.53,57.67q1.82-.37,3.57-.79a37,37,0,0,1-4.15-56.18Q335.71,369.92,333.69,369.6Z"/><path class="cls-31" d="M344.06,371.79a37,37,0,0,0,3.56,53.09q1.75-.54,3.42-1.12a36.93,36.93,0,0,1-3.23-50.9Q346,372.3,344.06,371.79Z"/><path class="cls-28" d="M214.51,398.44H387.83c-2.82-3.6-25.24-30.2-71.86-30.2-34.71,0-64.86,14.75-80.05,23.77-4-4.25-11.5-7.13-20.16-7.13A34.94,34.94,0,0,0,203.58,387C210,389.37,214.27,393.59,214.51,398.44Z"/><polygon class="cls-27" points="427.46 447.8 425.34 447.8 420.6 376.95 432.2 376.95 427.46 447.8"/><polygon class="cls-26" points="428.04 452.02 426.06 451.49 438.1 388.37 448.96 396 428.04 452.02"/><polygon class="cls-26" points="424.76 452.02 426.74 451.49 414.7 388.37 403.84 396 424.76 452.02"/><path class="cls-34" d="M396.6,453.53,423,589.61a3.44,3.44,0,0,0,6.76,0L456.2,453.53a13,13,0,0,0-12.74-15.46H409.34A13,13,0,0,0,396.6,453.53Z"/><path class="cls-35" d="M443.46,438.07h-17.4v154.3a3.37,3.37,0,0,0,3.72-2.76L456.2,453.53A13,13,0,0,0,443.46,438.07Z"/><g class="cls-36"><path class="cls-37" d="M414.66,469.69h-7.18a1.5,1.5,0,0,1-1.5-1.5h0a1.5,1.5,0,0,1,1.5-1.5h7.18a1.5,1.5,0,0,1,1.5,1.5h0A1.5,1.5,0,0,1,414.66,469.69Z"/><path class="cls-37" d="M427.73,486.65h-7.18a1.5,1.5,0,0,1-1.5-1.5h0a1.5,1.5,0,0,1,1.5-1.5h7.18a1.5,1.5,0,0,1,1.5,1.5h0A1.5,1.5,0,0,1,427.73,486.65Z"/><path class="cls-37" d="M435.79,461.36h-7.18a1.5,1.5,0,0,1-1.5-1.5h0a1.5,1.5,0,0,1,1.5-1.5h7.18a1.5,1.5,0,0,1,1.5,1.5h0A1.5,1.5,0,0,1,435.79,461.36Z"/><path class="cls-37" d="M412.47,452.25h-7.18a1.5,1.5,0,0,1-1.5-1.5h0a1.5,1.5,0,0,1,1.5-1.5h7.18a1.5,1.5,0,0,1,1.5,1.5h0A1.5,1.5,0,0,1,412.47,452.25Z"/><path class="cls-37" d="M410,500h-7.18a1.5,1.5,0,0,1-1.5-1.5h0a1.5,1.5,0,0,1,1.5-1.5H410a1.5,1.5,0,0,1,1.5,1.5h0A1.5,1.5,0,0,1,410,500Z"/><path class="cls-37" d="M431.69,520.23h-7.18a1.5,1.5,0,0,1-1.5-1.5h0a1.5,1.5,0,0,1,1.5-1.5h7.18a1.5,1.5,0,0,1,1.5,1.5h0A1.5,1.5,0,0,1,431.69,520.23Z"/><path class="cls-37" d="M432.81,547h-7.18a1.5,1.5,0,0,1-1.5-1.5h0a1.5,1.5,0,0,1,1.5-1.5h7.18a1.5,1.5,0,0,1,1.5,1.5h0A1.5,1.5,0,0,1,432.81,547Z"/><path class="cls-37" d="M424.19,573.76H417a1.5,1.5,0,0,1-1.5-1.5h0a1.5,1.5,0,0,1,1.5-1.5h7.18a1.5,1.5,0,0,1,1.5,1.5h0A1.5,1.5,0,0,1,424.19,573.76Z"/><path class="cls-37" d="M447,529.87h-7.18a1.5,1.5,0,0,1-1.5-1.5h0a1.5,1.5,0,0,1,1.5-1.5H447a1.5,1.5,0,0,1,1.5,1.5h0A1.5,1.5,0,0,1,447,529.87Z"/><path class="cls-37" d="M417.55,532.86h-7.18a1.5,1.5,0,0,1-1.5-1.5h0a1.5,1.5,0,0,1,1.5-1.5h7.18a1.5,1.5,0,0,1,1.5,1.5h0A1.5,1.5,0,0,1,417.55,532.86Z"/><path class="cls-37" d="M441.87,500h-7.18a1.5,1.5,0,0,1-1.5-1.5h0a1.5,1.5,0,0,1,1.5-1.5h7.18a1.5,1.5,0,0,1,1.5,1.5h0A1.5,1.5,0,0,1,441.87,500Z"/><path class="cls-37" d="M445,474.93H437.8a1.5,1.5,0,0,1-1.5-1.5h0a1.5,1.5,0,0,1,1.5-1.5H445a1.5,1.5,0,0,1,1.5,1.5h0A1.5,1.5,0,0,1,445,474.93Z"/><path class="cls-37" d="M445,445.63H437.8a1.5,1.5,0,0,1-1.5-1.5h0a1.5,1.5,0,0,1,1.5-1.5H445a1.5,1.5,0,0,1,1.5,1.5h0A1.5,1.5,0,0,1,445,445.63Z"/></g><path class="cls-38" d="M639.12,266c0,27.29-15.54,38.79-34.71,38.79s-34.71-11.5-34.71-38.79,15.54-58.62,34.71-58.62S639.12,238.73,639.12,266Z"/><circle class="cls-39" cx="604.41" cy="269.22" r="26.28"/><path class="cls-40" d="M604.41,207.4c19.17,0,34.71,31.33,34.71,58.62s-15.54,38.79-34.71,38.79"/><path class="cls-26" d="M315.71,444.28a75.39,75.39,0,1,1-150.79,0"/><path class="cls-38" d="M312.46,444.28a72.15,72.15,0,0,1-144.31,0"/><path class="cls-29" d="M306,444.28a65.67,65.67,0,1,1-131.34,0"/><ellipse class="cls-33" cx="240.31" cy="501.94" rx="1.64" ry="2.95"/><ellipse class="cls-33" cx="240.31" cy="488.45" rx="1.64" ry="2.95"/><ellipse class="cls-33" cx="245.58" cy="474.18" rx="1.64" ry="2.95" transform="translate(-78.61 49.85) rotate(-10)"/><ellipse class="cls-33" cx="255.49" cy="470.58" rx="1.64" ry="2.95" transform="translate(-201.06 190.79) rotate(-30)"/><ellipse class="cls-33" cx="263.57" cy="463.8" rx="1.64" ry="2.95" transform="translate(-261.14 367.58) rotate(-50)"/><ellipse class="cls-33" cx="268.84" cy="454.67" rx="1.64" ry="2.95" transform="translate(-250.36 551.79) rotate(-70)"/><ellipse class="cls-33" cx="211.78" cy="454.67" rx="2.95" ry="1.64" transform="translate(-142.73 99.85) rotate(-20)"/><ellipse class="cls-33" cx="217.05" cy="463.8" rx="2.95" ry="1.64" transform="translate(-247.35 248.03) rotate(-40)"/><ellipse class="cls-33" cx="225.13" cy="470.58" rx="2.95" ry="1.64" transform="translate(-294.97 430.25) rotate(-60)"/><ellipse class="cls-33" cx="235.04" cy="474.18" rx="2.95" ry="1.64" transform="translate(-272.76 623.31) rotate(-80)"/><ellipse class="cls-33" cx="247.98" cy="487.78" rx="1.64" ry="2.95" transform="translate(-80.93 50.47) rotate(-10)"/><ellipse class="cls-33" cx="255.42" cy="485.79" rx="1.64" ry="2.95" transform="translate(-150.75 116.66) rotate(-20)"/><ellipse class="cls-33" cx="262.39" cy="482.53" rx="1.64" ry="2.95" transform="translate(-206.11 195.83) rotate(-30)"/><ellipse class="cls-33" cx="268.7" cy="478.12" rx="1.64" ry="2.95" transform="translate(-244.46 284.58) rotate(-40)"/><ellipse class="cls-33" cx="274.14" cy="472.67" rx="1.64" ry="2.95" transform="translate(-264.16 378.86) rotate(-50)"/><ellipse class="cls-33" cx="278.56" cy="466.37" rx="1.64" ry="2.95" transform="translate(-264.61 474.42) rotate(-60)"/><ellipse class="cls-33" cx="281.81" cy="459.39" rx="1.64" ry="2.95" transform="translate(-246.26 567.09) rotate(-70)"/><ellipse class="cls-33" cx="283.81" cy="451.95" rx="1.64" ry="2.95" transform="translate(-210.56 652.97) rotate(-80)"/><ellipse class="cls-33" cx="196.82" cy="451.95" rx="2.95" ry="1.64" transform="translate(-75.5 41.05) rotate(-10)"/><ellipse class="cls-33" cx="198.81" cy="459.39" rx="2.95" ry="1.64" transform="translate(-145.13 95.7) rotate(-20)"/><ellipse class="cls-33" cx="202.06" cy="466.37" rx="2.95" ry="1.64" transform="translate(-206.11 163.51) rotate(-30)"/><ellipse class="cls-33" cx="206.48" cy="472.67" rx="2.95" ry="1.64" transform="translate(-255.52 243.3) rotate(-40)"/><ellipse class="cls-33" cx="211.92" cy="478.12" rx="2.95" ry="1.64" transform="translate(-290.56 333.13) rotate(-50)"/><ellipse class="cls-33" cx="218.23" cy="482.53" rx="2.95" ry="1.64" transform="translate(-308.77 430.26) rotate(-60)"/><ellipse class="cls-33" cx="225.21" cy="485.79" rx="2.95" ry="1.64" transform="translate(-308.31 531.26) rotate(-70)"/><ellipse class="cls-33" cx="232.64" cy="487.78" rx="2.95" ry="1.64" transform="translate(-288.12 632.19) rotate(-80)"/><ellipse class="cls-33" cx="250.32" cy="501.06" rx="1.64" ry="2.95" transform="translate(-83.2 51.08) rotate(-10)"/><ellipse class="cls-33" cx="260.03" cy="498.46" rx="1.64" ry="2.95" transform="translate(-154.8 119) rotate(-20)"/><ellipse class="cls-33" cx="269.14" cy="494.21" rx="1.64" ry="2.95" transform="translate(-211.05 200.78) rotate(-30)"/><ellipse class="cls-33" cx="277.37" cy="488.45" rx="1.64" ry="2.95" transform="translate(-249.08 292.57) rotate(-40)"/><ellipse class="cls-33" cx="284.48" cy="481.34" rx="1.64" ry="2.95" transform="translate(-267.11 389.86) rotate(-50)"/><ellipse class="cls-33" cx="290.24" cy="473.11" rx="1.64" ry="2.95" transform="translate(-264.61 487.91) rotate(-60)"/><ellipse class="cls-33" cx="294.49" cy="464" rx="1.64" ry="2.95" transform="translate(-242.25 582.03) rotate(-70)"/><ellipse class="cls-33" cx="297.09" cy="454.3" rx="1.64" ry="2.95" transform="translate(-201.89 667.99) rotate(-80)"/><ellipse class="cls-33" cx="183.53" cy="454.3" rx="2.95" ry="1.64" transform="translate(-76.1 38.77) rotate(-10)"/><ellipse class="cls-33" cx="186.13" cy="464" rx="2.95" ry="1.64" transform="translate(-147.48 91.65) rotate(-20)"/><ellipse class="cls-33" cx="190.38" cy="473.11" rx="2.95" ry="1.64" transform="translate(-211.04 158.57) rotate(-30)"/><ellipse class="cls-33" cx="196.15" cy="481.34" rx="2.95" ry="1.64" transform="translate(-263.51 238.7) rotate(-40)"/><ellipse class="cls-33" cx="203.25" cy="488.45" rx="2.95" ry="1.64" transform="translate(-301.57 330.19) rotate(-50)"/><ellipse class="cls-33" cx="211.48" cy="494.21" rx="2.95" ry="1.64" transform="translate(-322.26 430.25) rotate(-60)"/><ellipse class="cls-33" cx="220.59" cy="498.46" rx="2.95" ry="1.64" transform="translate(-323.25 535.27) rotate(-70)"/><ellipse class="cls-33" cx="230.3" cy="501.06" rx="2.95" ry="1.64" transform="translate(-303.14 640.86) rotate(-80)"/><path class="cls-41" d="M383.51,547.55c0,29.81-18.85,38.56-42.11,38.56s-42.11-8.75-42.11-38.56,18.85-72.49,42.11-72.49S383.51,517.74,383.51,547.55Z"/><path class="cls-27" d="M383.51,547.55c0,29.81-18.85,38.56-42.11,38.56s-42.11-8.75-42.11-38.56,18.85-72.49,42.11-72.49S383.51,517.74,383.51,547.55Z"/><ellipse class="cls-42" cx="341.4" cy="542.28" rx="22.1" ry="28.92"/><ellipse class="cls-33" cx="341.4" cy="542.28" rx="18.51" ry="24.23"/><path class="cls-43" d="M341.4,475.06c23.26,0,42.11,42.68,42.11,72.49s-18.85,38.56-42.11,38.56"/><circle class="cls-44" cx="322.89" cy="301.44" r="44.73"/><circle class="cls-38" cx="322.89" cy="301.44" r="41.48"/><path class="cls-34" d="M323.61,307.52v29.83a2.24,2.24,0,0,0,2.4,2.24A38,38,0,0,0,339.28,336a2.23,2.23,0,0,0,1-3.13l-14.92-25.84A.91.91,0,0,0,323.61,307.52Z"/><path class="cls-34" d="M305.55,270l14.92,25.84a.91.91,0,0,0,1.71-.46V265.53a2.24,2.24,0,0,0-2.4-2.24,38,38,0,0,0-13.28,3.55A2.23,2.23,0,0,0,305.55,270Z"/><path class="cls-34" d="M322.18,337.35V307.52a.91.91,0,0,0-1.71-.46l-14.92,25.84a2.23,2.23,0,0,0,1,3.13,38,38,0,0,0,13.28,3.55A2.24,2.24,0,0,0,322.18,337.35Z"/><path class="cls-34" d="M329,300.72H358.8a2.24,2.24,0,0,0,2.24-2.4A38,38,0,0,0,357.49,285a2.23,2.23,0,0,0-3.13-1L328.52,299A.91.91,0,0,0,329,300.72Z"/><path class="cls-34" d="M327.8,297.78l25.84-14.92a2.23,2.23,0,0,0,.74-3.19,38.49,38.49,0,0,0-9.71-9.71,2.23,2.23,0,0,0-3.19.74l-14.92,25.84A.91.91,0,0,0,327.8,297.78Z"/><path class="cls-34" d="M357.49,317.83A38,38,0,0,0,361,304.55a2.24,2.24,0,0,0-2.24-2.4H329a.91.91,0,0,0-.46,1.71l25.84,14.92A2.23,2.23,0,0,0,357.49,317.83Z"/><path class="cls-34" d="M288.29,285a38,38,0,0,0-3.55,13.28,2.24,2.24,0,0,0,2.24,2.4h29.83a.91.91,0,0,0,.46-1.71l-25.84-14.92A2.23,2.23,0,0,0,288.29,285Z"/><path class="cls-34" d="M326.55,306.35l14.92,25.84a2.23,2.23,0,0,0,3.19.74,38.49,38.49,0,0,0,9.71-9.71,2.23,2.23,0,0,0-.74-3.19L327.8,305.1A.91.91,0,0,0,326.55,306.35Z"/><path class="cls-34" d="M323.61,265.53v29.83a.91.91,0,0,0,1.71.46L340.23,270a2.23,2.23,0,0,0-1-3.13A38,38,0,0,0,326,263.29,2.24,2.24,0,0,0,323.61,265.53Z"/><path class="cls-34" d="M318,305.1,292.14,320a2.23,2.23,0,0,0-.74,3.19,38.49,38.49,0,0,0,9.71,9.71,2.23,2.23,0,0,0,3.19-.74l14.92-25.84A.91.91,0,0,0,318,305.1Z"/><path class="cls-34" d="M316.81,302.15H287a2.24,2.24,0,0,0-2.24,2.4,38,38,0,0,0,3.55,13.28,2.23,2.23,0,0,0,3.13,1l25.84-14.92A.91.91,0,0,0,316.81,302.15Z"/><path class="cls-34" d="M319.23,296.53l-14.92-25.84a2.23,2.23,0,0,0-3.19-.74,38.49,38.49,0,0,0-9.71,9.71,2.23,2.23,0,0,0,.74,3.19L318,297.78A.91.91,0,0,0,319.23,296.53Z"/><path class="cls-45" d="M322.89,256.71a44.73,44.73,0,1,1,0,89.46"/><rect class="cls-27" x="485.28" y="267.98" width="21.59" height="56.75"/><rect class="cls-27" x="479.83" y="275.59" width="69.59" height="14.08" transform="translate(7.32 578.21) rotate(-59)"/><rect class="cls-27" x="470.47" y="247.84" width="14.08" height="69.59" transform="translate(-77.36 286.28) rotate(-31)"/><circle class="cls-46" cx="533.17" cy="243.78" r="9.56"/><circle class="cls-46" cx="521.32" cy="248.69" r="9.56" transform="translate(-23.15 441.47) rotate(-45)"/><circle class="cls-46" cx="516.42" cy="260.53" r="9.56"/><circle class="cls-46" cx="521.32" cy="272.37" r="9.56" transform="translate(-39.9 448.41) rotate(-45)"/><circle class="cls-46" cx="533.17" cy="277.28" r="9.56"/><circle class="cls-46" cx="545.01" cy="272.37" r="9.56" transform="translate(-32.97 465.16) rotate(-45)"/><circle class="cls-46" cx="549.92" cy="260.53" r="9.56"/><circle class="cls-46" cx="545.01" cy="248.69" r="9.56" transform="translate(-16.22 458.22) rotate(-45)"/><circle class="cls-46" cx="533.17" cy="260.53" r="12.92"/><circle class="cls-46" cx="459.44" cy="243.78" r="9.56"/><circle class="cls-46" cx="447.59" cy="248.69" r="9.56" transform="translate(-44.75 389.34) rotate(-45)"/><circle class="cls-46" cx="442.69" cy="260.53" r="9.56"/><circle class="cls-46" cx="447.59" cy="272.37" r="9.56" transform="translate(-61.5 396.27) rotate(-45)"/><circle class="cls-46" cx="459.44" cy="277.28" r="9.56"/><circle class="cls-46" cx="471.28" cy="272.37" r="9.56" transform="translate(-54.56 413.02) rotate(-45)"/><circle class="cls-46" cx="476.18" cy="260.53" r="9.56"/><circle class="cls-46" cx="471.28" cy="248.69" r="9.56" transform="translate(-37.81 406.08) rotate(-45)"/><circle class="cls-46" cx="459.44" cy="260.53" r="12.92"/><circle class="cls-26" cx="496.07" cy="226.01" r="10.93"/><circle class="cls-26" cx="482.52" cy="231.62" r="10.93" transform="translate(-22.46 409.04) rotate(-45)"/><circle class="cls-26" cx="476.91" cy="245.17" r="10.93"/><circle class="cls-26" cx="482.52" cy="258.72" r="10.93" transform="translate(-41.61 416.97) rotate(-45)"/><circle class="cls-26" cx="496.07" cy="264.33" r="10.93"/><circle class="cls-26" cx="509.62" cy="258.72" r="10.93" transform="translate(-33.68 436.13) rotate(-45)"/><circle class="cls-26" cx="515.23" cy="245.17" r="10.93"/><circle class="cls-26" cx="509.62" cy="231.62" r="10.93" transform="translate(-14.52 428.19) rotate(-45)"/><circle class="cls-26" cx="496.07" cy="245.17" r="14.78"/><path class="cls-28" d="M559.47,260.53A9.55,9.55,0,0,0,554,251.9a9.54,9.54,0,0,0-12.2-12.2,9.54,9.54,0,0,0-17.2-.13,11,11,0,0,0-4.7-4.26,10.92,10.92,0,0,0-14-14,10.92,10.92,0,0,0-9.64-6.25V324.74h10.56v-15.5l16.55-27.54a9.55,9.55,0,0,0,1.13-.33,9.54,9.54,0,0,0,17.26,0,9.54,9.54,0,0,0,12.2-12.2A9.55,9.55,0,0,0,559.47,260.53Zm-47.62,13-5,8.31V269.29a11,11,0,0,0,5.42,0A9.58,9.58,0,0,0,511.85,273.58Z"/><rect class="cls-38" x="257.96" y="116.65" width="21.92" height="107.71"/><path class="cls-38" d="M242.82,241.2H295a43.94,43.94,0,1,0-52.2,0Z"/><path class="cls-47" d="M235.36,185.42a39,39,0,0,0,10.37,51.37h46.38a39,39,0,0,0,10.37-51.37Z"/><path class="cls-48" d="M276,116.65H261.83v-7.93a4.5,4.5,0,0,1,4.5-4.5h5.19a4.5,4.5,0,0,1,4.5,4.5Z"/><path class="cls-40" d="M279.88,163.29V116.65H276V108a3.73,3.73,0,0,0-3.73-3.73h-3.37v137H295a43.95,43.95,0,0,0-15.14-77.91Z"/><path class="cls-49" d="M274.12,238.89A157.93,157.93,0,0,1,327.24,241s-11.37-11.12-37.45-15"/><ellipse class="cls-50" cx="267.59" cy="237.48" rx="13.33" ry="7.9"/><ellipse class="cls-51" cx="262.74" cy="235.31" rx="4.85" ry="2.88"/><ellipse class="cls-50" cx="288.52" cy="227.42" rx="10.65" ry="6.31"/><path class="cls-46" d="M328.28,241.67s-.69-15-29.11-24.19C299.17,217.49,312.2,232.49,328.28,241.67Z"/><path class="cls-46" d="M328.28,241.68S320,235.57,303.51,246C303.51,246,316.82,245.86,328.28,241.68Z"/><ellipse class="cls-51" cx="285.57" cy="225.47" rx="3.95" ry="2.34"/><path class="cls-52" d="M396.1,106.84l-6.94-12.22A19.53,19.53,0,0,1,386.62,85V80.84H363.5V85A19.54,19.54,0,0,1,361,94.62L354,106.84a100.72,100.72,0,0,0-13.13,49.73v83.52a5.47,5.47,0,0,0,5.47,5.47h57.4a5.47,5.47,0,0,0,5.47-5.47V156.57A100.72,100.72,0,0,0,396.1,106.84Z"/><path class="cls-53" d="M389.89,80.84H360.24V78a5.23,5.23,0,0,1,5.23-5.23h19.19A5.23,5.23,0,0,1,389.89,78Z"/><path class="cls-38" d="M344.33,146.48a92.4,92.4,0,0,0-.63,10.63v76.64a5,5,0,0,0,5,5H401.4a5,5,0,0,0,5-5V157.11a92.38,92.38,0,0,0-.63-10.63Z"/><rect class="cls-53" x="340.89" y="179.84" width="68.34" height="28.46"/><text class="cls-54" transform="translate(351.42 203.78)">MILK</text><path class="cls-40" d="M396.1,106.84l-6.94-12.22A19.54,19.54,0,0,1,386.62,85V80.84h3.27V77.13a4.33,4.33,0,0,0-4.33-4.33H375V245.56h28.75a5.47,5.47,0,0,0,5.47-5.47V156.57A100.72,100.72,0,0,0,396.1,106.84Z"/><ellipse class="cls-26" cx="449.89" cy="149.97" rx="13.81" ry="61.86"/><ellipse class="cls-46" cx="449.89" cy="149.97" rx="10.49" ry="61.86"/><ellipse class="cls-55" cx="449.89" cy="106.06" rx="4.42" ry="6.08"/><ellipse class="cls-55" cx="449.89" cy="120.69" rx="4.42" ry="6.08"/><ellipse class="cls-55" cx="449.89" cy="135.33" rx="4.42" ry="6.08"/><ellipse class="cls-55" cx="449.89" cy="149.97" rx="4.42" ry="6.08"/><ellipse class="cls-55" cx="449.89" cy="164.6" rx="4.42" ry="6.08"/><ellipse class="cls-55" cx="449.89" cy="179.24" rx="4.42" ry="6.08"/><ellipse class="cls-55" cx="449.89" cy="193.88" rx="4.42" ry="6.08"/><path class="cls-56" d="M449.89,211.83c7.63,0,13.81-27.7,13.81-61.86S457.52,88.1,449.89,88.1"/><ellipse class="cls-55" cx="418.86" cy="92.26" rx="4.42" ry="6.08"/><ellipse class="cls-55" cx="432.11" cy="82.6" rx="4.42" ry="6.08"/><ellipse class="cls-55" cx="427.7" cy="112.94" rx="4.42" ry="6.08"/><path class="cls-57" d="M513.31,469.39s-1-15.53,9-27.14"/><path class="cls-46" d="M509.23,458c4.67,5.53,4,13.76,4,13.76s-8.22-.73-12.9-6.26-4-13.76-4-13.76S504.56,452.49,509.23,458Z"/><path class="cls-46" d="M516.69,461.16c-4,3.59-4.34,9.7-4.34,9.7s6.11.29,10.1-3.3,4.34-9.7,4.34-9.7S520.68,457.57,516.69,461.16Z"/><path class="cls-29" d="M530.34,463.94c-5.7,0-11.9,2.28-17.62,6.24-5.72-4-11.92-6.24-17.62-6.24-16.93,0-30.65,20.07-30.65,44.82s13.72,39.46,30.65,39.46c5.7,0,11.9-2.28,17.62-6.24,5.72,4,11.92,6.24,17.62,6.24,16.93,0,30.65-14.7,30.65-39.46S547.26,463.94,530.34,463.94Z"/><path class="cls-28" d="M530.34,463.94c-5.7,0-11.9,2.28-17.62,6.24V542c5.72,4,11.92,6.24,17.62,6.24,16.93,0,30.65-14.7,30.65-39.46S547.26,463.94,530.34,463.94Z"/><path class="cls-46" d="M612.85,462.29c0,12.69-10.29,20.74-23,20.74s-23-8-23-20.74c0-19.05,23-41.7,23-41.7S612.85,443.61,612.85,462.29Z"/><line class="cls-58" x1="589.86" y1="436.13" x2="589.86" y2="494.51"/><polyline class="cls-58" points="574.49 459.41 589.86 471.23 605.24 459.41"/><polyline class="cls-58" points="578.63 450.75 589.86 459.38 601.09 450.75"/><polyline class="cls-58" points="582.58 443.35 589.86 448.94 597.14 443.35"/><path class="cls-59" d="M197.3,222h0c.49,4.22-14.76,6.56-22.85-3.94a27.59,27.59,0,0,1,0-33.67c8.1-10.5,23.34-8.16,22.85-3.94h0c-.28,4-6.73,8-9.65,12.7a13.24,13.24,0,0,0,0,16.16C190.57,214,197,218,197.3,222Z"/><path class="cls-60" d="M187.65,209.33a13.24,13.24,0,0,1,0-16.16,22.85,22.85,0,0,1,2.63-3.3c-5.81,1.1-10.17,5.78-10.17,11.38s4.36,10.28,10.17,11.38A22.85,22.85,0,0,1,187.65,209.33Z"/><path class="cls-59" d="M205.48,204.46h0c2.63-3.34,15.1,5.73,13.45,18.89a27.59,27.59,0,0,1-23.71,23.91c-13.15,1.76-22.32-10.64-19-13.29h0c3-2.67,10.44-1,15.79-2.22a13.24,13.24,0,0,0,11.38-11.47C204.6,214.91,202.84,207.52,205.48,204.46Z"/><path class="cls-60" d="M203.4,220.27A13.24,13.24,0,0,1,192,231.75a22.85,22.85,0,0,1-4.19.49c4.9,3.31,11.29,3.06,15.24-.92s4.14-10.37.79-15.24A22.84,22.84,0,0,1,203.4,220.27Z"/><ellipse class="cls-29" cx="529.59" cy="167.08" rx="42.82" ry="40.64"/><path class="cls-28" d="M529.59,126.44c23.65,0,42.82,18.19,42.82,40.64s-19.17,40.64-42.82,40.64"/><path class="cls-46" d="M532.3,126.64a18,18,0,0,1-2.54,8.78,16.43,16.43,0,0,1,0-17.56A18,18,0,0,1,532.3,126.64Z"/><path class="cls-46" d="M525.35,127.41a18,18,0,0,1,4.41,8A16.43,16.43,0,0,1,517.34,123,18,18,0,0,1,525.35,127.41Z"/><path class="cls-46" d="M521,132.87a18,18,0,0,1,8.78,2.54,16.43,16.43,0,0,1-17.56,0A18,18,0,0,1,521,132.87Z"/><path class="cls-46" d="M521.75,138.53a21.42,21.42,0,0,1,8-3.12,12,12,0,0,1-4.41,5.66,21.42,21.42,0,0,1-8,3.12A12,12,0,0,1,521.75,138.53Z"/><path class="cls-46" d="M527.22,141.62a10.4,10.4,0,0,1,2.54-6.21,8.85,8.85,0,0,1,0,12.42A10.4,10.4,0,0,1,527.22,141.62Z"/><path class="cls-46" d="M534.17,141.08a12,12,0,0,1-4.41-5.66,21.43,21.43,0,0,1,8,3.12,12,12,0,0,1,4.41,5.66A21.42,21.42,0,0,1,534.17,141.08Z"/><path class="cls-46" d="M538.54,138a18,18,0,0,1-8.78-2.54,16.43,16.43,0,0,1,17.56,0A18,18,0,0,1,538.54,138Z"/><path class="cls-46" d="M537.77,131a18,18,0,0,1-8,4.41A16.43,16.43,0,0,1,542.17,123,18,18,0,0,1,537.77,131Z"/><path class="cls-28" d="M537.77,138.53c-.36-.25-.73-.48-1.11-.7a14.67,14.67,0,0,0,1.88.13,18,18,0,0,0,8.78-2.54,18,18,0,0,0-8.78-2.54,15.67,15.67,0,0,0-3.88.51,15.68,15.68,0,0,0,3.11-2.38,18,18,0,0,0,4.41-8,18,18,0,0,0-8,4.41,15.67,15.67,0,0,0-2.38,3.11,15.68,15.68,0,0,0,.51-3.88,18,18,0,0,0-2.54-8.78v30a10.4,10.4,0,0,0,2.54-6.21,8.07,8.07,0,0,0-.51-2.74,12.55,12.55,0,0,0,2.38,2.2,21.42,21.42,0,0,0,8,3.12A12,12,0,0,0,537.77,138.53Z"/><path class="cls-61" d="M529.76,133.55s1.77-11.14,10.77-14.56"/><ellipse class="cls-62" cx="529.76" cy="133.97" rx="3.32" ry="2.09"/></g></g></g></svg>