<svg xmlns="http://www.w3.org/2000/svg" viewBox="0 0 488.41 236.99"><defs><style>.cls-1{fill:#fff0f0;}.cls-2{fill:#663e4a;}</style></defs><title>Asset 1</title><g id="Layer_2" data-name="Layer 2"><g id="Layer_1-2" data-name="Layer 1"><rect id="_Rectangle_" data-name="&lt;Rectangle&gt;" class="cls-1" width="488.41" height="236.99"/><g id="_Group_" data-name="&lt;Group&gt;"><g id="_Group_2" data-name="&lt;Group&gt;"><path id="_Path_" data-name="&lt;Path&gt;" class="cls-2" d="M122.15,106.6c.74-.24,1-1.41,1.56-1.93.77-.7,2.33-1,3.06-.05a1.35,1.35,0,1,0,1.7-2c-1.86-1.15-4.22-1.32-5.88.28a3.71,3.71,0,0,0-1.19,2.55C121.41,105.78,121.57,106.79,122.15,106.6Z"/><path id="_Path_2" data-name="&lt;Path&gt;" class="cls-2" d="M137.66,103.66c.69-.54,1-1.36,1.86-1.68a2.06,2.06,0,0,1,2.41.82c1,1.16,2.91,0,2-1.38a4.17,4.17,0,0,0-4.8-1.39c-1.17.49-2.7,2.22-1.93,3.55A.32.32,0,0,0,137.66,103.66Z"/><path id="_Path_3" data-name="&lt;Path&gt;" class="cls-2" d="M178.29,106.49a3.19,3.19,0,0,0-2.06.89c-.45.48-.74,1.64.16,1.84s1.37-.56,2.19-.55,1.1.55,1.68,1a1,1,0,0,0,1.66-.86C181.79,107.16,179.73,106.38,178.29,106.49Z"/><path id="_Path_4" data-name="&lt;Path&gt;" class="cls-2" d="M161.6,109.45a.55.55,0,0,0,.84.4,4.07,4.07,0,0,1,1.5-.64c.66-.07.95.3,1.52.51a1,1,0,0,0,1.29-1.18C166,106.3,161.21,106.92,161.6,109.45Z"/><path id="_Compound_Path_" data-name="&lt;Compound Path&gt;" class="cls-2" d="M218.57,93.52c-2-5.33-5.65-10.11-11.13-12.05-3.94-1.4-8.09-1.27-11.43.92-2.3-.19-4.82.46-5.88,2.28-12.19-3.7-27.17,1.36-34,12.19a19.56,19.56,0,0,0-1.59,3.19c0-1.22-.15-2.44-.3-3.64-.23-1.86-.51-4.06-1-6.2a28.61,28.61,0,0,0,10.26-17,1.31,1.31,0,0,0-1.25-1.6,1.18,1.18,0,0,0-.69-.2c-3.62.2-6.7,1-10.37.24s-7-2.42-10.47-3.86a44.8,44.8,0,0,0-19.24-3.85c-6,.22-12.61,1.58-17.67,5-2.95,2-8.36,8-6.35,12.07a15.42,15.42,0,0,0-3.57,4.34A20.92,20.92,0,0,0,91,93.1a22.41,22.41,0,0,0,4.55,17.31h0a8.35,8.35,0,0,0,2.92,7.87,6,6,0,0,0,5.4,1c2.41,4.71,8.14,7.81,13,9l.78.17a34.91,34.91,0,0,0-3.08,3.55c-1.57,1.9-3.1,3.84-4.74,5.67a1.58,1.58,0,0,0,.19,2.23l2.06,1.34c-1.18,2.31-.6,6.52-.4,8.65.24,2.58.5,7.08,2.45,9.12-.22,4.61-.25,9.24-.07,13.85h0l-.16,0c-.55.12-.34,1,.2.95a87.82,87.82,0,0,0,1.13,13c-2.57-.49-5.87,1.73-7.39,3.34a1.17,1.17,0,0,0,.69,1.89,22.63,22.63,0,0,0,12.87-1.73c.83-.37,1.15-1.8.1-2.16s-2.24-.86-3.38-1.14a19.44,19.44,0,0,0,1.51-2.78c1.11-2,2.31-3.93,3.6-5.79a62,62,0,0,1,7.79-9.14,1.14,1.14,0,0,0,.5-.06c.52.73,1.13,1.41,1.64,2.11q1,1.32,1.85,2.7c-.26.43.07,1.14.61,1q.38.62.74,1.25a50.41,50.41,0,0,1,4.28,10.36,3.75,3.75,0,0,0-.32.25,2.93,2.93,0,0,0-.49,4c1.29,1.66,3.46,1.52,5.31,1.17a45,45,0,0,0,8.5-2.5,1.23,1.23,0,0,0,.1-2.24,16.14,16.14,0,0,0-8.75-1.5c1.21-1.67,1-4,1.22-6.07.23-2.63.36-5.27.41-7.91a124.34,124.34,0,0,0-.5-14.24.38.38,0,0,0,0-.5c-.06-.56-.11-1.12-.18-1.68-.35-3-.82-6.08-1.39-9.09l.1.15a22.44,22.44,0,0,0,3.6,4.22,5.26,5.26,0,0,0-.06,3.06,5.47,5.47,0,0,0,8.06,3.19,5.39,5.39,0,0,0,2.46-5.52c.83-.68,1.6-1.47,2.37-2.19.48-.46,1.2-1,1.84-1.59-.89,3.15-1.63,6.32-2.33,9.36-1,4.18-1.8,8.4-2.45,12.64-.42,2.73-1.36,6.27-1.22,9.3-.37-.05-.75-.11-1.12-.14s-.89.59-.43.92a15.07,15.07,0,0,0,1.82,1.1c0,.14.07.28.11.42a1.44,1.44,0,0,0,2.25.62,32.81,32.81,0,0,0,3.37,1,24.65,24.65,0,0,0,1.2,4.85,24,24,0,0,0-5.8,1.35,1.06,1.06,0,0,0-.09,1.94,12.15,12.15,0,0,0,10.59-1c1-.6.28-2-.7-2-.38,0-.79,0-1.21,0a36.72,36.72,0,0,0,2.1-3.92,60.31,60.31,0,0,0,12.46.65c1.92-.09,3.83-.28,5.73-.54a3.91,3.91,0,0,0,.88,2.52,3,3,0,0,0,1,.71c-.87,1.54,1.36,2.7,2.83,2.89a16.31,16.31,0,0,0,10-2.27,1,1,0,0,0-.15-1.72,24.21,24.21,0,0,0-6.53-1.21,5.22,5.22,0,0,0,.28-1.69,3.59,3.59,0,0,0,.29-.52,1.14,1.14,0,0,0,.1-.56,61.51,61.51,0,0,0,6.16-2.11c.91-.37,1.87-.71,2.78-1.14a1.35,1.35,0,0,0,.71-.36,7.13,7.13,0,0,0,1.87-1.44,1.3,1.3,0,0,0-1.09-2.11,6.38,6.38,0,0,0-.9.16c-.69-1.21-1.68-2.31-2.44-3.44s-1.36-2.06-2-3.1l.79-.47c.36-.22,0-.7-.31-.61l-1,.24c-.3-.5-.62-1-.91-1.49q-2.15-3.65-4-7.49a30.68,30.68,0,0,0-1.31-12.29,29.64,29.64,0,0,0-6.45-11.91,6.5,6.5,0,0,0-.56-1.5c3.9-1.72,9-5.87,9.11-10.54a5.46,5.46,0,0,0,4-2.22,1.31,1.31,0,0,0,.64-.23,11.2,11.2,0,0,0,1.8-1.52c2.92,5,6.13,9.92,9.17,14.87a1.37,1.37,0,0,0,2.24,0,.5.5,0,0,0,.4-.35c.16-.42.3-.84.44-1.26C220.5,120.59,223.06,105.76,218.57,93.52Zm-9.84-8.71c4.88,2.84,7.34,8.52,8.4,13.84a46.36,46.36,0,0,1,.68,12.72,57.45,57.45,0,0,0-1.3-9.64c-1.79-8-6.81-19.46-16.88-18.09-.15-.11-.3-.22-.46-.32l-.29-.16A14.12,14.12,0,0,1,208.73,84.81Zm5.55,41.86c-.24-7.22-.46-14.4-2.25-21.48A44.66,44.66,0,0,0,200.89,84.6a.23.23,0,0,0-.27-.06l-.26-.28c10.32.9,14.09,12.08,15.52,21a54.9,54.9,0,0,1,.18,15.95A57.27,57.27,0,0,1,214.28,126.67ZM194.54,99c-.14-.17-1.37-1.47-1.35-1.52.4-.76,1.79.88,1.94,1.08a23.08,23.08,0,0,1,2.7,4.67,23.93,23.93,0,0,1,1.86,8.64,5.08,5.08,0,0,0-.69-.46A20,20,0,0,0,194.54,99Zm12.3,10.87c1.6,5.62,3,11.26,4.09,17-2.11-3.5-4.23-7-6.47-10.39A18.93,18.93,0,0,0,206.84,109.89Zm5.06,17.58a118.62,118.62,0,0,0-4.79-19.84,21.59,21.59,0,0,0-.23-5,21.19,21.19,0,0,0-4.78-10.06,6.35,6.35,0,0,0,.42-4.16A72.63,72.63,0,0,1,211.9,127.47ZM194.16,84.85a.54.54,0,0,0,.61,0l.28-.17a4.22,4.22,0,0,1,2.77.72A5,5,0,0,1,200,89a4.13,4.13,0,0,1-.06,1.29,25.78,25.78,0,0,0-4.22-3.15,24.58,24.58,0,0,0-3.22-1.6A10.39,10.39,0,0,1,194.16,84.85ZM155.9,105.63a18.8,18.8,0,0,1,4.91-10.29,29.1,29.1,0,0,1,22.78-9c7.55.49,14.82,4.53,18.44,11.3a18,18,0,0,1,1.91,11.14,16.29,16.29,0,0,1-2.32,6.12,5.25,5.25,0,0,0-.2-.66,5.53,5.53,0,0,0-.56-1.06c3.08-8.78,0-19.55-8.69-23.86-.15-.07-.29.15-.16.25,6.74,4.76,10.45,12.13,8.74,20a23.71,23.71,0,0,0-2.45-8.32c-.74-1.46-3.21-6.72-5.61-6.06-2.81.77.29,4,1,4.88a18.71,18.71,0,0,1,3.87,9.91c-1.13-.46-2.39-.49-3.56-1a11.37,11.37,0,0,1-4.34-3.23c-2.36-2.89-2.15-6-2.36-9.49a.32.32,0,0,0-.5-.24.34.34,0,0,0-.43,0c-3.78,3-7.41,5.7-12.13,7.06a24.23,24.23,0,0,1-7.05,1c-1.56,0-3.27-.57-4.88-.74,5.29-4.42,10.6-8.94,16.25-12.78a.61.61,0,0,0-.39-1.1,25.37,25.37,0,0,0-20.95,16.45l-.2.16a.66.66,0,0,0-.15.91,23,23,0,0,0-.77,3.43A15.33,15.33,0,0,1,155.9,105.63Zm10,30.31a.92.92,0,0,0-.09.46c-.23.42-.43.87-.68,1.32a28.43,28.43,0,0,1-3.19,4.63c-1.78,2.1-4,3.56-6,5.27a6.4,6.4,0,0,0-4.37-.43,44,44,0,0,1-2.9-3.94c-.94-1.57-1.55-3.32-2.47-4.9.47-.49.93-1,1.4-1.45a1.64,1.64,0,0,0,.1-2c-1.66-2-3.33-3.95-5-5.88a13.6,13.6,0,0,0-2.56-2.65c.36-.16.72-.32,1.06-.49,6.1-3,10.15-8.57,12.1-14.94a10.12,10.12,0,0,0,2.27,4.81,26.23,26.23,0,0,0,.62,6.82,15.76,15.76,0,0,0,10.53,11.79Zm-23.71,46.13.29-.69c0,.37-.1.73-.14,1.09Zm-2.74-5.61,2.64-1.48-1.81,3Q139.9,177.23,139.48,176.47Zm-1-1.64-.57-.93,3.33-1.68-2.58,2.93ZM117,179.68l2.21-.65-2.12,1.62Zm-.32-3.4a13.58,13.58,0,0,0,2.48.26,22.87,22.87,0,0,0-2.33,1.46Q116.77,177.14,116.7,176.28Zm-.18-2.65,3.62-.34a26.5,26.5,0,0,0-3.54,1.7C116.57,174.53,116.54,174.08,116.52,173.63Zm.73,8.36a.54.54,0,0,0,.36-.13l1.31-1.05c-.45.85-.88,1.71-1.28,2.59l-.21.44Q117.33,182.91,117.24,182Zm3.78-4.86-.19.31-2.35.71a21.76,21.76,0,0,1,2.85-1.5Zm1.34-2a11.94,11.94,0,0,1-4.51.33,24.31,24.31,0,0,1,5.87-2.22Q123,174.14,122.37,175.1Zm2.39-3.24-3.14.3,3.54-.79Zm1.69-2-3.37-.1,3.91-.52Zm-10.07-3.15a13.29,13.29,0,0,0,2.49.94l-.3.35a.22.22,0,0,0-.14.16l-.08.09c-.45.5-.95,1-1.41,1.51h0l-.51.58Q116.37,168.48,116.37,166.66ZM119,169l.47-.47c1.15.15,2.32.24,3.49.29l-4.3.55Zm24.2-3.65-.08,0A1.06,1.06,0,0,0,142,164.3c-2.28.25-4.5,1.08-6.77,1.47q-1.68.29-3.38.45l-.19-.13a39.83,39.83,0,0,0,11.44-2.68Q143.14,164.38,143.16,165.34Zm-9.35,2.93c1.08-.09,2.16-.23,3.22-.42l-2.73.91Zm5.34.26a31.91,31.91,0,0,0,4-1.64c0,.08,0,.17,0,.25a55.1,55.1,0,0,0-7,4c-.33-.47-.67-.94-1-1.39A26.5,26.5,0,0,0,139.15,168.53Zm-2.53,3.27c.94-.35,1.86-.77,2.78-1.22L137,172.44Zm6.49,1.27-1.91,1.07,2-2.22C143.14,172.3,143.13,172.68,143.11,173.06Zm-1.66,7.26-.23-.48a4.54,4.54,0,0,0,.48-.11Zm1.41-2.81a.73.73,0,0,0-.2.14l-1,.41,1.27-2.14C142.94,176.45,142.9,177,142.86,177.52Zm.33-7.63-2.52,1.27,2.53-2C143.2,169.4,143.2,169.64,143.19,169.89ZM143,162a38,38,0,0,1-12.58,2.79c-4.69.2-9-.77-13.56-1.79a.37.37,0,0,0-.22.7,29.06,29.06,0,0,0,13.16,2.47,1.58,1.58,0,0,0-.24.2l-.78,0a53.86,53.86,0,0,1-7.19-.22l-.21,0c.2-.36-.28-.7-.59-.5a5,5,0,0,0-.48.36,26,26,0,0,0-4-.37c0-1.59,0-3.18.09-4.77,4.09,2.3,9.33,1.51,13.78.93a66.27,66.27,0,0,0,12.61-2.93C142.93,159.95,143,161,143,162Zm-20.81-1.34c6.83-.49,13.67-1.54,20.47-2.46a66.69,66.69,0,0,1-11.54,2.86c-4.55.69-10.31,1.65-14.58-.47a.14.14,0,0,0-.11,0q.08-2.06.21-4.11.49-7.71,1.71-15.35c.38-2.37.82-4.74,1.28-7.1a17.44,17.44,0,0,0,.71-5.12l1.15.14c-.45,4.43,2.43,9.44,6.91,10.43a.23.23,0,0,0,.14-.44c-4.13-2-6.71-5.46-6.63-10l.87.08a5.68,5.68,0,0,0,6.07,3.62c1.81-.26,4.71-2.27,5-4.4q.83-.18,1.65-.4a8.74,8.74,0,0,1-1,6.21c-.05.09.09.18.16.1a8.39,8.39,0,0,0,1.63-6.52l.66-.19c.93,4.5,2.55,8.91,3.49,13.41a131.65,131.65,0,0,1,2.26,15.27c0,.4.07.8.1,1.2-6.86.79-13.78,1.44-20.56,2.64A.28.28,0,0,0,122.23,160.68Zm2-31.43a39.88,39.88,0,0,0,7.69-.49,4.67,4.67,0,0,1-2.56,2.35A4.49,4.49,0,0,1,124.2,129.25Zm18.25,7.92c-.47-2-1-3.93-1.62-5.86,1.07,1.46,2.16,2.9,3.26,4.34C143.53,136.14,143,136.64,142.45,137.17Zm18.16-33.89-.36.06-.19.06a25.89,25.89,0,0,1,16-12.26C171.17,95.44,165.83,99.35,160.61,103.28Zm-64.18,4.14a19.74,19.74,0,0,1-3-14.3A21,21,0,0,1,96.24,86c1.09-1.78,3.19-3.35,3.69-5.4a.37.37,0,0,0-.39-.43h0c.8-1.86,1.19-3.94,2.49-5.65a17.15,17.15,0,0,1,7.76-5.4,36.87,36.87,0,0,1,19.34-1.59,50.51,50.51,0,0,1,10.7,3.53c-1.15-.11-2.29-.22-3.42-.35-4.58-.51-9.17-1.11-13.77-1.51-6.78-.59-14.21,0-18.58,5.91-.16.22.15.48.32.27,5.42-6.6,14.44-5.67,22-4.72,6.12.76,12.3,1.83,18.47,2.46.89.34,1.8.67,2.71,1a33.82,33.82,0,0,0,4.61,1.17,32.78,32.78,0,0,1-5.85.07c-4.41-.3-8.74-1.27-13.12-1.84-8.19-1.07-17.21-1-25.11,1.64a.15.15,0,0,0,.06.29,114.75,114.75,0,0,1,14-1.58A77.28,77.28,0,0,1,137,75.23a69,69,0,0,0,12.8,1.49,34.22,34.22,0,0,0,4.87-.37l-.27.22A19.22,19.22,0,0,1,149,79.32a95,95,0,0,1-11.26,2.9c-8.06,1.72-16.63,2.24-24-2.12-.21-.13-.44.23-.23.37,7.47,4.88,16.48,4.43,24.89,2.75,5.87-1.17,15.45-2.37,19.62-7.75l.16-.07c.29-.05.58-.12.87-.2a34.06,34.06,0,0,1-6,6.8,35.19,35.19,0,0,1-8.94,5.39,35.87,35.87,0,0,1-23.51,1.18c-.26-.07-.33.34-.07.41a36.47,36.47,0,0,0,24.29-.87A39.09,39.09,0,0,0,158.3,79a27.93,27.93,0,0,1-11.37,12.13,29.07,29.07,0,0,1-26.2.78c-.13-.06-.2.12-.09.19a29.25,29.25,0,0,0,13.24,4.19,25.31,25.31,0,0,1-10.57,0,26.44,26.44,0,0,1-9.63-4.37c-2.85-2-4.67-4.87-7.16-7.23-.14-.13-.33,0-.28.2a9.31,9.31,0,0,0,.63,1.66c-.09,4,.49,7.88.11,11.88a69.1,69.1,0,0,1-1.54,9.48c-.59-1.84-1.2-3.68-1.79-5.52a.29.29,0,0,0-.19-.19,38.69,38.69,0,0,1-.2-8.39,28.56,28.56,0,0,0,1.37,10c.14.4.8.27.73-.16-.93-6.38-1.63-12.23-.25-18.65.09-.4-.56-.62-.7-.22a38.5,38.5,0,0,0-2,16c-2.08-4.78-2.12-9.73-1-14.76q.65-1.11,1.37-2.2a.31.31,0,0,0-.47-.39l-.37.39c.09-.34.19-.67.29-1,0-.05-.06-.06-.08,0a15.19,15.19,0,0,0-1,2,23.18,23.18,0,0,0-4.78,15.66,22.14,22.14,0,0,1,4.21-18.78.23.23,0,0,0-.35-.3C94,87.52,93,97.42,96.88,105.08a.53.53,0,0,0,1-.36,24.37,24.37,0,0,1,1.94-15.8,22.77,22.77,0,0,0,3,14.58.38.38,0,0,0,.34.19c.06.57.12,1.15.18,1.72a3.78,3.78,0,0,0-2.77-1.19C98.57,104.23,97.24,105.72,96.43,107.42Zm13.77,14.35a18.1,18.1,0,0,1-3.83-4.17c1.19-1.43-.74-3.14-2.23-2.32-3.43,1.89-6.35-1-6.23-4.52a7.33,7.33,0,0,1,.59-2.8c.64-1.41,1-1.73,2.61-1.61a2.45,2.45,0,0,1,2.43,1.35c.18,1.69.38,3.37.62,5,.18,1.23,2,1.75,2.53.44a38.52,38.52,0,0,0,3-14.15,36.84,36.84,0,0,0-1-9.69,28.52,28.52,0,0,0,4.59,4.29,25.94,25.94,0,0,0,9.7,4.58c5.78,1.39,13.43.85,18.82-2.49a27.4,27.4,0,0,0,6.33-2.21c.68-.34,1.35-.72,2-1.12a25.41,25.41,0,0,1,.64,2.81,35.88,35.88,0,0,1,.21,11c-1,6.59-4.38,12.94-10.32,16.29s-14.26,4.11-21,3A20.79,20.79,0,0,1,110.2,121.77ZM117.47,133l-.13.6c-.26,1.18-.5,2.37-.72,3.57l-.49-.34c-.36-.26-.71-.54-1.08-.78C115.88,135.1,116.71,134.09,117.47,133Zm-3,3.75c.38.32.78.61,1.17.91s.51.43.77.64c-.1.54-.19,1.07-.28,1.61l-2.83-1.72C113.68,137.76,114.08,137.28,114.47,136.8Zm-.58,6.61c0-.36,0-.67.06-.94l.91.59a2.06,2.06,0,0,0,.75.31q-.66,4.55-1.06,9.12-.33-1.63-.51-3.28A39.24,39.24,0,0,1,113.9,143.41Zm2.54,28.14a12.66,12.66,0,0,0,1.14-1.08l6.25.2-7.37,1.65C116.45,172.07,116.45,171.81,116.44,171.56ZM111.51,190a9.69,9.69,0,0,1,2.17-1.07c.62-.22,1.25-.33,1.86-.5v.05a1,1,0,0,0,1.5.56l.46.21A20.43,20.43,0,0,1,111.51,190Zm37.77-1.39c-.81.26-1.63.51-2.46.71a18.09,18.09,0,0,1-3.18.65c-1.91.24-2.31-.21-1.22-1.35a1.75,1.75,0,0,0,.69-.26,1.17,1.17,0,0,0,.43.08A42.91,42.91,0,0,1,149.28,188.64Zm-3.18-43.12c-1.05-1.31-1.78-2.88-2.69-4.28l-.11-.5a8,8,0,0,0,1.23-.82,19,19,0,0,0,4.06,8.22A23.85,23.85,0,0,1,146.1,145.52Zm8.3,8.56a2.2,2.2,0,0,1-3.27-1.31,2,2,0,0,1-.07-.49,1.09,1.09,0,0,0,.65-1.12c.91-.56,1.89-1.16,2.9-.28A2.13,2.13,0,0,1,154.4,154.08Zm7.75-8.36c-.76.75-1.51,1.51-2.25,2.28-.59.61-1.21,1.22-1.79,1.86a5.35,5.35,0,0,0-.38-.64,24.45,24.45,0,0,0,6-5.91l.9-1.19q-.48,1.34-.91,2.71C163,144.84,162.73,145.16,162.16,145.72Zm36.33,26.55c-2.41,2.66-9,4.38-13.65,5.28a90.51,90.51,0,0,1-24.13-.59h-.1c0-.42,0-.84.06-1.26s.08-1,.13-1.49c6.07,2.87,13.56,2.75,20,1.83a53.74,53.74,0,0,0,16.81-5.35C197.91,171.2,198.2,171.74,198.49,172.27Zm-18.09,8.85A42.58,42.58,0,0,1,162,178.05a55.62,55.62,0,0,0,21.8.52,84.22,84.22,0,0,0,13.56-2.31C192.43,179.37,186,180.78,180.4,181.12Zm-19.82-3.22a39.36,39.36,0,0,0,13.5,3.95q-2.8-.13-5.59-.47c-2.73-.34-5.4-1.08-8.09-1.69A14.54,14.54,0,0,0,160.58,177.9Zm5.8,5.82-.57.88q-.19-.54-.41-1.07Zm29,4.85c-.53.09-4,.5-5.13-.25q0-.26-.05-.52a2.18,2.18,0,0,0,.63-.11,3,3,0,0,0,.39-.17h0a3.34,3.34,0,0,0,1.71-.08,32.88,32.88,0,0,1,5.19.35A14,14,0,0,1,195.37,188.57Zm5.51-11.25a61.47,61.47,0,0,1-6,2.07,63,63,0,0,1-7.11,1.63,32.68,32.68,0,0,0,11.75-5.37.39.39,0,0,0-.35-.68q-3.13.79-6.28,1.38a16.46,16.46,0,0,0,6-3.2A24.21,24.21,0,0,0,201.6,177Zm-4.16-8.38c-5.13,1.25-10.25,2.52-15.41,3.65-6,1.31-12.53,2.4-18.17-.52.34-.16.61-.3,1.13-.57s.05-.81-.33-.65a15.43,15.43,0,0,0-1.84.81.41.41,0,0,0,0,.75c5.51,3,11.74,2.32,17.65,1s11.55-2.59,17.32-3.92l.27.51c-11,5.46-25,8.06-36.45,3.58.12-1.28.24-2.56.39-3.84.48-4.1,1.13-8.18,2-12.22.84-3.87,1.85-7.7,3-11.5.82-2.79,1.83-5.55,2.71-8.33a12.58,12.58,0,0,0,2.42,5.16c.94,1.18,2.79,2.58,4,.92.15-.2-.1-.54-.32-.36-2.72,2.33-5.06-3.52-5.85-6.54q.27-.88.5-1.77l.7.12c.86,6.39,9.61,4.52,11.94-.35.8-.17,1.58-.37,2.34-.61a18.23,18.23,0,0,1-5,7.74c-.14.13.07.36.22.25,3-2.19,4.38-5,5.53-8.15l0,.06a16.7,16.7,0,0,0,.48,4.23q.49,2.89,1.16,5.74a91.79,91.79,0,0,0,4,12.75c.65,1.66,1.36,3.31,2.1,4.93a.69.69,0,0,0,.15.32q1.5,3.25,3.21,6.4ZM171.45,135.4a33.86,33.86,0,0,0,7.92,0,5.66,5.66,0,0,1-1.88,1.7A4.39,4.39,0,0,1,171.45,135.4Zm22.08,18.81c0,.16,0,.31,0,.47a103,103,0,0,1-3.66-10.53q-.78-2.71-1.39-5.47a31.71,31.71,0,0,1,3.85,8.31A32.3,32.3,0,0,1,193.53,154.21Zm5.25-37.28c-.35,2.43-2.55,2.69-4.55,2.78a1.31,1.31,0,0,0-1,2.06c-.72,1.87-1.15,3.62-2.58,5.25a14.12,14.12,0,0,1-6.27,4,29.77,29.77,0,0,1-16.5.52c-5.23-1.51-8.29-5.9-9.12-11.14-.79-5,1-9.79,1.17-14.67,1.79,1.23,4.59,1.09,6.68,1.06a28.21,28.21,0,0,0,8-1.34c4.2-1.34,8.52-3.81,11.24-7.41-.84,3.12.34,6.94,2.12,9.41a14,14,0,0,0,6.32,4.66,2.36,2.36,0,0,0-.27,3.09.43.43,0,0,0,.73-.06C196.26,112.34,199.15,114.43,198.78,116.93Zm14.07,13.14-.31-.52a72.89,72.89,0,0,0-9.85-42.07c9.05,11.21,11,26.93,10.78,41.18C213.27,129.13,213.06,129.61,212.85,130.08Z"/><path id="_Compound_Path_2" data-name="&lt;Compound Path&gt;" class="cls-2" d="M172.59,81.48a1,1,0,0,0,1-.11,2.36,2.36,0,0,0,1.61.33,31.84,31.84,0,0,0,8.11-2.48c1.29-.51,2.64-1.06,3.93-1.71a.82.82,0,0,0,1.3,0c.36-.47.7-.95,1-1.42.29-.22.58-.45.85-.69,2.78-2.49,2.93-6.42-.27-8.66s-6.39-1.3-9.37.34c.83-2.61.93-5.34-.75-7.83-2.26-3.35-6.66-4.06-9.56-1.09S166.86,66,167.07,70,168.78,79.56,172.59,81.48Zm5-19.48-.55,1.08a1.78,1.78,0,0,0-.27-1.68l.08-.32A3.47,3.47,0,0,1,177.61,62ZM177,72.71a1.46,1.46,0,0,0,.59,0l-1.48,2.23Zm-1.18-2.07a1.45,1.45,0,0,0-.15.58l-.79,1.23,3.17-8.31C178,66.4,176.67,69,175.85,70.64Zm-.44-6.49a.51.51,0,0,0,.61.1,2.17,2.17,0,0,0,.77-.67l-3.35,6.56Zm-1.22,7-1.36,3.54c0-.29,0-.59,0-.88Zm-1.77-4.43-.57,1.16a11.53,11.53,0,0,1,.67-2.35,12.54,12.54,0,0,1,.77-1.57,3,3,0,0,1,.45-1A24.09,24.09,0,0,0,172.42,66.68Zm2.78,7.49-1.71,4.27c-.12-.34-.24-.68-.37-1Zm-3.9-3.31a.49.49,0,0,0,.3-.24l.17-.34c-.07.66-.12,1.32-.14,2l-.09.27C171.43,72,171.35,71.42,171.29,70.86Zm3,9.54c.78.09,1.27-1,.56-1.35l2.32-3.52-1.28,3c-.24.56.56,1.15.95.6l3.8-5.36-2.89,5.68a.52.52,0,0,0-.05.26A8.89,8.89,0,0,1,174.25,80.4Zm16.87-10.74a.86.86,0,0,0-.9.23l-.47.49.89-1.48A4,4,0,0,1,191.12,69.66Zm.32,1.8a.54.54,0,0,0-.15.06l.17-.37Q191.46,71.31,191.44,71.46Zm-2.08-3.67-.36.46.29-.5Zm-2,8.26c-.47.25-1,.48-1.45.7h0l2.14-2.2ZM182,78.27c-.88.32-1.77.62-2.67.9l.72-1.07a.69.69,0,0,0,1.07,0l1.28-1.65-.55.93A.64.64,0,0,0,182,78.27Zm1.59-.59.86-1.08a1,1,0,0,0,.84.4C184.77,77.23,184.2,77.46,183.63,77.68Zm4.24-10.49-2.12,2.76.69-1.24c.35-.64-.68-1.31-1.1-.7l-2.27,3.41L185,67.6a.48.48,0,0,0,0-.37l.18,0A5.9,5.9,0,0,1,187.87,67.19Zm-4.39.61L179,74.16l1.71-4a.53.53,0,0,0,0-.38A12.39,12.39,0,0,1,183.48,67.8Zm-8.38-7.5c-.15.25-.31.49-.45.74a5.65,5.65,0,0,0-2.88,3.39C172.29,62.68,173.4,60.29,175.11,60.3Z"/><path id="_Compound_Path_3" data-name="&lt;Compound Path&gt;" class="cls-2" d="M148.61,64a6.71,6.71,0,0,0,2.77,1.71.6.6,0,0,0,1.14.31l.07-.14a4.51,4.51,0,0,0,.59,0l-.3.85c-.27.8.77,1.66,1.36.86l.39-.54a.51.51,0,0,0,.1-.29,30.8,30.8,0,0,0,3-8.66c.44-2,1.38-5.28-.26-7.06a2.76,2.76,0,0,0-4.31.23,9.36,9.36,0,0,0-1.88,5.41,4.3,4.3,0,0,0-3.08-1.58,2.93,2.93,0,0,0-3.1,3.25C145.25,60.32,147.21,62.66,148.61,64Zm7.61-9.48c0,.39-.07.78-.12,1.17l0,.06a.71.71,0,0,0-.32-.16c0-.08,0-.15,0-.22a.62.62,0,0,0,0-.3l.63-1.62A1.4,1.4,0,0,1,156.22,54.51Zm-4,8.49-.07,0,.15-.21Zm1.21-6.32a6.47,6.47,0,0,1,.71-3c-.1.63-.17,1.26-.21,1.89Zm-1,3.85-.14.19.06-.19ZM153.85,64l-.32-.17q.5-1.22.91-2.46l.15.59C154.34,62.63,154.09,63.31,153.85,64ZM151,59.75,150,60.91l-.08-.11c.12-.56.23-1.13.31-1.7C150.49,59.3,150.73,59.53,151,59.75Zm-1.51-1.16a1,1,0,0,1,.3.13c-.16.4-.31.8-.46,1.2C148.8,59.27,148.23,58.37,149.45,58.59Z"/></g><g id="_Group_3" data-name="&lt;Group&gt;"><path id="_Path_5" data-name="&lt;Path&gt;" class="cls-2" d="M285.3,103.66c.74-.24,1-1.41,1.56-1.93.77-.7,2.33-1,3.06-.05a1.35,1.35,0,1,0,1.7-2c-1.86-1.15-4.22-1.32-5.88.28a3.71,3.71,0,0,0-1.19,2.55C284.55,102.84,284.71,103.85,285.3,103.66Z"/><path id="_Path_6" data-name="&lt;Path&gt;" class="cls-2" d="M300.8,100.73c.69-.54,1-1.36,1.86-1.68a2.06,2.06,0,0,1,2.41.82c1,1.16,2.91,0,2-1.38a4.17,4.17,0,0,0-4.8-1.39c-1.17.49-2.7,2.22-1.93,3.55A.32.32,0,0,0,300.8,100.73Z"/><path id="_Path_7" data-name="&lt;Path&gt;" class="cls-2" d="M355.13,99.73a3.19,3.19,0,0,0-2.06.89c-.45.48-.74,1.64.16,1.84s1.37-.56,2.19-.55,1.1.55,1.68,1a1,1,0,0,0,1.66-.86C358.64,100.39,356.58,99.62,355.13,99.73Z"/><path id="_Path_8" data-name="&lt;Path&gt;" class="cls-2" d="M338.45,102.69a.55.55,0,0,0,.84.4,4.07,4.07,0,0,1,1.5-.64c.66-.07.95.3,1.52.51a1,1,0,0,0,1.29-1.18C342.85,99.54,338.06,100.16,338.45,102.69Z"/><path id="_Compound_Path_4" data-name="&lt;Compound Path&gt;" class="cls-2" d="M395.42,86.76c-2-5.33-5.65-10.11-11.13-12.05-3.94-1.4-8.09-1.27-11.43.92-2.3-.19-4.82.46-5.88,2.28-12.19-3.7-27.17,1.36-34,12.19-3.11,4.94-5,14-.63,18.93a26.23,26.23,0,0,0,.62,6.82,15.74,15.74,0,0,0,11.05,12,26.4,26.4,0,0,0,2.79.62,2.1,2.1,0,0,0-.16.36,37.78,37.78,0,0,0-4.58,5.07,36.71,36.71,0,0,0-5,7.23c-.65,1.45-.65,3.16.83,4.1a3.25,3.25,0,0,0,3.37,0c-.35.94-.65,1.88-1,2.73-1,2.62-1.79,5.28-2.52,8s-1.38,5.49-1.9,8.27c-.43,2.3-1.51,5.46-.66,7.74a1.51,1.51,0,0,0,.58,2.19c.94.42,1.91.8,2.91,1.13-1.09,2.58-.38,6.12.48,8.83-2.59-.28-5.45,1.54-6.92,3.46a1,1,0,0,0,.84,1.62q4.8-.59,9.6-1.26a.89.89,0,0,0,.42-1.6l.18-.39a.62.62,0,0,0-.26-.83,35.3,35.3,0,0,1,.65-8.49,60,60,0,0,0,13.23,1,52.89,52.89,0,0,0,10.14-1.26,53.88,53.88,0,0,0,.63,6.94,8.83,8.83,0,0,0-6.69,2.51,1,1,0,0,0,.6,1.66,40.85,40.85,0,0,0,11.24-.5c1-.19,1.35-2,.09-2l-.48,0a2.52,2.52,0,0,0,0-.43c-.18-3.13-.35-6.26-.55-9.39a55.09,55.09,0,0,0,6.41-2.52,1.94,1.94,0,0,0,.93-2.86c-1.07-2-2.07-4-3-6.08.32-.24.33-.85-.16-.9l-.26,0a104,104,0,0,1-4.57-12.42c-1.34-4.5-2.23-9.1-3.22-13.67a11.3,11.3,0,0,0,.1-1.76,4.84,4.84,0,0,0-.73-2.41c.21-2-1.7-4.42-3.17-5.48l-.32-.22c3.91-1.69,9.11-5.88,9.22-10.59a5.46,5.46,0,0,0,4-2.22,1.31,1.31,0,0,0,.64-.23,11.2,11.2,0,0,0,1.8-1.52c2.92,5,6.13,9.92,9.17,14.87a1.37,1.37,0,0,0,2.24,0,.5.5,0,0,0,.4-.35c.16-.42.3-.84.44-1.26C397.35,113.83,399.91,99,395.42,86.76Zm-29.51,98.73H365a5.94,5.94,0,0,1,.93-.24A.6.6,0,0,0,365.91,185.49ZM385.57,78c4.88,2.84,7.34,8.52,8.4,13.84a46.35,46.35,0,0,1,.68,12.72,57.44,57.44,0,0,0-1.3-9.64c-1.79-8-6.81-19.46-16.88-18.09-.15-.11-.3-.22-.46-.32l-.29-.16A14.12,14.12,0,0,1,385.57,78Zm5.55,41.86c-.24-7.22-.46-14.4-2.25-21.48a44.66,44.66,0,0,0-11.13-20.59.23.23,0,0,0-.27-.06l-.26-.28c10.32.9,14.09,12.08,15.52,21a54.9,54.9,0,0,1,.19,15.95A57.26,57.26,0,0,1,391.12,119.91ZM371.39,92.25c-.14-.17-1.37-1.47-1.35-1.52.4-.76,1.79.88,1.94,1.08a23.08,23.08,0,0,1,2.7,4.67,23.93,23.93,0,0,1,1.86,8.64,5.08,5.08,0,0,0-.69-.46A20,20,0,0,0,371.39,92.25Zm12.3,10.87c1.6,5.62,3,11.26,4.09,17-2.11-3.5-4.23-7-6.47-10.39A18.93,18.93,0,0,0,383.69,103.13Zm5.06,17.58a118.62,118.62,0,0,0-4.79-19.84,21.59,21.59,0,0,0-.23-5,21.2,21.2,0,0,0-4.78-10.06,6.35,6.35,0,0,0,.42-4.16A72.63,72.63,0,0,1,388.74,120.71ZM371,78.09a.54.54,0,0,0,.61,0l.28-.17a4.22,4.22,0,0,1,2.77.72,5,5,0,0,1,2.15,3.56,4.13,4.13,0,0,1-.06,1.29,25.78,25.78,0,0,0-4.22-3.15,24.56,24.56,0,0,0-3.22-1.6A10.39,10.39,0,0,1,371,78.09ZM332.75,98.87a18.8,18.8,0,0,1,4.91-10.29,29.1,29.1,0,0,1,22.78-9c7.55.49,14.82,4.53,18.44,11.3A18,18,0,0,1,380.79,102a16.29,16.29,0,0,1-2.32,6.12,5.25,5.25,0,0,0-.2-.66,5.53,5.53,0,0,0-.56-1.06c3.08-8.78,0-19.55-8.69-23.86-.15-.07-.29.15-.16.25,6.74,4.76,10.45,12.13,8.74,20a23.71,23.71,0,0,0-2.45-8.32c-.74-1.46-3.21-6.72-5.61-6.06-2.81.77.29,4,1,4.88a18.71,18.71,0,0,1,3.87,9.91c-1.13-.46-2.39-.49-3.56-1A11.37,11.37,0,0,1,366.52,99c-2.36-2.89-2.15-6-2.36-9.49a.32.32,0,0,0-.5-.24.34.34,0,0,0-.43,0c-3.78,3-7.41,5.7-12.13,7.06a24.23,24.23,0,0,1-7.05,1c-1.56,0-3.27-.57-4.88-.74,5.29-4.42,10.6-8.94,16.25-12.78a.61.61,0,0,0-.39-1.1A25.37,25.37,0,0,0,334.08,99.1l-.2.16a.66.66,0,0,0-.15.91,22.94,22.94,0,0,0-.77,3.43A15.32,15.32,0,0,1,332.75,98.87Zm4.71-2.35-.36.06-.19.06a25.89,25.89,0,0,1,16-12.26C348,88.68,342.68,92.59,337.46,96.52Zm15.22,32.34a6.23,6.23,0,0,1,1.46,1.92c.59,1.24,1.09,2.52,1.63,3.78.66,1.53,1.24,3.73,2.92,4.49a3.58,3.58,0,0,0,3.61-.58c.54-.43,2.61-4.41,2.76-4.32a.37.37,0,0,1,.12.15c0,.6,0,1.21,0,1.81-.55,4.06-3.94,12.37-8,5.72-2.52-4.08-3.57-8.62-5.25-13Zm6.66-.77q-1.1,1.14-2.14,2.32a18.75,18.75,0,0,0-.85-1.81C357.36,128.49,358.36,128.31,359.34,128.1Zm.48,7.21,1.67-1.25c-.33.87-.47,2.47-2.13,1.42a4.25,4.25,0,0,1-.71-1.4l1.53-1.59-1.09,2.21A.49.49,0,0,0,359.81,135.31Zm-1.72-2.69c-.23-.52-.45-1.1-.69-1.69.71-.63,1.41-1.26,2.1-1.91Zm-9.66,5,.56-.87,1.68.51c-.8.19-1.61.39-2.41.61Zm.85-1.32a21.05,21.05,0,0,0,1.55-2.81c.32,1.15.7,2.28,1.11,3.37C351.06,136.62,350.17,136.43,349.29,136.26Zm-9.88,5.88c-.22-.63,1.87-3.09,2.23-3.61q1.08-1.6,2.26-3.13c1.24-1.62,2.64-3.12,3.93-4.71a1.31,1.31,0,0,0,.71-.34c.22-.22,0,1.53,0,1.59a11.11,11.11,0,0,1-.75,1.58,29.16,29.16,0,0,1-2.31,3.8,31.77,31.77,0,0,1-2.19,2.72C342.8,140.53,340,143.86,339.41,142.14ZM374,167.42l-.41.08q-5.35-.05-10.69-.33a43.7,43.7,0,0,0,10-2.21Q373.39,166.19,374,167.42Zm-36.09,4.12a6.44,6.44,0,0,0,.3-.83,30.12,30.12,0,0,0,3.91,1.79C340.69,172.21,339.29,171.88,337.87,171.54Zm17.68,1.93a37.49,37.49,0,0,1-10.13-1.06,40.21,40.21,0,0,1-5.39-1.73c-.56-.22-1.11-.47-1.65-.72,0-.12,0-.25.07-.37a49.33,49.33,0,0,0,26.17,2.51A37.91,37.91,0,0,1,355.54,173.47ZM342,169.68a105.24,105.24,0,0,0,30.53-.83l-.24.13A47.49,47.49,0,0,1,342,169.68Zm25.65-1.25a105.81,105.81,0,0,1-29-.33c.07-.78.13-1.55.24-2.28,3.13.48,6.29.92,9.46,1.23Q357.93,168.11,367.61,168.42ZM340,185.7a1.45,1.45,0,0,0,1.37.17V186l-2.95,0C338.94,185.89,339.47,185.8,340,185.7Zm1.34-3.63a19.56,19.56,0,0,1-.57-3.11c-.1-1.05-.07-2.13-.18-3.17q.94.26,1.89.48A19.92,19.92,0,0,0,341.35,182.07Zm28.4-2.64.09,2.07.05,1.24q.19,1.36-.07.55c-.62-1.1-.56-3.14-.75-4.39-.15-1-.31-2-.52-2.94l1-.27Zm-1.52-7.38a38,38,0,0,0,5.06-2.36l1.48-.59.31.63A58.29,58.29,0,0,1,368.24,172.05ZM368,151.37a95.73,95.73,0,0,0,3.73,10.87c-6.2-.57-12.4-1.13-18.61-1.63-.41,0-.53.6-.11.64,6.37.71,12.75,1.35,19.13,2l.34.79c-7.19,2.51-14.74,2.77-22.29,2.14q-5.57-.58-11.12-1.4.67-4,1.65-7.9c.74-2.94,1.61-5.85,2.58-8.72.72-2.11,1.81-4.23,2.07-6.46.65-.73,1.27-1.5,1.85-2.29a27.74,27.74,0,0,1,3.16.86.38.38,0,0,0,.17.65,7.64,7.64,0,0,0,2.46.17.32.32,0,0,0,0-.62c-.25-.07-.5-.12-.76-.17a46.62,46.62,0,0,1-4.86-1.16l.14-.19c1.6-.35,3.17-.9,4.73-1.35.23.59.46,1.17.69,1.73,1.15,2.8,2.55,6.57,5.66,7.71,3.28,1.21,5.81-1.06,7.44-4.12C366.52,145.79,367.2,148.63,368,151.37ZM364.35,131v0l-.19,0a3.11,3.11,0,0,0-1.35.81,18.38,18.38,0,0,0-1.92,1.32l1.49-3.06c.25-.5-.44-.89-.8-.51l-2.31,2.41q.82-2.18,1.64-4.36l.15,0a6.57,6.57,0,0,1,1.84,1.18A5.79,5.79,0,0,1,364.35,131Zm11.28-20.85c-.35,2.43-2.55,2.69-4.55,2.78a1.31,1.31,0,0,0-1,2.06c-.72,1.87-1.15,3.62-2.58,5.25a14.12,14.12,0,0,1-6.27,4,30,30,0,0,1-8.1,1.42,3.54,3.54,0,0,0-2.14,0,25.33,25.33,0,0,1-6.26-.91c-5.23-1.51-8.29-5.9-9.12-11.14-.79-5,1-9.79,1.17-14.67,1.79,1.23,4.59,1.09,6.68,1.06a28.21,28.21,0,0,0,8-1.34c4.2-1.34,8.52-3.81,11.24-7.41-.84,3.12.34,6.94,2.12,9.41a14,14,0,0,0,6.32,4.66,2.36,2.36,0,0,0-.27,3.09.43.43,0,0,0,.73-.06C373.11,105.58,376,107.67,375.63,110.17Zm14.07,13.14-.31-.52a72.89,72.89,0,0,0-9.85-42.07c9.05,11.21,11,26.93,10.78,41.18C390.11,122.37,389.91,122.85,389.69,123.32Z"/><path id="_Compound_Path_5" data-name="&lt;Compound Path&gt;" class="cls-2" d="M334.45,131.14a3.52,3.52,0,0,0-3.33-4.06c1.36-2,1.94-4.79.17-6.32-1.59-1.39-3.52-.46-4.78,1.1-.7-3.47-2.32-6.78-4.78-4.81-1.87,1.5-2.11,5.08-1.15,7.92-2.07-1.23-4.59-1.32-5.66,1.43-.66,1.71.4,3.27,1.93,4a9.43,9.43,0,0,0,2.23.68,3.31,3.31,0,0,0-.59.43,2.79,2.79,0,0,0-.77,3.22,2.92,2.92,0,0,0,3,1.46,3.43,3.43,0,0,0,.78-.18q-.43.94-.8,1.9a4.84,4.84,0,0,0-2.31,1.17,30.36,30.36,0,0,1-6.12-1.55A29.25,29.25,0,0,1,308,135l.21-.32a1.51,1.51,0,0,0-.18-2.07c-2.84-2.55-4.45-5.45-6.35-8.53.89-.33,1.75-.7,2.58-1.11,6.77-3.34,11-9.83,12.68-17.07a36.08,36.08,0,0,0,.44-12.44c-.23-1.86-.51-4.06-1-6.2a28.61,28.61,0,0,0,10.26-17,1.31,1.31,0,0,0-1.25-1.6,1.18,1.18,0,0,0-.69-.2c-3.62.2-6.7,1-10.37.24s-7-2.42-10.47-3.86A44.8,44.8,0,0,0,284.66,61c-6,.22-12.61,1.58-17.67,5-2.95,2-8.36,8-6.35,12.07a15.42,15.42,0,0,0-3.57,4.34,20.92,20.92,0,0,0-2.95,7.76,22.41,22.41,0,0,0,4.55,17.31h0a8.35,8.35,0,0,0,2.92,7.87,6,6,0,0,0,5.4,1c2.41,4.71,8.14,7.81,13,9l.61.13a15.19,15.19,0,0,0-3.65,3.49,31.9,31.9,0,0,0-4.47,7.34,1.43,1.43,0,0,0,.38,1.68c.41.27.83.53,1.25.77-1.24,3.5-1.19,7.87-1.09,11.37.13,4.51.67,9.84,2.69,13.95l.05.08q0,1.12.05,2.24l-.29,0c-.64,0-.71.9-.2,1.16l.55.27a75.44,75.44,0,0,0,3.66,20.87l0,.06v0c-3-2.1-8-.83-10.91.61a1.24,1.24,0,0,0,.2,2.38,50.09,50.09,0,0,0,13.12.34,1.26,1.26,0,0,0,.11-2.49l-.65-.2a1.1,1.1,0,0,0,.7-1.28l-.06-.31.28-.45c.14-.15.29-.3.46-.44a.14.14,0,0,0-.07-.22c.91-1.59,1.75-3.23,2.71-4.78.18-.29.38-.65.6-1l.12,0a.68.68,0,0,0,.39-.87c.36-.63.76-1.3,1.19-1.95a.46.46,0,0,0,.22-.32c1.42-2.07,3.21-3.84,5.28-3.19,2.41.76,5,3.56,6.84,5.23a64.45,64.45,0,0,1,5.45,5.53l0,0a1,1,0,0,0-.44,1.26,2.27,2.27,0,0,0-.29,3.45c1.16,1.23,3.28,1.15,4.82,1.22a34.34,34.34,0,0,0,9.15-.93,1.26,1.26,0,0,0,.1-2.32,68.05,68.05,0,0,0-9-2.65,30.13,30.13,0,0,0,.07-5.21c0-.51,0-1,0-1.52a1.25,1.25,0,0,0,0-.68c0-2-.09-4-.19-6q-.43-8.72-1.6-17.39-.75-5.62-1.85-11.18a14.21,14.21,0,0,0,10.7,1.54,2.91,2.91,0,0,0,1.44.9A66.48,66.48,0,0,0,317,156c0,.46.67.61.73.13a75.56,75.56,0,0,1,1.9-10.18,5.55,5.55,0,0,0,3.08-1.23,4.91,4.91,0,0,0,2-3.59,3.16,3.16,0,0,0-2.16-3.06l-.23-.07.7-1.65c.49,2.14,2.1,4,4.43,2.91a3.86,3.86,0,0,0,2-3.55,6.28,6.28,0,0,0-.27-1.6C331.56,134.54,334,133.77,334.45,131.14Zm-10.22-.69v0l.13,0a1.31,1.31,0,0,0,1.27-.46c.16-.24.64-1.31,1-1.14.7.32-.34,1.66-.67,1.87A1.28,1.28,0,0,1,324.24,130.45Zm3.26-6.75c.6-1.15,2.27-2.91,3.14-.88.66,1.54-.56,3.31-1.65,4.75a3,3,0,0,0-2.09-1.41c0-.29,0-.6,0-.93A13.34,13.34,0,0,1,327.5,123.7Zm-5.19-3.83c.41-1.48,1.06-.81,1.57,0a8.18,8.18,0,0,1,.7,2.26c.33,1.39.25,2.94.55,4.34a4,4,0,0,0-1.07.93l-.13,0a21.57,21.57,0,0,1-1.34-2.65A8.63,8.63,0,0,1,322.31,119.87Zm-5.55,8.27c-1.26-2,1.88-2.47,3.06-1.91a11.91,11.91,0,0,1,2.65,2.18,2.87,2.87,0,0,0-.57,1.34c-.66-.12-1.33-.21-2-.33C318.95,129.21,317.35,129.07,316.76,128.14Zm4.43,6.3c-.6.27-1.67.35-2.08-.32-.56-.9.55-1.86,1.27-2.15a8.1,8.1,0,0,1,1.13-.34c.28.06.57.11.85.15a3.62,3.62,0,0,0,.84.93l-.09.15A6.49,6.49,0,0,1,321.19,134.44ZM304.74,157q-5,.75-10,1.22a14.91,14.91,0,0,1-4.79-1.18.17.17,0,0,0-.14.31,14.58,14.58,0,0,0,3.2,1q-2,.16-3.91.27a.41.41,0,0,0-.36.21l-.68-.14a30.47,30.47,0,0,1-3.38-1c-.2-.07-2.71-1.09-2.2-1.32.12-.06.06-.25-.07-.2l-.73.29a.13.13,0,0,0,0,.23,28.38,28.38,0,0,0,7.07,2.64.49.49,0,0,0,.44.27l1,0a29.81,29.81,0,0,0,15.43-1.44c.06.59.12,1.18.18,1.77a72.25,72.25,0,0,1-11.71,1,118.62,118.62,0,0,1-13.32-1.18.41.41,0,0,0-.14.81c7.3,2,15.48,1.8,23,.73a60.75,60.75,0,0,1-6,2.76,57.29,57.29,0,0,1-19.28-.78q-.11-3.91.09-7.82c.53-10.15,2.94-19.69,5.7-29.37h0c-.89,4-.38,8.32,2.88,11.3.17.15.42-.08.29-.27-2.17-3.23-3.42-7.24-2.11-10.93l.27,0c-.42,2.8,3,5.63,5.63,5.38a5.5,5.5,0,0,0,4.68-5.9l.71-.14c0,3.35-.41,6.21-2.56,9.09a.22.22,0,0,0,.34.28,13.26,13.26,0,0,0,3.35-9.63q.94-.22,1.85-.49c.09.36.21.72.33,1.08.2,1.15.53,2.3.78,3.41.66,2.91,1.29,5.82,1.86,8.75,1.08,5.54,2,11.12,2.67,16.72.12.94.22,1.89.32,2.83a29.71,29.71,0,0,1-11.74,1.87c-.58,0-1.16-.07-1.74-.13,2.53-.21,5.05-.49,7.56-.85,1.73-.2,3.47-.54,5.21-.88C305.2,157.55,305.16,156.91,304.74,157Zm4.71,31.15a.52.52,0,0,0-.28.74l-1.11-.06-1.1-.34a1.86,1.86,0,0,1,.46-.78.33.33,0,0,0,.19,0,.94.94,0,0,0,1.11.1l1.4.3A2.33,2.33,0,0,0,309.45,188.12ZM305,172.77l-.43.22.89-1a1,1,0,0,0,.25-.73l.79-.44,0,0c0,.11,0,.21,0,.32,0,1,.08,2,.11,3l-.22,0C306.65,173.36,305.87,172.33,305,172.77Zm-6.24,2.41,1.26-.57-.85.92Zm-11.47-.43c-.71-.09-1.42-.21-2.12-.36q1.28-.07,2.56-.2C287.57,174.38,287.42,174.56,287.28,174.75Zm-3,4.58-1.42-.2,1.79-.39Zm-3.13-6.09q-1.09-.41-2.15-.9v-.09l0-.14c.79.28,1.59.54,2.39.76A.8.8,0,0,0,281.18,173.24Zm1.69,1.72-3.34.05-.12,0q-.12-.76-.23-1.52A24.8,24.8,0,0,0,282.87,175Zm-3.26,1.28,4.95,1.24-4.54,1Q279.8,177.34,279.61,176.24Zm.75,3.88,2.77.39-2.5.88Zm5.7-3.54-1.93-.47,2.27-.05Zm11.62-11.44,1-.14c.82-.12,6.67-1.66,7.36-1.39,0,.37.05.75.08,1.12a3.3,3.3,0,0,1-1.24,1.1,55.58,55.58,0,0,1-6,2.09c-1.34.32-2.66.58-3.74.77a37.18,37.18,0,0,1-5.54.3c-3.49-.19-8.27-.91-10.58-2.94l.07,0c.05,0,0-.11,0-.1l-.16,0a4.58,4.58,0,0,1-.5-.55c0-.08,0-.17,0-.25C284.54,168.51,291.32,167.56,297.67,165.14Zm-18-.51a57.7,57.7,0,0,0,12,1l1.25-.05C288.5,166.66,283.93,166.71,279.7,164.62Zm26.66,2.81c-.83.33-1.67.66-2.51,1,.85-.32,1.68-.68,2.5-1.06Zm-27.83-.92a7.65,7.65,0,0,0,1.73,1.22c-.56-.14-1.12-.28-1.68-.43C278.55,167,278.53,166.78,278.52,166.52Zm14.67,4.73q-2.48.47-5,.79l-1.17-.1A56,56,0,0,0,293.19,171.24ZM306,162.5a13.57,13.57,0,0,0-3.56.69l-.55.12c1.37-.66,2.7-1.37,4-2.08C305.91,161.66,306,162.08,306,162.5Zm-13-36.4a2.74,2.74,0,0,1-2.24,2.92c-1.8.24-2.67-1.22-3.06-2.7A40,40,0,0,0,293,126.1ZM304.35,135c-.24-1-.5-1.94-.75-2.91.51.61,1,1.2,1.58,1.76Q304.75,134.45,304.35,135Zm-44.77-30.54a19.74,19.74,0,0,1-3-14.3,21,21,0,0,1,2.77-7.09c1.09-1.78,3.19-3.35,3.69-5.4a.37.37,0,0,0-.39-.43h0c.8-1.86,1.19-3.94,2.49-5.65a17.15,17.15,0,0,1,7.76-5.4,36.87,36.87,0,0,1,19.34-1.59,50.51,50.51,0,0,1,10.7,3.53c-1.15-.11-2.29-.22-3.42-.35-4.58-.51-9.17-1.11-13.77-1.51-6.78-.59-14.21,0-18.58,5.91-.16.22.15.48.32.27,5.42-6.6,14.44-5.67,22-4.72,6.12.76,12.3,1.83,18.47,2.46.89.34,1.8.67,2.71,1a33.81,33.81,0,0,0,4.61,1.17,32.77,32.77,0,0,1-5.85.07c-4.41-.3-8.74-1.27-13.12-1.84-8.19-1.07-17.21-1-25.11,1.64a.15.15,0,0,0,.06.29,114.75,114.75,0,0,1,14-1.58,77.28,77.28,0,0,1,14.94,1.35A69,69,0,0,0,313,73.78a34.22,34.22,0,0,0,4.87-.37l-.27.22a19.22,19.22,0,0,1-5.44,2.75,95,95,0,0,1-11.26,2.9c-8.06,1.72-16.63,2.24-24-2.12-.21-.13-.44.23-.23.37,7.47,4.88,16.48,4.43,24.89,2.75,5.87-1.17,15.45-2.37,19.62-7.75l.16-.07c.29-.05.58-.12.87-.2a34.05,34.05,0,0,1-6,6.8,35.19,35.19,0,0,1-8.94,5.39,35.87,35.87,0,0,1-23.51,1.18c-.26-.07-.33.34-.07.41A36.47,36.47,0,0,0,308,85.19a39.09,39.09,0,0,0,13.44-9.09,27.93,27.93,0,0,1-11.37,12.13,29.07,29.07,0,0,1-26.2.78c-.13-.06-.2.12-.09.19A29.25,29.25,0,0,0,297,93.38a25.31,25.31,0,0,1-10.57,0A26.44,26.44,0,0,1,276.83,89c-2.85-2-4.67-4.87-7.16-7.23-.14-.13-.33,0-.28.2a9.3,9.3,0,0,0,.63,1.66c-.09,4,.49,7.88.11,11.88a69.09,69.09,0,0,1-1.54,9.48c-.59-1.84-1.2-3.68-1.79-5.52a.29.29,0,0,0-.19-.19,38.69,38.69,0,0,1-.2-8.39,28.56,28.56,0,0,0,1.37,10c.14.4.8.27.73-.16-.93-6.38-1.63-12.23-.25-18.65.09-.4-.56-.62-.7-.22a38.5,38.5,0,0,0-2,16c-2.08-4.78-2.12-9.73-1-14.76q.65-1.11,1.37-2.2a.31.31,0,0,0-.47-.39l-.37.39c.09-.34.19-.67.29-1,0-.05-.06-.06-.08,0a15.19,15.19,0,0,0-1,2,23.17,23.17,0,0,0-4.78,15.66,22.14,22.14,0,0,1,4.21-18.78.23.23,0,0,0-.35-.3c-6.1,6.21-7.09,16.11-3.25,23.77a.53.53,0,0,0,1-.36A24.37,24.37,0,0,1,263,86a22.77,22.77,0,0,0,3,14.58.38.38,0,0,0,.34.19c.06.57.12,1.15.18,1.72a3.78,3.78,0,0,0-2.77-1.19C261.72,101.3,260.38,102.79,259.58,104.49Zm13.77,14.35a18.1,18.1,0,0,1-3.83-4.17c1.19-1.43-.74-3.14-2.23-2.32-3.43,1.89-6.35-1-6.23-4.52a7.33,7.33,0,0,1,.59-2.8c.64-1.41,1-1.73,2.61-1.61a2.45,2.45,0,0,1,2.43,1.35c.18,1.69.38,3.37.62,5,.18,1.23,2,1.75,2.53.44a38.52,38.52,0,0,0,3-14.15,36.84,36.84,0,0,0-1-9.69,28.52,28.52,0,0,0,4.59,4.29,25.94,25.94,0,0,0,9.7,4.58c5.78,1.39,13.43.85,18.82-2.49a27.4,27.4,0,0,0,6.33-2.21c.68-.34,1.35-.72,2-1.12a25.4,25.4,0,0,1,.64,2.81,35.88,35.88,0,0,1,.21,11c-1,6.59-4.38,12.94-10.32,16.29s-14.26,4.11-21,3A20.79,20.79,0,0,1,273.34,118.84Zm5.59,11.8c.79-1,1.86-2,2.72-3.06a69.45,69.45,0,0,0-3.11,9.66l-.07,0c-.94-.39-1.86-.79-2.81-1.14A28,28,0,0,1,278.93,130.64Zm-3.75,19.78a49.21,49.21,0,0,1,.18-7.44c.1-1.1.3-2.21.43-3.32l1.26.63a1.59,1.59,0,0,0,.78.18,105.13,105.13,0,0,0-1.9,15.31A37.53,37.53,0,0,1,275.18,150.41Zm6.8,19.64q-1.6-.05-3.21-.2c0-.26,0-.53-.07-.79A30.66,30.66,0,0,0,282,170.05Zm-.68,14.42-.39-1.74,1.67-.6C282.14,182.9,281.71,183.68,281.31,184.47Zm21.73-5.6,1.72-1.15-.31,1.44a1.12,1.12,0,0,0,1.47,1.24h0l.18.79a.88.88,0,0,0,.55.61q0,.3,0,.61C305.48,181.2,304.28,180,303,178.87Zm9.57,9.89-.64-.27,1,.24Zm-1.83-46.84c-1.84-.32-3.54-1.54-5.3-2-.09-.4-.16-.79-.25-1.19a11.53,11.53,0,0,0,1.49-1.76,17.65,17.65,0,0,0,8.3,4.8A12.3,12.3,0,0,1,310.77,141.92Zm16.42-4.6c-1.07,1.22-2.49-.09-2.88-1.21a6.13,6.13,0,0,1-.21-2l.22-.22a.69.69,0,0,0,.21-.49,3.46,3.46,0,0,0,.49.09,3.54,3.54,0,0,0,1.52-.17C327.26,134.58,328.49,135.85,327.19,137.32Zm1.49-4.7a5,5,0,0,0-.36-.55,4.3,4.3,0,0,0,1.11-2.53c.48-.26.87-.7,1.52-.72a1.82,1.82,0,0,1,1.81,2.22C332.38,133,330.42,133,328.68,132.62Z"/><path id="_Compound_Path_6" data-name="&lt;Compound Path&gt;" class="cls-2" d="M336.19,79.68a.81.81,0,0,0,1-1.18l-.08-.1a1,1,0,0,0,.5-.38c3-4.29,5.84-8.63,8.76-12.94,2-3,4.91-7.22,2.31-10.76-1.82-2.47-5.46-2.71-8.08-1.52a8.31,8.31,0,0,0-2.81,2.13q0-1.24,0-2.47c-.1-2.29-.16-5.21-2-6.87a4.36,4.36,0,0,0-5.65.1c-2,1.58-2.82,4.48-3.42,6.84a27.37,27.37,0,0,0,.61,15C328.76,72.09,331.73,77.47,336.19,79.68ZM334.87,50.8a.5.5,0,0,0-.73,0l-2.77,2.61,3.2-4.31A9.49,9.49,0,0,1,334.87,50.8Zm-1,23.38,0-.05.46-.67Zm-1-1.42-.44-.67,3.72-5.15Zm-3-6.57,4.3-5.47-3.59,7.57Q330.17,67.26,329.86,66.19Zm-1-6.39.09-.06,4.19-3.8-3.81,6.55c-.31.53.5,1,.88.56l1.63-1.88-2.32,3.59A25.45,25.45,0,0,1,328.82,59.8Zm.08-2.74,2.25-2.11-2.33,3.24C328.82,57.92,328.85,57.53,328.89,57.06Zm2.33,12.79,4-5.54-3.59,6.28Q331.41,70.23,331.23,69.85Zm6.85-8.09,3.54-6.4,0,0a5.11,5.11,0,0,1,1.41-.45.67.67,0,0,0-.13.14Zm-3.51,1.56-1.28,1.79,1-2.12A1.4,1.4,0,0,0,334.57,63.31Zm.34-7.37L333,58.12l1.91-3.3Q334.93,55.38,334.91,55.94Zm-.1-2.93-3,2.74,3.09-4.31,0,0c0,.53,0,1.05,0,1.52A.52.52,0,0,0,334.81,53Zm-5.61,1.7c.07-.44.15-.9.25-1.35l2-1.73Zm5.83,21,.45-.68a.93.93,0,0,0,.44.75c-.1.24-.19.48-.27.73ZM347,56.8l-2.17,3.38a1,1,0,0,0-.61-.65l1.78-3.1c.43-.75-.8-1.54-1.29-.82l-2.36,3.45,1.84-3.27a.72.72,0,0,0-.41-1A3.1,3.1,0,0,1,347,56.8Zm-13.65-9.31a1.41,1.41,0,0,1,.83.66l-.1.06-.84.72.23-.67c.07-.21-.17-.51-.38-.32-1,.93-2,1.93-3,3C330.79,48.75,331.84,47.1,333.34,47.49Z"/><path id="_Compound_Path_7" data-name="&lt;Compound Path&gt;" class="cls-2" d="M353.69,72.25a.79.79,0,0,0,.34.57,2.5,2.5,0,0,0,.6.6.68.68,0,0,0,.8.65,1,1,0,0,0,.79,1.23,9.14,9.14,0,0,0,1,0,.68.68,0,0,0,1-.11c4.47-.67,10.23-4,10.09-8.62a4.25,4.25,0,0,0-4-4.16,5.66,5.66,0,0,0-3.58,1,3.45,3.45,0,0,0-1-1.86c-1.39-1.41-3.35-1-4.6.33-1.51,1.61-2.07,4.38-2.08,6.5A9.71,9.71,0,0,0,353.69,72.25Zm2.54,1.07,3.42-4.16-1.74,3.75Zm3.83-1,1.29-2L360.69,72Zm2.36-6.07.49-1.05a.6.6,0,0,0,0-.19l.29-.08Zm-3.8,2.17-.84,1,.46-1A1.31,1.31,0,0,0,358.61,68.38Zm-.92-2.51-.39.59L358,64.7A1.91,1.91,0,0,1,357.69,65.88Zm8.06,1.85A4,4,0,0,1,365,69h0l.62-1.56c.27-.7-.71-1.45-1.18-.75l-.95,1.39,1-2.86a.8.8,0,0,0,0-.23A2.27,2.27,0,0,1,365.75,67.73ZM357,63.49l-.34.46A1,1,0,0,1,357,63.49Z"/></g></g></g></g></svg>