<svg xmlns="http://www.w3.org/2000/svg" viewBox="0 0 800 800"><defs><style>.cls-1{fill:#fff0f0;}.cls-2{fill:#663e4a;}</style></defs><title>84642-OHCF1I-708</title><g id="BACKGROUND"><rect id="_Rectangle_" data-name="&lt;Rectangle&gt;" class="cls-1" width="800" height="800"/></g><g id="OBJECT"><g id="_Group_" data-name="&lt;Group&gt;"><g id="_Group_2" data-name="&lt;Group&gt;"><path id="_Path_" data-name="&lt;Path&gt;" class="cls-2" d="M155,168.63c1.53-.49,2.07-2.93,3.24-4,1.59-1.45,4.83-2,6.32-.11,2.78,3.56,7.59-1.66,3.52-4.17-3.85-2.37-8.73-2.74-12.16.59a7.67,7.67,0,0,0-2.47,5.28C153.43,166.93,153.77,169,155,168.63Z"/><path id="_Path_2" data-name="&lt;Path&gt;" class="cls-2" d="M187.07,162.55c1.43-1.12,2-2.82,3.85-3.47,2.11-.74,3.63.15,5,1.7,2.08,2.4,6-.09,4.17-2.86a8.62,8.62,0,0,0-9.92-2.88c-2.43,1-5.58,4.6-4,7.34A.66.66,0,0,0,187.07,162.55Z"/><path id="_Path_3" data-name="&lt;Path&gt;" class="cls-2" d="M271.16,168.4a6.61,6.61,0,0,0-4.27,1.84c-.93,1-1.52,3.39.34,3.8,1.68.38,2.84-1.17,4.52-1.13s2.27,1.14,3.47,2.1a2.12,2.12,0,0,0,3.43-1.78C278.42,169.78,274.16,168.17,271.16,168.4Z"/><path id="_Path_4" data-name="&lt;Path&gt;" class="cls-2" d="M236.63,174.53a1.13,1.13,0,0,0,1.74.82,8.42,8.42,0,0,1,3.11-1.33c1.36-.14,2,.62,3.15,1.06a2,2,0,0,0,2.67-2.44C245.75,168,235.82,169.29,236.63,174.53Z"/><path id="_Compound_Path_" data-name="&lt;Compound Path&gt;" class="cls-2" d="M354.54,141.55c-4-11-11.7-20.92-23-24.94-8.16-2.9-16.75-2.64-23.66,1.89-4.75-.4-10,1-12.16,4.73-25.23-7.66-56.24,2.82-70.34,25.23a40.48,40.48,0,0,0-3.29,6.6c-.1-2.53-.3-5-.62-7.54-.48-3.84-1.05-8.39-2-12.84,10.86-8.83,19-21.68,21.23-35.25A2.72,2.72,0,0,0,238,96.11a2.43,2.43,0,0,0-1.43-.41c-7.5.4-13.86,2.11-21.47.5s-14.59-5-21.66-8c-12.75-5.39-25.92-8.47-39.83-8-12.5.45-26.09,3.27-36.57,10.44-6.1,4.18-17.31,16.49-13.14,25-3.13,2.22-5.62,6.17-7.39,9a43.3,43.3,0,0,0-6.1,16.07,46.37,46.37,0,0,0,9.42,35.84l0,0c-.82,6,1,12.54,6,16.29a12.34,12.34,0,0,0,11.19,2c5,9.76,16.85,16.17,26.87,18.65.53.13,1.08.24,1.62.36a72.26,72.26,0,0,0-6.37,7.36c-3.25,3.93-6.41,7.94-9.8,11.74-1.07,1.2-1.07,3.66.39,4.61l4.27,2.78c-2.45,4.78-1.25,13.5-.84,17.91.5,5.33,1,14.65,5.07,18.88-.45,9.55-.52,19.11-.15,28.67h0l-.34.08c-1.13.25-.7,2.05.41,2,.33,8.9.66,18.19,2.34,27-5.33-1-12.14,3.57-15.3,6.92a2.42,2.42,0,0,0,1.43,3.92A46.83,46.83,0,0,0,153.36,342c1.71-.77,2.38-3.72.2-4.48-2.37-.83-4.64-1.79-7-2.36,1.33-1.66,2.13-4,3.13-5.75,2.29-4.11,4.77-8.13,7.45-12a128.34,128.34,0,0,1,16.12-18.91,2.37,2.37,0,0,0,1-.13c1.08,1.5,2.35,2.92,3.4,4.36q2,2.73,3.83,5.59c-.53.9.15,2.35,1.25,2q.79,1.29,1.53,2.59a104.33,104.33,0,0,1,8.85,21.44,7.76,7.76,0,0,0-.66.51,6.06,6.06,0,0,0-1,8.36c2.67,3.44,7.16,3.14,11,2.43a93.16,93.16,0,0,0,17.59-5.18,2.54,2.54,0,0,0,.21-4.64c-5.36-2.37-12.08-4.1-18.11-3.1,2.51-3.45,2.16-8.38,2.53-12.55.48-5.45.73-10.91.85-16.38a257.35,257.35,0,0,0-1-29.48.78.78,0,0,0-.1-1c-.11-1.16-.23-2.32-.36-3.47-.72-6.31-1.69-12.58-2.87-18.82l.21.31a46.45,46.45,0,0,0,7.45,8.73,10.88,10.88,0,0,0-.13,6.33,11.33,11.33,0,0,0,16.68,6.6,11.15,11.15,0,0,0,5.1-11.43c1.72-1.42,3.32-3,4.92-4.54,1-.94,2.48-2.06,3.8-3.29-1.84,6.52-3.38,13.09-4.82,19.38-2,8.66-3.73,17.38-5.07,26.17-.86,5.66-2.82,13-2.52,19.25-.77-.11-1.55-.22-2.33-.29-1-.09-1.84,1.23-.89,1.91a31.18,31.18,0,0,0,3.77,2.27c.07.29.14.58.23.86a3,3,0,0,0,4.67,1.28,67.91,67.91,0,0,0,7,2.11c.25,3.35,1.52,6.78,2.48,10-4,.06-8.5,1.8-12,2.8-1.75.5-1.95,3.38-.18,4a25.15,25.15,0,0,0,21.92-2.05c2.08-1.24.59-4.09-1.46-4.08-.78,0-1.62,0-2.5-.08a76,76,0,0,0,4.35-8.11,124.83,124.83,0,0,0,25.79,1.34c4-.19,7.93-.57,11.86-1.12a8.09,8.09,0,0,0,1.82,5.22,6.3,6.3,0,0,0,2,1.48c-1.8,3.19,2.82,5.58,5.86,6,7.27.94,14.35-1.19,20.66-4.69a2.06,2.06,0,0,0-.3-3.56,50.1,50.1,0,0,0-13.51-2.5,10.81,10.81,0,0,0,.58-3.49,7.44,7.44,0,0,0,.6-1.08,2.37,2.37,0,0,0,.21-1.16,127.31,127.31,0,0,0,12.74-4.38c1.88-.76,3.87-1.48,5.75-2.37a2.8,2.8,0,0,0,1.47-.75,14.75,14.75,0,0,0,3.87-3,2.68,2.68,0,0,0-2.26-4.36,13.21,13.21,0,0,0-1.87.34c-1.44-2.5-3.47-4.79-5.06-7.12-1.44-2.11-2.82-4.26-4.18-6.43l1.63-1c.75-.46.09-1.45-.65-1.27l-2.05.49c-.63-1-1.28-2-1.89-3.09q-4.46-7.56-8.18-15.51c1.2-8.35-.52-18-2.71-25.43-2.53-8.64-6.93-17.92-13.34-24.65a13.45,13.45,0,0,0-1.15-3.11c8.07-3.56,18.64-12.16,18.86-21.82a11.31,11.31,0,0,0,8.18-4.59,2.7,2.7,0,0,0,1.33-.48,23.19,23.19,0,0,0,3.73-3.15c6,10.41,12.68,20.54,19,30.78a2.84,2.84,0,0,0,4.64,0,1,1,0,0,0,.82-.72c.32-.86.62-1.73.92-2.6C358.53,197.59,363.84,166.88,354.54,141.55Zm-20.37-18c10.11,5.88,15.19,17.63,17.38,28.64a95.94,95.94,0,0,1,1.41,26.34,118.9,118.9,0,0,0-2.7-20c-3.71-16.6-14.1-40.27-34.94-37.45-.31-.23-.63-.46-1-.66l-.59-.33A29.22,29.22,0,0,1,334.17,123.52Zm11.49,86.65c-.5-14.93-.94-29.81-4.66-44.46-4-15.86-11.48-30.92-23-42.62a.48.48,0,0,0-.56-.12c-.18-.19-.35-.39-.53-.58,21.35,1.87,29.17,25,32.13,43.38a113.63,113.63,0,0,1,.38,33A118.53,118.53,0,0,1,345.66,210.17ZM304.8,152.93c-.29-.36-2.85-3-2.78-3.15.84-1.56,3.7,1.83,4,2.24a47.77,47.77,0,0,1,5.58,9.66,49.52,49.52,0,0,1,3.85,17.89,10.5,10.5,0,0,0-1.43-1A41.48,41.48,0,0,0,304.8,152.93Zm25.46,22.5c3.32,11.63,6.27,23.31,8.48,35.23-4.36-7.24-8.75-14.48-13.4-21.51A39.18,39.18,0,0,0,330.26,175.44Zm10.46,36.38a245.52,245.52,0,0,0-9.92-41.07,44.69,44.69,0,0,0-.47-10.43,43.87,43.87,0,0,0-9.89-20.82c1.43-2.44,1.37-5.92.87-8.61A150.33,150.33,0,0,1,340.72,211.82ZM304,123.62a1.12,1.12,0,0,0,1.27,0c.19-.13.38-.23.57-.35a8.73,8.73,0,0,1,5.73,1.48,10.28,10.28,0,0,1,4.46,7.36,8.56,8.56,0,0,1-.13,2.67,53.36,53.36,0,0,0-8.74-6.52,50.87,50.87,0,0,0-6.66-3.31A21.49,21.49,0,0,1,304,123.62Zm-79.2,43A38.92,38.92,0,0,1,235,145.33c11.53-12.76,30.09-19.76,47.15-18.66,15.62,1,30.67,9.37,38.17,23.4a37.25,37.25,0,0,1,3.95,23.05,33.72,33.72,0,0,1-4.79,12.66,10.88,10.88,0,0,0-.42-1.36,11.44,11.44,0,0,0-1.15-2.2c6.38-18.18.05-40.46-18-49.38-.3-.15-.61.31-.32.51,13.95,9.85,21.62,25.11,18.09,41.44a49.08,49.08,0,0,0-5.06-17.22c-1.54-3-6.64-13.9-11.61-12.53-5.81,1.6.6,8.21,2.08,10.1a38.73,38.73,0,0,1,8,20.51c-2.33-1-5-1-7.37-2a23.53,23.53,0,0,1-9-6.7c-4.89-6-4.45-12.45-4.87-19.63a.65.65,0,0,0-1-.5.7.7,0,0,0-.89-.06c-7.82,6.2-15.34,11.79-25.11,14.61a50.15,50.15,0,0,1-14.59,2c-3.23,0-6.76-1.17-10.11-1.54,10.95-9.16,21.94-18.51,33.64-26.45a1.26,1.26,0,0,0-.81-2.28c-19.53,1.86-36.79,15.86-43.36,34.05l-.42.32a1.36,1.36,0,0,0-.31,1.88,47.5,47.5,0,0,0-1.59,7.1A31.72,31.72,0,0,1,224.83,166.62Zm20.76,62.74a1.91,1.91,0,0,0-.19,1c-.47.87-.89,1.8-1.41,2.74a58.84,58.84,0,0,1-6.59,9.59c-3.69,4.35-8.28,7.37-12.51,10.92a13.24,13.24,0,0,0-9.05-.89,91.15,91.15,0,0,1-6-8.16c-1.95-3.26-3.2-6.88-5.11-10.14,1-1,1.93-2,2.9-3a3.4,3.4,0,0,0,.2-4.12c-3.44-4.09-6.89-8.17-10.44-12.16-1.69-1.89-3.22-4.19-5.3-5.49.74-.33,1.48-.66,2.2-1,12.62-6.22,21-17.74,25-30.92a20.94,20.94,0,0,0,4.7,10,54.29,54.29,0,0,0,1.28,14.12c2.75,11.62,10.42,20.76,21.8,24.41Zm-49.07,95.49.61-1.43c-.1.76-.2,1.52-.28,2.26C196.72,325.4,196.63,325.13,196.51,324.85Zm-5.68-11.61,5.47-3.06-3.74,6.23Q191.72,314.81,190.83,313.25Zm-2-3.4-1.18-1.93,6.9-3.49-5.34,6.07Zm-44.49,10,4.58-1.34-4.38,3.36Zm-.66-7a28.1,28.1,0,0,0,5.14.54,47.34,47.34,0,0,0-4.82,3Q143.84,314.63,143.68,312.85Zm-.37-5.49,7.5-.7a54.85,54.85,0,0,0-7.33,3.51C143.41,309.23,143.36,308.29,143.31,307.36Zm1.51,17.3a1.12,1.12,0,0,0,.74-.27l2.71-2.18c-.93,1.76-1.83,3.55-2.66,5.37-.14.3-.28.61-.44.92Q145,326.57,144.82,324.65Zm7.83-10.05-.39.64-4.86,1.46a45,45,0,0,1,5.91-3.11C153.09,313.93,152.86,314.26,152.65,314.6Zm2.77-4.18a24.72,24.72,0,0,1-9.34.68,50.31,50.31,0,0,1,12.14-4.6Q156.79,308.43,155.42,310.41Zm4.94-6.71-6.5.61,7.32-1.65Zm3.49-4.24-7-.21,8.09-1.07ZM143,292.95a27.5,27.5,0,0,0,5.15,2l-.62.72a.45.45,0,0,0-.29.33l-.16.18c-.94,1-2,2.06-2.93,3.12l0,0c-.36.39-.71.79-1.05,1.2Q143,296.7,143,292.95Zm5.37,4.82c.31-.33.64-.65,1-1,2.38.31,4.79.49,7.22.61l-8.9,1.14Zm50.09-7.56-.17.09a2.18,2.18,0,0,0-2.21-2.23c-4.73.51-9.31,2.24-14,3q-3.48.59-7,.93a2.89,2.89,0,0,0-.4-.26,82.43,82.43,0,0,0,23.67-5.54Q198.42,288.22,198.46,290.2Zm-19.36,6.06c2.23-.19,4.47-.47,6.67-.86l-5.66,1.89C179.79,296.94,179.45,296.6,179.11,296.27Zm11.05.55a66.05,66.05,0,0,0,8.36-3.39c0,.17,0,.34,0,.51-5,2.52-10.08,5-14.56,8.22-.68-1-1.4-1.94-2.14-2.87A54.85,54.85,0,0,0,190.16,296.81Zm-5.23,6.76c1.94-.73,3.85-1.58,5.74-2.51l-4.88,3.85Zm13.43,2.62-4,2.21,4-4.59C198.42,304.61,198.39,305.4,198.36,306.19Zm-3.43,15-.47-1a9.4,9.4,0,0,0,1-.23Zm2.92-5.81a1.52,1.52,0,0,0-.41.29l-2,.84,2.62-4.44C198,313.21,197.93,314.31,197.85,315.41Zm.68-15.8-5.22,2.63,5.23-4.13C198.54,298.62,198.54,299.12,198.53,299.62Zm-.31-16.26a78.61,78.61,0,0,1-26,5.77c-9.7.41-18.69-1.6-28.08-3.7a.77.77,0,0,0-.45,1.44c8.33,3.89,17.77,5.4,27.24,5.11a3.27,3.27,0,0,0-.5.4l-1.61.09a111.47,111.47,0,0,1-14.89-.46l-.44,0c.41-.75-.58-1.44-1.22-1a10.45,10.45,0,0,0-1,.75,53.86,53.86,0,0,0-8.21-.77c0-3.29.08-6.59.19-9.88,8.46,4.75,19.32,3.12,28.52,1.93a137.17,137.17,0,0,0,26.1-6.07C198,279.05,198.11,281.2,198.22,283.35Zm-43.07-2.78c14.14-1,28.28-3.19,42.37-5.09a138,138,0,0,1-23.89,5.92c-9.42,1.43-21.34,3.41-30.19-1a.29.29,0,0,0-.22,0q.16-4.26.42-8.51,1-16,3.54-31.77c.79-4.91,1.7-9.8,2.64-14.69.69-3.56,1.86-7.07,1.47-10.6.79.11,1.58.21,2.39.3-.92,9.16,5,19.55,14.3,21.58a.48.48,0,0,0,.28-.91c-8.54-4.18-13.89-11.3-13.72-20.6.6.06,1.2.12,1.81.16a11.76,11.76,0,0,0,12.56,7.49c3.75-.54,9.75-4.69,10.28-9.11q1.72-.37,3.4-.82a18.08,18.08,0,0,1-2.16,12.85c-.11.19.19.38.33.21a17.37,17.37,0,0,0,3.38-13.5c.45-.13.91-.25,1.36-.39,1.93,9.32,5.29,18.44,7.23,27.75a272.48,272.48,0,0,1,4.67,31.61c.07.83.14,1.66.2,2.49-14.19,1.63-28.52,3-42.55,5.47A.59.59,0,0,0,155.15,280.57Zm4.07-65.06a82.53,82.53,0,0,0,15.91-1,9.66,9.66,0,0,1-5.3,4.85C165.66,220.86,161.65,218.8,159.22,215.52ZM197,231.9c-1-4-2-8.13-3.35-12.12,2.21,3,4.47,6,6.75,9C199.23,229.77,198.06,230.8,197,231.9Zm37.58-70.14c-.25,0-.5.07-.74.12a2.94,2.94,0,0,0-.4.12c7.08-12.42,18.44-21.33,33.12-25.37C256.44,145.52,245.38,153.62,234.58,161.76Zm-132.83,8.57a40.86,40.86,0,0,1-6.13-29.6,43.54,43.54,0,0,1,5.73-14.68c2.26-3.69,6.6-6.94,7.64-11.17a.77.77,0,0,0-.82-.89h-.07c1.66-3.84,2.47-8.15,5.14-11.68,4-5.32,9.91-8.85,16.07-11.19,12.64-4.79,26.78-5.65,40-3.29,7.79,1.39,15,4.29,22.14,7.3-2.37-.23-4.73-.46-7.08-.72-9.49-1.06-19-2.3-28.49-3.13-14-1.22-29.42,0-38.45,12.24-.33.45.31,1,.67.56,11.22-13.65,29.89-11.73,45.56-9.77,12.66,1.58,25.46,3.79,38.23,5.09,1.85.71,3.72,1.39,5.61,2a70,70,0,0,0,9.53,2.41,67.84,67.84,0,0,1-12.11.15c-9.13-.63-18.09-2.62-27.15-3.81-17-2.22-35.62-2.09-52,3.39a.31.31,0,0,0,.13.59c9.64-1.38,19.11-3.06,28.88-3.26a160,160,0,0,1,30.92,2.8c8.76,1.53,17.57,3.21,26.5,3.08a70.83,70.83,0,0,0,10.08-.76c-.18.15-.36.31-.55.46a39.78,39.78,0,0,1-11.25,5.7,196.55,196.55,0,0,1-23.3,6c-16.69,3.56-34.42,4.65-49.63-4.39-.44-.26-.92.48-.49.77,15.47,10.1,34.1,9.18,51.52,5.7,12.15-2.43,32-4.91,40.61-16l.32-.14c.61-.11,1.2-.25,1.79-.41-3.69,5.13-7.22,9.85-12.33,14.07a72.85,72.85,0,0,1-18.51,11.16,74.25,74.25,0,0,1-48.66,2.44c-.54-.15-.68.7-.15.86a75.49,75.49,0,0,0,50.28-1.8,80.91,80.91,0,0,0,27.82-18.82,57.81,57.81,0,0,1-23.53,25.11c-16.48,9.35-37.17,9.49-54.23,1.61-.26-.12-.42.25-.18.4a60.54,60.54,0,0,0,27.41,8.66,52.38,52.38,0,0,1-21.89,0,54.72,54.72,0,0,1-19.92-9c-5.89-4.21-9.68-10.08-14.83-15-.29-.27-.67.08-.59.41a19.26,19.26,0,0,0,1.3,3.44c-.18,8.19,1,16.31.23,24.59a143,143,0,0,1-3.19,19.63c-1.22-3.82-2.49-7.62-3.7-11.42a.61.61,0,0,0-.39-.4,80.09,80.09,0,0,1-.42-17.36,59.12,59.12,0,0,0,2.84,20.6c.28.82,1.65.57,1.52-.33-1.92-13.2-3.38-25.32-.52-38.6.18-.83-1.17-1.29-1.45-.45a79.68,79.68,0,0,0-4.18,33.07c-4.3-9.9-4.38-20.13-2.15-30.55q1.34-2.3,2.85-4.56a.63.63,0,0,0-1-.81c-.27.26-.51.55-.77.82.19-.7.39-1.39.59-2.09,0-.1-.12-.13-.17-.05a31.43,31.43,0,0,0-2.17,4.12c-7.32,8.92-10.38,20.86-9.89,32.41-3.34-13.4.09-27.59,8.72-38.88a.48.48,0,0,0-.73-.62c-12.62,12.85-14.68,33.34-6.73,49.2a1.1,1.1,0,0,0,2.08-.74c-2.56-11.67-.67-22.54,4-32.7-1.61,10.28,1,21.39,6.11,30.17a.8.8,0,0,0,.7.39c.13,1.19.25,2.38.38,3.57a7.82,7.82,0,0,0-5.73-2.45C106.17,163.73,103.41,166.81,101.74,170.33Zm28.5,29.7a37.46,37.46,0,0,1-7.92-8.62c2.46-3-1.53-6.5-4.61-4.8-7.1,3.92-13.15-2.08-12.89-9.36a15.18,15.18,0,0,1,1.21-5.8c1.32-2.92,2.09-3.58,5.39-3.34,2.9.22,3.69.73,5,2.8.37,3.49.78,7,1.28,10.44.37,2.54,4.15,3.63,5.24.92A79.73,79.73,0,0,0,129.23,153c0-6.21-.33-13.51-2.11-20a59,59,0,0,0,9.51,8.88,53.69,53.69,0,0,0,20.07,9.47c12,2.89,27.8,1.76,39-5.16a56.71,56.71,0,0,0,13.1-4.56c1.41-.7,2.79-1.49,4.15-2.32a52.6,52.6,0,0,1,1.33,5.81,74.27,74.27,0,0,1,.44,22.81c-2.09,13.64-9.06,26.78-21.35,33.72-12.52,7.07-29.51,8.51-43.51,6.31A43,43,0,0,1,130.24,200Zm15.06,23.33c-.09.42-.17.83-.26,1.24-.55,2.45-1,4.91-1.5,7.38-.35-.23-.7-.46-1-.7-.75-.54-1.47-1.11-2.23-1.61C142,227.62,143.71,225.52,145.3,223.37Zm-6.21,7.77c.78.66,1.62,1.25,2.42,1.88.53.41,1.05.88,1.6,1.32-.2,1.11-.39,2.22-.58,3.34l-5.85-3.55C137.45,233.13,138.26,232.14,139.09,231.14Zm-1.19,13.69c0-.75.08-1.38.13-1.95l1.88,1.23a4.27,4.27,0,0,0,1.54.64q-1.37,9.41-2.2,18.88-.68-3.37-1.06-6.79A81.21,81.21,0,0,1,137.89,244.83Zm5.26,58.25a26.21,26.21,0,0,0,2.36-2.23l12.93.42-15.25,3.41C143.18,304.14,143.17,303.61,143.16,303.08Zm-10.21,38.24a20.06,20.06,0,0,1,4.48-2.21c1.29-.45,2.59-.68,3.86-1l0,.1c.38,1.59,1.94,1.79,3.1,1.16.31.15.63.3.94.44A42.29,42.29,0,0,1,132.95,341.31Zm78.18-2.87c-1.68.54-3.37,1-5.09,1.48a37.43,37.43,0,0,1-6.59,1.35c-4,.5-4.78-.44-2.52-2.8a3.61,3.61,0,0,0,1.43-.54,2.42,2.42,0,0,0,.88.17C203.52,338.11,207.3,337.91,211.12,338.44Zm-6.58-89.25c-2.18-2.72-3.68-6-5.57-8.87-.08-.34-.15-.69-.23-1a16.52,16.52,0,0,0,2.54-1.7c1,5.77,4.45,12.3,8.4,17A49.36,49.36,0,0,1,204.55,249.19Zm17.18,17.72a4.56,4.56,0,0,1-6.77-2.72,4,4,0,0,1-.14-1,2.26,2.26,0,0,0,1.35-2.32c1.89-1.17,3.92-2.4,6-.59A4.4,4.4,0,0,1,221.73,266.91Zm16-17.31c-1.57,1.54-3.12,3.13-4.65,4.71-1.22,1.26-2.5,2.52-3.71,3.84a11.08,11.08,0,0,0-.78-1.33c4.89-3.07,9.27-8.05,12.4-12.22.53-.7,1.17-1.54,1.85-2.46q-1,2.78-1.89,5.61C239.48,247.78,239,248.45,237.78,249.6ZM313,304.55c-5,5.5-18.57,9.06-28.25,10.93a187.34,187.34,0,0,1-49.95-1.23.85.85,0,0,0-.2,0c0-.87.06-1.74.12-2.61.08-1,.18-2.06.26-3.09,12.56,5.94,28.06,5.69,41.47,3.78a111.23,111.23,0,0,0,34.79-11.07C311.79,302.34,312.37,303.44,313,304.55Zm-37.44,18.31a88.14,88.14,0,0,1-38.1-6.35,115.12,115.12,0,0,0,45.11,1.08,174.31,174.31,0,0,0,28.06-4.77C300.45,319.25,287.11,322.17,275.53,322.86Zm-41-6.67a81.46,81.46,0,0,0,27.95,8.17q-5.79-.26-11.57-1c-5.64-.7-11.18-2.24-16.74-3.5A30.09,30.09,0,0,0,234.51,316.2Zm12,12.05q-.6.9-1.17,1.81-.39-1.13-.85-2.22Zm60,10c-1.09.19-8.27,1-10.62-.51q0-.54-.11-1.08a4.52,4.52,0,0,0,1.31-.23,6.24,6.24,0,0,0,.8-.34h.1a6.92,6.92,0,0,0,3.54-.16,68,68,0,0,1,10.75.72A29,29,0,0,1,306.53,338.28ZM317.94,315a127.24,127.24,0,0,1-12.32,4.29,130.33,130.33,0,0,1-14.72,3.37,67.63,67.63,0,0,0,24.32-11.11.8.8,0,0,0-.72-1.41q-6.49,1.63-13,2.85c4.82-1.62,9.58-3.79,12.48-6.62a50.11,50.11,0,0,0,5.44,8C318.93,314.57,318.44,314.79,317.94,315Zm-8.62-17.33c-10.61,2.59-21.22,5.22-31.89,7.55-12.4,2.71-25.93,5-37.61-1.08.7-.33,1.27-.62,2.33-1.18.77-.4.11-1.67-.69-1.35a31.93,31.93,0,0,0-3.81,1.68.85.85,0,0,0-.07,1.55c11.4,6.27,24.29,4.81,36.54,2.15,12-2.6,23.9-5.36,35.84-8.11l.55,1.05c-22.7,11.3-51.76,16.67-75.45,7.41.24-2.65.5-5.3.82-7.95,1-8.49,2.34-16.93,4.16-25.29,1.75-8,3.83-15.94,6.13-23.81,1.69-5.78,3.79-11.48,5.61-17.24a26,26,0,0,0,5,10.68c1.95,2.44,5.78,5.33,8.28,1.9.31-.42-.21-1.13-.67-.74-5.62,4.83-10.48-7.28-12.1-13.53q.55-1.83,1-3.67l1.45.24c1.77,13.22,19.9,9.34,24.71-.73,1.65-.36,3.27-.77,4.84-1.25-1.67,6.14-6,11.83-10.33,16-.28.28.15.74.46.51,6.13-4.53,9.07-10.28,11.44-16.86l.09.13c-.27,2.88.51,6,1,8.75q1,6,2.4,11.88a190,190,0,0,0,8.2,26.4c1.35,3.44,2.81,6.84,4.35,10.21a1.42,1.42,0,0,0,.3.67q3.1,6.73,6.64,13.24ZM257,228.24a70.09,70.09,0,0,0,16.4,0,11.71,11.71,0,0,1-3.9,3.51A9.08,9.08,0,0,1,257,228.24Zm45.7,38.94c0,.33,0,.65,0,1a213.14,213.14,0,0,1-7.57-21.8q-1.62-5.61-2.88-11.31a65.62,65.62,0,0,1,8,17.21A66.85,66.85,0,0,1,302.72,267.18ZM313.58,190c-.73,5-5.28,5.57-9.41,5.76a2.7,2.7,0,0,0-2,4.27c-1.49,3.87-2.38,7.5-5.35,10.87a29.23,29.23,0,0,1-13,8.18c-10.27,3.42-23.68,4.1-34.15,1.08-10.82-3.12-17.15-12.21-18.87-23.06-1.64-10.37,2.16-20.26,2.43-30.37,3.71,2.55,9.51,2.27,13.82,2.19a58.38,58.38,0,0,0,16.58-2.78c8.69-2.77,17.64-7.88,23.26-15.34-1.73,6.46.7,14.36,4.39,19.47a29.07,29.07,0,0,0,13.08,9.65c-1.56,1.77-2.16,4.23-.55,6.39a.88.88,0,0,0,1.51-.13C308.37,180.5,314.34,184.84,313.58,190Zm29.11,27.2-.65-1.08a150.86,150.86,0,0,0-20.38-87.08c18.73,23.2,22.79,55.74,22.32,85.22C343.56,215.27,343.14,216.25,342.69,217.22Z"/><path id="_Compound_Path_2" data-name="&lt;Compound Path&gt;" class="cls-2" d="M259.38,116.64a2.07,2.07,0,0,0,2.1-.23,4.89,4.89,0,0,0,3.33.68c5.62-.57,11.58-3.06,16.79-5.14,2.66-1.06,5.47-2.19,8.13-3.55a1.69,1.69,0,0,0,2.68,0c.74-1,1.45-2,2.15-2.95.61-.45,1.2-.92,1.76-1.43,5.75-5.16,6.07-13.29-.55-17.93-6.41-4.49-13.23-2.69-19.39.71,1.72-5.41,1.93-11-1.55-16.21-4.68-6.94-13.78-8.41-19.79-2.25s-7.53,16.22-7.1,24.43S251.49,112.66,259.38,116.64Zm10.38-40.32-1.14,2.24a3.68,3.68,0,0,0-.56-3.49c.05-.22.11-.44.16-.66A7.19,7.19,0,0,1,269.76,76.32Zm-1.19,22.17a3,3,0,0,0,1.23,0l-3.06,4.62Zm-2.45-4.28a3,3,0,0,0-.32,1.2L264.17,98l6.57-17.19C270.63,85.43,267.81,90.78,266.13,94.21Zm-.91-13.43a1.06,1.06,0,0,0,1.27.21,4.5,4.5,0,0,0,1.6-1.39l-6.94,13.57Zm-2.53,14.39-2.82,7.33c0-.61,0-1.22,0-1.83ZM259,86l-1.18,2.4a23.87,23.87,0,0,1,1.39-4.86,26,26,0,0,1,1.59-3.24,6.17,6.17,0,0,1,.93-2.13A49.86,49.86,0,0,0,259,86Zm5.75,15.5-3.54,8.84c-.24-.71-.5-1.42-.77-2.12Zm-8.07-6.85a1,1,0,0,0,.62-.5l.35-.71c-.15,1.37-.25,2.74-.29,4.11l-.19.56C257,97,256.81,95.81,256.69,94.65Zm6.12,19.75c1.61.19,2.62-2.1,1.15-2.8l4.81-7.28-2.66,6.25c-.49,1.16,1.17,2.37,2,1.25q3.93-5.55,7.87-11.1l-6,11.77a1.07,1.07,0,0,0-.11.54C267.34,113.85,264.42,114.69,262.81,114.4Zm34.91-22.22a1.78,1.78,0,0,0-1.87.47l-1,1,1.85-3.07A8.23,8.23,0,0,1,297.72,92.17Zm.67,3.73a1.12,1.12,0,0,0-.31.12l.34-.76Q298.42,95.58,298.39,95.9Zm-4.3-7.6-.74.95.6-1Zm-4.19,17.1c-1,.52-2,1-3,1.45l0,0,4.42-4.56Zm-11,4.58c-1.83.66-3.66,1.29-5.52,1.86l1.5-2.21a1.42,1.42,0,0,0,2.22.1l2.64-3.41-1.15,1.92A1.33,1.33,0,0,0,278.95,110Zm3.28-1.22,1.78-2.23a2,2,0,0,0,1.75.82C284.58,107.85,283.4,108.32,282.23,108.76ZM291,87.06l-4.39,5.71L288,90.21c.73-1.32-1.42-2.72-2.27-1.44l-4.71,7.06q2-4,3.95-7.91a1,1,0,0,0,.06-.78l.38-.1A12.2,12.2,0,0,1,291,87.06Zm-9.08,1.27-9.35,13.15,3.54-8.25a1.11,1.11,0,0,0,0-.79A25.65,25.65,0,0,1,281.92,88.33ZM264.58,72.79c-.31.51-.64,1-.93,1.54-2.75,1.05-4.67,3.8-6,7C258.75,77.72,261.05,72.78,264.58,72.79Z"/><path id="_Compound_Path_3" data-name="&lt;Compound Path&gt;" class="cls-2" d="M209.74,80.44A13.88,13.88,0,0,0,215.48,84a1.25,1.25,0,0,0,2.37.63l.14-.29a9.33,9.33,0,0,0,1.22-.08c-.21.58-.42,1.17-.62,1.76-.56,1.65,1.6,3.44,2.81,1.78l.81-1.12a1.05,1.05,0,0,0,.21-.6c3.1-5.42,4.85-11.91,6.15-17.93.91-4.2,2.86-10.94-.53-14.61-2.71-2.93-6.44-2.32-8.91.49s-3.57,7.1-3.9,11.21a8.9,8.9,0,0,0-6.37-3.28,6.07,6.07,0,0,0-6.41,6.73C202.8,72.84,206.84,77.67,209.74,80.44Zm15.75-19.62c-.05.81-.15,1.62-.26,2.43l-.1.12a1.47,1.47,0,0,0-.66-.33c0-.16,0-.31.07-.46a1.29,1.29,0,0,0-.09-.63l1.29-3.35A2.89,2.89,0,0,1,225.49,60.82Zm-8.31,17.56-.15-.1.32-.44Zm2.51-13.09a13.4,13.4,0,0,1,1.47-6.15c-.2,1.31-.36,2.62-.44,3.9Zm-2.11,8-.28.39.12-.39Zm3,7.16-.67-.36q1-2.52,1.87-5.09.14.61.3,1.21C221.6,77.62,221.09,79,220.58,80.44Zm-6-8.78-1.94,2.4-.16-.22c.25-1.17.47-2.34.65-3.52C213.63,70.73,214.13,71.21,214.6,71.66Zm-3.12-2.4a2,2,0,0,1,.61.27c-.34.82-.65,1.65-.95,2.49C210.13,70.66,208.94,68.8,211.48,69.26Z"/></g><g id="_Group_3" data-name="&lt;Group&gt;"><path id="_Path_5" data-name="&lt;Path&gt;" class="cls-2" d="M524.2,525.1c1.53-.49,2.07-2.93,3.24-4,1.59-1.45,4.83-2,6.32-.11,2.78,3.56,7.59-1.66,3.52-4.17-3.85-2.37-8.73-2.74-12.16.59a7.67,7.67,0,0,0-2.47,5.28C522.65,523.4,523,525.49,524.2,525.1Z"/><path id="_Path_6" data-name="&lt;Path&gt;" class="cls-2" d="M556.28,519c1.43-1.12,2-2.82,3.85-3.47,2.11-.74,3.63.15,5,1.7,2.08,2.4,6-.09,4.17-2.86a8.62,8.62,0,0,0-9.92-2.88c-2.43,1-5.58,4.6-4,7.34A.66.66,0,0,0,556.28,519Z"/><path id="_Path_7" data-name="&lt;Path&gt;" class="cls-2" d="M630.22,551.83a6.61,6.61,0,0,0-4.64-.39c-1.29.44-2.94,2.27-1.49,3.52s3.05.3,4.52,1.13,1.47,2.07,2.07,3.49a2.12,2.12,0,0,0,3.86,0C636,556.45,633,553,630.22,551.83Z"/><path id="_Path_8" data-name="&lt;Path&gt;" class="cls-2" d="M596.86,541a1.13,1.13,0,0,0,1.15,1.54,8.42,8.42,0,0,1,3.37.29c1.27.51,1.44,1.47,2.28,2.41a2,2,0,0,0,3.51-.9C608,539.54,598.61,536,596.86,541Z"/><path id="_Compound_Path_4" data-name="&lt;Compound Path&gt;" class="cls-2" d="M707.81,534.46C702,528.06,694.26,524.26,686,525c-4-2.58-9.25-3.84-13-1.54-18.67-18.62-51-23.94-73.95-10.78a42.44,42.44,0,0,0-7.93,6,83.11,83.11,0,0,0-.58-14.69c-.48-3.84-1.05-8.39-2-12.84,10.86-8.83,19-21.68,21.23-35.25a2.72,2.72,0,0,0-2.58-3.32,2.44,2.44,0,0,0-1.43-.41c-7.5.4-13.86,2.11-21.47.5s-14.59-5-21.66-8c-12.75-5.39-25.92-8.47-39.83-8-12.5.45-26.09,3.27-36.57,10.44-6.1,4.18-17.31,16.49-13.14,25-3.13,2.22-5.62,6.17-7.39,9a43.3,43.3,0,0,0-6.1,16.07A46.37,46.37,0,0,0,469.09,533l0,0c-.82,6,1,12.54,6,16.29a12.34,12.34,0,0,0,11.19,2c4.73,9.24,15.6,15.47,25.25,18.21-4.48,3-8.86,11.3-10.36,14.4-2.46,5.1-.42,8.46,3.22,10.26A77.14,77.14,0,0,0,503,606.3c-.13,3.26-.64,7,.58,10.09-2.79,2.09-5.36,4.59-6.83,5.89a92.68,92.68,0,0,0-11.51,12.27c-1.87-4-4.17-8-5.9-11.93a3,3,0,0,0-5.81.49c-1.75,6.89.3,15.6,6.54,19.65a3.82,3.82,0,0,0,.42.23,2.3,2.3,0,0,0,3.12,1.59l1-.38a2.53,2.53,0,0,0,2.8-1.09,94.17,94.17,0,0,0,9.11-4.25,53.92,53.92,0,0,0,6.32-3.54,57,57,0,0,0,.17,8.33c.25,5.61.77,11.23,1.53,16.79,1.36,9.92,2.87,21.9,7.26,31a2.7,2.7,0,0,0-.18.3,6.35,6.35,0,0,0-.67,2.75c-8.73.2-23.82,1.85-18.63,9.49,2.72,4,10.74,2.18,14.67,2.14,5.09,0,10.82.07,12.84-5.54a3,3,0,0,0,.18-1.12,2.17,2.17,0,0,0,.65-.9c2.76-7.36,7.28-13,11.28-19.44,6.6-1,13.58-4.14,18.17-6.12,2.72-1.18,5.38-2.48,8-3.87l.39.7a1.45,1.45,0,0,0,1.44.81q8.13,10.55,16.3,21.07a2.73,2.73,0,0,0-2.22,3.92l0,0a2.24,2.24,0,0,0,.76,3.43c7,3.61,15.37,3.37,22.77,1.11,2.58-.78,2.12-4.7-.44-5.12l-15.71-2.57a2,2,0,0,0,.2-1.07c-.24-3.4-.6-6.79-1-10.17-.1-1.5-.22-3-.36-4.5A65.62,65.62,0,0,0,579,665.48a32.65,32.65,0,0,0-1.79-8.8l-.07,0a1.77,1.77,0,0,0-.19-.27c2.25-1.88,4.44-3.83,6.54-5.89,5.42-5.31,14.95-14.85,17.39-24.12,6.78,2.49,14.54-2.65,17.26-8.84a11.81,11.81,0,0,0,.29-8.18l1.12.14c8.76.87,22.79-1.66,27.67-10.33a11.31,11.31,0,0,0,9.38-.21,2.7,2.7,0,0,0,1.4.2,23.18,23.18,0,0,0,4.77-1c.44,12,1.54,24.09,2.3,36.09a2.84,2.84,0,0,0,4.06,2.22,1,1,0,0,0,1.09-.26c.69-.61,1.36-1.24,2-1.86,21.41-15.7,40.53-40.31,44.22-67C718,555.67,715.94,543.34,707.81,534.46Zm-37.39,94.08c0-.42,0-.84-.07-1.26a150.87,150.87,0,0,0,22.93-86.45c5.64,29.28-6.08,59.91-20.35,85.72C672.11,627.22,671.27,627.89,670.42,628.53Zm15.83-56a43.87,43.87,0,0,0,1-23c2.41-1.48,4-4.59,4.81-7.19a150.33,150.33,0,0,1-20.89,80.56,245.55,245.55,0,0,0,10.54-40.9A44.68,44.68,0,0,0,686.25,572.5Zm-9.9,51.2c6.57-13.42,13.17-26.75,16.78-41.44,3.9-15.89,4.4-32.69-.31-48.45a.48.48,0,0,0-.44-.36c-.07-.25-.12-.51-.2-.76,18,11.68,14,35.77,8,53.39A113.64,113.64,0,0,1,685,615.4,118.58,118.58,0,0,1,676.35,623.7Zm3.92-96a1.12,1.12,0,0,0,1.11.61l.67,0a8.73,8.73,0,0,1,4.36,4,10.28,10.28,0,0,1,.48,8.59,8.56,8.56,0,0,1-1.37,2.3,53.36,53.36,0,0,0-4.65-9.86,50.85,50.85,0,0,0-4.32-6.05A21.52,21.52,0,0,1,680.28,527.74Zm-90.12.75a38.92,38.92,0,0,1,19-14c16.17-5.85,35.85-3.3,50.39,5.69,13.31,8.23,22.67,22.68,22.7,38.59a37.25,37.25,0,0,1-7.35,22.2,33.72,33.72,0,0,1-10.18,8.93,10.87,10.87,0,0,0,.27-1.39,11.43,11.43,0,0,0,0-2.48c14.17-13.05,19.06-35.69,7.33-52-.2-.27-.68,0-.53.3,7.68,15.25,7.29,32.33-3.5,45.08a49.08,49.08,0,0,0,3.63-17.58c.07-3.4.67-15.39-4.36-16.52-5.88-1.32-3.32,7.53-2.91,9.9A38.73,38.73,0,0,1,662.06,577c-1.61-1.94-3.89-3.23-5.55-5.25a23.53,23.53,0,0,1-4.79-10.13c-1.51-7.58,1.92-13.08,4.92-19.62.25-.55-.21-.93-.68-.93a.7.7,0,0,0-.76-.47c-9.82,1.8-19.09,3.2-29,1.1a50.14,50.14,0,0,1-13.81-5.12c-2.83-1.56-5.42-4.21-8.2-6.11,14-2.94,28.06-6,42.13-7.54a1.26,1.26,0,0,0,.35-2.4c-18.11-7.53-39.92-3.29-54.28,9.68l-.52.09a1.36,1.36,0,0,0-1.16,1.51c-.73.73-1.44,1.49-2.12,2.26.43-1.43.83-2.87,1.17-4.33.06-.28.11-.56.17-.84Zm77,25.49c-.09-.45-1.08-4-1-4.09,1.47-1,2.41,3.35,2.48,3.86a47.76,47.76,0,0,1,.39,11.15,49.53,49.53,0,0,1-5,17.6,10.52,10.52,0,0,0-.81-1.52A41.48,41.48,0,0,0,667.19,554Zm-56.38,63.51a11.91,11.91,0,0,0-7.09-5.81,7.28,7.28,0,0,1,2-2.18,27.4,27.4,0,0,1,3.56,3.5,19.54,19.54,0,0,1,1.51,2.26c.28.49.47,1,.71,1.47C611.26,617,611,617.24,610.81,617.49Zm-65.84.85a2,2,0,0,0-.27.14c-3.78-1.6-7.95-1.87-11.82-3.14a23.06,23.06,0,0,0-5.14-4.61,13.74,13.74,0,0,0-11.06-1.49q-.16-3.37-.21-6.74a7.79,7.79,0,0,0,8.43,1.19c.54.08,1.07.16,1.59.25a28.08,28.08,0,0,0,3.12.41c5.48,2.05,11.67,2.9,17.12,4.19,4.64,1.1,9.29,2.29,14,3.29-1.48.76-2.91,1.7-4.17,2.25C552.75,615.73,548.74,616.74,545,618.34ZM523.51,682.8l-7.3-2.61a17.15,17.15,0,0,1,4.72-.35,26.83,26.83,0,0,0,4,1.28Q524.19,681.94,523.51,682.8ZM563,590.16c2.15,2.25,4.35,4.49,6.64,6.55-1.83-.25-3.67-.52-5.49-.84a13.39,13.39,0,0,0-1.65-5.28C562.72,590.45,562.88,590.31,563,590.16Zm32,12.55c.14,5.47-12.54,6-16.13,6.07-6.4.05-12.78-1.18-19-2.52-5.87-1.27-11.71-2.66-17.56-4-4-.92-8.28-2.17-12.5-2.56a14.5,14.5,0,0,0,1-1.54c.57-1-1-2-1.71-1.09-2.8,3.63-10.74,1.64-9.83-3.56,1.11-6.35,9.5-2.21,12.85-.84a147.84,147.84,0,0,0,21,6.88C565.93,602.66,581.77,605.46,595,602.7ZM525,662.56c-.56-2.84-1-5.71-1.28-8.61-.6-6.06-.2-12.16-.65-18.22l.19-.15a12,12,0,0,0,1.22-1.25C524.49,643.74,524.7,653.15,525,662.56Zm-17.93-22.48,0-.44.62.21A1.25,1.25,0,0,0,507.07,640.08Zm8.52,2.44-.78-.28a5.5,5.5,0,0,0,.81.07Zm-.42,2.72,0,.33L514,645.1Zm.89-5.09a9.31,9.31,0,0,0-2.62-1,14.19,14.19,0,0,0,2.92-.28Q516.2,639.53,516.06,640.15Zm-9.2-3.2c.15.12.31.22.46.33a4,4,0,0,1-.42.08Zm7.91,12.16q-.09,1.08-.15,2.14c-2.18-.48-4.38-.95-6.6-1.21q-.11-.91-.22-1.83A18.62,18.62,0,0,0,514.77,649.1Zm-6.56,2.49,1.22.36-1.16.07Zm6.27,2.08c0,.57,0,1.13-.07,1.69s-.06,1.35-.09,2a28.91,28.91,0,0,1-5.71-3.3Zm.12,13.92c-.23-.2-.47-.38-.7-.59l.62.1C514.55,667.27,514.59,667.43,514.61,667.6Zm2.28,6.44a11.64,11.64,0,0,0,1.77,2.17,22.94,22.94,0,0,1-3.31-2.45Zm5.69-3.59c-1.77-2.18-2.24-5.89-2.26-9.62a1.21,1.21,0,0,0,0-1.2c0-1.86.16-3.68.27-5.29a102.68,102.68,0,0,0,3.64,17.49A5.45,5.45,0,0,1,522.58,670.45Zm-3.34-39.29c-3,2.61-8.37,3.29-10-.93a6,6,0,0,0,8.56.17c.22-.21-.11-.54-.35-.38a6,6,0,0,1-8.51-1.6,19.3,19.3,0,0,1,1.26-6.5c2.37-1.34,5.55-1.88,7.8-.78A6.07,6.07,0,0,1,519.24,631.15Zm-2.39-45.23c.23-2.44.61-5,.92-7.51a22.7,22.7,0,0,0,3.76,5.44A10.6,10.6,0,0,0,516.85,585.92Zm42.53-.23c-1.36-1.85-2.77-3.62-3.86-5.26-.31-.47-.62-.95-.92-1.43a18.42,18.42,0,0,1,4,3.07C560,583.65,559.92,584.72,559.39,585.69ZM544,571v0c-.07.36-.16.71-.23,1.06-.07-.34-.17-.67-.25-1Zm-25.4,0c.45,4.14,7.39,6.74,10.9,6.93,3.21.17,8.53-1.09,11.34-3.79a26.6,26.6,0,0,1-3.58,10.6c-.24.4.43.82.69.44a25.69,25.69,0,0,0,4.39-10.85,24.89,24.89,0,0,1,.13,4.91c-.43,2.38-.9,4.74-1.54,7.06-.27,1,1.33,1.47,1.68.52a28.55,28.55,0,0,0,1.31-4.79c.64-2.41,1.24-4.91,1.65-7.39,1.6,3,3.72,5.91,5.48,8.77,2,3.31,4,7.85,6.77,11.13a135,135,0,0,1-19.42-5.85c-4.8-1.86-9.85-5.14-15.16-5.08-.19,0-.37,0-.56,0a21.82,21.82,0,0,1-4.64-8.68,38.16,38.16,0,0,0,.1-4.06Zm3.23.45a81.5,81.5,0,0,0,15.7.29c-2,2-5.39,2.65-8.11,2.56A11.54,11.54,0,0,1,521.88,571.49Zm-10.71,75.08c-1.22-.17-2.43-.52-3.64-.77l-.08-.8ZM509.29,659c-.11-.67-.21-1.34-.31-2q.65.42,1.33.81c-.44.48-.5,1.3.27,1.54,1.2.38,2.43.67,3.66.94,0,.74,0,1.48,0,2.23-1.56-.91-3.14-1.79-4.77-2.56Zm4,11.93-1.14-.16a1.17,1.17,0,0,0-.64.11c-.12-.56-.23-1.13-.34-1.69A25.71,25.71,0,0,0,513.26,670.92ZM517,677.8a21.67,21.67,0,0,0-3.68.88c-.25-.91-.5-1.83-.71-2.74-.16-.67-.3-1.35-.45-2A28.44,28.44,0,0,0,517,677.8Zm-2.79,4,4.47,1.59a8.67,8.67,0,0,0-3.71,1.12Q514.6,683.18,514.2,681.83Zm14-9.2c-.41-10.22-.87-20.47-1.51-30.69a137.19,137.19,0,0,0,9,29.06A26.71,26.71,0,0,1,528.24,672.63Zm7-4.44A117.85,117.85,0,0,1,526.31,636c-.09-1.32-.2-2.63-.3-4a12.18,12.18,0,0,0,1.32-5.73c.59,3.14,1.27,6.25,2,9.34l.18.94q1.76,9.66,3.63,19.29c.69,3.57,1.41,7.14,2.13,10.71,0,.23.45,2.17.69,3.36C535.76,669.33,535.37,668.59,535.2,668.19Zm-13.07-51.65a12.09,12.09,0,0,0-4.63-1.89c2.52-1.64,5.47-.57,8.24,1.37.27,2.18.59,4.34.94,6.49A11.72,11.72,0,0,0,522.13,616.55Zm43.44-3.74c2.07.37,4.14.68,6.23.92,5.37.6,18.25.86,25.1-3.18a20.47,20.47,0,0,0-1,2.43.42.42,0,0,0-.28,0,72.9,72.9,0,0,1-30.09-.06ZM590.8,615l-.17.06a32.36,32.36,0,0,1-6.8,1.37,29.24,29.24,0,0,1-11.46-1.29l1.18.14A63.26,63.26,0,0,0,590.8,615Zm-23.22-.59c.76.15,1.53.27,2.3.39,0,0,0,.05.06.07a30.71,30.71,0,0,0,25.63-.84,12.83,12.83,0,0,0-.23,6.66c-.12.29-.24.59-.36.88-6.82,1.53-13.23,1.72-20-1.1-2.79-1.16-6.79-3-8.66-5.49C565.07,613.31,564.76,613.83,567.59,614.39Zm42.55-2.65a13.38,13.38,0,0,0-3.37-2.79,7.32,7.32,0,0,1,2.11-.44c.43.86.93,1.69,1.39,2.51a19.57,19.57,0,0,0,2.36,3.63c0,.11-.06.23-.11.34v0A15.2,15.2,0,0,0,610.13,611.74Zm1.41-1.59c-.37-.55-.73-1.12-1.11-1.67h.25a6.43,6.43,0,0,1,2.09,3.55C612.38,611.38,611.95,610.75,611.54,610.15Zm-10.24-5.56v-.06l0,0Zm-23-7c-.75-.05-1.5-.14-2.25-.2a93.82,93.82,0,0,0-10.91-10.56,7.23,7.23,0,0,0-1.22-7.11c-2.33-2.73-6-4.67-9-6.65-1.46-1-3.1-2.32-4.84-3.27a64.73,64.73,0,0,0,13.41-4.75,45.09,45.09,0,0,0,11.39-8c-.3.9-.57,1.8-.8,2.68-3.13,11.91-.41,24,8.56,32.61a57,57,0,0,0,6.91,5.62C585.79,597.85,582,597.88,578.3,597.62Zm22-69.08a2.93,2.93,0,0,0-.41-.08c12.08-7.64,26.3-10.16,41.16-6.83-13.11,3.09-26.68,5-40,7.16C600.81,528.69,600.57,528.6,600.33,528.53ZM471,526.8a40.86,40.86,0,0,1-6.13-29.6,43.54,43.54,0,0,1,5.73-14.68c2.26-3.69,6.6-6.94,7.64-11.17a.77.77,0,0,0-.82-.89h-.07c1.66-3.84,2.47-8.15,5.14-11.68,4-5.32,9.91-8.85,16.07-11.19,12.64-4.79,26.78-5.65,40-3.29,7.79,1.39,15,4.29,22.14,7.3-2.37-.23-4.73-.46-7.08-.72-9.49-1.06-19-2.3-28.49-3.13-14-1.22-29.42,0-38.45,12.24-.33.45.31,1,.67.56,11.22-13.65,29.89-11.73,45.56-9.77,12.66,1.58,25.46,3.79,38.23,5.09,1.85.71,3.72,1.39,5.61,2a70,70,0,0,0,9.53,2.41,67.85,67.85,0,0,1-12.11.15c-9.13-.63-18.09-2.62-27.15-3.81-17-2.22-35.62-2.09-52,3.39a.31.31,0,0,0,.13.59c9.64-1.38,19.11-3.06,28.88-3.26a160,160,0,0,1,30.92,2.8c8.76,1.53,17.57,3.21,26.5,3.08a70.84,70.84,0,0,0,10.08-.76c-.18.15-.36.31-.55.46a39.78,39.78,0,0,1-11.25,5.7,196.58,196.58,0,0,1-23.3,6c-16.69,3.56-34.42,4.65-49.63-4.39-.44-.26-.92.48-.49.77,15.47,10.1,34.1,9.18,51.52,5.7,12.15-2.43,32-4.91,40.61-16l.32-.14c.61-.11,1.2-.25,1.79-.41-3.69,5.13-7.22,9.85-12.33,14.07a72.85,72.85,0,0,1-18.51,11.15,74.25,74.25,0,0,1-48.66,2.44c-.54-.15-.68.7-.15.86a75.49,75.49,0,0,0,50.28-1.8A80.91,80.91,0,0,0,599,468a57.8,57.8,0,0,1-23.53,25.11c-16.48,9.35-37.17,9.49-54.23,1.61-.26-.12-.42.25-.18.4a60.54,60.54,0,0,0,27.41,8.66,52.38,52.38,0,0,1-21.89,0,54.72,54.72,0,0,1-19.92-9c-5.89-4.21-9.68-10.08-14.83-15-.29-.27-.67.08-.59.41a19.25,19.25,0,0,0,1.3,3.44c-.18,8.19,1,16.31.23,24.59a143,143,0,0,1-3.19,19.63c-1.22-3.82-2.49-7.62-3.7-11.42a.61.61,0,0,0-.39-.4,80.08,80.08,0,0,1-.42-17.36,59.12,59.12,0,0,0,2.84,20.6c.28.82,1.65.57,1.52-.33-1.92-13.2-3.38-25.32-.52-38.6.18-.83-1.17-1.29-1.45-.45A79.68,79.68,0,0,0,483.29,513c-4.3-9.9-4.38-20.13-2.15-30.55q1.34-2.3,2.85-4.56a.63.63,0,0,0-1-.81c-.27.26-.51.55-.77.82.19-.7.39-1.39.59-2.09,0-.1-.12-.13-.17-.05a31.45,31.45,0,0,0-2.17,4.12c-7.32,8.92-10.38,20.86-9.89,32.41-3.34-13.4.09-27.6,8.72-38.88a.48.48,0,0,0-.73-.62c-12.62,12.86-14.68,33.34-6.73,49.2a1.11,1.11,0,0,0,2.08-.74c-2.56-11.67-.67-22.54,4-32.7-1.61,10.28,1,21.39,6.11,30.17a.8.8,0,0,0,.7.39c.13,1.19.25,2.38.38,3.57a7.82,7.82,0,0,0-5.73-2.45C475.38,520.2,472.62,523.28,471,526.8Zm20.57,21.08c2.46-3-1.53-6.5-4.61-4.8-7.1,3.92-13.15-2.08-12.89-9.36a15.18,15.18,0,0,1,1.21-5.8c1.32-2.92,2.09-3.58,5.39-3.34,2.9.22,3.69.73,5,2.8.37,3.49.78,7,1.28,10.44.37,2.54,4.15,3.63,5.24.92a79.72,79.72,0,0,0,6.27-29.28c0-6.21-.33-13.52-2.11-20a59,59,0,0,0,9.51,8.88,53.69,53.69,0,0,0,20.07,9.47c12,2.89,27.8,1.76,39-5.16A56.72,56.72,0,0,0,578,498c1.41-.7,2.79-1.49,4.15-2.32a52.62,52.62,0,0,1,1.33,5.81,74.27,74.27,0,0,1,.44,22.81c-.24,1.59-.56,3.17-.93,4.73a29.15,29.15,0,0,0-3.73,10.57,41.13,41.13,0,0,1-16.69,18.41C550,565.13,533,566.58,519,564.37a43,43,0,0,1-19.58-7.87A37.46,37.46,0,0,1,491.53,547.88Zm22.53,25.22c-1.26,5.14-1.35,11-1.74,15.72,0,.5-.07,1-.1,1.5a3,3,0,0,0-1.25-.26C500.28,590.11,509.6,579.45,514.06,573.11Zm-6.37,34.69a73.7,73.7,0,0,1,1.06-12.33,19.85,19.85,0,0,0,2.7.24,2.93,2.93,0,0,0,.49,0c-.2,5.78-.07,11.57.24,17.34l-.06.1a6.35,6.35,0,0,0-4.11.58C508,611.75,507.69,609.77,507.69,607.8Zm-12.4,26c-1.68.95-3.39,1.8-5.13,2.62a96.58,96.58,0,0,1,10.73-11.21c1.51-1.34,3.07-2.61,4.64-3.86-.18.34-.35.67-.51,1a14.61,14.61,0,0,0-1.59,7C500.43,630,498,632.23,495.29,633.76Zm10.17,66.76c-.4,0-.9,0-1.44,0l.9-.17a42.82,42.82,0,0,1,8.25-.47C511,700.89,507.23,700.51,505.46,700.52Zm12.33-8.4a10.38,10.38,0,0,0-1.48-1c0-.07,0-.14,0-.22-.07-.54-.16-1.07-.26-1.61a4.1,4.1,0,0,0,1.93-.63c.81-.51.12-1.66-.73-1.42l.23-1.13,2.61-.26,1.35-.13A56.33,56.33,0,0,0,517.79,692.11Zm19.12-21.52q-2.08-11.91-4.3-23.79a160.86,160.86,0,0,0,9.2,22.06c-.75.27-1.51.55-2.27.8S537.87,670.26,536.92,670.59Zm38.47,8.11-.17-.19a6.78,6.78,0,0,0-.17-1.73c.07-.05.13-.11.2-.17C575.31,677.31,575.36,678,575.39,678.7ZM570.45,673c1.16-.42,2.05.09,2.67,1.55a1.83,1.83,0,0,0-.93.48ZM567,669.11c-.4-.42-.8-.83-1.2-1.24l3.51-1Zm7-2-1.2.4,1.08-1Zm.55,3.19c0,.15.05.3.07.45a4.07,4.07,0,0,0-.42-.23ZM572.26,663l.71-.5.08.27Zm7.83-18.78a102.29,102.29,0,0,1-26,19.28,97.54,97.54,0,0,1-10.36,4.63c-1.85-.61-2.86-3.56-3.77-5.53q-1.88-4.07-3.52-8.24a155.1,155.1,0,0,1-5.63-17.16q-1.9-10.12-3.8-20.24a77.91,77.91,0,0,1,6.25,6c5,4.94,9.94,9.81,15.15,14.49a.66.66,0,0,0,1-.87c-3-4.2-6.19-8.3-9.42-12.34a54.17,54.17,0,0,1,13.45,5c.41.24.9-.26.74-.68a17.73,17.73,0,0,0-4.76-7.2,47,47,0,0,0,8.74-3.59c1.81-.93,4.41-2,6.17-3.52,7.54,7.55,19.71,11.71,30.16,8.55a48.49,48.49,0,0,1-4.23,9.08A84,84,0,0,1,580.09,644.25Zm23.5-23.74c-4-1-1.69-5.62-.35-8a24.89,24.89,0,0,1,3,2,21.77,21.77,0,0,1,3.46,4C607.86,620,605.56,621,603.59,620.51Zm42.9-29a2.7,2.7,0,0,0-3.76,2.84c-3.13,2.71-5.63,5.5-9.83,7.09a29.23,29.23,0,0,1-15.3,1.12c-10.67-1.81-22.83-7.51-30.65-15.09-8.08-7.84-9.4-18.83-5.82-29.22,3.42-9.92,11.43-16.87,16.41-25.66,2.08,4,7.33,6.47,11.17,8.43a58.38,58.38,0,0,0,15.94,5.34c9,1.64,19.28,1.34,27.74-2.61-4.56,4.89-6.13,13-5.27,19.25a29.07,29.07,0,0,0,7,14.66c-2.21.83-3.9,2.72-3.49,5.38a.88.88,0,0,0,1.39.6c5.34-3.61,8.57,3,5.47,7.24S650.24,593.27,646.49,591.5Zm32.59-5.69c-2.54,11.83-5.42,23.52-9.07,35.08-.45-8.44-.91-16.88-1.7-25.27A39.22,39.22,0,0,0,679.08,585.81Zm29.72-10.55a95.94,95.94,0,0,1-11.13,23.91,118.89,118.89,0,0,0,7-18.88c4.52-16.4,6.47-42.18-13.25-49.47-.17-.35-.34-.7-.54-1s-.24-.38-.37-.57a29.22,29.22,0,0,1,16.41,12.61C713.09,551.75,712,564.51,708.81,575.26Z"/><path id="_Compound_Path_5" data-name="&lt;Compound Path&gt;" class="cls-2" d="M623.59,488.63l.48-.08c.26.31.53.61.8.89.86.9,2.17-.1,2.16-1.12,0-.1,0-.19,0-.29a66.76,66.76,0,0,0,20.59-7.6c6.54-3.76,16-10,18.59-17.55,2.38-6.86-2.47-12-9.23-12.32a26.24,26.24,0,0,0-12,2.53,1,1,0,0,0-.24-.1,8.89,8.89,0,0,0-.85-2.1c-3.21-5.64-10.55-6.86-16-4-12.19,6.39-12.85,25.75-6.56,37.51C619.71,486,621.07,489.43,623.59,488.63Zm.18-25.1c.11-.62.24-1.26.4-1.9,2-1.29,4.08-2.62,6.09-4l-6.51,6C623.76,463.63,623.76,463.58,623.77,463.53Zm-.35,3,6.07-4.31-6.12,5.49C623.38,467.32,623.39,466.93,623.42,466.53Zm10.85-3.92c0,.06.06.12.09.19l-10.71,10.85c-.13-1-.21-2-.26-3Zm3.39-9.81a5,5,0,0,1,.7.82l-6.53,4.66Q634.72,455.51,637.65,452.79ZM660.88,458a1.8,1.8,0,0,0-.32.25l-.6.61.79-1.06C660.79,457.89,660.84,458,660.88,458Zm-15.66,17.9A60.29,60.29,0,0,1,639,479.1l9.32-9.44L645,473.94A1.39,1.39,0,0,0,645.22,475.93Zm-6.15-19.38c-.87.63-1.7,1.31-2.51,2l-1.45,1.08,4-3.61A3.2,3.2,0,0,1,639.07,456.56Zm-14,24.11-.14-.61,4.23-3.88Zm-.77-3.45c-.09-.46-.19-.92-.27-1.39a.81.81,0,0,0,.33-.17l7.82-6.55Zm2,5.87,12.82-12.58-7.94,9.91a1.21,1.21,0,0,0-.09,1.5C629.45,482.37,627.86,482.76,626.24,483.08Zm8.9-2.48-.88.31.73-.75A1.12,1.12,0,0,0,635.14,480.61Zm20.49-24.91a8,8,0,0,1,2.64.31l-2.19,2.25a1.3,1.3,0,0,0-2.23-1.1l-4.47,4.58,4.73-5.93C654.61,455.76,655.12,455.72,655.63,455.7Zm-25.82-3.25a6.5,6.5,0,0,1,6.35-.65l-1.09.67a.66.66,0,0,0-.86-.33,40.94,40.94,0,0,0-8.67,5.43A11.6,11.6,0,0,1,629.81,452.45Z"/><path id="_Compound_Path_6" data-name="&lt;Compound Path&gt;" class="cls-2" d="M659.65,480.65c-7.1,3-4.59,14.5-1.76,20l-.46.33a2.12,2.12,0,0,0,1.9,3.73,37.06,37.06,0,0,0,15.8-8.65c3.43-3.19,9-8.95,7.69-14.24-1.17-4.82-6.55-4.89-10.19-2.88a18.44,18.44,0,0,0-5.16,4.32l-.1-.15A6.49,6.49,0,0,0,659.65,480.65ZM661.44,497l1.77-1.72-1.61,2.54Zm10.25-9.79-1.14,1.24.58-.95a1.06,1.06,0,0,0,.17-.79l.16-.2A3.34,3.34,0,0,0,671.69,487.25Zm-1.07,6.93-.2.17.18-.2Zm-7.18-6.73-2.1,1.49c.49-1,.94-2.06,1.34-3.11h0A1.86,1.86,0,0,1,663.45,487.46Zm12.93-4.24-.18.2a1.35,1.35,0,0,0-.7,0l0,0-.18-.08c.22-.13.43-.26.66-.38C676.09,483,676.23,483.13,676.37,483.22Z"/></g><g id="_Group_4" data-name="&lt;Group&gt;"><path id="_Path_9" data-name="&lt;Path&gt;" class="cls-2" d="M492.66,162.55c1.53-.49,2.07-2.93,3.24-4,1.59-1.45,4.83-2,6.32-.11,2.78,3.56,7.59-1.66,3.52-4.17-3.85-2.37-8.73-2.74-12.16.59a7.67,7.67,0,0,0-2.47,5.28C491.11,160.85,491.44,162.94,492.66,162.55Z"/><path id="_Path_10" data-name="&lt;Path&gt;" class="cls-2" d="M524.74,156.48c1.43-1.12,2-2.82,3.85-3.47,2.11-.74,3.63.15,5,1.7,2.08,2.4,6-.09,4.17-2.86a8.62,8.62,0,0,0-9.92-2.88c-2.43,1-5.58,4.6-4,7.34A.66.66,0,0,0,524.74,156.48Z"/><path id="_Path_11" data-name="&lt;Path&gt;" class="cls-2" d="M637.19,154.41a6.61,6.61,0,0,0-4.27,1.84c-.93,1-1.52,3.39.34,3.8,1.68.38,2.84-1.17,4.52-1.13s2.27,1.14,3.47,2.1a2.12,2.12,0,0,0,3.43-1.78C644.45,155.79,640.19,154.18,637.19,154.41Z"/><path id="_Path_12" data-name="&lt;Path&gt;" class="cls-2" d="M602.66,160.53a1.13,1.13,0,0,0,1.74.82,8.42,8.42,0,0,1,3.11-1.33c1.36-.14,2,.62,3.15,1.06a2,2,0,0,0,2.67-2.44C611.78,154,601.85,155.29,602.66,160.53Z"/><path id="_Compound_Path_7" data-name="&lt;Compound Path&gt;" class="cls-2" d="M720.57,127.56c-4-11-11.7-20.92-23-24.94-8.16-2.9-16.75-2.64-23.66,1.89-4.75-.4-10,1-12.16,4.73-25.23-7.66-56.24,2.82-70.34,25.23-6.43,10.23-10.27,29.05-1.3,39.18a54.28,54.28,0,0,0,1.28,14.12c2.84,12,10.9,21.35,22.88,24.76A54.65,54.65,0,0,0,620,213.8a4.35,4.35,0,0,0-.33.75,78.2,78.2,0,0,0-9.49,10.5c-3.6,4.54-7.87,9.62-10.26,15-1.34,3-1.34,6.55,1.72,8.48,2.35,1.48,4.78,1.09,7,0-.71,1.95-1.35,3.89-2,5.66-2,5.41-3.7,10.93-5.22,16.5s-2.85,11.36-3.93,17.11c-.89,4.75-3.13,11.3-1.37,16a3.12,3.12,0,0,0,1.19,4.54c1.95.88,4,1.65,6,2.35-2.25,5.35-.79,12.66,1,18.28-5.36-.59-11.27,3.19-14.31,7.15a2.07,2.07,0,0,0,1.74,3.35q9.94-1.22,19.86-2.6a1.83,1.83,0,0,0,.88-3.32l.37-.8a1.29,1.29,0,0,0-.54-1.72,73.07,73.07,0,0,1,1.33-17.58A124.14,124.14,0,0,0,641,315.5a109.46,109.46,0,0,0,21-2.61,111.52,111.52,0,0,0,1.31,14.36c-5-.55-10.58,1.93-13.84,5.19a2.12,2.12,0,0,0,1.25,3.44,84.55,84.55,0,0,0,23.26-1c2.17-.4,2.79-4,.18-4.22-.32,0-.67-.07-1-.1a5.21,5.21,0,0,0-.1-.9c-.37-6.48-.73-13-1.13-19.43A114,114,0,0,0,685.19,305a4,4,0,0,0,1.93-5.93c-2.22-4.12-4.29-8.32-6.22-12.58.67-.5.69-1.76-.34-1.86l-.53,0a215.25,215.25,0,0,1-9.47-25.71c-2.78-9.32-4.61-18.83-6.66-28.3a23.39,23.39,0,0,0,.2-3.64,10,10,0,0,0-1.5-5c.43-4.2-3.52-9.14-6.57-11.34l-.66-.45c8.09-3.5,18.85-12.16,19.08-21.91a11.31,11.31,0,0,0,8.18-4.59,2.7,2.7,0,0,0,1.33-.48,23.19,23.19,0,0,0,3.73-3.15c6,10.41,12.68,20.54,19,30.78a2.84,2.84,0,0,0,4.64,0,1,1,0,0,0,.82-.72c.32-.86.62-1.73.92-2.6C724.56,183.6,729.87,152.89,720.57,127.56ZM659.5,331.91l-1.92,0a12.29,12.29,0,0,1,1.92-.49A1.24,1.24,0,0,0,659.5,331.91Zm40.7-222.38c10.11,5.88,15.19,17.63,17.38,28.64A95.94,95.94,0,0,1,719,164.5a118.9,118.9,0,0,0-2.7-20c-3.71-16.6-14.1-40.27-34.94-37.45-.31-.23-.63-.46-1-.66l-.59-.33A29.22,29.22,0,0,1,700.2,109.53Zm11.49,86.65c-.5-14.93-.94-29.81-4.66-44.46-4-15.86-11.48-30.92-23-42.62a.48.48,0,0,0-.56-.12c-.18-.19-.35-.39-.53-.58,21.35,1.87,29.17,25,32.13,43.38a113.63,113.63,0,0,1,.38,33A118.51,118.51,0,0,1,711.69,196.17Zm-40.85-57.23c-.29-.36-2.85-3-2.78-3.15.84-1.56,3.7,1.83,4,2.24a47.76,47.76,0,0,1,5.58,9.66,49.52,49.52,0,0,1,3.85,17.89,10.52,10.52,0,0,0-1.43-1A41.48,41.48,0,0,0,670.83,138.94Zm25.46,22.5c3.32,11.63,6.27,23.31,8.48,35.23-4.36-7.24-8.75-14.48-13.4-21.51A39.18,39.18,0,0,0,696.29,161.44Zm10.46,36.39a245.52,245.52,0,0,0-9.92-41.07,44.69,44.69,0,0,0-.47-10.43,43.87,43.87,0,0,0-9.89-20.82c1.43-2.44,1.37-5.92.87-8.61A150.33,150.33,0,0,1,706.76,197.83Zm-36.7-88.2a1.12,1.12,0,0,0,1.27,0c.19-.13.38-.23.57-.35a8.73,8.73,0,0,1,5.73,1.48,10.28,10.28,0,0,1,4.46,7.36,8.55,8.55,0,0,1-.13,2.67,53.36,53.36,0,0,0-8.74-6.52,50.84,50.84,0,0,0-6.66-3.31A21.5,21.5,0,0,1,670.06,109.62Zm-79.2,43A38.92,38.92,0,0,1,601,131.34c11.53-12.76,30.09-19.76,47.15-18.66,15.62,1,30.67,9.37,38.17,23.4a37.25,37.25,0,0,1,3.95,23.05,33.72,33.72,0,0,1-4.79,12.66,10.87,10.87,0,0,0-.42-1.36,11.44,11.44,0,0,0-1.15-2.2c6.38-18.18.05-40.46-18-49.38-.3-.15-.61.31-.32.51,13.95,9.85,21.62,25.11,18.09,41.44a49.08,49.08,0,0,0-5.06-17.22c-1.54-3-6.64-13.9-11.61-12.53-5.81,1.6.6,8.21,2.08,10.1a38.73,38.73,0,0,1,8,20.51c-2.33-1-5-1-7.37-2a23.53,23.53,0,0,1-9-6.7c-4.89-6-4.45-12.45-4.87-19.63a.65.65,0,0,0-1-.5.7.7,0,0,0-.89-.06c-7.82,6.2-15.34,11.79-25.11,14.61a50.15,50.15,0,0,1-14.59,2c-3.23,0-6.76-1.17-10.11-1.54,10.95-9.16,21.94-18.51,33.64-26.45a1.26,1.26,0,0,0-.81-2.28c-19.53,1.86-36.79,15.86-43.36,34.05l-.42.32a1.36,1.36,0,0,0-.31,1.88,47.49,47.49,0,0,0-1.59,7.1A31.72,31.72,0,0,1,590.86,152.63Zm9.75-4.86c-.25,0-.5.07-.74.12a2.93,2.93,0,0,0-.4.12c7.08-12.42,18.44-21.33,33.12-25.37C622.47,131.53,611.41,139.62,600.61,147.77Zm31.5,66.94a12.9,12.9,0,0,1,3,4c1.22,2.56,2.26,5.22,3.38,7.83,1.37,3.16,2.56,7.71,6,9.29a7.42,7.42,0,0,0,7.48-1.19c1.11-.89,5.4-9.13,5.71-8.94a.77.77,0,0,1,.26.32c0,1.25,0,2.5.1,3.75-1.13,8.41-8.15,25.59-16.65,11.85-5.21-8.44-7.39-17.85-10.88-26.88Zm13.79-1.59q-2.27,2.37-4.44,4.8a38.8,38.8,0,0,0-1.75-3.74C641.8,213.93,643.87,213.57,645.89,213.13Zm1,14.92c1.14-.86,2.31-1.71,3.46-2.58-.69,1.8-1,5.12-4.42,2.94a8.8,8.8,0,0,1-1.47-2.89l3.18-3.3-2.25,4.57A1,1,0,0,0,646.88,228Zm-3.56-5.56c-.48-1.09-.94-2.28-1.43-3.49,1.47-1.3,2.92-2.61,4.35-4Q644.78,218.75,643.32,222.48Zm-20,10.27L624.5,231q1.73.55,3.47,1.05c-1.66.4-3.34.8-5,1.27Zm1.76-2.72a43.58,43.58,0,0,0,3.2-5.82c.66,2.38,1.45,4.72,2.29,7C628.76,230.76,626.93,230.38,625.09,230Zm-20.44,12.16c-.45-1.3,3.88-6.39,4.61-7.48q2.24-3.31,4.67-6.49c2.56-3.35,5.47-6.46,8.14-9.74a2.71,2.71,0,0,0,1.48-.7c.47-.45-.06,3.16-.1,3.29a23,23,0,0,1-1.55,3.27,60.36,60.36,0,0,1-4.78,7.87,65.76,65.76,0,0,1-4.54,5.64C611.67,238.86,605.87,245.75,604.65,242.19Zm71.51,52.31-.85.16q-11.08-.11-22.13-.69a90.44,90.44,0,0,0,20.66-4.57Q675,292,676.16,294.5ZM601.46,303a13.32,13.32,0,0,0,.63-1.71,62.35,62.35,0,0,0,8.09,3.71C607.3,304.43,604.39,303.75,601.46,303ZM638,307a77.6,77.6,0,0,1-21-2.2,83.22,83.22,0,0,1-11.16-3.59c-1.16-.47-2.29-1-3.42-1.49.05-.26.1-.51.14-.77a102.1,102.1,0,0,0,54.16,5.19A78.47,78.47,0,0,1,638,307Zm-28.12-7.86a217.81,217.81,0,0,0,63.19-1.72l-.5.27A98.29,98.29,0,0,1,609.93,299.18ZM663,296.59a219,219,0,0,1-60-.69c.15-1.61.27-3.21.5-4.71,6.47,1,13,1.9,19.57,2.54Q643,295.93,663,296.59Zm-57.13,35.76a3,3,0,0,0,2.84.36c0,.12,0,.24,0,.36l-6.1-.09C603.69,332.75,604.77,332.55,605.89,332.35Zm2.78-7.52a40.49,40.49,0,0,1-1.18-6.44c-.22-2.18-.14-4.4-.37-6.57q1.94.55,3.91,1A41.22,41.22,0,0,0,608.67,324.83Zm58.78-5.46.18,4.28.11,2.57q.39,2.81-.14,1.14c-1.29-2.27-1.15-6.5-1.55-9.09-.32-2-.65-4.07-1.08-6.08l2.15-.56Zm-3.14-15.27a78.68,78.68,0,0,0,10.48-4.88q1.54-.58,3.06-1.21c.21.43.42.87.64,1.31A120.64,120.64,0,0,1,664.32,304.1Zm-.58-42.8a198.14,198.14,0,0,0,7.72,22.51c-12.83-1.18-25.67-2.33-38.51-3.36-.85-.07-1.1,1.23-.23,1.33,13.19,1.46,26.39,2.8,39.59,4.1.23.54.47,1.08.7,1.63-14.88,5.19-30.5,5.73-46.13,4.44q-11.53-1.2-23-2.9,1.39-8.24,3.41-16.35c1.53-6.09,3.33-12.11,5.35-18.05,1.49-4.37,3.75-8.76,4.27-13.36,1.35-1.52,2.63-3.11,3.83-4.75a57.42,57.42,0,0,1,6.53,1.79.79.79,0,0,0,.34,1.35,15.81,15.81,0,0,0,5.08.35.65.65,0,0,0,.06-1.29c-.51-.14-1-.25-1.57-.34A96.49,96.49,0,0,1,621.13,236l.28-.4c3.31-.72,6.57-1.86,9.78-2.79.47,1.22.95,2.42,1.42,3.58,2.37,5.79,5.27,13.59,11.7,16,6.79,2.5,12-2.2,15.4-8.53C660.75,249.74,662.17,255.62,663.74,261.3Zm-7.47-42.13,0,.07-.39.08a6.43,6.43,0,0,0-2.8,1.67,38,38,0,0,0-4,2.73l3.09-6.34c.51-1-.91-1.84-1.66-1.05l-4.78,5q1.7-4.51,3.39-9l.32-.09a13.59,13.59,0,0,1,3.8,2.44A12,12,0,0,1,656.26,219.17ZM679.61,176c-.73,5-5.28,5.57-9.42,5.76a2.7,2.7,0,0,0-2,4.27c-1.49,3.87-2.38,7.5-5.35,10.87a29.23,29.23,0,0,1-13,8.18A62,62,0,0,1,633.12,208a7.32,7.32,0,0,0-4.43,0,52.43,52.43,0,0,1-12.95-1.89c-10.82-3.12-17.15-12.21-18.87-23.06-1.64-10.37,2.16-20.26,2.43-30.36,3.71,2.55,9.51,2.27,13.82,2.19a58.38,58.38,0,0,0,16.58-2.78c8.69-2.77,17.64-7.88,23.26-15.34-1.73,6.46.7,14.36,4.39,19.47a29.07,29.07,0,0,0,13.08,9.65c-1.56,1.77-2.16,4.23-.55,6.39a.88.88,0,0,0,1.51-.13C674.4,166.51,680.37,170.85,679.61,176Zm29.11,27.2-.65-1.08a150.86,150.86,0,0,0-20.38-87.08c18.73,23.2,22.79,55.74,22.32,85.22C709.59,201.27,709.17,202.26,708.73,203.23Z"/><path id="_Compound_Path_8" data-name="&lt;Compound Path&gt;" class="cls-2" d="M594.39,219.42a7.28,7.28,0,0,0-6.9-8.4c2.82-4.24,4-9.91.36-13.09-3.29-2.87-7.29-1-9.88,2.28-1.45-7.18-4.81-14-9.88-10-3.86,3.1-4.36,10.51-2.38,16.4-4.29-2.55-9.5-2.73-11.7,3-1.37,3.55.82,6.77,4,8.31a19.51,19.51,0,0,0,4.62,1.4,6.84,6.84,0,0,0-1.23.89,5.78,5.78,0,0,0-1.59,6.67,6,6,0,0,0,6.11,3,7.1,7.1,0,0,0,1.61-.37q-.88,1.94-1.66,3.94a10,10,0,0,0-4.77,2.42c-4.26-.91-8.48-1.39-12.67-3.21a60.54,60.54,0,0,1-8.72-5.25l.44-.66a3.12,3.12,0,0,0-.36-4.28c-5.87-5.28-9.21-11.28-13.13-17.65,1.84-.69,3.63-1.45,5.34-2.3,14-6.91,22.83-20.34,26.24-35.34a74.68,74.68,0,0,0,.9-25.74c-.48-3.84-1.05-8.39-2-12.84,10.86-8.83,19-21.68,21.23-35.25A2.72,2.72,0,0,0,575.71,90a2.44,2.44,0,0,0-1.43-.41c-7.5.4-13.86,2.11-21.47.5s-14.59-5-21.66-8c-12.75-5.39-25.92-8.47-39.83-8-12.5.45-26.09,3.27-36.57,10.44-6.1,4.18-17.31,16.49-13.14,25-3.13,2.22-5.62,6.17-7.39,9a43.3,43.3,0,0,0-6.1,16.07,46.37,46.37,0,0,0,9.42,35.84l0,0c-.82,6,1,12.54,6,16.29a12.34,12.34,0,0,0,11.19,2c5,9.76,16.85,16.17,26.87,18.65.41.1.84.18,1.25.28-3,1.74-5.49,4.74-7.56,7.22a66,66,0,0,0-9.26,15.2,3,3,0,0,0,.78,3.48c.85.57,1.71,1.09,2.59,1.59-2.58,7.24-2.46,16.29-2.26,23.53.26,9.34,1.4,20.37,5.57,28.87a2,2,0,0,0,.11.17q0,2.31.11,4.64l-.6,0c-1.33,0-1.48,1.86-.42,2.41.38.2.76.36,1.14.55.69,14.77,2.9,29.64,7.57,43.19,0,0,0,.08.05.12l0,.05c-6.12-4.36-16.5-1.71-22.58,1.27-2.13,1-2.34,4.49.42,4.92a103.67,103.67,0,0,0,27.16.69c3.1-.33,3-4.35.22-5.15l-1.34-.42a2.28,2.28,0,0,0,1.46-2.65l-.13-.65c.19-.31.39-.62.57-.94s.61-.62.94-.9a.28.28,0,0,0-.15-.45c1.88-3.29,3.61-6.68,5.6-9.9.38-.61.79-1.34,1.25-2.14l.26-.09a1.41,1.41,0,0,0,.81-1.79c.74-1.3,1.56-2.68,2.46-4a1,1,0,0,0,.45-.66c2.95-4.28,6.65-7.95,10.92-6.6,5,1.57,10.32,7.37,14.15,10.82a133.4,133.4,0,0,1,11.28,11.45l-.08,0a2.06,2.06,0,0,0-.91,2.6,4.7,4.7,0,0,0-.6,7.15c2.4,2.54,6.79,2.39,10,2.52a71.08,71.08,0,0,0,18.94-1.92c2.18-.5,2.25-4.05.22-4.8a140.85,140.85,0,0,0-18.67-5.49c.6-3.51.17-7.35.15-10.79,0-1,0-2.1-.05-3.15a2.59,2.59,0,0,0,0-1.41c-.07-4.15-.18-8.3-.38-12.45q-.88-18.05-3.3-36-1.56-11.63-3.82-23.14c5.89,3.93,15.73,5.15,22.15,3.19a6,6,0,0,0,3,1.87,137.61,137.61,0,0,0-2.71,21.09c0,1,1.39,1.26,1.5.26A156.4,156.4,0,0,1,563.76,250a11.48,11.48,0,0,0,6.37-2.54c2.24-1.83,4.22-4.42,4.24-7.43a6.55,6.55,0,0,0-4.46-6.34l-.48-.14,1.44-3.41c1,4.43,4.34,8.2,9.17,6,2.75-1.23,4.26-4.44,4.22-7.34a13,13,0,0,0-.56-3.31C588.4,226.46,593.56,224.86,594.39,219.42ZM573.24,218l0-.06.26.08a2.71,2.71,0,0,0,2.63-1c.33-.5,1.32-2.72,2.13-2.36,1.45.65-.7,3.44-1.4,3.87A2.65,2.65,0,0,1,573.24,218ZM580,204c1.24-2.37,4.69-6,6.5-1.82,1.36,3.19-1.16,6.85-3.41,9.83a6.24,6.24,0,0,0-4.33-2.93c0-.59,0-1.23,0-1.92A27.62,27.62,0,0,1,580,204Zm-10.74-7.92c.84-3.07,2.18-1.67,3.25.06a16.94,16.94,0,0,1,1.44,4.67c.69,2.87.53,6.08,1.14,9a8.17,8.17,0,0,0-2.22,1.92l-.28.07a44.65,44.65,0,0,1-2.77-5.49A17.87,17.87,0,0,1,569.25,196.1Zm-11.49,17.11c-2.62-4.14,3.88-5.11,6.33-4,2.17,1,3.71,2.94,5.48,4.52a6,6,0,0,0-1.18,2.76c-1.37-.25-2.76-.43-4.06-.69C562.29,215.44,559,215.14,557.77,213.21Zm9.16,13c-1.25.56-3.45.72-4.31-.66-1.16-1.87,1.13-3.85,2.64-4.45a16.76,16.76,0,0,1,2.33-.7c.59.12,1.17.23,1.76.3a7.5,7.5,0,0,0,1.73,1.92l-.18.31A13.43,13.43,0,0,1,566.93,226.25Zm-34,46.64q-10.37,1.54-20.79,2.52a30.85,30.85,0,0,1-9.91-2.44.35.35,0,0,0-.29.63,30.18,30.18,0,0,0,6.62,2.15q-4,.33-8.09.55a.85.85,0,0,0-.74.44c-.47-.1-.94-.19-1.41-.3a63.07,63.07,0,0,1-7-2.15c-.41-.15-5.6-2.25-4.55-2.74.25-.12.12-.52-.15-.41l-1.5.6a.26.26,0,0,0,0,.48,58.74,58.74,0,0,0,14.63,5.46,1,1,0,0,0,.9.57l2.08,0a61.69,61.69,0,0,0,31.93-3c.13,1.22.25,2.44.37,3.66a149.54,149.54,0,0,1-24.25,2.11c-9.35,0-18.32-1.44-27.56-2.45a.85.85,0,0,0-.29,1.67c15.11,4,32,3.72,47.68,1.51a125.75,125.75,0,0,1-12.32,5.71,118.58,118.58,0,0,1-39.91-1.62q-.22-8.09.19-16.18c1.1-21,6.09-40.75,11.79-60.79h.09c-1.85,8.34-.78,17.23,6,23.38.35.32.87-.17.61-.55-4.49-6.68-7.07-15-4.38-22.62l.56,0c-.87,5.8,6.17,11.66,11.66,11.14,6-.57,10.17-6.55,9.68-12.22l1.48-.29c.1,6.93-.84,12.85-5.3,18.82a.46.46,0,0,0,.7.59c4.53-5.29,7.72-12.8,6.93-19.92q1.94-.46,3.84-1c.2.75.43,1.5.69,2.23.41,2.39,1.09,4.76,1.61,7.07,1.36,6,2.67,12.06,3.85,18.12,2.23,11.46,4.1,23,5.53,34.61.24,2,.45,3.91.67,5.86a61.49,61.49,0,0,1-24.29,3.88c-1.21-.05-2.41-.15-3.61-.27,5.24-.43,10.45-1,15.65-1.76,3.58-.42,7.17-1.11,10.78-1.82C533.84,274.07,533.76,272.76,532.89,272.89Zm9.75,64.47a1.07,1.07,0,0,0-.57,1.52l-2.29-.13c-.77-.23-1.53-.46-2.27-.71a3.85,3.85,0,0,1,1-1.61.69.69,0,0,0,.4,0,2,2,0,0,0,2.3.2c1,.2,1.94.39,2.9.61A4.82,4.82,0,0,0,542.64,337.36Zm-9.23-31.76-.88.45,1.83-2a2,2,0,0,0,.52-1.5l1.63-.91.1-.07c0,.22,0,.44,0,.67.09,2.1.16,4.21.22,6.31a2.49,2.49,0,0,0-.45-.06C536.84,306.81,535.23,304.67,533.41,305.59Zm-12.91,5,2.61-1.19-1.77,1.9Zm-23.75-.9c-1.48-.18-2.94-.44-4.38-.74q2.65-.15,5.3-.42C497.36,308.91,497,309.29,496.75,309.69Zm-6.16,9.48-2.94-.41,3.71-.81Zm-6.47-12.6q-2.25-.84-4.45-1.87l0-.18,0-.3c1.64.58,3.28,1.12,4.95,1.58A1.65,1.65,0,0,0,484.13,306.56Zm3.49,3.55-6.91.11a1.17,1.17,0,0,0-.25.05q-.25-1.57-.47-3.15A51.34,51.34,0,0,0,487.62,310.12Zm-6.75,2.64,10.24,2.57-9.39,2Q481.27,315,480.87,312.76Zm1.55,8,5.73.82L483,323.43Q482.7,322.11,482.42,320.78Zm11.79-7.32-4-1,4.69-.11Zm24-23.67c.72-.1,1.44-.18,2.16-.29,1.7-.26,13.8-3.43,15.24-2.87.06.77.11,1.54.17,2.31a6.83,6.83,0,0,1-2.57,2.27,115,115,0,0,1-12.38,4.32c-2.78.67-5.5,1.21-7.74,1.6a76.94,76.94,0,0,1-11.47.63c-7.23-.39-17.11-1.88-21.9-6.08l.14-.06c.11,0,.08-.24,0-.21l-.33.06a9.48,9.48,0,0,1-1-1.13c0-.17,0-.35,0-.52C491.09,296.77,505.11,294.8,518.26,289.79Zm-37.2-1.06a119.43,119.43,0,0,0,24.91,2c.86,0,1.73-.07,2.59-.11C499.28,292.94,489.82,293,481.06,288.73Zm55.17,5.82c-1.73.69-3.46,1.36-5.2,2,1.76-.67,3.49-1.42,5.18-2.2C536.22,294.39,536.22,294.47,536.23,294.55Zm-57.61-1.9a15.84,15.84,0,0,0,3.58,2.53c-1.16-.28-2.32-.58-3.47-.9C478.69,293.73,478.65,293.19,478.62,292.64ZM509,302.43q-5.13,1-10.35,1.64-1.21-.08-2.41-.2A115.94,115.94,0,0,0,509,302.43Zm26.48-18.1c-2.52-.14-5.6,1-7.37,1.44L527,286c2.84-1.37,5.59-2.83,8.27-4.3C535.31,282.58,535.4,283.46,535.47,284.33ZM508.6,209c0,2.8-1.51,5.63-4.63,6-3.72.5-5.52-2.53-6.34-5.58A82.89,82.89,0,0,0,508.6,209Zm23.48,18.48c-.5-2-1-4-1.56-6,1.06,1.27,2.16,2.49,3.28,3.64Q532.91,226.27,532.07,227.48Zm-92.66-63.21a40.86,40.86,0,0,1-6.13-29.6A43.55,43.55,0,0,1,439,120c2.26-3.69,6.6-6.94,7.64-11.17a.77.77,0,0,0-.82-.89h-.07c1.66-3.84,2.47-8.15,5.14-11.68,4-5.32,9.91-8.85,16.07-11.19,12.64-4.79,26.78-5.65,40-3.29,7.79,1.39,15,4.29,22.14,7.3-2.37-.23-4.73-.46-7.08-.72-9.49-1.06-19-2.3-28.49-3.13-14-1.22-29.42,0-38.45,12.24-.33.45.31,1,.67.56C467,84.37,485.68,86.3,501.35,88.26,514,89.84,526.81,92,539.58,93.35c1.85.71,3.72,1.39,5.61,2a70,70,0,0,0,9.53,2.41,67.82,67.82,0,0,1-12.11.15c-9.13-.63-18.09-2.62-27.15-3.81-17-2.22-35.62-2.09-52,3.39a.31.31,0,0,0,.13.59c9.64-1.38,19.11-3.06,28.88-3.26a160,160,0,0,1,30.92,2.8c8.76,1.53,17.57,3.21,26.5,3.08A70.83,70.83,0,0,0,560,99.95c-.18.15-.36.31-.55.46a39.77,39.77,0,0,1-11.25,5.7,196.58,196.58,0,0,1-23.3,6c-16.69,3.56-34.42,4.65-49.63-4.39-.44-.26-.92.48-.49.77,15.47,10.1,34.1,9.18,51.52,5.7,12.15-2.43,32-4.91,40.61-16l.32-.14c.61-.11,1.2-.25,1.79-.41-3.69,5.13-7.22,9.85-12.33,14.07a72.84,72.84,0,0,1-18.51,11.16,74.25,74.25,0,0,1-48.66,2.44c-.54-.15-.68.7-.15.86a75.49,75.49,0,0,0,50.28-1.8,80.91,80.91,0,0,0,27.82-18.82,57.81,57.81,0,0,1-23.53,25.11c-16.48,9.35-37.17,9.49-54.23,1.61-.26-.12-.42.25-.18.4a60.54,60.54,0,0,0,27.41,8.66,52.38,52.38,0,0,1-21.89,0,54.72,54.72,0,0,1-19.92-9c-5.89-4.21-9.68-10.08-14.83-15-.29-.27-.67.08-.59.41a19.25,19.25,0,0,0,1.3,3.44c-.18,8.19,1,16.31.23,24.59a143,143,0,0,1-3.19,19.63c-1.22-3.82-2.49-7.62-3.7-11.42a.61.61,0,0,0-.39-.4,80.09,80.09,0,0,1-.42-17.36,59.12,59.12,0,0,0,2.84,20.6c.28.82,1.65.57,1.52-.33-1.92-13.2-3.38-25.32-.52-38.6.18-.83-1.17-1.29-1.45-.45a79.68,79.68,0,0,0-4.18,33.07c-4.3-9.9-4.38-20.13-2.15-30.55q1.34-2.3,2.85-4.56a.63.63,0,0,0-1-.81c-.27.26-.51.55-.77.82.19-.7.39-1.39.59-2.09,0-.1-.12-.13-.17-.05A31.44,31.44,0,0,0,449,117.3c-7.32,8.92-10.38,20.86-9.89,32.41-3.34-13.4.09-27.59,8.72-38.88a.48.48,0,0,0-.73-.62c-12.62,12.86-14.68,33.34-6.73,49.2a1.11,1.11,0,0,0,2.08-.74c-2.56-11.67-.67-22.54,4-32.7-1.61,10.28,1,21.39,6.11,30.17a.8.8,0,0,0,.7.39c.13,1.19.25,2.38.38,3.57a7.82,7.82,0,0,0-5.73-2.45C443.84,157.66,441.08,160.74,439.42,164.26Zm28.5,29.7a37.47,37.47,0,0,1-7.92-8.62c2.46-3-1.53-6.5-4.61-4.8-7.1,3.92-13.15-2.08-12.89-9.36a15.18,15.18,0,0,1,1.21-5.8c1.32-2.92,2.09-3.58,5.39-3.34,2.9.22,3.69.73,5,2.8.37,3.49.78,7,1.28,10.44.37,2.54,4.15,3.63,5.24.92a79.73,79.73,0,0,0,6.27-29.28c0-6.21-.33-13.51-2.11-20a59,59,0,0,0,9.51,8.88,53.69,53.69,0,0,0,20.07,9.47c12,2.89,27.8,1.76,39-5.16a56.71,56.71,0,0,0,13.1-4.56c1.41-.7,2.79-1.49,4.15-2.32a52.57,52.57,0,0,1,1.33,5.81,74.27,74.27,0,0,1,.44,22.81c-2.09,13.64-9.06,26.78-21.35,33.72-12.52,7.07-29.51,8.51-43.51,6.31A43,43,0,0,1,467.91,194Zm11.56,24.41c1.63-2.12,3.84-4.13,5.63-6.33a143.75,143.75,0,0,0-6.43,20l-.15-.08c-1.94-.82-3.85-1.64-5.81-2.37A57.92,57.92,0,0,1,479.48,218.38Zm-7.76,40.94a101.85,101.85,0,0,1,.38-15.4c.21-2.28.61-4.57.88-6.86l2.6,1.31a3.3,3.3,0,0,0,1.61.37,217.59,217.59,0,0,0-3.93,31.68A77.69,77.69,0,0,1,471.71,259.31ZM485.79,300q-3.32-.11-6.65-.42c-.05-.54-.09-1.09-.14-1.63A63.45,63.45,0,0,0,485.79,300Zm-1.4,29.85-.8-3.6,3.46-1.24C486.12,326.55,485.22,328.16,484.39,329.8Zm45-11.58,3.56-2.37-.65,3a2.32,2.32,0,0,0,3,2.56l.08,0,.38,1.64a1.81,1.81,0,0,0,1.14,1.26q0,.63-.06,1.26C534.43,323,531.94,320.58,529.36,318.22Zm19.8,20.47-1.32-.56c.66.17,1.33.32,2,.51Zm-3.79-97c-3.81-.67-7.33-3.19-11-4.16-.18-.82-.34-1.64-.52-2.46a23.85,23.85,0,0,0,3.09-3.65c4.16,4.59,10.78,8.29,17.18,9.94A25.46,25.46,0,0,1,545.37,241.74Zm34-9.52c-2.22,2.52-5.15-.18-6-2.5a12.69,12.69,0,0,1-.44-4.2l.45-.46a1.43,1.43,0,0,0,.43-1,7.17,7.17,0,0,0,1,.19,7.33,7.33,0,0,0,3.14-.36C579.5,226.54,582,229.16,579.36,232.21Zm3.08-9.73a10.34,10.34,0,0,0-.74-1.15,8.91,8.91,0,0,0,2.3-5.24c1-.54,1.8-1.45,3.15-1.49a3.78,3.78,0,0,1,3.74,4.59C590.1,223.33,586,223.24,582.44,222.48Z"/><path id="_Compound_Path_9" data-name="&lt;Compound Path&gt;" class="cls-2" d="M598,112.91a1.68,1.68,0,0,0,2.07-2.45l-.16-.21a2,2,0,0,0,1-.78C607,100.6,613,91.62,619.06,82.69c4.21-6.22,10.17-14.94,4.77-22.27-3.77-5.12-11.31-5.61-16.73-3.15a17.19,17.19,0,0,0-5.81,4.41q.06-2.56,0-5.12c-.2-4.74-.34-10.79-4.17-14.22-3.39-3-8.28-2.48-11.69.22-4.12,3.26-5.84,9.27-7.08,14.15a56.65,56.65,0,0,0,1.26,31.06C582.61,97.2,588.75,108.34,598,112.91Zm-2.73-59.78a1,1,0,0,0-1.51,0L588,58.52l6.62-8.92A19.65,19.65,0,0,1,595.25,53.13Zm-2,48.4-.08-.11,1-1.4Zm-2.08-2.95c-.31-.46-.62-.92-.91-1.39q3.86-5.32,7.7-10.66ZM584.88,85l8.9-11.31-7.43,15.66Q585.52,87.2,584.88,85Zm-2.15-13.23.18-.13,8.68-7.86-7.89,13.55c-.63,1.09,1,2.07,1.83,1.16l3.37-3.9L584.09,82A52.68,52.68,0,0,1,582.73,71.76Zm.16-5.67,4.66-4.37-4.83,6.7C582.74,67.86,582.79,67.07,582.89,66.09Zm4.83,26.47,8.2-11.47-7.43,13Q588.08,93.35,587.72,92.56Zm14.17-16.75,7.33-13.25a1,1,0,0,0,0-.1,10.58,10.58,0,0,1,2.92-.92,1.39,1.39,0,0,0-.27.28ZM594.63,79,592,82.73l2.08-4.39A2.9,2.9,0,0,0,594.63,79Zm.71-15.26-3.89,4.51,4-6.83Q595.39,62.62,595.34,63.78Zm-.21-6.07-6.22,5.66,6.4-8.92s0-.05,0-.08c.07,1.1.08,2.18.09,3.15A1.09,1.09,0,0,0,595.13,57.7Zm-11.61,3.51c.15-.91.32-1.85.51-2.8l4.24-3.57Zm12.06,43.37.93-1.41a1.92,1.92,0,0,0,.92,1.55c-.2.5-.39,1-.56,1.52Zm24.77-39-4.49,7a2.12,2.12,0,0,0-1.27-1.34l3.68-6.42c.89-1.54-1.65-3.19-2.67-1.7l-4.89,7.14,3.8-6.76a1.48,1.48,0,0,0-.84-2.06C616.7,61.37,619.48,62.74,620.34,65.55ZM592.1,46.28a2.92,2.92,0,0,1,1.71,1.38.9.9,0,0,0-.21.12l-1.74,1.49.47-1.39c.15-.43-.35-1.06-.79-.67-2.16,1.93-4.19,4-6.18,6.13C586.81,48.89,589,45.48,592.1,46.28Z"/><path id="_Compound_Path_10" data-name="&lt;Compound Path&gt;" class="cls-2" d="M634.21,97.52a1.64,1.64,0,0,0,.7,1.19,5.18,5.18,0,0,0,1.24,1.25,1.4,1.4,0,0,0,1.66,1.35,2,2,0,0,0,1.64,2.54,18.92,18.92,0,0,0,2.07,0,1.4,1.4,0,0,0,2-.22c9.26-1.39,21.17-8.21,20.89-17.84a8.79,8.79,0,0,0-8.35-8.61,11.71,11.71,0,0,0-7.4,2,7.14,7.14,0,0,0-2-3.84c-2.88-2.91-6.92-2.09-9.53.69-3.12,3.33-4.28,9.08-4.31,13.45A20.09,20.09,0,0,0,634.21,97.52Zm5.25,2.22,7.07-8.6-3.61,7.77C641.78,99.19,640.62,99.46,639.45,99.74Zm7.92-2.14L650,93.41l-1.35,3.7C648.26,97.28,647.82,97.44,647.38,97.6ZM652.25,85l1-2.17a1.25,1.25,0,0,0,.1-.39l.6-.16Zm-7.86,4.5-1.73,2.1.94-2.14A2.71,2.71,0,0,0,644.4,89.53Zm-1.91-5.19-.8,1.23,1.42-3.66A4,4,0,0,1,642.49,84.34Zm16.67,3.84a8.22,8.22,0,0,1-1.44,2.65l0,0L659,87.59c.57-1.44-1.47-3-2.45-1.56l-2,2.87L656.68,83a1.66,1.66,0,0,0,.09-.47A4.69,4.69,0,0,1,659.16,88.18ZM641,79.39l-.71,1A2.14,2.14,0,0,1,641,79.39Z"/></g><g id="_Group_5" data-name="&lt;Group&gt;"><path id="_Path_13" data-name="&lt;Path&gt;" class="cls-2" d="M286.11,529.35a6.61,6.61,0,0,0-4.27,1.84c-.93,1-1.52,3.39.34,3.8,1.68.38,2.84-1.17,4.52-1.13S289,535,290.17,536a2.12,2.12,0,0,0,3.43-1.78C293.37,530.73,289.11,529.12,286.11,529.35Z"/><path id="_Path_14" data-name="&lt;Path&gt;" class="cls-2" d="M251.58,535.47a1.13,1.13,0,0,0,1.74.82,8.42,8.42,0,0,1,3.11-1.33c1.36-.14,2,.62,3.15,1.06a2,2,0,0,0,2.67-2.44C260.7,529,250.78,530.23,251.58,535.47Z"/><path id="_Compound_Path_11" data-name="&lt;Compound Path&gt;" class="cls-2" d="M369.49,502.5c-4-11-11.7-20.92-23-24.94-8.16-2.9-16.75-2.64-23.66,1.89-4.75-.4-10,1-12.16,4.73-25.23-7.66-56.24,2.82-70.34,25.23-6.43,10.23-10.27,29.05-1.3,39.18a54.29,54.29,0,0,0,1.28,14.12,33.66,33.66,0,0,0,13.29,20.23,52.71,52.71,0,0,0-8,.66c-13.08,2.11-27,9.17-35.41,20.06-4.56-11.25-17-18.9-28.89-19.42-.77,0-1.54,0-2.3,0-1.79-2.66-3.43-5.42-5.18-8.25,1.84-.69,3.63-1.45,5.35-2.3,14-6.91,22.83-20.34,26.24-35.34a74.68,74.68,0,0,0,.9-25.74c-.48-3.84-1.05-8.39-2-12.84,10.86-8.83,19-21.68,21.23-35.25a2.72,2.72,0,0,0-2.58-3.32,2.44,2.44,0,0,0-1.43-.41c-7.5.4-13.86,2.11-21.47.5s-14.59-5-21.66-8c-12.75-5.39-25.92-8.47-39.83-8-12.5.45-26.09,3.27-36.57,10.44-6.1,4.18-17.31,16.49-13.14,25-3.13,2.22-5.62,6.17-7.39,9a43.3,43.3,0,0,0-6.1,16.07,46.37,46.37,0,0,0,9.42,35.84l0,0c-.82,6,1,12.54,6,16.29a12.34,12.34,0,0,0,11.19,2c5,9.76,16.85,16.17,26.87,18.65.41.1.84.18,1.25.28-3,1.74-5.49,4.74-7.56,7.22a66,66,0,0,0-9.26,15.2,3,3,0,0,0,.78,3.48c.79.53,1.6,1,2.42,1.49-2.26,4.88,1.46,11.13,5.5,14.12l.39.27c-.49,3.6-.89,7.2-1.18,10.82,0,.08,0,.15,0,.23-.33,3.45-.59,6.89-.77,10.29-.37,7-.48,14.28-.24,21.57l-.6,0c-1.33,0-1.48,1.86-.42,2.41.38.2.76.36,1.15.55.69,14.77,2.9,29.64,7.57,43.19,0,0,0,.08.05.12l0,.05c-6.12-4.36-16.5-1.71-22.58,1.27-2.13,1-2.34,4.49.42,4.92a103.66,103.66,0,0,0,27.16.69c3.1-.33,3-4.36.22-5.15l-1.34-.42a2.28,2.28,0,0,0,1.46-2.65l-.13-.65c.19-.31.39-.62.57-.94s.61-.62.94-.9a.28.28,0,0,0-.15-.45c1.88-3.29,3.61-6.68,5.6-9.9.38-.61.79-1.34,1.25-2.14l.26-.09a1.41,1.41,0,0,0,.81-1.79c.74-1.3,1.56-2.68,2.46-4a1,1,0,0,0,.45-.66c2.95-4.28,6.65-7.95,10.92-6.6,5,1.57,10.32,7.37,14.15,10.82a133.38,133.38,0,0,1,11.28,11.45l-.08,0a2.06,2.06,0,0,0-.91,2.6,4.7,4.7,0,0,0-.6,7.15c2.4,2.54,6.79,2.39,10,2.52A71.09,71.09,0,0,0,208.91,713c2.18-.5,2.25-4.05.22-4.8a140.87,140.87,0,0,0-18.67-5.49c.6-3.51.17-7.35.15-10.79,0-1,0-2.1-.05-3.15a2.59,2.59,0,0,0,0-1.41c-.07-3.83-.17-7.66-.35-11.48,7.73,6.83,15.53,13.6,23.15,20.5a4.06,4.06,0,0,0,5.65-.48q18.74-20.17,37.28-40.53-1,4.32-1.81,8.68c-.89,4.75-3.13,11.3-1.37,16a3.12,3.12,0,0,0,1.19,4.54c1.95.88,4,1.65,6,2.35-2.25,5.35-.79,12.66,1,18.28-5.36-.59-11.27,3.19-14.31,7.15a2.07,2.07,0,0,0,1.74,3.35q9.94-1.22,19.86-2.6a1.83,1.83,0,0,0,.88-3.32l.37-.8a1.29,1.29,0,0,0-.54-1.72,73.07,73.07,0,0,1,1.34-17.58A124.13,124.13,0,0,0,298,691.88a109.46,109.46,0,0,0,21-2.61,111.48,111.48,0,0,0,1.31,14.36c-5-.55-10.58,1.93-13.84,5.19a2.12,2.12,0,0,0,1.25,3.44,84.54,84.54,0,0,0,23.26-1c2.17-.4,2.79-4,.18-4.22-.32,0-.67-.07-1-.1a5.22,5.22,0,0,0-.1-.9c-.37-6.48-.73-13-1.13-19.43a114,114,0,0,0,13.27-5.21,4,4,0,0,0,1.93-5.93c-2.22-4.12-4.29-8.32-6.22-12.57.67-.5.69-1.76-.34-1.86l-.53,0a215.28,215.28,0,0,1-9.47-25.71c-4-13.39-6-27.17-9.56-40.64l-.63-6a13.91,13.91,0,0,0-.44-5.49,6.7,6.7,0,0,0-3.06-3.91c5.13-4.25,9.37-9.9,9.51-16a11.31,11.31,0,0,0,8.18-4.59,2.7,2.7,0,0,0,1.33-.48,23.19,23.19,0,0,0,3.73-3.15c6,10.41,12.68,20.54,19,30.78a2.84,2.84,0,0,0,4.64,0,1,1,0,0,0,.82-.72c.32-.86.62-1.73.92-2.6C373.48,558.54,378.8,527.83,369.49,502.5Zm-53,205.78-1.92,0a12.28,12.28,0,0,1,1.92-.49A1.24,1.24,0,0,0,316.48,708.28Zm32.64-223.82c10.11,5.88,15.19,17.63,17.38,28.64a95.94,95.94,0,0,1,1.41,26.34,118.89,118.89,0,0,0-2.7-20c-3.71-16.6-14.1-40.27-34.94-37.45-.31-.23-.63-.46-1-.66l-.59-.33A29.22,29.22,0,0,1,349.12,484.47Zm11.49,86.65c-.5-14.93-.94-29.81-4.66-44.46-4-15.86-11.48-30.92-23-42.62a.48.48,0,0,0-.56-.12c-.18-.19-.35-.39-.53-.58,21.35,1.87,29.17,25,32.13,43.38a113.63,113.63,0,0,1,.38,33A118.5,118.5,0,0,1,360.61,571.11Zm-40.85-57.23c-.29-.36-2.85-3-2.78-3.15.84-1.56,3.7,1.83,4,2.24a47.76,47.76,0,0,1,5.58,9.66,49.52,49.52,0,0,1,3.85,17.89,10.5,10.5,0,0,0-1.43-1A41.49,41.49,0,0,0,319.76,513.88Zm25.46,22.5c3.32,11.63,6.27,23.31,8.48,35.23-4.36-7.24-8.75-14.48-13.4-21.51A39.18,39.18,0,0,0,345.21,536.38Zm10.46,36.39a245.52,245.52,0,0,0-9.92-41.07,44.69,44.69,0,0,0-.47-10.43,43.87,43.87,0,0,0-9.89-20.82c1.43-2.44,1.37-5.92.87-8.61A150.33,150.33,0,0,1,355.68,572.77ZM319,484.56a1.12,1.12,0,0,0,1.27,0c.19-.13.38-.23.57-.35a8.73,8.73,0,0,1,5.73,1.48,10.28,10.28,0,0,1,4.46,7.36,8.56,8.56,0,0,1-.13,2.67,53.35,53.35,0,0,0-8.74-6.52,50.84,50.84,0,0,0-6.66-3.31A21.49,21.49,0,0,1,319,484.56Zm-79.2,43a38.92,38.92,0,0,1,10.16-21.29c11.53-12.76,30.09-19.76,47.15-18.66,15.62,1,30.67,9.37,38.17,23.39a37.25,37.25,0,0,1,3.95,23.05,33.72,33.72,0,0,1-4.79,12.66,10.86,10.86,0,0,0-.42-1.36,11.44,11.44,0,0,0-1.15-2.2c6.38-18.18.05-40.46-18-49.38-.3-.15-.61.31-.32.51,13.95,9.85,21.62,25.11,18.09,41.44a49.08,49.08,0,0,0-5.06-17.22c-1.54-3-6.64-13.9-11.61-12.53-5.81,1.6.6,8.21,2.08,10.1a38.73,38.73,0,0,1,8,20.51c-2.33-1-5-1-7.37-2a23.53,23.53,0,0,1-9-6.7c-4.89-6-4.45-12.45-4.87-19.63a.65.65,0,0,0-1-.5.7.7,0,0,0-.89-.06c-7.82,6.2-15.34,11.79-25.11,14.61a50.15,50.15,0,0,1-14.59,2c-3.23,0-6.76-1.17-10.11-1.54,10.95-9.16,21.94-18.51,33.64-26.45a1.26,1.26,0,0,0-.81-2.28c-19.53,1.86-36.79,15.86-43.36,34.05l-.42.32a1.36,1.36,0,0,0-.31,1.88,47.52,47.52,0,0,0-1.59,7.1A31.72,31.72,0,0,1,239.78,527.57Zm9.75-4.86c-.25,0-.5.07-.74.12a2.94,2.94,0,0,0-.4.12c7.08-12.42,18.44-21.33,33.12-25.37C271.39,506.47,260.33,514.56,249.53,522.71Zm22.93,101.87c1.61-3.4,5.55-3.64,8.51-2,.3.16,1,.7,1.79,1.16a1.07,1.07,0,0,0,.69.49,2.86,2.86,0,0,0,.37,0l.26.09A10.5,10.5,0,0,1,285,628l-.06.05a2.67,2.67,0,0,0-.93,1.53c-2,.84-3.72,2.67-6.19,2.66C273.85,632.27,270.65,628.4,272.46,624.58Zm15-21.09,2.25.3-1.65.45a.75.75,0,0,0-.37.23C287.6,604.14,287.52,603.82,287.43,603.49Zm-1.8-4.8-.09-.16,3,.54a23.93,23.93,0,0,0-2.38.66C286,599.38,285.81,599,285.63,598.69Zm-.28,25.39.09-.13.06,0c-.05.48-.11,1-.16,1.45-.12-.35-.27-.69-.42-1A.81.81,0,0,0,285.36,624.08Zm1.1,2.78q.19-1.79.36-3.59l.32-.19,1,2.45Zm.94-12.34a22.84,22.84,0,0,0,.51-8.64l.84.83c.66.64,1.83-.39,1.22-1.1.08.1,4.58-1.29,4.53-1.28a.74.74,0,0,0,.18-.09c-.49,1-1,2-1.56,3A31.41,31.41,0,0,1,287.39,614.52Zm7-11.91-7.47-1-.09-.27a20.88,20.88,0,0,1,9.58-.82q-.62,1.47-1.3,2.91A.87.87,0,0,0,294.35,602.61Zm2.73-3.77-12.4-2.27,3.13-.6a39.39,39.39,0,0,0,10.84-1.09C298.12,596.21,297.61,597.53,297.07,598.85Zm3.56-8.84c-.33.75-.64,1.51-1,2.27q-6.57.89-13.08,2.14a37.38,37.38,0,0,1-4.13-.5q-.47-.55-1-1.07c1.44-.25,2.87-.51,4.29-.81a29.8,29.8,0,0,0,15.49-3.56Zm-20.34,1.67-.37-.33,1.12.22Zm8.94,32.92c-.1-.93-.22-1.83-.4-2.73l.15-.11a12.86,12.86,0,0,0,3.52-3.45,38.08,38.08,0,0,0,4.94-6.38,76.84,76.84,0,0,0,6.27-13c.73-1.81,1.42-3.63,2.19-5.42.52-1.23,2.5-7.22,3.76-7.56,2.69-.72-.4,10.17-.85,11.54a58.6,58.6,0,0,1-5.54,11.94C299.48,615.72,294.61,620.17,289.24,624.6Zm13.06-38.36a107.29,107.29,0,0,1-15.49,4.33,30.1,30.1,0,0,1-8.33-.91,65.42,65.42,0,0,0,24-3.85ZM148.68,620.82a10.44,10.44,0,0,0,.19,1.11l-.39-.09Zm2.77,2c-.39-1.37-.79-2.73-1.19-4.1a3.55,3.55,0,0,0,.15-.87c1.23-1.11,2.52-2.36,4.25-2.25a4.07,4.07,0,0,1,3.66,4,3.78,3.78,0,0,1-2.86,3.73C154.09,623.67,152.79,623.13,151.45,622.86ZM148,610a31.09,31.09,0,0,0-.8,4.24l-.81-.21a.82.82,0,0,0-1.15-.29c-5.25-1.29-10.43-2.21-15.23-4.34,2.07-9.82,4.68-19.53,7.46-29.3h.09c-1.85,8.34-.78,17.23,6,23.38.35.32.87-.17.61-.55-4.49-6.68-7.07-15-4.38-22.62l.56,0c-.87,5.8,6.17,11.66,11.66,11.14,6-.57,10.17-6.55,9.68-12.22l1.48-.29a35,35,0,0,1-1.33,11.16A35.71,35.71,0,0,0,148,610Zm7.76-29.85c0,2.8-1.51,5.63-4.63,6-3.72.5-5.52-2.53-6.34-5.58A82.89,82.89,0,0,0,155.73,580.13Zm9.69-1.66q1.95-.46,3.84-1c.2.76.42,1.52.69,2.27.34,1.94.84,3.86,1.3,5.75a32.27,32.27,0,0,0-7.13,3.14A23.19,23.19,0,0,0,165.41,578.47ZM86.55,535.4a40.86,40.86,0,0,1-6.13-29.6,43.55,43.55,0,0,1,5.73-14.68c2.26-3.69,6.6-6.94,7.64-11.17a.77.77,0,0,0-.82-.89h-.07c1.66-3.84,2.47-8.15,5.14-11.68,4-5.32,9.91-8.85,16.07-11.19,12.64-4.79,26.78-5.65,40-3.29,7.79,1.39,15,4.29,22.14,7.3-2.37-.23-4.73-.46-7.08-.72-9.49-1.06-19-2.3-28.49-3.13-14-1.22-29.42,0-38.45,12.24-.33.45.31,1,.67.56,11.22-13.65,29.89-11.73,45.56-9.77,12.66,1.58,25.46,3.79,38.23,5.09,1.85.71,3.72,1.39,5.61,2a70,70,0,0,0,9.53,2.41,67.83,67.83,0,0,1-12.11.15c-9.13-.63-18.09-2.62-27.15-3.81-17-2.22-35.62-2.09-52,3.39a.31.31,0,0,0,.13.59c9.64-1.38,19.11-3.06,28.88-3.26a160,160,0,0,1,30.92,2.8c8.76,1.53,17.57,3.21,26.5,3.08a70.83,70.83,0,0,0,10.08-.76c-.18.15-.36.31-.55.46a39.78,39.78,0,0,1-11.25,5.7,196.56,196.56,0,0,1-23.3,6c-16.69,3.56-34.42,4.65-49.63-4.39-.44-.26-.92.48-.49.77,15.47,10.1,34.1,9.18,51.52,5.7,12.15-2.43,32-4.91,40.61-16l.32-.14c.61-.11,1.2-.25,1.79-.41-3.69,5.13-7.22,9.85-12.33,14.07A72.85,72.85,0,0,1,185.32,494a74.25,74.25,0,0,1-48.66,2.44c-.54-.15-.68.7-.15.86a75.49,75.49,0,0,0,50.28-1.8,80.91,80.91,0,0,0,27.82-18.82,57.81,57.81,0,0,1-23.53,25.11c-16.48,9.35-37.17,9.49-54.23,1.61-.26-.12-.42.25-.18.4a60.54,60.54,0,0,0,27.41,8.66,52.38,52.38,0,0,1-21.89,0,54.72,54.72,0,0,1-19.92-9c-5.89-4.21-9.68-10.08-14.83-15-.29-.27-.67.08-.59.41a19.25,19.25,0,0,0,1.3,3.44c-.18,8.19,1,16.31.23,24.59a143,143,0,0,1-3.19,19.63c-1.22-3.82-2.49-7.62-3.7-11.42a.61.61,0,0,0-.39-.4,80.09,80.09,0,0,1-.42-17.36,59.12,59.12,0,0,0,2.84,20.6c.28.82,1.65.57,1.52-.33-1.92-13.2-3.38-25.32-.52-38.6.18-.83-1.17-1.29-1.45-.45a79.68,79.68,0,0,0-4.18,33.07c-4.3-9.9-4.38-20.13-2.15-30.55q1.34-2.3,2.85-4.56a.63.63,0,0,0-1-.81c-.27.26-.51.55-.77.82.19-.7.39-1.39.59-2.09,0-.1-.12-.13-.16-.05a31.44,31.44,0,0,0-2.17,4.12c-7.32,8.92-10.38,20.86-9.89,32.41-3.34-13.4.09-27.6,8.72-38.88a.48.48,0,0,0-.73-.62c-12.62,12.85-14.68,33.34-6.73,49.2a1.11,1.11,0,0,0,2.08-.74c-2.56-11.67-.67-22.54,4-32.7-1.61,10.28,1,21.39,6.11,30.17a.8.8,0,0,0,.7.39c.13,1.19.25,2.38.38,3.57A7.82,7.82,0,0,0,95,528.77C91,528.79,88.21,531.88,86.55,535.4ZM115,565.1a37.47,37.47,0,0,1-7.92-8.62c2.46-3-1.53-6.5-4.61-4.8-7.1,3.92-13.15-2.08-12.89-9.36a15.18,15.18,0,0,1,1.22-5.8c1.32-2.92,2.09-3.58,5.39-3.34,2.9.22,3.69.73,5,2.8.37,3.49.78,7,1.28,10.44.37,2.54,4.15,3.63,5.24.92A79.73,79.73,0,0,0,114,518c0-6.21-.33-13.52-2.11-20a59,59,0,0,0,9.51,8.88,53.69,53.69,0,0,0,20.07,9.47c12,2.89,27.8,1.76,39-5.16a56.71,56.71,0,0,0,13.1-4.56c1.41-.7,2.79-1.49,4.15-2.32a52.57,52.57,0,0,1,1.33,5.81,74.27,74.27,0,0,1,.44,22.81c-2.09,13.64-9.06,26.78-21.35,33.72-12.52,7.07-29.51,8.51-43.51,6.31A43,43,0,0,1,115,565.1Zm11.56,24.41c1.63-2.12,3.83-4.12,5.62-6.31a143.87,143.87,0,0,0-6.39,20l-.17-.09c-1.94-.82-3.85-1.64-5.81-2.37A57.92,57.92,0,0,1,126.61,589.51ZM119.76,608l1.27.65s0,.08,0,.12c1.05,4.28,4.94,6.44,8.9,7.72a154.92,154.92,0,0,0,15.45,3.88c0,.28.07.56.1.83-4.66-.86-9.39-1.36-14-2.48a19.6,19.6,0,0,1-8.32-3.81A10.39,10.39,0,0,1,119.76,608Zm28.74,19.9c2.1,6.78,6.12,13,10.83,18.63h-.11a30.85,30.85,0,0,1-9.91-2.44.35.35,0,0,0-.29.63,30.19,30.19,0,0,0,6.62,2.15q-4,.33-8.09.55a.85.85,0,0,0-.74.44c-.47-.1-.94-.19-1.41-.3a63.07,63.07,0,0,1-7-2.15c-.41-.15-5.6-2.25-4.55-2.74.25-.12.12-.52-.15-.41l-1.5.6a.26.26,0,0,0,0,.48,58.65,58.65,0,0,0,14.64,5.47,1,1,0,0,0,.9.56l2,0a60.31,60.31,0,0,0,12.92.85q.84.89,1.69,1.75c-2.16.11-4.33.18-6.5.19-9.35,0-18.32-1.44-27.56-2.45a.85.85,0,0,0-.29,1.67c11.57,3.1,24.2,3.63,36.51,2.72q1.44,1.41,2.9,2.8c-1.34.59-2.69,1.17-4,1.71A118.58,118.58,0,0,1,125.46,657q-.22-8.09.19-16.18c.12-2.32.3-4.62.51-6.92a1.65,1.65,0,0,0,.11-.26c.42-1.63.81-3.25,1.15-4.9a1.22,1.22,0,0,0-.18-.93l.71-4.29C134.42,626.14,142.27,627.13,148.5,627.91Zm41.27,80.58a1.07,1.07,0,0,0-.57,1.52l-2.29-.13c-.77-.23-1.53-.46-2.27-.71a3.85,3.85,0,0,1,1-1.61.69.69,0,0,0,.4,0,2,2,0,0,0,2.3.2c1,.2,1.94.39,2.9.61A4.82,4.82,0,0,0,189.77,708.49Zm-9.23-31.76-.88.45,1.83-2a2,2,0,0,0,.52-1.5l1.63-.91.1-.07c0,.22,0,.44,0,.67.09,2.1.16,4.21.22,6.31a2.49,2.49,0,0,0-.45-.06C184,677.95,182.36,675.81,180.54,676.73Zm-12.91,5,2.61-1.19-1.77,1.9Zm-23.75-.9c-1.48-.18-2.94-.44-4.38-.74q2.65-.15,5.3-.42C144.49,680,144.18,680.43,143.88,680.82Zm-6.16,9.48-2.94-.41,3.71-.81Zm-6.47-12.6q-2.25-.84-4.45-1.87l0-.18,0-.3c1.64.58,3.28,1.12,4.95,1.58A1.65,1.65,0,0,0,131.26,677.7Zm3.49,3.55-6.91.11a1.17,1.17,0,0,0-.25.05q-.25-1.57-.47-3.15A51.33,51.33,0,0,0,134.75,681.25ZM128,683.89l10.24,2.57-9.39,2Q128.4,686.18,128,683.89Zm1.55,8,5.73.82-5.17,1.83Q129.83,693.24,129.56,691.92Zm11.79-7.32-4-1,4.69-.11Zm-15.6-20.82a15.84,15.84,0,0,0,3.58,2.53c-1.16-.28-2.32-.58-3.47-.9C125.82,664.87,125.78,664.32,125.75,663.78Zm30.37,9.79q-5.13,1-10.35,1.64-1.21-.08-2.41-.2A116,116,0,0,0,156.12,673.56Zm22-5.91c.64-.24,1.28-.5,1.92-.76l0,0C179.46,667.16,178.81,667.42,178.16,667.65Zm-9.77-1.09c-2.92.71-5.79,1.29-8.13,1.69a77,77,0,0,1-11.47.63c-7.23-.39-17.11-1.88-21.9-6.08l.14-.06c.11,0,.08-.24,0-.21l-.33.06a9.47,9.47,0,0,1-1-1.13c0-.17,0-.35,0-.52,12.61,7,26.64,5,39.79,0,.72-.1,1.44-.18,2.16-.29s2.42-.53,4.62-1q2.24,2.11,4.5,4.2Q172.58,665.34,168.4,666.57Zm-40.21-6.7a119.43,119.43,0,0,0,24.91,2c.86,0,1.73-.07,2.59-.11C146.41,664.08,136.95,664.17,128.19,659.86Zm33.53-10.62c-1.46,0-2.93,0-4.4,0-1.22-.05-2.43-.15-3.64-.27q3.58-.3,7.14-.69Zm-28.79,21.85q-3.32-.11-6.65-.42c-.05-.54-.09-1.09-.14-1.63A63.45,63.45,0,0,0,132.92,671.09Zm-1.4,29.85-.8-3.6,3.46-1.24C133.26,697.69,132.35,699.3,131.52,700.94Zm45-11.58,3.56-2.37-.65,3a2.32,2.32,0,0,0,3,2.56l.08,0,.38,1.64a1.81,1.81,0,0,0,1.14,1.26q0,.63-.06,1.26C181.56,694.16,179.07,691.71,176.5,689.35Zm19.8,20.47-1.32-.56c.66.17,1.33.32,2,.51Zm19.31-22.11q-18-15.85-36-31.81c-8.33-7.42-18.12-15.73-22.69-26.35a10.33,10.33,0,0,0,1.89-.65A10,10,0,0,0,164.43,618a9.5,9.5,0,0,0-8.74-7.69c2.92-9.09,10.6-16.71,20.13-18.39,13.46-2.38,24.41,6.8,30.18,18.14-1.74,3.72,2.78,6.72,5.94,4.87l2.73-1.6a2.54,2.54,0,0,0,1.28-3c8.27-9.56,17.86-16.55,31-18.53,11.67-1.76,32.88,1.19,32.74,17a19.34,19.34,0,0,1-1.32,6.71,10.92,10.92,0,0,0-4.53.33,1.74,1.74,0,0,0-2.93-.64,19.18,19.18,0,0,0-3.58,5.26,10.66,10.66,0,0,0-1.24,2.34,11.74,11.74,0,0,0-.5,1.82c-.74,2-1.4,4-2.06,5.85-.92,2.52-1.78,5.06-2.6,7.62L249.36,650.8C238.11,663.1,226.81,675.37,215.61,687.71Zm117.54-16.83-.85.16q-11.08-.11-22.13-.69a90.44,90.44,0,0,0,20.66-4.57Q331.95,668.34,333.14,670.88Zm-74.7,8.54a13.32,13.32,0,0,0,.63-1.71,62.35,62.35,0,0,0,8.09,3.71C264.27,680.8,261.37,680.13,258.44,679.42Zm36.58,4a77.6,77.6,0,0,1-21-2.2,83.23,83.23,0,0,1-11.16-3.59c-1.16-.47-2.29-1-3.43-1.49.05-.26.1-.51.14-.77a102.1,102.1,0,0,0,54.16,5.19A78.47,78.47,0,0,1,295,683.41Zm-28.12-7.86a217.81,217.81,0,0,0,63.19-1.73l-.5.27A98.29,98.29,0,0,1,266.91,675.56ZM320,673a219,219,0,0,1-60-.69c.15-1.61.27-3.21.5-4.71,6.47,1,13,1.9,19.57,2.54Q300,672.31,320,673Zm-57.13,35.76a3,3,0,0,0,2.84.36c0,.12,0,.24,0,.36l-6.1-.09C260.66,709.13,261.75,708.93,262.87,708.72Zm2.78-7.52a40.5,40.5,0,0,1-1.18-6.44c-.22-2.18-.14-4.4-.37-6.57q1.94.55,3.91,1A41.22,41.22,0,0,0,265.65,701.2Zm58.78-5.46.18,4.28.11,2.57q.39,2.81-.14,1.14c-1.29-2.27-1.15-6.5-1.55-9.09-.32-2-.64-4.07-1.08-6.08l2.15-.56Zm-3.14-15.27a78.7,78.7,0,0,0,10.48-4.88q1.54-.58,3.06-1.21c.21.43.42.87.64,1.31A120.64,120.64,0,0,1,321.3,680.47Zm7.14-20.3c-12.83-1.18-25.66-2.33-38.51-3.36-.85-.07-1.1,1.23-.23,1.33,13.19,1.46,26.39,2.8,39.59,4.1.23.54.47,1.08.7,1.63-14.88,5.19-30.5,5.73-46.13,4.44q-11.53-1.2-23-2.9,1.39-8.24,3.41-16.35c.28-1.11.57-2.21.87-3.31,2.28-2.45,4.83-5.08,7.41-7.88,5,2.26,10.74,1,15-2.44a4.54,4.54,0,0,0,1.25-1.57,37.09,37.09,0,0,0,3-3.51c7-4.48,13-11.59,17.14-18.33.88-1.44,1.67-2.92,2.42-4.43-1.57,7.71-4.11,16.31-7.45,15.48-.35-.09-.54.5-.19.62,3.71,1.29,4.73-3.14,5.79-5.94a94.61,94.61,0,0,0,4.42-16.07l.12-.33.12.75c-.52,7.14-.71,14.22-2.52,21.29-.19.75.94.91,1.16.2a71,71,0,0,0,2.6-12.77,158.62,158.62,0,0,0,5.3,26.84A198.13,198.13,0,0,0,328.44,660.18Zm.1-109.22c-.73,5-5.28,5.57-9.41,5.76a2.7,2.7,0,0,0-2,4.27c-1.49,3.87-2.38,7.5-5.35,10.87a29.23,29.23,0,0,1-13,8.18c-10.27,3.42-23.68,4.1-34.15,1.08-10.82-3.12-17.15-12.21-18.87-23.06-1.64-10.37,2.16-20.26,2.43-30.36,3.71,2.55,9.51,2.27,13.82,2.19a58.38,58.38,0,0,0,16.58-2.78c8.69-2.77,17.64-7.88,23.26-15.34-1.73,6.46.7,14.36,4.39,19.47a29.07,29.07,0,0,0,13.08,9.65c-1.56,1.77-2.16,4.23-.55,6.39a.88.88,0,0,0,1.51-.13C323.32,541.45,329.29,545.79,328.54,551Zm29.11,27.2-.65-1.08A150.86,150.86,0,0,0,336.62,490c18.73,23.2,22.79,55.74,22.32,85.22C358.51,576.22,358.09,577.2,357.65,578.17Z"/><path id="_Path_15" data-name="&lt;Path&gt;" class="cls-2" d="M139.79,533.69c1.53-.49,2.07-2.93,3.24-4,1.59-1.45,4.83-2,6.32-.11,2.78,3.56,7.59-1.66,3.52-4.17-3.85-2.37-8.73-2.74-12.16.59a7.67,7.67,0,0,0-2.47,5.28C138.24,532,138.58,534.08,139.79,533.69Z"/><path id="_Path_16" data-name="&lt;Path&gt;" class="cls-2" d="M171.87,527.61c1.43-1.12,2-2.82,3.85-3.47,2.11-.74,3.63.15,5,1.7,2.08,2.4,6-.09,4.17-2.86A8.62,8.62,0,0,0,175,520.1c-2.43,1-5.58,4.6-4,7.34A.66.66,0,0,0,171.87,527.61Z"/><path id="_Compound_Path_12" data-name="&lt;Compound Path&gt;" class="cls-2" d="M231.37,461.87a2,2,0,0,0,.53,1.35,49.3,49.3,0,0,0,2.74,5.65c.36.63.74,1.32,1.16,2a2.29,2.29,0,0,0,1,1.7c1.83,2.84,4.19,5.58,7.24,6a.69.69,0,0,0,.79-.72c0-.15,0-.29,0-.44a15,15,0,0,0,2-1.15,2,2,0,0,0,.58-.61,141.5,141.5,0,0,0,22.11-18.07c6-6,15.5-14.77,13.07-24.32-1.79-7-9.6-10.62-16.36-9.27a20.87,20.87,0,0,0-11.57,7c.32-6-.51-12-3.63-16.47-5.8-8.25-14.6-1.45-17.85,5.21-5,10.24-6.3,22.77-4.17,33.89A50.15,50.15,0,0,0,231.37,461.87Zm5.07-33.75,1.27-1-1.4,1.44C236.35,428.42,236.39,428.27,236.44,428.12Zm8.62-8.23,1.3-1.28c.17.14.33.29.5.47.92.95,1.38,2.73,1.61,4.71l-12.73,7.56q4.92-5.18,9.82-10.37A.67.67,0,0,0,245.05,419.88ZM234.2,439.5l8-5.85-8.18,9.41C234.06,441.88,234.1,440.69,234.2,439.5Zm.34-3.06v0c.13-.92.29-1.83.47-2.74l7.3-4.27Zm-.37,10.31,6.56-4.7-6.32,7.35C234.3,448.52,234.22,447.64,234.16,446.75Zm1.11,7.87,3.55-3.1-3.26,4.23C235.47,455.38,235.36,455,235.28,454.62Zm1.88,6.4,4.79-5-4.37,6.06C237.43,461.76,237.29,461.4,237.16,461ZM241,438.53q3.83-4.59,7.68-9.17c0,.71,0,1.35,0,1.87s0,1.07,0,1.6Zm7.68-11.9a.92.92,0,0,0-.45.17l-2,1.51,2.47-2.26C248.64,426.24,248.65,426.44,248.65,426.64Zm-6.94,44.06-.25-.45,7.53-8.31-2.53,3.64a2.51,2.51,0,0,0-.42,1L243.58,469a1.88,1.88,0,0,0-.35,2.47l-.73.48C242.24,471.56,242,471.14,241.72,470.7Zm24.7-41c3.46-1,8,0,10,3.24a6.8,6.8,0,0,1,.57,5.63,2.76,2.76,0,0,0-.64-.31,7,7,0,0,0,0-2.07,2.33,2.33,0,0,0-.77-2.15,5.8,5.8,0,0,0-.34-.49,3.33,3.33,0,0,0-3.28-1.36,2.09,2.09,0,0,0-2.57.45,2.21,2.21,0,0,0-3.82-1.12l-3,3.29.32-.44a2.14,2.14,0,0,0-.31-3A14.3,14.3,0,0,1,266.42,429.66Zm-27-8.8c1.53-2.59,3.88-4.42,6.5-2.62q-4.34,3.88-8.69,7.75c.13-.35.24-.7.37-1A27.76,27.76,0,0,1,239.37,420.86Z"/><path id="_Compound_Path_13" data-name="&lt;Compound Path&gt;" class="cls-2" d="M187.87,441.95a1.69,1.69,0,0,0,2,1.16c.45.23.9.44,1.36.64-.33,1.57,1.95,3,3,1.48l.33-.5a11.71,11.71,0,0,0,6.75-.6.55.55,0,0,0,0-1c-.7-.36-1.41-.69-2.13-1,3.83-4.4,6.8-11.69,8.67-17.09,1.26-3.63,1.39-8.16-2.16-10.58-3.1-2.11-7.4-1.24-10.14,1.07a11.46,11.46,0,0,0-3.59,6.31,8.25,8.25,0,0,0-11.15,6.51C179.84,433.57,183.18,438.79,187.87,441.95ZM203,421.42l0-.06h0l.18.18Zm-9.88,18.08-.28-.15,1-1.42Zm-.75-9-.28.37.17-.44Zm-4.82,4.65c-.19-.24-.39-.47-.56-.72l-.12-.18,2-2.2Zm12.4-16.94,1.18,1.19a1.25,1.25,0,0,0-.51.39l-4.56,5.92a11.21,11.21,0,0,1,1.26-5Zm-10.22,9.35-1.62,1.92c.19-.51.37-1,.52-1.54s-.55-.73-.84-.39a24.45,24.45,0,0,0-2.31,3.4c0-.14-.06-.27-.08-.41Q185.11,425.81,189.73,427.6Z"/></g></g></g></svg>