<svg xmlns="http://www.w3.org/2000/svg" viewBox="0 0 488.41 236.99"><defs><style>.cls-1{fill:#89cff0;}.cls-2{fill:#044872;}</style></defs><title>Asset 1</title><g id="Layer_2" data-name="Layer 2"><g id="BACKGROUND"><rect id="_Rectangle_" data-name="&lt;Rectangle&gt;" class="cls-1" width="488.41" height="236.99"/></g><g id="OBJECT"><g id="_Group_" data-name="&lt;Group&gt;"><path id="_Path_" data-name="&lt;Path&gt;" class="cls-2" d="M316.8,96.49c.73-.23,1-1.39,1.54-1.9.75-.69,2.3-1,3-.05a1.33,1.33,0,1,0,1.67-2,4.63,4.63,0,0,0-5.79.28,3.65,3.65,0,0,0-1.17,2.51C316.06,95.68,316.22,96.68,316.8,96.49Z"/><path id="_Path_2" data-name="&lt;Path&gt;" class="cls-2" d="M332.06,93.6c.68-.53.94-1.34,1.83-1.65a2,2,0,0,1,2.37.81c1,1.14,2.86,0,2-1.36A4.1,4.1,0,0,0,333.53,90c-1.16.48-2.65,2.19-1.9,3.49A.31.31,0,0,0,332.06,93.6Z"/><path id="_Path_3" data-name="&lt;Path&gt;" class="cls-2" d="M367.24,109.21A3.14,3.14,0,0,0,365,109c-.61.21-1.4,1.08-.71,1.67s1.45.14,2.15.54.7,1,1,1.66a1,1,0,0,0,1.84,0C370,111.41,368.55,109.78,367.24,109.21Z"/><path id="_Path_4" data-name="&lt;Path&gt;" class="cls-2" d="M351.37,104.06a.54.54,0,0,0,.54.73,4,4,0,0,1,1.6.14c.6.24.69.7,1.08,1.15a1,1,0,0,0,1.67-.43C356.65,103.36,352.2,101.68,351.37,104.06Z"/><path id="_Compound_Path_" data-name="&lt;Compound Path&gt;" class="cls-2" d="M404.15,100.95c-2.78-3-6.45-4.85-10.36-4.49-1.91-1.23-4.4-1.83-6.17-.73-8.88-8.86-24.25-11.39-35.18-5.13a20.19,20.19,0,0,0-3.77,2.85,39.54,39.54,0,0,0-.27-7c-.23-1.83-.5-4-1-6.11a28.17,28.17,0,0,0,10.1-16.77A1.29,1.29,0,0,0,356.31,62a1.16,1.16,0,0,0-.68-.19c-3.57.19-6.59,1-10.21.24s-6.94-2.38-10.31-3.8a44.11,44.11,0,0,0-18.95-3.79c-5.95.21-12.41,1.55-17.4,5-2.9,2-8.23,7.84-6.25,11.89A15.19,15.19,0,0,0,289,75.56a20.6,20.6,0,0,0-2.9,7.64,22.06,22.06,0,0,0,4.48,17h0a8.22,8.22,0,0,0,2.87,7.75,5.87,5.87,0,0,0,5.32.94c2.25,4.39,7.42,7.36,12,8.66-2.13,1.42-4.22,5.38-4.93,6.85-1.17,2.42-.2,4,1.53,4.88a36.7,36.7,0,0,0-.7,5.78c-.06,1.55-.3,3.34.27,4.8-1.33,1-2.55,2.19-3.25,2.8a44.09,44.09,0,0,0-5.47,5.84c-.89-1.92-2-3.81-2.81-5.68a1.45,1.45,0,0,0-2.77.24c-.83,3.28.14,7.42,3.11,9.35l.2.11a1.09,1.09,0,0,0,1.48.75l.47-.18a1.2,1.2,0,0,0,1.33-.52,44.8,44.8,0,0,0,4.33-2,25.65,25.65,0,0,0,3-1.69,27.11,27.11,0,0,0,.08,4c.12,2.67.37,5.34.73,8,.65,4.72,1.37,10.42,3.45,14.75a1.29,1.29,0,0,0-.09.14,3,3,0,0,0-.32,1.31c-4.15.1-11.33.88-8.86,4.52,1.29,1.9,5.11,1,7,1,2.42,0,5.15,0,6.11-2.64a1.4,1.4,0,0,0,.08-.53,1,1,0,0,0,.31-.43c1.31-3.5,3.46-6.17,5.37-9.25a37,37,0,0,0,8.64-2.91c1.29-.56,2.56-1.18,3.8-1.84l.18.33a.69.69,0,0,0,.69.38q3.87,5,7.75,10a1.3,1.3,0,0,0-1.06,1.86h0a1.07,1.07,0,0,0,.36,1.63,14.57,14.57,0,0,0,10.83.53,1.27,1.27,0,0,0-.21-2.44L344,176.13a1,1,0,0,0,.1-.51c-.11-1.62-.29-3.23-.47-4.84,0-.71-.11-1.43-.17-2.14a31.22,31.22,0,0,0-.57-5.37,15.53,15.53,0,0,0-.85-4.19h0a.84.84,0,0,0-.09-.13c1.07-.89,2.11-1.82,3.11-2.8,2.58-2.53,7.11-7.07,8.27-11.48,3.22,1.18,6.92-1.26,8.21-4.21a5.62,5.62,0,0,0,.14-3.89l.53.07c4.17.41,10.84-.79,13.16-4.91a5.38,5.38,0,0,0,4.46-.1,1.29,1.29,0,0,0,.67.1,11,11,0,0,0,2.27-.49c.21,5.72.73,11.46,1.09,17.17a1.35,1.35,0,0,0,1.93,1.06.5.5,0,0,0,.52-.12c.33-.29.65-.59,1-.89,10.18-7.47,19.28-19.18,21-31.89C409,111,408,105.17,404.15,100.95ZM386.37,145.7l0-.6A71.77,71.77,0,0,0,397.24,104c2.68,13.93-2.89,28.5-9.68,40.78C387.17,145.08,386.77,145.39,386.37,145.7ZM393.89,119a20.87,20.87,0,0,0,.5-11,6.25,6.25,0,0,0,2.29-3.42A71.52,71.52,0,0,1,386.75,143a116.81,116.81,0,0,0,5-19.46A21.26,21.26,0,0,0,393.89,119Zm-4.71,24.36c3.13-6.38,6.27-12.73,8-19.71a44,44,0,0,0-.15-23,.23.23,0,0,0-.21-.17c0-.12-.06-.24-.09-.36,8.55,5.56,6.66,17,3.8,25.4a54.06,54.06,0,0,1-7.22,13.95A56.41,56.41,0,0,1,389.19,143.4Zm1.87-45.65a.53.53,0,0,0,.53.29l.32,0a4.15,4.15,0,0,1,2.07,1.9,4.89,4.89,0,0,1,.23,4.09,4.07,4.07,0,0,1-.65,1.09,25.38,25.38,0,0,0-2.21-4.69,24.19,24.19,0,0,0-2.06-2.88A10.24,10.24,0,0,1,391.05,97.75Zm-42.87.36a18.52,18.52,0,0,1,9-6.67,28.66,28.66,0,0,1,24,2.7c6.33,3.91,10.78,10.79,10.8,18.36a17.72,17.72,0,0,1-3.5,10.56,16,16,0,0,1-4.84,4.25,5.17,5.17,0,0,0,.13-.66,5.44,5.44,0,0,0,0-1.18c6.74-6.21,9.07-17,3.49-24.76-.09-.13-.32,0-.25.14,3.66,7.26,3.47,15.38-1.67,21.45a23.35,23.35,0,0,0,1.72-8.36c0-1.62.32-7.32-2.07-7.86-2.8-.63-1.58,3.58-1.38,4.71a18.43,18.43,0,0,1-1.22,10.4c-.77-.92-1.85-1.54-2.64-2.5a11.2,11.2,0,0,1-2.28-4.82c-.72-3.6.91-6.22,2.34-9.33.12-.26-.1-.44-.32-.44a.33.33,0,0,0-.36-.23c-4.67.86-9.08,1.52-13.81.52a23.86,23.86,0,0,1-6.57-2.43c-1.35-.74-2.58-2-3.9-2.91,6.64-1.4,13.35-2.87,20-3.59a.6.6,0,0,0,.17-1.14,25,25,0,0,0-25.82,4.61L349,99a.65.65,0,0,0-.55.72c-.35.35-.68.71-1,1.08.21-.68.4-1.37.55-2.06,0-.13.05-.27.08-.4Zm36.65,12.13c0-.21-.52-1.91-.46-1.95.7-.47,1.14,1.59,1.18,1.84a22.72,22.72,0,0,1,.19,5.3,23.56,23.56,0,0,1-2.38,8.37,5,5,0,0,0-.39-.72A19.74,19.74,0,0,0,384.82,110.23ZM358,140.45a5.67,5.67,0,0,0-3.37-2.76,3.46,3.46,0,0,1,.94-1,13,13,0,0,1,1.69,1.66,9.29,9.29,0,0,1,.72,1.08c.13.23.22.47.34.7C358.22,140.21,358.12,140.33,358,140.45Zm-31.32.4-.13.07c-1.8-.76-3.78-.89-5.62-1.49a11,11,0,0,0-2.45-2.19,6.54,6.54,0,0,0-5.26-.71q-.08-1.6-.1-3.21a3.71,3.71,0,0,0,4,.57l.76.12a13.36,13.36,0,0,0,1.49.2,67.12,67.12,0,0,0,8.14,2c2.21.52,4.42,1.09,6.64,1.57-.7.36-1.39.81-2,1.07C330.38,139.61,328.48,140.09,326.68,140.85Zm-10.21,30.67L313,170.28a8.16,8.16,0,0,1,2.24-.16,12.76,12.76,0,0,0,1.9.61Q316.8,171.11,316.47,171.52Zm18.81-44.07c1,1.07,2.07,2.14,3.16,3.12-.87-.12-1.74-.25-2.61-.4a6.37,6.37,0,0,0-.78-2.51Zm15.23,6c.07,2.6-6,2.87-7.68,2.89a41.37,41.37,0,0,1-9-1.2c-2.79-.6-5.57-1.27-8.35-1.9a46.68,46.68,0,0,0-5.95-1.22,6.9,6.9,0,0,0,.49-.73c.27-.48-.48-1-.81-.52-1.33,1.73-5.11.78-4.68-1.69.53-3,4.52-1.05,6.11-.4a70.33,70.33,0,0,0,10,3.27C336.65,133.39,344.19,134.73,350.51,133.41Zm-33.33,28.48c-.27-1.35-.47-2.72-.61-4.1-.28-2.88-.1-5.79-.31-8.67l.09-.07a5.7,5.7,0,0,0,.58-.6C316.94,152.93,317,157.41,317.18,161.89Zm-8.53-10.69V151l.29.1A.59.59,0,0,0,308.65,151.2Zm4.05,1.16-.37-.13.39,0Zm-.2,1.29,0,.16-.54-.23Zm.42-2.42a4.43,4.43,0,0,0-1.25-.46,6.75,6.75,0,0,0,1.39-.13Q313,150.93,312.93,151.23Zm-4.38-1.52.22.16-.2,0Zm3.76,5.78q0,.51-.07,1c-1-.23-2.09-.45-3.14-.58l-.1-.87A8.86,8.86,0,0,0,312.31,155.49Zm-3.12,1.19.58.17-.55,0Zm3,1c0,.27,0,.54,0,.8s0,.64,0,1a13.75,13.75,0,0,1-2.72-1.57Zm.06,6.62-.33-.28.29,0C312.21,164.13,312.23,164.21,312.24,164.29Zm1.09,3.06a5.54,5.54,0,0,0,.84,1,10.91,10.91,0,0,1-1.57-1.16Zm2.71-1.71c-.84-1-1.07-2.8-1.08-4.58a.58.58,0,0,0,0-.57c0-.89.07-1.75.13-2.52a48.85,48.85,0,0,0,1.73,8.32A2.59,2.59,0,0,1,316,165.64Zm-1.59-18.69c-1.43,1.24-4,1.56-4.74-.44a2.83,2.83,0,0,0,4.07.08c.1-.1-.05-.26-.17-.18a2.87,2.87,0,0,1-4-.76,9.18,9.18,0,0,1,.6-3.09,4.25,4.25,0,0,1,3.71-.37A2.89,2.89,0,0,1,314.44,146.95Zm-1.14-21.52c.11-1.16.29-2.37.44-3.57a10.8,10.8,0,0,0,1.79,2.59A5,5,0,0,0,313.31,125.43Zm20.23-.11c-.65-.88-1.32-1.72-1.84-2.5l-.44-.68a8.76,8.76,0,0,1,1.92,1.46C333.82,124.35,333.8,124.86,333.54,125.32Zm-7.3-7h0c0,.17-.07.34-.11.51,0-.16-.08-.32-.12-.48Zm-12.08,0c.22,2,3.52,3.2,5.19,3.29a8.21,8.21,0,0,0,5.39-1.8,12.66,12.66,0,0,1-1.7,5c-.11.19.2.39.33.21a12.22,12.22,0,0,0,2.09-5.16,11.84,11.84,0,0,1,.06,2.33c-.2,1.13-.43,2.26-.73,3.36-.13.46.63.7.8.25a13.58,13.58,0,0,0,.62-2.28c.3-1.15.59-2.33.79-3.52.76,1.45,1.77,2.81,2.61,4.17a42.88,42.88,0,0,0,3.22,5.3,64.22,64.22,0,0,1-9.24-2.78c-2.28-.89-4.69-2.45-7.21-2.42l-.26,0a10.38,10.38,0,0,1-2.21-4.13,18.15,18.15,0,0,0,0-1.93Zm1.54.22a38.77,38.77,0,0,0,7.47.14,6.05,6.05,0,0,1-7.47-.14Zm-5.1,35.72c-.58-.08-1.15-.25-1.73-.37l0-.38Zm-.9,5.91c-.05-.32-.1-.64-.15-1l.63.39c-.21.23-.24.62.13.73.57.18,1.15.32,1.74.45,0,.35,0,.7,0,1.06-.74-.43-1.49-.85-2.27-1.22Zm1.89,5.68-.54-.07a.56.56,0,0,0-.3.05l-.16-.8A12.23,12.23,0,0,0,311.6,165.87Zm1.77,3.27a10.31,10.31,0,0,0-1.75.42c-.12-.43-.24-.87-.34-1.3s-.14-.64-.22-1A13.53,13.53,0,0,0,313.37,169.14ZM312,171.06l2.13.76a4.12,4.12,0,0,0-1.76.53Q312.23,171.7,312,171.06Zm6.68-4.38c-.19-4.86-.41-9.74-.72-14.6a65.27,65.27,0,0,0,4.28,13.83A12.71,12.71,0,0,1,318.72,166.68Zm3.31-2.11a56.07,56.07,0,0,1-4.23-15.33c0-.63-.1-1.25-.14-1.88a5.8,5.8,0,0,0,.63-2.73c.28,1.49.6,3,1,4.44l.09.45q.84,4.59,1.73,9.18c.33,1.7.67,3.4,1,5.09l.33,1.6C322.3,165.11,322.12,164.76,322,164.57ZM315.82,140a5.75,5.75,0,0,0-2.2-.9c1.2-.78,2.6-.27,3.92.65.13,1,.28,2.06.45,3.09A5.58,5.58,0,0,0,315.82,140Zm20.67-1.78c1,.18,2,.32,3,.44,2.56.29,8.68.41,11.94-1.51a9.74,9.74,0,0,0-.48,1.15.2.2,0,0,0-.13,0,34.68,34.68,0,0,1-14.32,0Zm12,1-.08,0a15.39,15.39,0,0,1-3.23.65,13.91,13.91,0,0,1-5.45-.61l.56.07A30.1,30.1,0,0,0,348.49,139.25Zm-11-.28,1.09.19s0,0,0,0a14.61,14.61,0,0,0,12.19-.4,6.1,6.1,0,0,0-.11,3.17l-.17.42a15.06,15.06,0,0,1-9.53-.52,10.43,10.43,0,0,1-4.12-2.61C336.25,138.46,336.1,138.71,337.44,139Zm20.24-1.26a6.37,6.37,0,0,0-1.6-1.33,3.48,3.48,0,0,1,1-.21c.2.41.44.8.66,1.2a9.31,9.31,0,0,0,1.12,1.73c0,.05,0,.11-.05.16h0A7.23,7.23,0,0,0,357.68,137.71Zm.67-.76-.53-.8h.12a3.06,3.06,0,0,1,1,1.69C358.75,137.54,358.55,137.24,358.35,137Zm-4.87-2.65v0h0ZM342.54,131l-1.07-.1a44.63,44.63,0,0,0-5.19-5,3.44,3.44,0,0,0-.58-3.38,20.44,20.44,0,0,0-4.28-3.16c-.69-.47-1.47-1.1-2.3-1.56a30.79,30.79,0,0,0,6.38-2.26,21.45,21.45,0,0,0,5.42-3.82c-.14.43-.27.85-.38,1.28a15.49,15.49,0,0,0,4.07,15.51,27.11,27.11,0,0,0,3.29,2.67C346.1,131.1,344.31,131.12,342.54,131ZM353,98.13l-.19,0a25.49,25.49,0,0,1,19.58-3.25c-6.24,1.47-12.69,2.4-19,3.4Zm-61.55-.82a19.44,19.44,0,0,1-2.92-14.08,20.72,20.72,0,0,1,2.72-7c1.08-1.75,3.14-3.3,3.63-5.31a.37.37,0,0,0-.39-.42h0c.79-1.83,1.18-3.88,2.45-5.56a16.88,16.88,0,0,1,7.64-5.32,36.31,36.31,0,0,1,19-1.57,49.73,49.73,0,0,1,10.53,3.47c-1.13-.11-2.25-.22-3.37-.34-4.51-.51-9-1.09-13.55-1.49-6.68-.58-14,0-18.29,5.82-.16.21.15.48.32.27,5.34-6.5,14.22-5.58,21.67-4.65,6,.75,12.11,1.8,18.19,2.42.88.34,1.77.66,2.67,1a33.3,33.3,0,0,0,4.54,1.15,32.28,32.28,0,0,1-5.76.07c-4.34-.3-8.61-1.25-12.92-1.81-8.07-1.05-16.94-1-24.73,1.61a.15.15,0,0,0,.06.28,113,113,0,0,1,13.74-1.55,76.09,76.09,0,0,1,14.71,1.33A68,68,0,0,0,344,67.07a33.7,33.7,0,0,0,4.8-.36l-.26.22a18.92,18.92,0,0,1-5.35,2.71,93.52,93.52,0,0,1-11.08,2.85c-7.94,1.69-16.37,2.21-23.61-2.09-.21-.12-.44.23-.23.36,7.36,4.81,16.22,4.37,24.51,2.71,5.78-1.16,15.21-2.33,19.32-7.63l.15-.06c.29-.05.57-.12.85-.19a33.54,33.54,0,0,1-5.87,6.69,34.65,34.65,0,0,1-8.8,5.31,35.32,35.32,0,0,1-23.15,1.16c-.26-.07-.32.33-.07.41a35.91,35.91,0,0,0,23.92-.86,38.49,38.49,0,0,0,13.24-9A27.5,27.5,0,0,1,341.2,81.3a28.62,28.62,0,0,1-25.8.77c-.12-.06-.2.12-.09.19a28.8,28.8,0,0,0,13,4.12,24.92,24.92,0,0,1-10.41,0,26,26,0,0,1-9.48-4.3c-2.8-2-4.6-4.79-7.05-7.12-.14-.13-.32,0-.28.19a9.16,9.16,0,0,0,.62,1.64c-.08,3.9.49,7.76.11,11.7a68,68,0,0,1-1.52,9.34c-.58-1.82-1.18-3.63-1.76-5.43a.29.29,0,0,0-.18-.19,38.1,38.1,0,0,1-.2-8.26,28.13,28.13,0,0,0,1.35,9.8c.14.39.79.27.72-.16-.91-6.28-1.61-12-.25-18.36.09-.4-.55-.61-.69-.22a37.91,37.91,0,0,0-2,15.73c-2-4.71-2.09-9.58-1-14.53q.64-1.1,1.35-2.17a.3.3,0,0,0-.46-.39l-.37.39c.09-.33.18-.66.28-1,0,0-.06-.06-.08,0a15,15,0,0,0-1,2,22.82,22.82,0,0,0-4.7,15.42,21.8,21.8,0,0,1,4.15-18.49.23.23,0,0,0-.35-.29c-6,6.12-7,15.86-3.2,23.4a.53.53,0,0,0,1-.35,24,24,0,0,1,1.91-15.56,22.42,22.42,0,0,0,2.91,14.35.38.38,0,0,0,.34.19c.06.57.12,1.13.18,1.7a3.72,3.72,0,0,0-2.73-1.17C293.58,94.16,292.26,95.63,291.47,97.31Zm9.79,10c1.17-1.41-.73-3.09-2.2-2.28-3.38,1.86-6.25-1-6.13-4.45a7.22,7.22,0,0,1,.58-2.76c.63-1.39,1-1.7,2.57-1.59a2.41,2.41,0,0,1,2.39,1.33c.18,1.66.37,3.32.61,5,.18,1.21,2,1.73,2.49.44a37.93,37.93,0,0,0,3-13.93,36.28,36.28,0,0,0-1-9.54,28.08,28.08,0,0,0,4.52,4.23,25.54,25.54,0,0,0,9.55,4.51c5.69,1.37,13.23.84,18.54-2.45a27,27,0,0,0,6.23-2.17c.67-.33,1.33-.71,2-1.1a25,25,0,0,1,.63,2.76,35.33,35.33,0,0,1,.21,10.85c-.12.75-.27,1.51-.44,2.25a13.87,13.87,0,0,0-1.78,5,19.56,19.56,0,0,1-7.94,8.76c-6,3.36-14,4-20.7,3a20.47,20.47,0,0,1-9.32-3.74A17.82,17.82,0,0,1,301.26,107.33Zm10.72,12a48.21,48.21,0,0,0-.83,7.48c0,.24,0,.48,0,.71a1.41,1.41,0,0,0-.59-.12C305.42,127.42,309.86,122.35,312,119.33Zm-3,16.51a35.06,35.06,0,0,1,.5-5.87,9.44,9.44,0,0,0,1.28.11l.23,0c-.09,2.75,0,5.5.12,8.25l0,0a3,3,0,0,0-2,.27C309.09,137.72,308.95,136.77,308.95,135.84ZM303,148.19c-.8.45-1.61.86-2.44,1.25a46,46,0,0,1,5.1-5.33c.72-.64,1.46-1.24,2.21-1.84l-.24.47a7,7,0,0,0-.76,3.34C305.49,146.39,304.34,147.46,303,148.19Zm4.84,31.76-.69,0,.43-.08a20.37,20.37,0,0,1,3.92-.22A9.44,9.44,0,0,1,307.89,179.95Zm5.87-4a4.94,4.94,0,0,0-.7-.5s0-.07,0-.11c0-.26-.08-.51-.12-.76a2,2,0,0,0,.92-.3c.38-.24.06-.79-.35-.68l.11-.54,1.24-.12.64-.06A26.8,26.8,0,0,0,313.75,175.95Zm9.1-10.24q-1-5.67-2-11.32a76.53,76.53,0,0,0,4.38,10.5l-1.08.38Zm18.3,3.86-.08-.09a3.22,3.22,0,0,0-.08-.82l.1-.08C341.12,168.91,341.14,169.24,341.16,169.57Zm-2.35-2.73c.55-.2,1,0,1.27.74a.87.87,0,0,0-.44.23ZM337.16,165l-.57-.59,1.67-.47Zm3.33-1-.57.19.51-.49Zm.26,1.52,0,.21-.2-.11Zm-1.09-3.44.34-.24,0,.13Zm3.72-8.94A48.66,48.66,0,0,1,331,162.35a46.4,46.4,0,0,1-4.93,2.2c-.88-.29-1.36-1.7-1.79-2.63q-.9-1.93-1.68-3.92a73.79,73.79,0,0,1-2.68-8.17q-.9-4.81-1.81-9.63a37.06,37.06,0,0,1,3,2.84c2.36,2.35,4.73,4.67,7.21,6.89a.31.31,0,0,0,.46-.41c-1.44-2-2.94-3.95-4.48-5.87a25.77,25.77,0,0,1,6.4,2.39c.2.11.43-.12.35-.32a8.43,8.43,0,0,0-2.27-3.42,22.38,22.38,0,0,0,4.16-1.71,14.13,14.13,0,0,0,2.93-1.67c3.59,3.59,9.38,5.57,14.35,4.07a23.07,23.07,0,0,1-2,4.32A39.94,39.94,0,0,1,343.39,153.18Zm11.18-11.29c-1.91-.48-.8-2.67-.17-3.82a11.84,11.84,0,0,1,1.42,1,10.36,10.36,0,0,1,1.64,1.92A3.52,3.52,0,0,1,354.57,141.88ZM375,128.08a1.29,1.29,0,0,0-1.79,1.35c-1.49,1.29-2.68,2.62-4.68,3.37a13.91,13.91,0,0,1-7.28.53,29.31,29.31,0,0,1-14.58-7.18c-3.84-3.73-4.47-9-2.77-13.9,1.63-4.72,5.44-8,7.81-12.21,1,1.9,3.49,3.08,5.31,4a27.77,27.77,0,0,0,7.59,2.54c4.27.78,9.17.64,13.2-1.24-2.17,2.32-2.92,6.19-2.51,9.16a13.83,13.83,0,0,0,3.33,7A2.32,2.32,0,0,0,377,124a.42.42,0,0,0,.66.28c2.54-1.72,4.08,1.44,2.6,3.44S376.76,128.93,375,128.08Zm15.5-2.71c-1.21,5.63-2.58,11.19-4.32,16.69-.21-4-.43-8-.81-12A18.66,18.66,0,0,0,390.48,125.38Zm14.14-5a45.64,45.64,0,0,1-5.3,11.37,56.56,56.56,0,0,0,3.33-9c2.15-7.8,3.08-20.06-6.3-23.54-.08-.17-.16-.33-.26-.49l-.17-.27a13.9,13.9,0,0,1,7.8,6C406.66,109.18,406.17,115.24,404.62,120.36Z"/><path id="_Compound_Path_2" data-name="&lt;Compound Path&gt;" class="cls-2" d="M364.08,79.14l.23,0,.38.43c.41.43,1,0,1-.53,0,0,0-.09,0-.14a31.76,31.76,0,0,0,9.8-3.62c3.11-1.79,7.6-4.78,8.84-8.35,1.13-3.26-1.17-5.73-4.39-5.86a12.48,12.48,0,0,0-5.72,1.2l-.11,0a4.23,4.23,0,0,0-.4-1,5.7,5.7,0,0,0-7.62-1.9c-5.8,3-6.11,12.25-3.12,17.84C362.24,77.88,362.88,79.52,364.08,79.14Zm.09-11.94c.05-.3.12-.6.19-.9,1-.61,1.94-1.24,2.9-1.88l-3.1,2.86ZM364,68.63l2.89-2L364,69.19C364,69,364,68.82,364,68.63Zm5.16-1.87,0,.09L364.11,72c-.06-.47-.1-.95-.13-1.42Zm1.61-4.67a2.39,2.39,0,0,1,.33.39L368,64.71Q369.38,63.39,370.78,62.1Zm11,2.49a.86.86,0,0,0-.15.12l-.29.29.38-.51Zm-7.45,8.52a28.68,28.68,0,0,1-3,1.5l4.43-4.49-1.55,2A.66.66,0,0,0,374.37,73.11Zm-2.93-9.22c-.41.3-.81.62-1.19,1l-.69.51,1.91-1.72A1.52,1.52,0,0,1,371.45,63.89Zm-6.68,11.47-.07-.29,2-1.85Zm-.37-1.64c0-.22-.09-.44-.13-.66a.39.39,0,0,0,.16-.08l3.72-3.12Zm.94,2.79,6.1-6-3.78,4.71a.57.57,0,0,0,0,.71C366.87,76.16,366.12,76.35,365.35,76.51Zm4.23-1.18-.42.15.35-.36A.53.53,0,0,0,369.58,75.33Zm9.75-11.85a3.79,3.79,0,0,1,1.25.15l-1,1.07a.62.62,0,0,0-1.06-.52l-2.13,2.18,2.25-2.82ZM367,61.93a3.09,3.09,0,0,1,3-.31l-.52.32a.31.31,0,0,0-.41-.16A19.48,19.48,0,0,0,365,64.37,5.52,5.52,0,0,1,367,61.93Z"/><path id="_Compound_Path_3" data-name="&lt;Compound Path&gt;" class="cls-2" d="M381.24,75.35c-3.38,1.43-2.18,6.9-.84,9.52l-.22.16a1,1,0,0,0,.9,1.77,17.63,17.63,0,0,0,7.52-4.12c1.63-1.52,4.27-4.26,3.66-6.77-.56-2.29-3.11-2.33-4.85-1.37A8.77,8.77,0,0,0,385,76.6l0-.07A3.09,3.09,0,0,0,381.24,75.35Zm.85,7.8.84-.82-.77,1.21ZM387,78.49l-.54.59.28-.45a.51.51,0,0,0,.08-.38l.08-.1A1.59,1.59,0,0,0,387,78.49Zm-.51,3.3-.1.08.08-.09ZM383,78.59l-1,.71c.23-.49.45-1,.64-1.48h0A.89.89,0,0,1,383,78.59Zm6.15-2-.09.1a.64.64,0,0,0-.34,0h0l-.09,0,.31-.18Z"/></g><g id="_Group_2" data-name="&lt;Group&gt;"><path id="_Path_5" data-name="&lt;Path&gt;" class="cls-2" d="M203.54,98.52a3.15,3.15,0,0,0-2,.87c-.44.47-.72,1.61.16,1.81s1.35-.55,2.15-.54,1.08.54,1.65,1a1,1,0,0,0,1.63-.84C207,99.17,205,98.41,203.54,98.52Z"/><path id="_Path_6" data-name="&lt;Path&gt;" class="cls-2" d="M187.11,101.43a.54.54,0,0,0,.83.39,4,4,0,0,1,1.48-.63c.65-.07.93.3,1.5.5a1,1,0,0,0,1.27-1.16C191.45,98.33,186.72,98.94,187.11,101.43Z"/><path id="_Compound_Path_4" data-name="&lt;Compound Path&gt;" class="cls-2" d="M243.2,85.74c-1.93-5.25-5.57-10-11-11.87-3.88-1.38-8-1.25-11.26.9-2.26-.19-4.75.45-5.79,2.25-12-3.65-26.76,1.34-33.46,12-3.06,4.87-4.89,13.82-.62,18.64a25.83,25.83,0,0,0,.61,6.72A16,16,0,0,0,188,124a25.08,25.08,0,0,0-3.82.31c-6.22,1-12.84,4.36-16.84,9.54-2.17-5.35-8.08-9-13.75-9.24-.37,0-.73,0-1.1,0-.85-1.26-1.63-2.58-2.46-3.93.87-.33,1.73-.69,2.54-1.09,6.67-3.29,10.86-9.68,12.48-16.81a35.53,35.53,0,0,0,.43-12.25c-.23-1.83-.5-4-1-6.11a28.17,28.17,0,0,0,10.1-16.77,1.29,1.29,0,0,0-1.23-1.58,1.16,1.16,0,0,0-.68-.19c-3.57.19-6.59,1-10.21.24s-6.94-2.38-10.31-3.8a44.11,44.11,0,0,0-18.95-3.79c-5.95.21-12.41,1.55-17.4,5-2.9,2-8.23,7.84-6.25,11.89a15.19,15.19,0,0,0-3.52,4.27,20.6,20.6,0,0,0-2.9,7.64,22.06,22.06,0,0,0,4.48,17h0a8.22,8.22,0,0,0,2.87,7.75,5.87,5.87,0,0,0,5.32.94c2.38,4.64,8,7.69,12.79,8.87l.6.13a15,15,0,0,0-3.6,3.44,31.41,31.41,0,0,0-4.41,7.23,1.41,1.41,0,0,0,.37,1.66c.38.25.76.49,1.15.71-1.08,2.32.69,5.3,2.62,6.72l.19.13c-.23,1.71-.43,3.42-.56,5.15,0,0,0,.07,0,.11-.16,1.64-.28,3.28-.36,4.9-.17,3.34-.23,6.79-.12,10.26l-.28,0c-.63,0-.7.89-.2,1.15l.54.26a74.28,74.28,0,0,0,3.6,20.55l0,.06v0c-2.91-2.07-7.85-.81-10.74.6a1.23,1.23,0,0,0,.2,2.34,49.32,49.32,0,0,0,12.92.33,1.24,1.24,0,0,0,.11-2.45l-.64-.2a1.08,1.08,0,0,0,.69-1.26l-.06-.31L131,183c.14-.15.29-.29.45-.43a.13.13,0,0,0-.07-.21c.89-1.57,1.72-3.18,2.66-4.71.18-.29.38-.64.59-1l.12,0a.67.67,0,0,0,.39-.85c.35-.62.74-1.28,1.17-1.92a.46.46,0,0,0,.21-.31c1.4-2,3.16-3.78,5.2-3.14,2.37.75,4.91,3.51,6.73,5.15a63.46,63.46,0,0,1,5.37,5.45l0,0a1,1,0,0,0-.43,1.24,2.24,2.24,0,0,0-.29,3.4c1.14,1.21,3.23,1.14,4.75,1.2a33.82,33.82,0,0,0,9-.91,1.25,1.25,0,0,0,.1-2.29A67,67,0,0,0,158,181a29.67,29.67,0,0,0,.07-5.13c0-.5,0-1,0-1.5a1.23,1.23,0,0,0,0-.67c0-1.82-.08-3.64-.17-5.46,3.68,3.25,7.39,6.47,11,9.75a1.93,1.93,0,0,0,2.69-.23q8.91-9.6,17.74-19.28-.47,2.06-.86,4.13c-.42,2.26-1.49,5.38-.65,7.62a1.49,1.49,0,0,0,.57,2.16c.93.42,1.88.79,2.86,1.12-1.07,2.54-.38,6,.47,8.69-2.55-.28-5.36,1.52-6.81,3.4a1,1,0,0,0,.83,1.6q4.73-.58,9.45-1.24a.87.87,0,0,0,.42-1.58l.18-.38a.61.61,0,0,0-.26-.82,34.76,34.76,0,0,1,.64-8.36,59.05,59.05,0,0,0,13,1,52.07,52.07,0,0,0,10-1.24,53,53,0,0,0,.62,6.83,8.7,8.7,0,0,0-6.59,2.47,1,1,0,0,0,.6,1.63,40.22,40.22,0,0,0,11.07-.49c1-.19,1.33-1.93.09-2l-.48,0a2.48,2.48,0,0,0,0-.43c-.18-3.08-.35-6.16-.54-9.24a54.25,54.25,0,0,0,6.31-2.48,1.91,1.91,0,0,0,.92-2.82c-1.06-2-2-4-3-6,.32-.24.33-.84-.16-.88l-.25,0a102.41,102.41,0,0,1-4.5-12.23c-1.9-6.37-2.87-12.93-4.55-19.34l-.3-2.88a6.62,6.62,0,0,0-.21-2.61,3.19,3.19,0,0,0-1.46-1.86c2.44-2,4.46-4.71,4.52-7.6a5.38,5.38,0,0,0,3.89-2.18,1.29,1.29,0,0,0,.63-.23,11,11,0,0,0,1.77-1.5c2.88,5,6,9.77,9,14.64a1.35,1.35,0,0,0,2.21,0,.49.49,0,0,0,.39-.34c.15-.41.29-.82.44-1.24C245.1,112.4,247.63,97.79,243.2,85.74ZM218,183.64h-.91a5.84,5.84,0,0,1,.92-.24A.59.59,0,0,0,218,183.64ZM233.51,77.16c4.81,2.8,7.23,8.39,8.27,13.63a45.64,45.64,0,0,1,.67,12.53,56.56,56.56,0,0,0-1.28-9.49c-1.77-7.9-6.71-19.16-16.62-17.81-.15-.11-.3-.22-.46-.32l-.28-.16A13.9,13.9,0,0,1,233.51,77.16ZM239,118.38c-.24-7.1-.45-14.18-2.22-21.15A44,44,0,0,0,225.8,77a.23.23,0,0,0-.27-.05l-.25-.27c10.16.89,13.88,11.89,15.29,20.64a54.06,54.06,0,0,1,.18,15.7A56.38,56.38,0,0,1,239,118.38ZM219.54,91.16c-.14-.17-1.35-1.45-1.32-1.5.4-.74,1.76.87,1.91,1.07a22.72,22.72,0,0,1,2.66,4.59,23.56,23.56,0,0,1,1.83,8.51,5,5,0,0,0-.68-.46A19.74,19.74,0,0,0,219.54,91.16Zm12.11,10.71c1.58,5.53,3,11.09,4,16.76-2.07-3.45-4.16-6.89-6.37-10.23A18.64,18.64,0,0,0,231.65,101.86Zm5,17.31a116.8,116.8,0,0,0-4.72-19.54,21.26,21.26,0,0,0-.22-5,20.87,20.87,0,0,0-4.71-9.9,6.25,6.25,0,0,0,.41-4.1A71.52,71.52,0,0,1,236.63,119.17Zm-17.46-42a.53.53,0,0,0,.6,0L220,77a4.15,4.15,0,0,1,2.73.71,4.89,4.89,0,0,1,2.12,3.5,4.07,4.07,0,0,1-.06,1.27,25.38,25.38,0,0,0-4.16-3.1,24.19,24.19,0,0,0-3.17-1.58A10.22,10.22,0,0,1,219.17,77.21ZM181.49,97.67a18.52,18.52,0,0,1,4.84-10.13,28.66,28.66,0,0,1,22.43-8.88c7.43.48,14.59,4.46,18.16,11.13a17.72,17.72,0,0,1,1.88,11,16,16,0,0,1-2.28,6,5.17,5.17,0,0,0-.2-.65,5.44,5.44,0,0,0-.55-1c3-8.65,0-19.25-8.56-23.49-.14-.07-.29.15-.15.24,6.64,4.69,10.29,11.95,8.61,19.72a23.35,23.35,0,0,0-2.41-8.19c-.73-1.44-3.16-6.61-5.52-6-2.76.76.29,3.9,1,4.81a18.43,18.43,0,0,1,3.81,9.76c-1.11-.45-2.36-.48-3.51-1a11.2,11.2,0,0,1-4.27-3.19c-2.33-2.84-2.12-5.92-2.32-9.34a.31.31,0,0,0-.49-.24.33.33,0,0,0-.42,0c-3.72,3-7.3,5.61-11.94,7a23.86,23.86,0,0,1-6.94.94c-1.54,0-3.22-.56-4.81-.73,5.21-4.36,10.44-8.81,16-12.59a.6.6,0,0,0-.39-1.09A25,25,0,0,0,182.8,97.9l-.2.15a.65.65,0,0,0-.15.9,22.61,22.61,0,0,0-.76,3.38A15.09,15.09,0,0,1,181.49,97.67Zm4.64-2.31-.35.06-.19.05A25.49,25.49,0,0,1,201.35,83.4C196.53,87.63,191.27,91.48,186.13,95.36ZM197,143.82c.77-1.62,2.64-1.73,4-1,.14.08.48.33.85.55a.51.51,0,0,0,.33.23h.17l.12,0a5,5,0,0,1,.43,1.78l0,0a1.27,1.27,0,0,0-.44.73c-1,.4-1.77,1.27-2.95,1.27A2.64,2.64,0,0,1,197,143.82Zm7.12-10,1.07.14-.78.21a.35.35,0,0,0-.18.11C204.24,134.1,204.2,133.94,204.16,133.79Zm-.86-2.29,0-.08,1.41.26a11.39,11.39,0,0,0-1.13.32C203.47,131.83,203.39,131.67,203.31,131.5Zm-.13,12.08,0-.06h0l-.07.69c-.06-.17-.13-.33-.2-.49A.39.39,0,0,0,203.18,143.58Zm.52,1.32q.09-.85.17-1.71l.15-.09.46,1.16Zm.45-5.87a10.87,10.87,0,0,0,.24-4.11l.4.39c.31.31.87-.19.58-.52,0,0,2.18-.61,2.15-.61l.09,0c-.23.47-.48.94-.74,1.4A14.94,14.94,0,0,1,204.14,139Zm3.31-5.67-3.55-.47,0-.13a9.93,9.93,0,0,1,4.56-.39q-.3.7-.62,1.38A.41.41,0,0,0,207.45,133.37Zm1.3-1.79-5.9-1.08,1.49-.28a18.74,18.74,0,0,0,5.15-.52C209.25,130.32,209,131,208.75,131.58Zm1.7-4.2c-.16.36-.31.72-.45,1.08q-3.13.42-6.22,1a17.78,17.78,0,0,1-2-.24q-.22-.26-.46-.51c.68-.12,1.37-.24,2-.38a14.18,14.18,0,0,0,7.37-1.69Zm-9.68.79-.18-.15.53.1ZM205,143.83c0-.44-.1-.87-.19-1.3l.07-.05a6.12,6.12,0,0,0,1.67-1.64,18.12,18.12,0,0,0,2.35-3,36.56,36.56,0,0,0,3-6.18c.35-.86.68-1.73,1-2.58.25-.59,1.19-3.43,1.79-3.6,1.28-.34-.19,4.84-.41,5.49a25.9,25.9,0,0,1-9.31,12.9Zm6.21-18.25a51,51,0,0,1-7.37,2.06,14.32,14.32,0,0,1-4-.43,31.12,31.12,0,0,0,11.44-1.83ZM138.16,142a5,5,0,0,0,.09.53l-.19,0Zm1.32,1c-.19-.65-.37-1.3-.57-1.95a1.69,1.69,0,0,0,.07-.42,2.9,2.9,0,0,1,2-1.07,1.94,1.94,0,0,1,1.74,1.89,1.8,1.8,0,0,1-1.36,1.77A4.38,4.38,0,0,1,139.47,143Zm-1.66-6.13a14.79,14.79,0,0,0-.38,2l-.38-.1a.39.39,0,0,0-.55-.14,42.82,42.82,0,0,1-7.25-2.07c1-4.67,2.23-9.29,3.55-13.94h0c-.88,4-.37,8.2,2.83,11.12.17.15.41-.08.29-.26-2.14-3.18-3.36-7.13-2.08-10.76l.26,0c-.42,2.76,2.94,5.55,5.55,5.3a5.41,5.41,0,0,0,4.61-5.81l.7-.14a16.65,16.65,0,0,1-.63,5.31A17,17,0,0,0,137.81,136.88Zm3.69-14.2a2.7,2.7,0,0,1-2.2,2.88c-1.77.24-2.63-1.2-3-2.65A39.43,39.43,0,0,0,141.51,122.68Zm4.61-.79q.93-.22,1.83-.49c.1.36.2.72.33,1.08.16.92.4,1.84.62,2.74a15.35,15.35,0,0,0-3.39,1.49A11,11,0,0,0,146.12,121.89ZM108.6,101.39a19.44,19.44,0,0,1-2.92-14.08,20.72,20.72,0,0,1,2.72-7c1.08-1.75,3.14-3.3,3.63-5.31a.37.37,0,0,0-.39-.42h0c.79-1.83,1.18-3.88,2.45-5.56a16.88,16.88,0,0,1,7.64-5.32,36.31,36.31,0,0,1,19-1.57,49.73,49.73,0,0,1,10.53,3.47c-1.13-.11-2.25-.22-3.37-.34-4.51-.51-9-1.09-13.55-1.49-6.68-.58-14,0-18.29,5.82-.16.21.15.48.32.27,5.34-6.5,14.22-5.58,21.67-4.65,6,.75,12.11,1.8,18.19,2.42.88.34,1.77.66,2.67,1a33.3,33.3,0,0,0,4.54,1.15,32.27,32.27,0,0,1-5.76.07c-4.34-.3-8.61-1.25-12.92-1.81-8.07-1.05-16.94-1-24.73,1.61a.15.15,0,0,0,.06.28,113,113,0,0,1,13.74-1.55,76.1,76.1,0,0,1,14.71,1.33,68,68,0,0,0,12.61,1.47,33.7,33.7,0,0,0,4.8-.36l-.26.22a18.92,18.92,0,0,1-5.35,2.71,93.51,93.51,0,0,1-11.08,2.85c-7.94,1.69-16.37,2.21-23.61-2.09-.21-.12-.44.23-.23.36,7.36,4.81,16.22,4.37,24.51,2.71,5.78-1.16,15.21-2.33,19.32-7.63l.15-.06c.29-.05.57-.12.85-.19a33.53,33.53,0,0,1-5.87,6.69,34.66,34.66,0,0,1-8.8,5.31,35.32,35.32,0,0,1-23.15,1.16c-.26-.07-.32.33-.07.41a35.91,35.91,0,0,0,23.92-.86,38.49,38.49,0,0,0,13.24-9,27.5,27.5,0,0,1-11.2,11.95,28.62,28.62,0,0,1-25.8.77c-.12-.06-.2.12-.09.19a28.8,28.8,0,0,0,13,4.12,24.92,24.92,0,0,1-10.41,0,26,26,0,0,1-9.48-4.3c-2.8-2-4.6-4.79-7.05-7.12-.14-.13-.32,0-.28.19a9.16,9.16,0,0,0,.62,1.64c-.08,3.9.49,7.76.11,11.7a68,68,0,0,1-1.52,9.34c-.58-1.82-1.18-3.63-1.76-5.43a.29.29,0,0,0-.18-.19,38.1,38.1,0,0,1-.2-8.26,28.13,28.13,0,0,0,1.35,9.8c.14.39.79.27.72-.16-.91-6.28-1.61-12-.25-18.36.09-.4-.56-.61-.69-.22a37.91,37.91,0,0,0-2,15.73c-2-4.71-2.09-9.58-1-14.53q.64-1.1,1.35-2.17a.3.3,0,0,0-.46-.39l-.37.39c.09-.33.18-.66.28-1,0,0-.06-.06-.08,0a15,15,0,0,0-1,2,22.82,22.82,0,0,0-4.7,15.42A21.8,21.8,0,0,1,112.58,76a.23.23,0,0,0-.35-.29c-6,6.12-7,15.86-3.2,23.4a.53.53,0,0,0,1-.35,24,24,0,0,1,1.91-15.56,22.42,22.42,0,0,0,2.91,14.35.38.38,0,0,0,.34.19c.06.57.12,1.13.18,1.7a3.72,3.72,0,0,0-2.73-1.17C110.7,98.25,109.39,99.72,108.6,101.39Zm13.56,14.13a17.82,17.82,0,0,1-3.77-4.1c1.17-1.41-.73-3.09-2.2-2.28-3.38,1.86-6.25-1-6.13-4.45a7.22,7.22,0,0,1,.58-2.76c.63-1.39,1-1.7,2.57-1.59a2.41,2.41,0,0,1,2.39,1.33c.18,1.66.37,3.32.61,5,.18,1.21,2,1.73,2.49.44a37.93,37.93,0,0,0,3-13.93,36.28,36.28,0,0,0-1-9.54,28.08,28.08,0,0,0,4.52,4.23,25.54,25.54,0,0,0,9.55,4.51c5.69,1.37,13.23.84,18.54-2.45a27,27,0,0,0,6.23-2.17c.67-.33,1.33-.71,2-1.1a25,25,0,0,1,.63,2.76,35.33,35.33,0,0,1,.21,10.85c-1,6.49-4.31,12.74-10.16,16s-14,4-20.7,3A20.47,20.47,0,0,1,122.15,115.52Zm5.5,11.61c.78-1,1.82-2,2.67-3a68.44,68.44,0,0,0-3,9.5l-.08,0c-.92-.39-1.83-.78-2.76-1.13A27.56,27.56,0,0,1,127.65,127.14Zm-3.26,8.8.6.31v.06c.5,2,2.35,3.07,4.23,3.68a73.7,73.7,0,0,0,7.35,1.85l0,.4c-2.22-.41-4.47-.65-6.66-1.18a9.33,9.33,0,0,1-4-1.81A4.94,4.94,0,0,1,124.4,135.94Zm13.67,9.47a26.07,26.07,0,0,0,5.15,8.86h-.05a14.68,14.68,0,0,1-4.71-1.16.17.17,0,0,0-.14.3,14.36,14.36,0,0,0,3.15,1q-1.92.16-3.85.26a.4.4,0,0,0-.35.21l-.67-.14a30,30,0,0,1-3.33-1c-.2-.07-2.67-1.07-2.16-1.3.12-.06.06-.25-.07-.2l-.72.29a.13.13,0,0,0,0,.23,27.9,27.9,0,0,0,7,2.6.48.48,0,0,0,.43.27l1,0a28.69,28.69,0,0,0,6.15.41l.81.83c-1,.05-2.06.09-3.09.09a116.8,116.8,0,0,1-13.11-1.17.4.4,0,0,0-.14.8,52.78,52.78,0,0,0,17.37,1.29l1.38,1.33c-.64.28-1.28.56-1.93.81a56.41,56.41,0,0,1-19-.77q-.11-3.85.09-7.7c.06-1.1.14-2.2.24-3.29a.78.78,0,0,0,.05-.12c.2-.78.39-1.55.55-2.33a.58.58,0,0,0-.08-.44l.34-2A41.07,41.07,0,0,0,138.07,145.4Zm19.63,38.34a.51.51,0,0,0-.27.72l-1.09-.06-1.08-.34a1.83,1.83,0,0,1,.46-.77.33.33,0,0,0,.19,0,.93.93,0,0,0,1.1.1l1.38.29A2.29,2.29,0,0,0,157.7,183.74Zm-4.39-15.11-.42.21.87-.95a1,1,0,0,0,.25-.72l.77-.43,0,0c0,.11,0,.21,0,.32,0,1,.08,2,.11,3l-.21,0C154.95,169.21,154.18,168.19,153.31,168.63ZM147.17,171l1.24-.57-.84.9Zm-11.3-.43c-.7-.09-1.4-.21-2.08-.35q1.26-.07,2.52-.2C136.16,170.21,136,170.39,135.87,170.58Zm-2.93,4.51-1.4-.19,1.77-.38Zm-3.08-6q-1.07-.4-2.12-.89v-.09l0-.14c.78.28,1.56.53,2.35.75A.78.78,0,0,0,129.87,169.09Zm1.66,1.69-3.29.05-.12,0q-.12-.75-.22-1.5A24.42,24.42,0,0,0,131.53,170.78ZM128.32,172l4.87,1.22-4.47.94Q128.51,173.12,128.32,172Zm.74,3.82,2.73.39-2.46.87Zm5.61-3.48-1.9-.46,2.23-.05Zm-7.42-9.9a7.54,7.54,0,0,0,1.7,1.2c-.55-.13-1.1-.27-1.65-.43C127.28,163,127.26,162.73,127.25,162.47Zm14.45,4.66q-2.44.46-4.92.78l-1.15-.09A55.17,55.17,0,0,0,141.69,167.12Zm10.49-2.81.91-.36h0Zm-4.65-.52c-1.39.34-2.75.61-3.87.81a36.62,36.62,0,0,1-5.46.3c-3.44-.18-8.14-.89-10.42-2.89l.07,0c.05,0,0-.11,0-.1l-.16,0a4.5,4.5,0,0,1-.49-.54v-.25c6,3.31,12.67,2.37,18.93,0l1-.14c.28,0,1.15-.25,2.2-.49l2.14,2Q149.53,163.21,147.54,163.8Zm-19.13-3.19a56.82,56.82,0,0,0,11.85,1l1.23-.05C137.07,162.61,132.57,162.65,128.41,160.61Zm15.95-5.05c-.69,0-1.39,0-2.09,0s-1.16-.07-1.73-.13q1.7-.14,3.4-.33Zm-13.7,10.39q-1.58-.05-3.16-.2c0-.26,0-.52-.07-.78A30.19,30.19,0,0,0,130.66,165.95Zm-.67,14.2-.38-1.71,1.65-.59C130.82,178.6,130.39,179.37,130,180.15Zm21.4-5.51,1.69-1.13-.31,1.42a1.11,1.11,0,0,0,1.45,1.22h0l.18.78a.86.86,0,0,0,.54.6q0,.3,0,.6C153.8,176.92,152.61,175.76,151.39,174.63Zm9.42,9.74-.63-.26.95.24ZM170,173.85q-8.58-7.54-17.12-15.13c-4-3.53-8.62-7.48-10.79-12.53a4.91,4.91,0,0,0,.9-.31,4.77,4.77,0,0,0,2.67-5.18,4.52,4.52,0,0,0-4.16-3.66,12.76,12.76,0,0,1,9.58-8.75c6.4-1.13,11.61,3.23,14.36,8.63-.83,1.77,1.32,3.2,2.83,2.32l1.3-.76a1.21,1.21,0,0,0,.61-1.45c3.93-4.55,8.5-7.87,14.77-8.82,5.55-.84,15.64.57,15.58,8.11a9.2,9.2,0,0,1-.63,3.19,5.19,5.19,0,0,0-2.15.16.83.83,0,0,0-1.4-.31,9.13,9.13,0,0,0-1.7,2.5A5.07,5.07,0,0,0,194,143a5.58,5.58,0,0,0-.24.86c-.35,1-.66,1.91-1,2.78-.44,1.2-.85,2.41-1.24,3.63l-5.53,6C180.7,162.15,175.32,168,170,173.85Zm55.92-8-.41.08q-5.27-.05-10.53-.33a43,43,0,0,0,9.83-2.18Q225.34,164.64,225.91,165.85Zm-35.54,4.06a6.33,6.33,0,0,0,.3-.81,29.66,29.66,0,0,0,3.85,1.77C193.15,170.57,191.77,170.25,190.37,169.91Zm17.4,1.9a36.91,36.91,0,0,1-10-1,39.6,39.6,0,0,1-5.31-1.71c-.55-.22-1.09-.46-1.63-.71,0-.12,0-.24.07-.37a48.57,48.57,0,0,0,25.76,2.47A37.33,37.33,0,0,1,207.77,171.81Zm-13.38-3.74a103.62,103.62,0,0,0,30.06-.82l-.24.13A46.76,46.76,0,0,1,194.4,168.07Zm25.26-1.23a104.19,104.19,0,0,1-28.55-.33c.07-.76.13-1.53.24-2.24,3.08.47,6.19.9,9.31,1.21Q210.13,166.53,219.66,166.84Zm-27.18,17a1.43,1.43,0,0,0,1.35.17v.17l-2.9,0C191.43,184,191.95,183.95,192.48,183.85Zm1.32-3.58a19.27,19.27,0,0,1-.56-3.06c-.1-1-.07-2.09-.18-3.13q.92.26,1.86.48A19.61,19.61,0,0,0,193.8,180.27Zm28-2.6.09,2,.05,1.22q.19,1.34-.07.54c-.61-1.08-.55-3.09-.74-4.32-.15-1-.31-1.94-.52-2.89l1-.27Zm-1.49-7.27a37.44,37.44,0,0,0,5-2.32l1.46-.58.3.62A57.39,57.39,0,0,1,220.27,170.41Zm3.4-9.66c-6.1-.56-12.21-1.11-18.32-1.6-.41,0-.53.59-.11.63,6.27.7,12.55,1.33,18.83,1.95l.33.77c-7.08,2.47-14.51,2.72-21.95,2.11q-5.49-.57-10.95-1.38.66-3.92,1.62-7.78c.13-.53.27-1,.41-1.57,1.08-1.17,2.3-2.42,3.52-3.75A6.83,6.83,0,0,0,204.2,149a2.16,2.16,0,0,0,.6-.75,17.64,17.64,0,0,0,1.45-1.67,27.82,27.82,0,0,0,8.16-8.72c.42-.68.8-1.39,1.15-2.11-.75,3.67-2,7.76-3.55,7.36-.17,0-.26.24-.09.29,1.77.61,2.25-1.5,2.75-2.83a45,45,0,0,0,2.1-7.64l.06-.16.05.36a56.32,56.32,0,0,1-1.2,10.13c-.09.35.45.43.55.1a33.79,33.79,0,0,0,1.24-6.07A75.46,75.46,0,0,0,220,150,94.26,94.26,0,0,0,223.67,160.76Zm0-52c-.35,2.39-2.51,2.65-4.48,2.74a1.29,1.29,0,0,0-.95,2c-.71,1.84-1.13,3.57-2.54,5.17a13.91,13.91,0,0,1-6.17,3.89,29.31,29.31,0,0,1-16.24.52c-5.15-1.48-8.16-5.81-9-11-.78-4.93,1-9.64,1.15-14.45,1.76,1.21,4.52,1.08,6.57,1A27.77,27.77,0,0,0,200,97.45c4.14-1.32,8.39-3.75,11.06-7.3-.82,3.07.33,6.83,2.09,9.26a13.83,13.83,0,0,0,6.22,4.59,2.32,2.32,0,0,0-.26,3,.42.42,0,0,0,.72-.06C221.24,104.27,224.08,106.34,223.72,108.8Zm13.85,12.94-.31-.51a71.77,71.77,0,0,0-9.7-41.43c8.91,11,10.84,26.52,10.62,40.54C238,120.81,237.78,121.28,237.57,121.74Z"/><path id="_Path_7" data-name="&lt;Path&gt;" class="cls-2" d="M133.92,100.58c.73-.23,1-1.39,1.54-1.9.75-.69,2.3-1,3-.05a1.33,1.33,0,1,0,1.67-2,4.63,4.63,0,0,0-5.79.28,3.65,3.65,0,0,0-1.17,2.51C133.19,99.77,133.35,100.77,133.92,100.58Z"/><path id="_Path_8" data-name="&lt;Path&gt;" class="cls-2" d="M149.19,97.69c.68-.53.94-1.34,1.83-1.65a2,2,0,0,1,2.37.81c1,1.14,2.86,0,2-1.36a4.1,4.1,0,0,0-4.72-1.37c-1.16.48-2.65,2.19-1.9,3.49A.31.31,0,0,0,149.19,97.69Z"/><path id="_Compound_Path_5" data-name="&lt;Compound Path&gt;" class="cls-2" d="M177.49,66.41a.94.94,0,0,0,.25.64,23.45,23.45,0,0,0,1.3,2.69l.55,1a1.09,1.09,0,0,0,.49.81c.87,1.35,2,2.66,3.45,2.85a.33.33,0,0,0,.37-.34c0-.07,0-.14,0-.21a7.12,7.12,0,0,0,1-.55.93.93,0,0,0,.27-.29,67.32,67.32,0,0,0,10.52-8.6c2.85-2.87,7.37-7,6.22-11.57-.85-3.35-4.57-5.05-7.78-4.41a9.93,9.93,0,0,0-5.5,3.32c.15-2.86-.24-5.72-1.73-7.84-2.76-3.92-6.95-.69-8.49,2.48a26.45,26.45,0,0,0-2,16.12A23.86,23.86,0,0,0,177.49,66.41Zm2.41-16.06.61-.47-.67.68Zm4.1-3.92.62-.61.24.22a4,4,0,0,1,.77,2.24l-6.06,3.6q2.34-2.46,4.67-4.93A.32.32,0,0,0,184,46.44Zm-5.16,9.33L182.66,53l-3.89,4.48C178.77,56.91,178.79,56.34,178.84,55.77Zm.16-1.45h0c.06-.44.14-.87.22-1.31l3.47-2Zm-.18,4.9L181.94,57l-3,3.5C178.89,60.06,178.85,59.64,178.82,59.22Zm.53,3.75L181,61.49l-1.55,2C179.44,63.32,179.39,63.15,179.35,63Zm.89,3,2.28-2.36-2.08,2.88Zm1.82-10.7L185.72,51c0,.34,0,.64,0,.89s0,.51,0,.76Zm3.65-5.66a.44.44,0,0,0-.21.08l-1,.72,1.18-1.08C185.71,49.47,185.71,49.56,185.72,49.65Zm-3.3,21-.12-.21,3.58-4-1.2,1.73a1.2,1.2,0,0,0-.2.48l-1.18,1.17a.9.9,0,0,0-.16,1.17l-.35.23C182.66,71,182.54,70.82,182.41,70.61Zm11.75-19.52a4.32,4.32,0,0,1,4.77,1.54,3.24,3.24,0,0,1,.27,2.68,1.31,1.31,0,0,0-.3-.15,3.34,3.34,0,0,0,0-1,1.11,1.11,0,0,0-.37-1l-.16-.23a1.58,1.58,0,0,0-1.56-.65,1,1,0,0,0-1.22.21,1.05,1.05,0,0,0-1.82-.53l-1.42,1.57.15-.21a1,1,0,0,0-.15-1.42A6.8,6.8,0,0,1,194.17,51.09ZM181.3,46.9c.73-1.23,1.85-2.1,3.09-1.25l-4.14,3.69c.06-.17.11-.33.18-.5A13.21,13.21,0,0,1,181.3,46.9Z"/><path id="_Compound_Path_6" data-name="&lt;Compound Path&gt;" class="cls-2" d="M156.8,56.94a.8.8,0,0,0,.94.55c.21.11.43.21.65.3-.16.75.93,1.44,1.41.7l.16-.24a5.57,5.57,0,0,0,3.21-.29.26.26,0,0,0,0-.48c-.33-.17-.67-.33-1-.47,1.82-2.09,3.23-5.56,4.12-8.13.6-1.73.66-3.88-1-5a4.11,4.11,0,0,0-4.82.51,5.45,5.45,0,0,0-1.71,3,3.92,3.92,0,0,0-5.31,3.1C153,53,154.57,55.44,156.8,56.94Zm7.2-9.77,0,0h0l.08.09Zm-4.7,8.6-.14-.07.48-.67Zm-.36-4.26-.13.17.08-.21Zm-2.29,2.21c-.09-.11-.19-.22-.27-.34l-.06-.08.94-1Zm5.9-8.06.56.56a.59.59,0,0,0-.24.19l-2.17,2.81a5.33,5.33,0,0,1,.6-2.39Zm-4.86,4.45-.77.91c.09-.24.18-.49.25-.73s-.26-.35-.4-.19a11.63,11.63,0,0,0-1.1,1.62c0-.07,0-.13,0-.2Q155.49,49.26,157.68,50.11Z"/></g></g></g></svg>